<?xml version="1.0" standalone="no"?>
<!DOCTYPE svg PUBLIC "-//W3C//DTD SVG 1.1//EN" "http://www.w3.org/Graphics/SVG/1.1/DTD/svg11.dtd" >
<svg xmlns="http://www.w3.org/2000/svg" xmlns:xlink="http://www.w3.org/1999/xlink" version="1.1">
<metadata>
Created by FontForge 20170731 at Thu Aug 24 15:08:44 2006
 By Aleksey,,,
Copr. H.A. Simon, 1996. Published by FontShop International FontFont release 18
</metadata>
<defs>
<font id="Market-Regular" horiz-adv-x="510" >
  <font-face 
    font-family="Market-Regular"
    font-weight="500"
    font-stretch="normal"
    units-per-em="1000"
    panose-1="2 0 6 6 4 0 0 2 0 3"
    ascent="800"
    descent="-200"
    x-height="448"
    cap-height="638"
    bbox="-170 -438 1053 918"
    underline-thickness="64"
    underline-position="-256"
    unicode-range="U+0020-FB02"
  />
<missing-glyph horiz-adv-x="500" 
 />
    <glyph glyph-name=".notdef" horiz-adv-x="500" 
 />
    <glyph glyph-name=".null" horiz-adv-x="0" 
 />
    <glyph glyph-name="nonmarkingreturn" horiz-adv-x="246" 
 />
    <glyph glyph-name="space" unicode=" " horiz-adv-x="246" 
 />
    <glyph glyph-name="exclam" unicode="!" horiz-adv-x="320" 
d="M344 626q-6 2 -9 7t-13 7q-7 2 -11.5 5.5t-10.5 3.5q-11 0 -18.5 -8t-12.5 -20t-7.5 -26t-4.5 -26q-6 -37 -14 -70.5t-17 -66t-18 -66t-18 -69.5q-3 -13 -4.5 -21t-6.5 -22q-2 -6 -2.5 -9.5t-0.5 -8.5t3.5 -9t8.5 -8t9.5 -10t6.5 -16q1 -4 5.5 -8t15.5 -4q8 0 13 12
q17 38 30 76.5t24.5 77.5t22.5 79t24 81q7 22 19 44t12 50q0 7 -7.5 14.5t-18.5 10.5zM201 82q-10 1 -17.5 4t-14.5 7t-15 7t-18 3q-14 0 -16 -9.5t-5 -14.5q-5 -9 -7 -14.5t-2 -13.5q0 -7 2.5 -17.5t7 -20.5t10 -17t11.5 -7q18 0 26 0.5t13 0.5q12 0 19.5 12.5t12.5 26.5
t6 22.5t1 15.5q0 5 -3 9.5t-11 5.5z" />
    <glyph glyph-name="quotedbl" unicode="&#x22;" horiz-adv-x="350" 
d="M203 576l-35 -141q-2 -9 -5 -13t-3 -13q0 -6 9 -15t14 -9q8 0 16.5 -3.5t16.5 -3.5q6 0 16.5 6t12.5 14l32 137q8 35 16.5 62.5t8.5 38.5q0 9 -4.5 17.5t-23.5 11.5q-13 2 -18.5 8t-13.5 6q-14 0 -19 -5t-6 -15q-2 -18 -5 -37.5t-9 -45.5zM351 557l-24 -96
q-1 -5 -3.5 -14.5t-4.5 -19t-4 -17t-2 -8.5q0 -4 2 -8q8 -16 21 -20q8 -3 14 -4.5t20 -1.5q3 0 11 5t10 12l36 141q1 4 5.5 16.5t9 28.5t8 31.5t3.5 24.5q0 11 -6.5 16t-16.5 17q-7 8 -17 9.5t-19 1.5q-14 0 -19 -4.5t-5 -13.5q0 -2 -1.5 -11.5t-4 -23t-6 -29.5t-7.5 -32z
" />
    <glyph glyph-name="numbersign" unicode="#" horiz-adv-x="650" 
d="M496 252q-9 0 -9 6q0 4 5 16q12 32 26 64q5 11 8.5 13t9.5 2q7 0 18.5 0.5t24.5 0.5t25.5 0.5t21.5 0.5h33q2 0 7.5 3.5t10.5 16.5q1 4 4 6t5.5 4t4.5 5t2 8t-2.5 13t-4.5 13q-1 3 -9.5 3.5t-28.5 0.5q-10 0 -23 -0.5t-25.5 -1.5t-22.5 -1.5t-13 -0.5q-9 0 -9 5q0 4 5 17
q1 4 6 15.5t11.5 26t13.5 28.5t12 25q4 8 13.5 23t19.5 29q3 4 4 7.5t1 14.5q0 6 -6.5 11t-12.5 9q-5 4 -16.5 7.5t-21.5 3.5q-22 0 -23 -9q-2 -14 -11 -27.5t-17 -34.5l-53 -133q-5 -14 -9 -17.5t-15 -3.5q-3 0 -14 -0.5t-23 -1t-22.5 -1t-12.5 -0.5q-3 0 -6 1.5t-3 4.5
q0 4 5 16q14 32 26.5 61t24.5 54q4 8 10 16t16 22q3 4 4 7.5t1 14.5q0 6 -6 15.5t-18 9.5q-8 0 -14 3t-11 3q-4 0 -13 -1.5t-17 -9.5q-5 -5 -12.5 -21.5t-15.5 -38.5l-54 -137q-5 -13 -10 -17.5t-19 -4.5q-25 0 -38 0.5t-22 1t-19 1t-28 0.5q-8 0 -17 -5.5t-11 -19.5
q-1 -8 -6 -19t-5 -16q0 -10 7 -13t34 -3q10 0 17 0.5t15.5 1t20.5 1t32 0.5q9 0 9 -6q0 -3 -1.5 -6.5t-3.5 -9.5l-26 -62q-5 -10 -9.5 -15.5t-19.5 -5.5h-30h-31t-27 -0.5t-15 -0.5q-8 -1 -12.5 -3t-11.5 -11q-5 -7 -6 -10.5t-1 -6.5t1.5 -5t1.5 -5q0 -2 -2 -6q-2 -3 -2 -7
v-6q0 -15 15 -15q8 0 16.5 1t20 2t27 2t37.5 1q9 0 9 -6q0 -4 -5 -16l-21 -53q-14 -34 -22 -50.5t-12 -26.5q-8 -20 -8 -33q0 -7 4 -14t16 -7q11 0 14 -2.5t18 -2.5q8 0 15.5 16t23.5 50q15 32 28 64t27 65q5 11 9 13t11 2q2 0 13 0.5t23.5 1.5t23.5 1.5t13 0.5q9 0 9 -6
q0 -4 -5 -16l-38 -97q-2 -7 -7.5 -14.5t-10.5 -21.5q-3 -8 -5.5 -16.5t-2.5 -16.5q0 -7 6 -10.5t14 -10.5q4 -3 14 -4t18 -1t16.5 17t22.5 49q18 42 31.5 72t26.5 65q5 12 9 15t12 3q6 0 22 0.5t27 0.5q10 0 33.5 -1.5t50.5 -1.5q6 0 11.5 5t6.5 13q1 9 4.5 14.5t3.5 16.5
q0 5 -4 5.5t-7 11.5q0 1 -5 2.5t-12 2.5t-14 1.5t-11 0.5h-82zM316 243q-9 0 -9 7q0 4 5 16l24 63q5 12 8 14.5t13 2.5q4 0 15.5 0.5t24 1t22.5 1t11 0.5q9 0 9 -6q0 -3 -1.5 -7.5t-3.5 -8.5l-24 -60q-5 -12 -8.5 -15.5t-12.5 -3.5q-2 0 -12.5 -1t-22.5 -1.5t-23.5 -1.5
t-14.5 -1z" />
    <glyph glyph-name="dollar" unicode="$" horiz-adv-x="462" 
d="M439 513q7 -7 13.5 -16.5t20.5 -9.5q5 0 9 -2.5t9 -2.5q4 0 6 2q5 5 12.5 8.5t14.5 10.5q10 10 10 21q0 6 -3 11q-5 7 -26 33.5t-64 51.5q-7 4 -7 9q0 3 4 9.5t9.5 14t9.5 15t4 13.5q0 9 5 18t5 19t-13.5 14t-19.5 4t-14.5 -0.5t-16 -2.5t-13.5 -5t-7 -9q-1 -10 -16 -52
q-3 -11 -12 -11q-4 0 -15.5 3t-30.5 3q-43 0 -68 -21q-12 -10 -23 -20t-19 -23t-13 -30t-5 -41q0 -34 16.5 -75t44.5 -103q8 -18 8 -26q0 -4 -1 -9t-3 -10q-16 -54 -34 -107t-29 -95q-3 -10 -5 -10q-5 0 -12 5q-9 7 -16.5 15t-11.5 13q-7 10 -10 19.5t-3 12.5q0 8 0.5 11.5
t1.5 6t1.5 5.5t0.5 9q0 11 -14 19.5t-25 11.5q-8 2 -13 4.5t-16 2.5q-4 0 -10 -0.5t-12 -1.5q-8 -1 -15.5 -13t-7.5 -18q0 -27 6 -44.5t15 -29t19 -20t18 -18.5q12 -15 29.5 -30.5t40.5 -27.5q8 -4 8 -10q0 -2 -2 -8q-8 -24 -13.5 -40t-5.5 -29q0 -10 3.5 -17t11.5 -7
q13 0 18.5 -2.5t18.5 -2.5q4 0 10.5 2t12.5 6t10 10.5t4 15.5q0 2 0.5 8t1 12.5l1 13t0.5 8.5q1 5 2.5 6t3.5 1q4 0 21 -4.5t48 -4.5q28 0 46.5 4t22.5 6q27 16 44 39t17 54q0 28 -4.5 53t-12.5 48.5t-19 47.5t-23 51l-26 57q-6 12 -6 17q0 6 4 20t10.5 32.5t14 39
t13.5 40.5q5 17 9 29.5t9 25.5q3 8 6 8q5 0 11 -9t7.5 -12t2 -5.5t2.5 -5t9 -9.5zM265 535q0 30 9.5 47t32.5 17q14 0 24 -4t10 -8q0 -2 -0.5 -5t-2.5 -9q-10 -27 -19.5 -53.5t-17.5 -55.5q-4 -14 -6 -14q-5 0 -10 14q-9 24 -14.5 42t-5.5 29zM296 214q5 13 5.5 15t2.5 2
t3.5 -1.5t3.5 -6.5q15 -35 24 -68.5t9 -71.5q0 -21 -14 -30t-35 -9q-25 0 -36 5t-11 9q0 2 1 8t3 11q3 7 7.5 22t10 33.5t12.5 40t14 41.5z" />
    <glyph glyph-name="percent" unicode="%" horiz-adv-x="780" 
d="M445 561q2 0 17.5 -2.5t26.5 -2.5h21t15 2q16 3 21 3q3 0 3 -4t-4 -9q-41 -64 -73.5 -115.5t-62 -100t-60 -98t-66.5 -108.5q-14 -23 -20 -30.5t-9.5 -9.5t-8 -5.5t-14.5 -19.5q-5 -8 -11 -12t-8 -5q-5 -2 -7 -6.5t-2 -23.5q0 -15 2 -20t7 -9q6 -5 16.5 -8.5t16.5 -3.5
q5 0 15 2t17 12q10 14 27 40t31 48l280 443q19 29 30 42t21 21q9 7 13 14t4 31q0 11 -3.5 15.5t-12.5 10.5q-8 6 -16.5 7.5t-20.5 1.5q-5 0 -9.5 -4t-7.5 -8q-15 -19 -49.5 -24.5t-80.5 -5.5q-12 0 -33.5 3.5t-59.5 14.5q-8 2 -16.5 7t-10.5 7t-12 6.5t-30 4.5
q-23 0 -42.5 -8t-36 -21t-29.5 -29.5t-22 -33.5q-20 -40 -29.5 -68.5t-9.5 -50.5q0 -21 7 -38.5t20 -34.5q17 -23 41 -41t66 -18q31 0 52.5 15.5t38.5 36.5q32 39 48.5 86t16.5 94v8q0 2 3 2zM741 213q0 24 -11 46.5t-33 33.5q-17 9 -37.5 18.5t-49.5 9.5q-20 0 -35.5 -5
t-29 -15.5t-26.5 -28t-28 -42.5q-20 -35 -30 -67t-10 -68q0 -18 10 -37.5t27 -38.5q19 -21 45 -26.5t47 -5.5q42 0 66 15t38 36q27 42 42 83t15 92zM356 578q5 -2 7.5 -10t2.5 -16q0 -15 -2 -29t-8 -30.5t-16.5 -38t-28.5 -51.5q-11 -19 -18.5 -25t-18.5 -6q-14 0 -22.5 6
t-13 15.5t-6 21.5t-1.5 23q0 30 18 70.5t49 82.5q7 9 13 12t15 3q10 0 12.5 -3.5t3 -8t3 -9t11.5 -7.5zM652 247q5 -2 9 -11t4 -17q0 -29 -14 -63.5t-45 -95.5q-6 -12 -16.5 -19.5t-24.5 -7.5q-12 0 -19 6.5t-10.5 15.5t-4 17.5t-0.5 12.5q0 36 17 77t49 89q8 12 13.5 15
t14.5 3q12 0 15 -9t12 -13z" />
    <glyph glyph-name="ampersand" unicode="&#x26;" horiz-adv-x="528" 
d="M247 357q0 -4 -0.5 -6.5t-3.5 -6.5q-2 -2 -10 -9.5t-19 -17t-22.5 -20t-18.5 -18.5q-32 -31 -57 -60t-45 -71q-5 -11 -7 -23t-2 -20q0 -16 5.5 -27t11.5 -18q10 -11 20 -28.5t32 -24.5q11 -4 22.5 -5.5t30.5 -1.5q7 0 18.5 1.5t24 3.5t24.5 4.5t20 4.5q11 3 28 10.5
t33 15.5q9 5 14 5q4 0 9 -12q2 -8 5.5 -13.5t5.5 -13.5q1 -5 11.5 -12.5t22.5 -7.5q8 0 9 2t5 2q7 0 14 -3t14 -3t7 8q0 6 -7 23q-6 15 -10.5 27.5t-9.5 26.5q-2 5 -2 12q0 4 2.5 6.5t10.5 7.5q15 9 23 15t12.5 9.5t8 6.5t9.5 6q16 8 22 19t6 34q0 14 -1 19.5t-3 12.5
t-4.5 8t-9.5 1q-6 0 -11.5 -1.5t-16.5 -9.5q-9 -5 -16 -10t-17 -13q-7 -5 -13 -11t-17 -15q-8 -7 -11 -7q-2 0 -3.5 1t-3.5 8q-12 37 -23.5 71t-22.5 73q-4 13 -4 16q0 7 9 16q45 45 72.5 75.5t34.5 50.5q8 23 12.5 40.5t4.5 33.5q0 17 -8.5 30t-22.5 24q-6 5 -10.5 11
t-14.5 11q-11 6 -24.5 7t-27.5 1q-38 0 -73.5 -30.5t-49.5 -95.5q-2 -10 -3.5 -22.5t-1.5 -23.5q0 -4 1.5 -28.5t11.5 -70.5zM235 234q23 23 29 27.5t8 4.5t3 -1t3 -8l39 -120q2 -8 3.5 -12t1.5 -6q0 -4 -2 -5.5t-11 -5.5q-47 -21 -81 -29t-46 -8q-17 0 -26.5 5.5t-9.5 18.5
q0 10 3.5 20.5t8.5 19.5t10.5 16.5t9.5 12.5q11 14 25.5 33.5t31.5 36.5zM324 418q-7 -7 -10 -7q-4 0 -5 13q-2 12 -2.5 21t-0.5 20q0 30 9.5 46t19.5 33q6 9 13.5 14.5t15 8.5t13.5 4t8 1q8 0 12.5 -6t4.5 -14q0 -6 -2.5 -13t-5.5 -14q-2 -5 -4.5 -14.5t-8.5 -20.5
q-10 -19 -25 -37t-32 -35z" />
    <glyph glyph-name="quotesingle" unicode="'" horiz-adv-x="232" 
d="M212 561l-29 -119q-2 -11 -5.5 -15t-3.5 -15q0 -7 9 -17.5t14 -10.5q10 0 19.5 -4t14.5 -4q7 0 18 7.5t13 15.5l24 114q8 41 19 71t11 46q0 10 -4 19.5t-24 13.5q-8 2 -15 9.5t-19 7.5q-17 0 -21 -6t-5 -17q-2 -22 -5.5 -44.5t-10.5 -51.5z" />
    <glyph glyph-name="parenleft" unicode="(" horiz-adv-x="330" 
d="M353 694q-48 -59 -85.5 -120t-64.5 -118.5t-44 -107t-26 -83.5q-13 -52 -18.5 -100t-5.5 -108q0 -17 2.5 -41t7.5 -45.5t13.5 -37.5t19.5 -17q6 -1 14 -6.5t13 -5.5q13 0 20 5.5t10.5 12.5t4 14.5t0.5 12.5q0 10 -4 17.5t-9 15t-10 16t-7 19.5q-1 5 -2 14t-1.5 18.5
t-0.5 17.5v13q0 62 14.5 132.5t41.5 136.5q8 19 22 48t32 62t39 66.5t43 61.5q12 15 18.5 18t20.5 3q21 0 26 16q2 7 4.5 17t4.5 20t3.5 18t1.5 11q0 4 -2 11.5t-6 14.5t-10.5 12t-15.5 5q-8 0 -14 -1.5t-13 -8.5q-8 -8 -12.5 -11t-8.5 -5t-7.5 -4.5t-8.5 -8.5z" />
    <glyph glyph-name="parenright" unicode=")" horiz-adv-x="330" 
d="M263 632q1 -5 2.5 -17.5t2.5 -31t2 -41.5t1 -47q0 -81 -14.5 -156.5t-56.5 -154.5q-17 -32 -29.5 -53t-23.5 -37t-23 -28.5t-27 -27.5q-11 -11 -16 -14t-10 -3q-11 0 -41 -30q-7 -7 -19 -12t-12 -15q0 -8 7 -16t7 -20q0 -7 10 -14t21 -7q8 0 14 1.5t16 9.5q51 39 90 83.5
t71 94.5q33 51 55.5 107t36.5 114t20 115t6 108q0 14 -1 43.5t-4 56.5q-4 37 -8.5 50.5t-9.5 19.5q-7 8 -18 15.5t-25 7.5q-9 0 -14.5 -2.5t-9 -6t-7 -6.5t-8.5 -4q-6 -2 -8 -6.5t-2 -16.5q0 -11 3 -17.5t7 -12t8 -12t7 -17.5z" />
    <glyph glyph-name="asterisk" unicode="*" horiz-adv-x="414" 
d="M274 540q2 -6 2 -8q0 -3 -2 -3q-1 0 -7.5 0.5t-14.5 1.5q-10 1 -32 2t-35 3q-5 1 -5 2t-7 1q-4 0 -8.5 -1.5t-7.5 -6.5q-2 -3 -4.5 -5t-2.5 -6q0 -7 -2 -11t-2 -17q0 -5 1 -9.5t7 -8.5q4 -3 14 -4q22 -3 35 -3t35 -1q17 -1 22 -1.5t5 -2.5t-1.5 -4.5t-3.5 -4.5
q-14 -20 -27.5 -40.5t-30.5 -45.5q-2 -4 -4.5 -6.5t-2.5 -7.5q0 -9 11.5 -16t18.5 -7q14 0 19.5 1t9.5 3q11 6 15.5 11t7.5 12q8 19 14 27.5t15 23.5l10.5 17.5t3.5 2.5t3 -2t8 -15q22 -41 33 -56t15 -20q6 -8 14 -8q10 0 18 10q4 5 12.5 11.5t8.5 14.5q0 15 -10 23
q-3 2 -8.5 10.5t-11 19t-11 20t-8.5 13.5q-4 5 -5 7.5t-1 3.5q0 3 13 4q8 1 31.5 5.5t46.5 4.5q3 0 9 0.5t18 0.5q7 0 11 5t6 8q2 6 5 10.5t3 11.5q0 8 -2 8q-1 0 -1 10q0 5 -5.5 9t-25.5 4q-2 0 -11.5 -1t-21.5 -3t-24.5 -4t-20.5 -4q-6 -2 -9 -2h-4t-2 2q0 1 1.5 3.5
t8.5 10.5q10 12 19 23.5t20 22.5q5 6 10.5 10.5t16.5 18.5q5 6 8 12.5t3 11.5q0 6 -6.5 8.5t-11.5 4.5q-4 2 -9.5 2.5t-9.5 0.5h-20q-9 0 -16.5 -7t-18.5 -24q-2 -3 -7.5 -10t-12 -15t-12.5 -15.5t-9 -12.5q-5 -8 -7.5 -10.5t-4.5 -2.5t-3 3t-4 14q-2 6 -4 12.5t-4 13.5
q-2 10 -5 22t-8 23q-2 6 -5.5 14t-11.5 8t-10.5 -1t-10.5 -9q-3 -3 -11.5 -7t-13.5 -11q-4 -5 -4 -12q0 -13 14 -40q6 -12 10.5 -25t9.5 -26z" />
    <glyph glyph-name="plus" unicode="+" horiz-adv-x="590" 
d="M381 304q-4 0 -4 4q5 15 8.5 27t7 23.5l7 23t8.5 26.5l11 35q1 3 2.5 7t1.5 6q0 5 -5 10q-2 2 -11.5 4t-15.5 2q-7 0 -15.5 -4t-26.5 -9q-5 -2 -10.5 -14t-12.5 -41q-1 -5 -5 -18t-8.5 -28.5t-9 -30t-7.5 -22.5q-2 -7 -24 -7h-27h-19q-12 0 -25.5 1t-26.5 2t-19 3
q-5 2 -8 2h-6q-10 0 -18 -7q-9 -7 -9 -13q0 -24 5 -39t13 -18q4 -2 15 -3.5t25 -3t28.5 -2.5t25.5 -1h38q5 0 5 -6l-7 -31q-5 -21 -9.5 -36.5t-9 -30.5t-7 -30.5t-2.5 -35.5q0 -3 5.5 -8.5t22.5 -5.5q3 0 8.5 3t9.5 3q22 0 27 8t7 23q7 44 16.5 84.5t17.5 62.5q2 7 11 8
q7 1 21.5 2.5t32.5 3t38.5 3.5t38.5 4q6 1 14.5 1.5t14.5 0.5q4 0 7.5 -1t7.5 -1q6 0 10 10t8.5 19.5t4.5 20.5q0 5 -0.5 7t-3.5 5q-14 14 -37 14q-6 0 -21.5 -1.5t-33.5 -4t-34.5 -4t-23.5 -1.5h-11q-5 0 -11 -1z" />
    <glyph glyph-name="comma" unicode="," horiz-adv-x="260" 
d="M61 9l-68 -117q-5 -9 -6 -13.5t-1 -6.5q0 -5 5.5 -14t11.5 -9q3 0 10 -1.5t9 -2.5q9 -3 19 -3q2 0 10.5 6t13.5 14l130 198q3 4 3 9q0 12 -6 17t-15 19q-14 20 -33 20q-14 0 -20 -4t-13 -17l-12 -24t-14.5 -28t-14 -26t-9.5 -17z" />
    <glyph glyph-name="hyphen" unicode="-" horiz-adv-x="456" 
d="M423 243q10 10 12 20.5t2 33.5q0 18 -37 18q-14 0 -36.5 -2t-38.5 -2q-45 0 -84 2t-84 2q-7 0 -19.5 -2.5t-16.5 -9.5q-3 -6 -3 -13t2 -13.5t4 -12.5q5 -13 10.5 -20.5t12.5 -7.5t23 -1.5t37 -3t44.5 -2.5t46.5 -1h19q11 0 21 0.5t18 1t12 1.5q18 5 34 6t21 6z" />
    <glyph glyph-name="period" unicode="." horiz-adv-x="284" 
d="M218 74q0 5 -1.5 11t-6.5 16q-6 11 -20.5 21t-31.5 10q-13 0 -20.5 -1.5t-12.5 -6.5q-9 -10 -10 -25q-2 -16 -13 -27q-3 -3 -5.5 -9t-2.5 -11q0 -4 1.5 -10t6.5 -13q13 -20 27.5 -27.5t22.5 -7.5q11 0 20 1t17 8q7 5 11.5 12t9.5 20q2 7 5 20t3 19z" />
    <glyph glyph-name="slash" unicode="/" horiz-adv-x="400" 
d="M523 653q0 6 -5.5 13.5t-13.5 13.5t-16 10.5t-14 4.5q-5 0 -14 -3.5t-17 -9.5q-2 -2 -9 -10t-16.5 -20t-19.5 -25.5t-17 -26.5l-316 -547q-7 -11 -18 -26t-16 -24q-8 -14 -13 -27.5t-5 -18.5q0 -9 5.5 -15t16.5 -13q8 -5 14 -6t18 -1q5 0 24 24t44 67q37 64 79.5 140.5
t86.5 153.5t87 148.5t81 127.5q7 10 15.5 15.5t25.5 23.5q8 8 10.5 14t2.5 17z" />
    <glyph glyph-name="zero" unicode="0" horiz-adv-x="440" 
d="M386 577q-10 0 -10.5 -2.5t-6.5 -2.5q-7 0 -20 8q-12 8 -18 10.5t-13 2.5q-15 0 -25.5 -1t-15.5 -7q-49 -57 -91 -113t-71 -119q-13 -27 -23 -57.5t-17 -59t-11 -53.5t-4 -42q0 -30 6.5 -54.5t8.5 -27.5q10 -21 28.5 -37.5t38 -28.5t37.5 -18.5t27 -6.5q34 0 75 26t71 73
q27 42 42.5 70t24 46.5t12 29t6.5 17.5q18 46 32 94t14 99q0 31 -5.5 59t-18.5 53q-4 8 -15 15.5t-23 13.5t-22 9.5t-13 3.5zM403 452q0 -36 -7 -68t-17.5 -62.5t-24 -60.5t-26.5 -61q-5 -13 -13.5 -25t-13.5 -21q-22 -37 -41 -60t-34.5 -36t-28 -18t-21.5 -5q-13 0 -20 11
t-11 16q-2 3 -3.5 10.5t-3 16.5t-2.5 16.5t-1 10.5q0 21 4.5 40.5t9.5 39.5q2 7 3 17.5t10 33.5q29 77 71.5 144t93.5 125q10 11 21 11q10 0 20 -7t18 -17.5t12.5 -24t4.5 -26.5z" />
    <glyph glyph-name="one" unicode="1" horiz-adv-x="440" 
d="M340 416l6 6t3 1q3 0 3 -5q0 -2 -1 -8.5t-3 -11.5q-17 -74 -37 -148.5t-39 -148.5q-4 -15 -10 -25.5t-10 -30.5q-2 -8 -3.5 -18.5t-1.5 -19.5q0 -12 4 -16q16 -14 45 -14q7 0 11.5 1.5t14.5 1.5q8 0 13 5.5t7.5 13t3.5 14.5t1 11q0 20 4 35t7 27q32 129 63 257.5
t79 249.5q3 7 3 13q0 5 -2 9q-8 17 -26.5 23.5t-36.5 6.5q-11 0 -13.5 -2t-6.5 -10q-2 -4 -11 -17.5t-20.5 -30t-23.5 -32.5t-20 -26q-49 -60 -100 -118.5t-97 -109.5q-14 -15 -22.5 -22.5t-18.5 -14t-24 -17.5t-38 -33q-21 -20 -21 -24q0 -2 2.5 -8t12.5 -17q3 -4 9 -7.5
t11 -6.5l4.5 -4.5t13.5 -2.5q8 0 16 1.5t11 6.5q2 3 6.5 7.5t14.5 13.5t26.5 26t42 45.5t62 70.5t86.5 103z" />
    <glyph glyph-name="two" unicode="2" horiz-adv-x="440" 
d="M164 223q-48 -46 -76 -75t-43 -46.5t-19 -26t-4 -12.5q0 -16 9 -31.5t29 -32.5q9 -7 27.5 -11t42.5 -5.5t50.5 -2t51.5 -0.5q45 0 76 1.5t51 5t32 9t19 14.5q6 7 12.5 23t11.5 33t8.5 32t3.5 21q0 11 -5 16q-10 9 -16 13.5t-14 4.5q-14 0 -25.5 -3t-17.5 -11
q-12 -16 -16.5 -32t-20.5 -32q-17 -17 -41 -21.5t-70 -4.5q-23 0 -42.5 1t-27.5 5q-13 6 -13 11q0 2 1.5 5t8.5 12q22 29 55 62t70 69t74.5 75.5t67 82.5t48 89.5t18.5 95.5q0 11 -11 25.5t-26.5 27.5t-32.5 22t-29 9q-20 0 -35.5 -1t-29.5 -4t-28 -9.5t-31 -16.5
q-29 -17 -50 -32t-40 -40q-9 -12 -14 -19t-7.5 -12t-3 -10.5t-0.5 -15.5q0 -12 4.5 -20t10.5 -13.5t11 -8t6 -2.5q4 0 9.5 2t13.5 2q11 0 18 4.5t12 15.5t16.5 21.5t11.5 13.5q0 6 12 19.5t30 28t39 25t39 10.5q11 0 18 -2.5t7 -12.5q0 -23 -11.5 -55t-38.5 -74t-72.5 -94.5
t-113.5 -117.5z" />
    <glyph glyph-name="three" unicode="3" horiz-adv-x="440" 
d="M461 588q-3 6 -10 13t-18 10q-3 1 -7.5 3t-12.5 7q-5 4 -16.5 7t-25.5 3q-26 0 -51.5 -11t-46.5 -22q-12 -6 -21 -12.5t-24 -9.5q-10 -2 -13 -5q-9 -9 -20.5 -17t-21 -17t-16 -20.5t-6.5 -26.5q0 -2 3 -8.5t7 -14t9 -13t9 -5.5q11 0 22.5 1t15.5 5q8 8 17.5 12t9.5 18
q0 7 11 18t27 22t33.5 21t29.5 16q9 5 15.5 6t10.5 1q3 0 3 -3q0 -2 -0.5 -4t-2.5 -9q-5 -13 -16.5 -38t-32 -54.5t-50.5 -61t-71 -58.5q-3 -2 -7.5 -7.5t-18.5 -13.5t-30 -19t-16 -15q0 -6 4.5 -18t12.5 -20q2 -2 10 -3.5t13 -1.5q24 0 44.5 11.5t41.5 22.5q14 8 19 8
q6 0 11 2q4 2 12.5 4.5t18.5 2.5q7 0 15.5 -3t15.5 -13q5 -7 8.5 -16.5t3.5 -23.5q0 -4 -2.5 -13.5t-6.5 -21.5t-9 -25t-9 -23q-18 -42 -40 -69t-52 -46q-8 -5 -21 -5q-14 0 -27 6.5t-24 15t-17.5 17t-6.5 13.5q0 10 -11.5 19t-21.5 20q-4 4 -7 5.5t-9 1.5q-3 0 -6 -1t-5 -1
q-9 0 -15 0.5t-13 0.5q-16 0 -20 -7t-4 -13q0 -2 0.5 -5t3.5 -9t2.5 -7.5t7.5 -11.5q14 -17 34 -37t43 -37t48 -28.5t50 -11.5q35 0 62.5 12.5t49 33.5t38 48t30.5 56q15 31 26 64.5t11 62.5q0 28 -4 41t-10 24q-15 26 -41.5 37.5t-49.5 11.5q22 21 53 60t61 92
q3 5 4.5 10.5t4.5 13.5q4 9 7.5 18.5t3.5 19.5q0 2 -1 6t-5 12z" />
    <glyph glyph-name="four" unicode="4" horiz-adv-x="440" 
d="M420 184q11 2 28 3.5t28 1.5q23 0 23 18q0 3 -2 9q-8 20 -16 29t-23 9q-24 0 -39 -1.5t-24.5 -3.5t-17 -3.5t-16.5 -1.5q-5 0 -5 3v5q0 4 1 9q4 30 15.5 70.5t23.5 80t21.5 73t9.5 50.5q0 12 8 28t8 47q0 8 -12 15t-17 9q-12 4 -23 4q-9 0 -15 -4.5t-14 -16.5
q-2 -4 -9.5 -11t-12.5 -11q-45 -38 -85.5 -79t-78 -82t-70.5 -80t-63 -72q-7 -8 -8 -10t-1 -6q0 -6 -1 -9.5t-1 -5.5q0 -10 12.5 -30t27.5 -35q2 -2 5 -4.5t7 -4.5q43 -17 80.5 -17.5t80.5 -2.5q8 0 8 -8q0 -2 -3.5 -16.5t-6.5 -33.5q-4 -23 -6.5 -37.5t-2.5 -21.5
q0 -16 9 -21q14 -8 27.5 -17t33.5 -9q6 0 8.5 6.5t3.5 11.5t2.5 9t1.5 9q0 9 1.5 27.5t5 39.5t8.5 41.5t11 33.5q17 4 38.5 7.5t35.5 5.5zM339 496q2 0 2 -3q0 -2 -5 -17q-3 -8 -10.5 -31t-17 -55.5t-19 -71.5t-16.5 -79q-1 -7 -3 -9q-1 -1 -2 -1.5t-6 -1.5
q-14 -2 -31.5 -3.5t-22.5 -1.5q-23 0 -44.5 3t-35.5 11q-5 2 -5 11q0 4 4 9q22 27 49 59.5t54 64.5t52.5 60t45.5 48q5 5 7 6.5t4 1.5z" />
    <glyph glyph-name="five" unicode="5" horiz-adv-x="440" 
d="M456 540q18 0 37 -3t23 -3q14 0 23.5 8t9.5 19q0 9 -6 17q-11 15 -31 25t-32 10q-7 0 -19 -1t-26 -2.5t-29 -3t-29 -3.5q-19 -3 -37.5 -5.5t-34 -4.5t-26 -3.5t-12.5 -1.5q-4 0 -8.5 3.5t-12.5 3.5q-5 0 -14 -2.5t-18 -6.5t-16.5 -9.5t-9.5 -12.5q-18 -51 -38.5 -120
t-43.5 -144q-2 -6 -2 -8q0 -5 4 -8t9 -5q11 -6 22.5 -11t27.5 -5q3 0 7 1.5t12 9.5q42 42 76.5 59.5t53.5 17.5q10 0 12.5 -0.5t6.5 -2.5q19 -10 19 -55q0 -13 -3.5 -26.5t-8.5 -27.5q-8 -23 -9.5 -32.5t-6.5 -21.5q-15 -39 -35.5 -74t-52.5 -64q-7 -6 -15 -11t-12 -5
q-17 0 -31.5 7.5t-35.5 29.5q-8 9 -12.5 17t-9 15.5t-10 14t-15.5 12.5q-2 2 -12.5 6t-18.5 4q-14 0 -24.5 -11.5t-17.5 -15.5t-7 -9q0 -4 0.5 -6.5t3 -6.5t7.5 -9.5t14 -15.5q18 -19 37.5 -36t41.5 -30t46.5 -21t51.5 -8q16 0 36.5 8t42.5 25t44.5 44.5t43.5 65.5
q21 39 38 80.5t17 83.5q0 14 -3 38.5t-18 46.5q-22 32 -52 41.5t-61 9.5q-16 0 -31 -3.5t-26 -7.5t-18 -7.5t-8 -3.5q-6 0 -6 3q0 2 0.5 5t2.5 11q6 21 14.5 48t14.5 47q2 8 9 10q34 8 76 15t96 11q11 1 17 1h8z" />
    <glyph glyph-name="six" unicode="6" horiz-adv-x="440" 
d="M464 583q-1 3 -6 7.5t-13.5 9.5t-18.5 8.5t-20 3.5q-20 0 -39 -10.5t-36.5 -25.5t-32.5 -30.5t-26 -24.5q-6 -5 -28 -26t-53 -65.5t-67.5 -114.5t-70.5 -173q-4 -11 -6.5 -24t-2.5 -34q0 -15 5.5 -27t14.5 -21.5t19.5 -17t20.5 -14.5q3 -2 9.5 -7t16 -10t23.5 -9t34 -4
q23 0 42 5.5t28 11.5q62 42 114.5 103t78.5 148l1.5 6t0.5 4q0 3 -2 7q-8 15 -16.5 25t-19.5 24q-8 10 -22 13.5t-27 3.5q-25 0 -46 -9t-53 -18q-3 -1 -9.5 -5t-15.5 -9t-18.5 -11t-16.5 -11q-8 -5 -12 -5q-3 0 -3 4q0 2 2 8t7 19q10 24 28.5 55t44 65t57.5 67t68 62
q4 3 9.5 7t9.5 4q6 0 8.5 -0.5l5 -1t5.5 -1t11 -0.5q11 0 16 5t5 10q0 8 -4 23zM354 221q-25 -43 -45.5 -72t-45.5 -55q-27 -28 -56.5 -43.5t-41.5 -15.5q-11 0 -23.5 13t-12.5 23q0 20 11 33t22 30q4 6 13 15t21 18t24.5 18t22.5 15q16 9 33.5 18t33 16t27 11t15.5 4
q8 0 8 -5q0 -3 -1.5 -10.5t-4.5 -12.5z" />
    <glyph glyph-name="seven" unicode="7" horiz-adv-x="440" 
d="M202 246q-41 -62 -66 -102.5t-38.5 -66t-17.5 -39.5t-4 -23q0 -5 7 -12t14 -15q10 -12 20.5 -15.5t15.5 -3.5q12 0 16 8.5t12 8.5q5 0 6.5 4t1.5 8q0 28 32 94t107 174q22 3 35 6.5t25 6.5t27 5t41 2q16 0 19.5 -1.5t10.5 -1.5q9 0 9 29q0 5 -2.5 8t-6.5 7q-12 13 -26 17
t-33 4q-5 0 -11.5 -1t-12.5 -1q-11 0 -11 4q0 3 2 6t12 15.5t23.5 30t27 35.5t22.5 32q15 22 23.5 35.5t12.5 21.5t5 14.5t1 15.5t-7.5 18t-16.5 17.5t-17.5 14t-10.5 6.5q-11 5 -34 7t-50 2q-26 0 -51 -1.5t-45 -3.5q-23 -3 -49.5 -6t-49.5 -8.5t-38 -13t-15 -17.5
q0 -8 0.5 -14.5t3.5 -12.5q6 -14 6.5 -30.5t8.5 -25.5q8 -11 16.5 -13t20.5 -2q5 0 14.5 3.5t9.5 11.5q0 39 38 56t125 17q16 0 27 -2.5t11 -7.5q0 -6 -3 -13q-11 -28 -23.5 -48.5t-27.5 -42t-35 -47t-46 -63.5q-5 -8 -61 -8q-3 0 -10.5 1t-15.5 2.5t-15 2.5t-9 2
q-5 2 -11.5 3t-10.5 1q-5 0 -10.5 -4t-5.5 -13q0 -2 1 -5.5t1 -5.5q0 -8 0.5 -11t1.5 -5t4 -10.5t7 -12.5q3 -3 12.5 -5t20.5 -3.5t22 -2t16 -0.5q9 0 9 -5q0 -1 -1 -3t-6 -9z" />
    <glyph glyph-name="eight" unicode="8" horiz-adv-x="440" 
d="M202 354v-16q0 -5 -1.5 -8t-4 -4.5t-6.5 -4.5q-23 -14 -50.5 -27.5t-52 -31.5t-41 -42.5t-16.5 -58.5q0 -29 13 -56t32.5 -50.5t43 -42.5t44.5 -32q17 -10 28.5 -11.5t29.5 -1.5q11 0 17.5 2.5t11.5 3.5q14 2 22 18t12 37t5 42t1 33q0 18 -1.5 57t-4.5 80q-1 10 -1 17v14
q0 18 2 23q53 23 102 47.5t103 52.5q20 11 28.5 26.5t8.5 32.5q0 8 -1.5 17t-3.5 13q-7 18 -17.5 37t-23 36.5t-28 31t-31.5 20.5q-6 3 -9 6t-5.5 6.5t-5.5 7t-10 5.5q-15 5 -27.5 8t-25.5 3q-8 0 -13.5 -0.5t-13.5 -3.5q-58 -21 -84.5 -89t-26.5 -168q0 -7 0.5 -13t0.5 -16
zM196 52q-3 -12 -10 -12q-19 0 -60 55q-6 8 -11 23t-5 31q0 29 22 53t55 38q7 3 10 3q5 0 5 -8q0 -5 2.5 -34.5t2.5 -68.5q0 -21 -2.5 -41t-8.5 -39zM393 543q4 0 4.5 2t4.5 2q3 0 10.5 -3.5t19.5 -14.5q11 -10 14.5 -23t3.5 -28q0 -14 -14 -25q-26 -20 -52.5 -30t-47.5 -21
q-26 -14 -35 -17t-11 -3q-3 0 -4.5 3.5t-1.5 14.5q0 42 7.5 77t15.5 47q13 21 25.5 32t31.5 19q5 2 9 2q2 0 4 -8q2 -7 6 -16.5t10 -9.5z" />
    <glyph glyph-name="nine" unicode="9" horiz-adv-x="440" 
d="M530 555q0 5 -9 13t-21 18q-14 11 -22.5 15.5t-16.5 11.5q-5 4 -13.5 5t-15.5 1q-9 0 -20.5 -2.5t-22.5 -6.5t-21 -7.5t-14 -6.5q-37 -21 -76 -41t-76 -44t-69.5 -54t-55.5 -72q-6 -12 -6 -29q0 -15 7 -22.5t13 -17.5q7 -11 12.5 -17t10.5 -9.5t10 -6t11 -6.5q9 -7 17 -9
t21 -2q19 0 43 8q10 3 16 3q7 0 24 5q10 3 41 20q15 8 19.5 10t5.5 2q3 0 3 -3q0 -2 -1 -5.5t-6 -18.5q-23 -65 -43 -121.5t-44 -120.5q-6 -16 -7 -19.5t-1 -5.5q0 -11 13 -20.5t24 -16.5q5 -3 10.5 -4t8.5 -1q5 0 8.5 1t11.5 6t10.5 7.5t3.5 8.5q8 57 28.5 111t38.5 111
q12 39 27 70.5t30.5 61t30.5 58.5t27 62q5 13 13 24q11 16 16.5 27.5t5.5 28.5zM437 552q3 0 3 -3q0 -4 -2 -10q-8 -21 -30.5 -49t-55.5 -56.5t-75.5 -54.5t-90.5 -42q-18 -6 -31 -6q-8 0 -12.5 4t-4.5 9q0 2 1.5 4t6.5 10q27 38 60 66t70 50t75.5 39.5t75.5 35.5q7 3 10 3z
" />
    <glyph glyph-name="colon" unicode=":" horiz-adv-x="290" 
d="M315 335q2 6 3.5 19.5t1.5 17.5q0 7 -7.5 16t-14.5 14q-16 13 -23.5 15.5t-14.5 2.5q-16 0 -20.5 -3t-12.5 -21q-5 -10 -12.5 -21.5t-7.5 -41.5q0 -17 11.5 -25.5t28.5 -13.5q6 -2 16 -4.5t16 -2.5q3 0 15.5 10t20.5 38zM258 105q-13 8 -24.5 19t-28.5 11q-15 0 -25 -15
t-13 -30q-3 -17 -5 -23.5t-2 -10.5q0 -11 8 -16.5t17 -17.5q6 -8 12 -14.5t24 -6.5q12 0 21 4t22 10q3 1 5 6.5t3 12t1.5 12t0.5 7.5q0 15 -4.5 31.5t-11.5 20.5z" />
    <glyph glyph-name="semicolon" unicode=";" horiz-adv-x="280" 
d="M290 354q0 5 -2 8t-6 6.5t-10 8.5t-14 14q-8 10 -16 14.5t-22 4.5q-11 0 -18.5 -8.5t-13.5 -17.5q-10 -14 -15 -35.5t-5 -32.5q0 -8 9.5 -18.5t32.5 -10.5q11 0 27 0.5t24 0.5q9 0 15.5 12t10.5 23q2 5 2.5 11t0.5 20zM179 107q-5 2 -17 11t-25 9q-3 0 -4 -1.5t-5 -3.5
t-6 -4.5t-7 -11.5q-18 -31 -32.5 -59t-30.5 -58t-34.5 -63.5t-45.5 -74.5q-5 -8 -8.5 -11.5t-3.5 -8.5q0 -9 4 -20.5t16 -12.5q9 -1 16 -3t17 -2q8 0 14 1.5t12 10.5q20 30 37 58.5t33.5 56t32.5 55t35 57.5q4 6 11.5 11.5t7.5 22.5v13q0 8 -3.5 16.5t-13.5 11.5z" />
    <glyph glyph-name="less" unicode="&#x3c;" horiz-adv-x="590" 
d="M451 115q-6 0 -12.5 1t-15.5 5t-23.5 11t-36.5 19q-14 7 -31.5 18t-34 21.5t-30 19t-18.5 11.5q-9 5 -11 7.5t-2 4.5q0 3 10 9t33 20q10 6 29 17t41.5 24t45 25.5t37.5 20.5q14 7 22 10.5t13 5t8.5 2.5t8.5 4q27 17 36.5 21t14.5 4q4 0 7 10t3 13q0 5 -4.5 12.5
t-4.5 12.5q0 9 -8.5 18t-19.5 9q-9 0 -14.5 -3.5t-13.5 -5.5q-5 -2 -10.5 -4t-16 -7.5t-29 -16.5t-48.5 -29q-41 -25 -86.5 -50.5t-77.5 -43.5q-18 -11 -29.5 -17.5t-18 -11.5t-9.5 -8.5t-4 -7.5q-3 -7 -4.5 -9.5t-3 -4l-3 -3t-3.5 -5.5q-3 -8 -5 -14t-2 -11q0 -10 3 -15
t15 -13q40 -25 67.5 -42.5t48.5 -31t38 -24t36 -20.5q34 -19 51.5 -26.5t30.5 -7.5q6 0 16.5 4t17.5 12t11.5 13t7.5 8t4.5 6t1.5 8q0 9 -9 17t-19 8z" />
    <glyph glyph-name="equal" unicode="=" horiz-adv-x="590" 
d="M398 370l-78 -4q-11 -1 -19 -1h-17q-29 0 -54 2.5t-51 8.5q-6 2 -10 2h-6q-5 0 -8 -0.5t-7 -5.5t-6.5 -7.5t-2.5 -7.5q0 -51 17 -56q4 -1 20 -3t36.5 -3.5t43 -3t40.5 -1.5h16t16 1l157 14q26 2 39.5 2.5t24.5 0.5q2 0 8 1.5t8 6.5q4 8 6.5 21t2.5 19q0 5 -0.5 9.5
t-3.5 7.5q-7 7 -13.5 8.5t-20.5 1.5q-6 0 -26 -2t-43 -4t-43 -4.5t-26 -2.5zM358 239q-19 0 -38 -1t-30 -1q-63 0 -97.5 5.5t-45.5 5.5q-15 0 -18 -8q-2 -5 -4.5 -7t-2.5 -6q0 -22 10.5 -37t18.5 -20q2 -2 15 -3t31 -1.5t39.5 -1t41.5 -0.5h28q40 0 92 3t97 11q5 1 10 1h10
q6 0 12 -1t12 -1q7 0 9 7q3 11 6.5 22.5t4.5 22.5q0 3 -3.5 8t-7.5 8q-6 5 -12 6.5t-17 1.5q-6 0 -23 -1t-37 -4q-35 -5 -56 -7t-45 -2z" />
    <glyph glyph-name="greater" unicode="&#x3e;" horiz-adv-x="590" 
d="M296 373q17 -8 51 -28.5t80 -48.5q18 -11 18 -14q0 -2 -1 -4t-5 -5t-12.5 -8t-24.5 -14q-15 -9 -37.5 -21.5t-47 -26.5t-47.5 -26.5t-39 -21.5q-26 -14 -40.5 -21t-23.5 -10.5t-13.5 -5.5t-10.5 -6q-8 -6 -9.5 -11t-1.5 -8q0 -5 4 -10.5t6 -15.5q2 -9 9.5 -12.5
t26.5 -3.5q14 0 23 1t19 5t24 12.5t38 23.5q7 4 31 18.5t53.5 31.5t58 33.5t45.5 25.5q17 10 27 16.5t16 11t8.5 8t4.5 8.5q2 3 5.5 6t11.5 15q3 5 5 12.5t2 12.5q0 10 -3 15t-15 13q-81 51 -133 82t-75 44q-12 7 -15.5 10t-6 6t-7 6t-18.5 10q-17 8 -20 13.5t-11 5.5
q-11 0 -14 -8t-14 -28q-5 -9 -5 -19q0 -14 5 -21.5t13 -10.5q9 -4 14 -7t10.5 -6.5t14.5 -9t26 -14.5z" />
    <glyph glyph-name="question" unicode="?" horiz-adv-x="360" 
d="M440 572q0 22 -16.5 39.5t-32.5 26.5q-20 11 -38.5 16t-45.5 5q-50 0 -84 -31q-10 -9 -16 -25.5t-6 -36.5q0 -8 1 -19.5t6 -17.5q16 -22 40 -22q15 0 19.5 6.5t4.5 14.5q0 5 -1 12t-1 11q0 7 1.5 13t6.5 11q8 8 18.5 15t23.5 7q6 0 13.5 -2.5t14 -7t11.5 -11t5 -14.5
q0 -10 -17 -32t-57 -64q-32 -33 -68 -73t-60 -83q-2 -2 -3 -5.5t-3 -5.5q-6 -6 -6 -17q0 -2 1 -5t1 -5q0 -7 9 -23q8 -14 13.5 -19t19.5 -11q27 -11 62 -15.5t78 -4.5q8 0 16.5 2.5t13.5 3.5q6 1 11.5 5t5.5 10q0 3 -2 10t-4 11q-2 6 -7 9.5t-7 3.5t-5 2.5t-9 5.5t-15.5 5.5
t-24.5 2.5q-9 0 -17.5 -1t-17.5 -1q-14 0 -26.5 4.5t-12.5 12.5q0 3 7 14t20 27.5t31 36.5t40 41q41 40 63 64t32.5 40.5t12 30.5t1.5 33zM256 45q0 6 -9.5 15.5t-21.5 17.5t-23.5 14t-16.5 6q-11 0 -21.5 -6.5t-18.5 -36.5q-2 -5 -3.5 -12.5t-1.5 -15.5q0 -7 7.5 -14.5
t12.5 -14.5q4 -5 15 -10t22 -5q14 0 27 8t23 18q6 6 7.5 14t1.5 22z" />
    <glyph glyph-name="at" unicode="@" horiz-adv-x="700" 
d="M482 603q29 0 60 -6.5t57 -25.5t42.5 -53t16.5 -88q0 -44 -12 -84t-29.5 -70t-37.5 -47.5t-36 -17.5q-8 0 -13 8.5t-5 15.5q0 14 1.5 26t6.5 28.5t15.5 40.5t27.5 63q3 7 3.5 11t0.5 10q0 8 -9 13q-7 4 -11.5 7.5t-4.5 8.5q0 3 -1.5 9t-6.5 13q-3 5 -12 13.5t-20.5 16.5
t-24.5 14t-24 6q-27 0 -57 -20t-62 -56q-15 -17 -28 -40.5t-23.5 -49t-16.5 -51t-6 -47.5q0 -24 10.5 -45.5t27.5 -32.5q3 -2 9 -6.5t13.5 -9t16 -8t17.5 -3.5q12 0 25 5.5t24.5 13.5t21.5 18.5t16 19.5q5 7 7 9t4 2q3 0 3.5 -3.5t1.5 -6.5q5 -18 10.5 -26t16.5 -15
q20 -12 35 -17t29 -5q21 0 45.5 10t49.5 43q15 19 28.5 42.5t24.5 50.5t17.5 57t6.5 63q0 38 -5.5 65.5t-16 49t-24.5 38.5t-30 34q-44 44 -89.5 61t-109.5 17q-26 0 -58.5 -8t-68 -26.5t-71 -50t-65.5 -79.5q-24 -38 -41 -73.5t-27 -69.5t-14.5 -67.5t-4.5 -69.5
q0 -67 23 -116.5t81 -95.5q12 -10 30 -18.5t37.5 -15t39.5 -10.5t37 -4q43 0 89.5 11.5t98.5 46.5q3 2 9.5 4l13 4t11 4.5t4.5 6.5q0 9 -1 13.5t-3 7t-4 4.5t-4 6q-7 17 -22 23.5t-26 6.5q-6 0 -12 -2t-14 -8q-43 -31 -82.5 -41t-70.5 -10q-37 0 -66.5 12.5t-50.5 34.5
t-32 53t-11 69q0 40 14.5 102t53.5 126q32 53 66 84.5t65 48.5t57 22.5t43 5.5zM512 439q0 -8 -7.5 -21.5t-21.5 -28.5q-6 -6 -7.5 -10.5t-1.5 -10.5q0 -5 3 -7.5t3 -5.5q0 -5 -8 -17.5t-21.5 -30.5t-32 -38.5t-39.5 -39.5q-9 -8 -14.5 -10t-11.5 -2q-4 0 -7.5 3t-3.5 11
q0 12 0.5 20t2.5 15q3 15 10.5 27.5t12.5 28.5q4 12 17.5 35t31.5 45t38 38.5t38 16.5q3 0 11 -6.5t8 -11.5z" />
    <glyph glyph-name="A" unicode="A" 
d="M365 267q-1 -6 -2 -7.5t-5 -3.5q-3 -2 -21 -7.5t-46 -16.5q-12 -5 -27.5 -9.5t-30.5 -9t-26.5 -7t-15.5 -2.5q-6 0 -6 4q0 2 2 7t10 19q19 36 38.5 71.5t41.5 73t46.5 78t53.5 86.5q4 6 5.5 7t3.5 1t2.5 -2.5t0.5 -13.5q0 -34 -5 -98t-19 -170zM460 -73q0 2 -3 8t-7 18
t-7 32.5t-3 50.5v14v18t0.5 17.5t0.5 13.5l5 100q1 10 2.5 12.5t8.5 7.5q8 5 20 7.5t24 2.5q29 0 46 5.5t26 20.5q4 7 4 13q0 4 -6 11q-8 9 -24.5 14t-36.5 5q-22 0 -34.5 -2t-17.5 -2t-5.5 2t-0.5 4q0 1 1.5 29t4.5 66.5t7 79.5t9 70q3 19 3 33q0 2 2.5 16t5 30.5t5 31
t2.5 17.5q0 6 -3 7t-5 9q-2 4 -13 6.5t-21 2.5q-17 0 -36.5 -6t-27.5 -6q-3 0 -6.5 -3.5t-15.5 -21.5q-41 -62 -78 -120t-70 -113.5t-64 -109.5t-60 -108q-5 -10 -7.5 -12t-4.5 -2q-10 0 -20.5 8.5t-22.5 8.5q-6 0 -11 -4q-2 -2 -8.5 -20t-6.5 -35q0 -11 7.5 -16.5
t24.5 -14.5q6 -3 6 -7q0 -1 -2 -9.5t-4.5 -20.5t-4.5 -27t-2 -30q0 -16 1.5 -26.5t4.5 -18t8.5 -13t13.5 -10.5q5 -3 11 -6t8 -3q11 0 19.5 7.5t18.5 14.5q5 3 5 6q0 6 -1.5 14.5t-1.5 41.5q0 14 3.5 32t12.5 38q4 8 7 10.5t8 3.5q15 2 40.5 9t54.5 16t58 18.5t50 17.5
q6 0 6 -4q0 -35 -2 -67.5t-2 -66.5q0 -18 1 -38.5t3.5 -38.5t6 -31.5t8.5 -18.5q10 -10 24.5 -14t26.5 -4q3 0 5 0.5t6 3.5q6 5 13 10.5t7 14.5z" />
    <glyph glyph-name="B" unicode="B" horiz-adv-x="574" 
d="M389 665q-14 -8 -24 -8q-9 0 -18 4t-17.5 9t-17 9t-17.5 4t-17.5 -8.5t-19.5 -38.5q-11 -32 -22 -50.5t-33 -27.5q-4 -2 -5 -3.5t-1 -9.5q0 -10 1.5 -17t7.5 -16q3 -5 3 -7q-16 -41 -28.5 -77.5t-23 -74t-20.5 -77.5t-21 -87q-2 -10 -5 -11.5t-6 -1.5t-8.5 2t-10.5 2
q-33 0 -44.5 -3.5t-11.5 -13.5q0 -8 2.5 -13t5.5 -9.5t5.5 -10t3.5 -12.5q0 -4 7 -11.5t14.5 -16t14 -16.5t6.5 -14q0 -3 0.5 -5.5t5.5 -6.5q13 -11 27.5 -23.5t31.5 -12.5h8t7 2q14 -14 28 -19t22 -10t21 -8t27.5 -5.5t29.5 -3.5t27 -1q50 0 93 18t68 58q20 32 38 60t32 55
t22 55.5t8 61.5q0 11 -1 18.5t-6 15.5q-11 22 -30.5 39.5t-45.5 27.5q-14 5 -32 4.5t-32 6.5q-4 2 -4 4q0 1 5 8l12.5 17.5t17.5 22.5l20 24q31 36 48.5 61.5t26 43.5t10.5 28t2 15q0 18 -21 36q-18 16 -44 24.5t-53 8.5q-23 0 -42.5 -5.5t-26.5 -9.5zM478 612
q0 -5 -11.5 -31.5t-40.5 -66.5q-24 -33 -54.5 -65.5t-53.5 -58.5q-5 -5 -11.5 -14t-11.5 -16q-13 -17 -30.5 -28.5t-22.5 -11.5q-4 0 -4 4q0 10 7.5 34t17.5 52t20.5 55t15.5 43q4 11 9 22l10 22q2 5 4.5 7.5t7.5 6.5q32 23 66 37.5t77 14.5q5 0 5 -6zM440 330q14 0 24 -2
t16 -10t8 -14t2 -18q0 -16 -3 -41.5t-22 -64.5q-18 -37 -34 -67.5t-32.5 -52.5t-34 -34t-38.5 -12q-43 0 -76 20t-56 43q-7 7 -7 15q0 10 4 29t9 40t10 40.5t8 30.5q2 6 3.5 8t7.5 2q19 0 41 10t41 23q9 6 23.5 15t32 18t36.5 15.5t37 6.5z" />
    <glyph glyph-name="C" unicode="C" horiz-adv-x="472" 
d="M520 656q-2 2 -5.5 4.5t-8.5 4.5q-11 5 -21.5 7t-21.5 2q-10 0 -22.5 -1.5t-24.5 -4t-22 -5.5t-14 -6q-57 -33 -104 -82t-84.5 -106t-66.5 -119t-50 -121q-1 -2 -3 -12.5t-4.5 -25t-4 -31t-1.5 -31.5q0 -14 1.5 -29t3.5 -32q1 -11 10 -22t21 -21.5t25.5 -19.5t24.5 -14
q13 -6 37 -10t41 -4q40 0 73.5 15t63.5 38t57.5 51t55.5 55q6 6 9.5 8.5t3.5 6.5q0 6 -6 16q-7 11 -15.5 15t-18.5 4h-16q-14 0 -20 -4t-18 -16q-24 -24 -50 -47t-52 -40.5t-50.5 -28t-45.5 -10.5q-12 0 -21 9t-22 20q-5 4 -9 16t-4 19v10q0 8 1 17t1.5 17.5t2.5 13.5
q22 72 53.5 143t73.5 128q24 33 39 53t26.5 33.5t21.5 24t25 24.5q7 6 17.5 13t22.5 13t24 10t21 4t9 -15q0 -9 -5.5 -17t-6.5 -13q-2 -11 -7.5 -19.5t-11.5 -17.5t-11 -19.5t-5 -24.5q0 -5 4 -10t9.5 -9.5t11 -7.5t8.5 -3q6 -1 14 -2.5t15 -1.5q11 0 20 5.5t11 13.5
q7 25 15.5 43.5t19.5 44.5q6 15 7 20.5t1 7.5q0 6 -1 11q-5 21 -22 36t-25 26z" />
    <glyph glyph-name="D" unicode="D" horiz-adv-x="554" 
d="M602 547q-19 25 -39.5 38t-40.5 27t-47 18.5t-49 4.5q-27 0 -55.5 -6t-56 -16.5t-53 -24t-46.5 -27.5q-26 -18 -40.5 -29.5t-21.5 -21t-8 -20.5t-1 -29q0 -10 6.5 -16t13.5 -6q6 0 13.5 3.5t14 8t12 8t8.5 3.5q2 0 3 -0.5t1 -5.5q-37 -90 -68 -181.5t-54 -183.5
q-1 -3 -6 -3q-6 0 -12 5.5t-15 5.5q-12 0 -21 1.5t-16 1.5q-8 0 -14 -3.5t-6 -13.5q0 -14 10.5 -26t25 -21t28.5 -15l21 -9q8 -14 25 -25.5t30 -11.5q11 0 18.5 1t8.5 8q17 -5 36 -9t39 -4q8 0 16 0.5t16 3.5q54 20 97.5 56t79 83t65.5 101.5t57 110.5q8 15 10 23t8 19
q13 24 20 48.5t7 46.5q0 37 -5 53t-15 29zM523 540q3 -5 5 -12.5t3.5 -16t2.5 -15t1 -8.5q0 -18 -8 -41t-15 -40q-37 -91 -86 -173t-121 -153q-20 -20 -44 -31t-52 -11q-8 0 -17 0.5t-14 2.5t-5.5 3t-0.5 6q8 59 25 117t39.5 114.5t48 113t50.5 112.5q3 7 6.5 10t6 6t4.5 6
t2 10q0 3 -4 7q22 5 49.5 16.5t56.5 11.5q19 0 36 -7.5t31 -27.5z" />
    <glyph glyph-name="E" unicode="E" horiz-adv-x="508" 
d="M679 608q0 14 -15.5 27.5t-33.5 22.5q-5 2 -15.5 4t-18.5 2q-38 0 -79 -6t-79 -14t-68 -16.5t-45 -14.5q-45 -17 -89 -33.5t-92 -28.5q-6 -2 -6 -7t2 -12t5.5 -14.5t8.5 -14t10 -9.5q8 -4 19 -4t21.5 4t15.5 4q4 0 4 -5q-6 -23 -17.5 -51t-32.5 -75q-4 -8 -6.5 -10
t-8.5 -4q-17 -5 -22 -6.5t-7 -5.5q-2 -2 -2 -6v-6q0 -13 5.5 -21t7.5 -10q-10 -27 -21 -54.5t-20.5 -55t-15.5 -56.5t-6 -60q0 -10 1.5 -26.5t6.5 -24.5q7 -11 19 -18.5t24 -12.5t21.5 -7.5t12.5 -2.5q51 0 95 9t83.5 23t75.5 32.5t70 36.5q11 6 27 20q11 10 22 13q6 1 6 13
q0 4 -4.5 9t-9.5 9t-10.5 7.5t-6.5 5.5q-2 3 -10 3q-23 0 -43.5 -8t-40 -19.5t-39 -23.5t-39.5 -21q-12 -5 -28.5 -11.5t-39.5 -16.5q-21 -9 -44 -14t-37 -5q-8 0 -16.5 11t-8.5 23q0 21 7 48t18.5 56.5t25 59.5t25.5 58q3 7 13.5 10.5l16.5 5.5q19 5 39.5 12.5t42 15
t44 12.5t45.5 5q7 0 15.5 -1.5t17.5 -1.5q3 0 11 1.5t16 4t14.5 6t6.5 8.5q0 8 -2.5 17.5t-10.5 14.5q-37 20 -75 20t-75.5 -13.5t-71.5 -25.5q-4 0 -4 4q14 37 27.5 70.5t27.5 70.5q2 6 4.5 8t7.5 4q54 18 117.5 32.5t134.5 14.5q14 0 22 -5t14 -5q7 0 12.5 3t12.5 3
q8 0 11.5 4t3.5 15z" />
    <glyph glyph-name="F" unicode="F" horiz-adv-x="446" 
d="M639 615q-20 27 -45 32t-45 5q-28 0 -58 -5t-60.5 -12t-61 -15.5t-58.5 -15.5q-6 -2 -12.5 -4t-16.5 -6q-40 -16 -75 -29t-80 -24q-5 -1 -7 -7q-3 -8 -8.5 -15.5t-5.5 -17.5q0 -3 3.5 -8.5t9 -11.5t12.5 -10t14 -4q6 0 20 6t29.5 13t28.5 13t17 6t4 -5
q-18 -43 -36.5 -90.5t-37.5 -92.5q-2 -3 -3.5 -5t-6.5 -4q-16 -5 -31 -7t-35 -10q-6 -2 -6 -6q0 -5 3 -10t3 -7q0 -12 9.5 -21t23.5 -9q15 0 15 -10v-5q0 -2 -2 -7q-13 -45 -27 -95t-14 -98q0 -4 1 -6.5t6 -5.5q14 -8 30 -13t36 -5q3 0 8.5 3t5.5 11q0 7 -1 9.5t-1 17.5
q0 22 3.5 41.5t5.5 27.5q1 5 2.5 9t4.5 11q14 31 20.5 65.5t22.5 66.5q3 6 4.5 7t7.5 3q64 16 129.5 28.5t130.5 25.5q4 1 7.5 3.5t3.5 10.5q0 11 -6.5 18.5t-33.5 18.5l-10 4t-8 2q-4 0 -7.5 -0.5t-11.5 -2.5q-47 -9 -87.5 -16.5t-81.5 -17.5q-7 0 -7 5q12 47 33.5 88.5
t44.5 85.5q2 3 2 7v8q0 5 2 9.5t9 6.5q29 6 57.5 15t60.5 13q17 2 33 7t33 5q13 0 21 -3.5t12.5 -7.5t7.5 -7.5t6 -3.5q13 0 22.5 3t19.5 8q5 2 5.5 4t0.5 12q0 6 -1 12t-3 9z" />
    <glyph glyph-name="G" unicode="G" horiz-adv-x="596" 
d="M616 627q-8 6 -21.5 12.5t-29 12t-31 9t-27.5 3.5q-8 0 -17.5 -0.5t-17.5 -2.5q-25 -5 -55 -21t-59.5 -37.5t-57 -46t-46.5 -45.5q-64 -71 -102 -137.5t-58 -123t-26 -100t-6 -68.5q0 -20 10.5 -38.5t35.5 -44.5q36 -38 91 -38q17 0 40 6q22 6 39.5 12t35.5 16t38.5 26
t48.5 42q19 17 25.5 22.5t8.5 5.5q3 0 3 -3q0 -2 -3.5 -14.5t-7 -30t-7 -36.5t-3.5 -32q0 -8 2.5 -12t13.5 -4q7 0 10 -1t5 -2.5t5.5 -2.5t11.5 -1q4 0 10 2.5t12 6t10.5 7.5t4.5 7q0 15 2.5 42.5t10 62.5t21 76.5t34.5 85.5q11 23 13.5 31.5t2.5 13.5q0 8 -7 18t-16.5 19
t-19 15t-13.5 6q-20 0 -32 -2t-32 -9q-16 -5 -28.5 -8.5t-33.5 -9.5q-11 -3 -21 -3q-9 0 -24 -3q-13 -2 -16 -7t-3 -20q0 -10 5 -15t19 -16q6 -5 15 -6.5t26 -1.5q6 0 17.5 3.5t25 8t26 8t18.5 3.5q7 0 7 -5q0 -6 -9.5 -19t-32.5 -38q-9 -9 -18.5 -17.5t-26 -21.5t-42 -34
t-65.5 -56q-32 -28 -63 -40t-45 -12q-11 0 -22 4t-13 10q-3 8 -5.5 10.5t-5 6.5t-3.5 13.5t-1 30.5q0 8 1 17.5t5 26.5q10 42 26.5 86t40 86.5t52 81.5t62.5 72l27 26q14 13 29.5 29t33 30.5t37.5 26t43 16.5q19 4 30 4q31 0 31 -25q0 -20 -2 -29t-5.5 -14t-7.5 -10t-7 -16
q-2 -7 -6.5 -12t-8.5 -9.5t-7 -9.5t-3 -11q0 -3 4 -7.5t6 -9.5q5 -10 28 -15q4 -1 9.5 -5t12.5 -4q6 0 12.5 4.5t13 10.5t11 12.5t6.5 11.5q1 4 5.5 14.5t8.5 24.5t7.5 32t3.5 39q0 15 -9 30t-21 24z" />
    <glyph glyph-name="H" unicode="H" horiz-adv-x="562" 
d="M611 380q-6 0 -17 -3t-23 -6.5t-22.5 -6.5t-16.5 -3q-7 0 -7 8q15 43 33 81t33 80q6 17 8 27.5t2 19.5q0 11 -9.5 17t-19.5 6q-11 0 -18.5 1.5t-15.5 1.5q-11 0 -16 -4.5t-10 -8.5q-5 -3 -7 -10l-39.5 -118.5t-45.5 -114.5q-3 -7 -6 -9t-8 -4q-36 -11 -75 -19t-78 -14
q-6 0 -6 10q0 4 0.5 9t5.5 14q22 44 38 84t31 77t32.5 72.5t42.5 71.5q2 4 2.5 8t0.5 7q0 5 -4 10t-11 7q-19 6 -25.5 11t-14.5 5q-14 0 -20 -2.5t-10 -9.5q-36 -66 -68 -136.5t-61 -139.5q-13 -30 -20 -61t-20 -58q-2 -3 -3.5 -4.5t-6.5 -3.5q-9 -3 -23 -5.5t-27 -4.5
t-24 -3.5t-14 -1.5q-11 0 -23 4.5t-21 4.5q-8 0 -12 -4.5t-4 -9.5q0 -2 1 -8t2.5 -13t3.5 -13.5t4 -9.5q13 -15 29 -19.5t33 -4.5q15 0 30.5 3t20.5 3q4 0 4 -5t-2.5 -18t-5.5 -28.5t-6.5 -31t-4.5 -24.5t-3 -16q-2 -8 -3 -20.5t-1 -16.5q0 -10 6 -10q4 0 6.5 -3t7.5 -8
q8 -7 13.5 -7.5t14.5 -8.5q4 -3 12.5 -4.5t15.5 -1.5q14 0 17 7.5t3 21.5q0 8 -2.5 19t-2.5 25q0 11 1 16.5t3 8.5q3 6 6 22t7.5 35.5t10.5 39t14 33.5q2 4 4.5 5.5t10.5 3.5q9 2 25 5t35.5 7t40.5 8t39 8q11 0 11 -11q0 -5 -1 -11.5t-3 -11.5q-14 -41 -24 -91.5t-23 -92.5
q-3 -10 -3.5 -16t-0.5 -12q0 -5 2 -15q2 -11 6.5 -21.5t13.5 -14.5q8 -3 18.5 -5.5t20.5 -2.5q8 0 15 3.5t8 9.5q6 51 13.5 102t24.5 102q9 27 16 55t21 51q2 4 5 6t11 4q42 8 84.5 17.5t92.5 9.5q8 0 8 14q0 13 -2 15t-7 10t-13 16t-17 8q-4 0 -10 3q-15 7 -34 7z" />
    <glyph glyph-name="I" unicode="I" horiz-adv-x="254" 
d="M352 609q0 6 -6 11.5t-15 9t-19 6t-17 2.5q-17 0 -27.5 -2t-12.5 -10q-8 -26 -13.5 -40.5t-10.5 -23.5t-9 -16.5t-7 -17.5q-18 -57 -37 -111.5t-37 -108.5t-35 -109t-32 -114q-2 -9 -4 -14t-5 -10q-3 -6 -6.5 -18t-6.5 -24t-4.5 -21.5t-1.5 -11.5q0 -6 6 -6q4 0 13 -7.5
t18 -7.5q7 0 9 -5t8 -5q4 0 9 8q2 4 5 7t7 3q3 0 7 0.5t6 3.5q11 21 15 35t4 26q0 5 -1 8t-1 7t2 10q39 118 76 230.5t80 222.5q5 14 7.5 17.5t5.5 6.5q9 9 15 16t9 14.5t4.5 16.5t1.5 22z" />
    <glyph glyph-name="J" unicode="J" horiz-adv-x="400" 
d="M324 140q34 109 75.5 211t89.5 202q7 14 14.5 23t14 17.5t11 18t4.5 24.5q0 4 -3 9.5t-19 16.5q-18 12 -26 15t-11 3q-32 0 -71 -7t-77.5 -15.5t-74 -15.5t-61.5 -7q-10 0 -11 -8q-2 -8 -4.5 -17.5t-2.5 -20.5q0 -5 1.5 -7t3 -3.5l3.5 -3.5t3 -6q3 -11 15 -14
q15 -3 36 -3q15 0 29.5 2.5t26.5 10.5q5 3 8 4.5t9 3.5q23 5 49.5 13t54.5 13q6 0 6 -4q-17 -38 -31 -68t-25.5 -57.5t-23 -55.5t-24 -61t-27 -74.5t-33.5 -95.5q-9 -27 -16.5 -46t-14 -34.5t-14 -28.5t-16.5 -28q-12 -19 -21.5 -30t-18.5 -17t-17.5 -8t-16.5 -2
q-4 0 -10.5 4.5t-12.5 15.5t-10.5 28t-4.5 43q0 22 1 31.5t2.5 14.5t4 9t5.5 16q5 19 12 27.5t7 21.5q0 14 -11 25t-24 11q-5 0 -12.5 2t-18.5 2q-9 0 -19.5 -17.5t-15.5 -37.5q-7 -28 -8 -51t-1 -37q0 -29 4.5 -54.5t13.5 -46.5t22.5 -35.5t31.5 -20.5q17 -5 32.5 -16
t35.5 -11q32 0 66 29t59 70q6 10 13.5 24.5t15.5 31.5t15 35.5t13 36.5z" />
    <glyph glyph-name="K" unicode="K" horiz-adv-x="532" 
d="M382 627q-5 5 -12 6.5t-12 3.5q-9 4 -9.5 6.5t-6.5 5.5q-4 2 -11 2q-13 0 -21.5 -10t-16.5 -15q-5 -3 -6.5 -5.5t-7.5 -13.5q-24 -46 -54.5 -108.5t-62 -135t-61.5 -151.5t-55 -158q-4 -12 -4.5 -18t-0.5 -11q0 -10 9 -14.5t20 -9.5q13 -5 15.5 -11t10.5 -6t18 6
q13 8 15.5 12t3.5 9q12 71 37.5 138.5t57.5 131.5q2 4 5 4t4 -5q7 -22 18 -50t26 -58.5t34 -62t43 -61.5q14 -18 32 -37t35 -39q8 -10 20 -21.5t26.5 -21.5t31.5 -16.5t36 -6.5q7 0 9.5 1t4 2t4 2t9.5 2q6 1 10.5 5.5t4.5 13.5q0 12 -11 22t-31 20q-8 4 -13 8.5t-16 15.5
q-25 25 -50 55t-47 61t-40 59.5t-28 49.5q-6 13 -7.5 21.5t-9.5 25.5q-8 16 -8 27q0 7 2.5 10t11.5 8q40 20 77 39t72 40q63 38 123 87t112 112q7 8 8 10.5t1 4.5q0 5 -6 11q-2 2 -6 2.5t-8 3.5q-10 8 -24 13.5t-28 5.5q-3 0 -4.5 -0.5t-5.5 -5.5q-60 -72 -138.5 -131
t-179.5 -109q-8 -4 -11.5 -5.5t-6 -2t-4.5 -1l-6 -1.5q-14 -5 -21 -5q-5 0 -6 1t-1 4q23 53 51 104t60 99q7 11 7 15q0 5 -1 10.5t-6 10.5z" />
    <glyph glyph-name="L" unicode="L" horiz-adv-x="450" 
d="M405 628q0 6 -10 12.5t-19 8.5q-15 4 -18 8.5t-10 4.5q-5 0 -16 -1.5t-15 -9.5q-57 -125 -116.5 -248.5t-104.5 -254.5q-5 -14 -6.5 -22t-2.5 -13t-1.5 -8.5t-2.5 -9.5q-8 -19 -12.5 -32t-4.5 -24q0 -9 4 -14q6 -8 14 -18t18.5 -19t22.5 -15t27 -6q41 0 77.5 8.5t72 20.5
t71 25t73.5 22q6 2 9 2h10q23 0 31 2.5t11 7.5q2 4 2.5 7.5t0.5 6.5q0 8 -3 11t-3 6q0 4 -2.5 7t-4.5 5q-12 12 -29 19t-25 7q-13 0 -18 -2q-47 -19 -97.5 -37t-103.5 -32q-21 -5 -29.5 -6.5t-12.5 -1.5q-7 0 -11 6t-4 13q0 11 4 21q31 90 64.5 175t71.5 167q9 20 15 30.5
t12 25.5q11 29 23 50.5t28 34.5q6 5 6 9q0 11 7 21t7 30z" />
    <glyph glyph-name="M" unicode="M" horiz-adv-x="654" 
d="M396 657q0 5 -6 11q-8 8 -21 11t-25 5q-13 2 -16 3.5t-11 1.5q-2 0 -4 -4t-7 -15q-26 -64 -58.5 -131.5t-65.5 -137.5t-62.5 -142.5t-48.5 -146.5q-2 -9 -7.5 -19t-11.5 -21.5t-10.5 -24.5t-4.5 -27q0 -13 7.5 -25t12.5 -12q2 0 7 -2.5t10.5 -5.5t11 -5.5t8.5 -2.5
q6 0 9 5t14 5q5 0 12 6t7 11q0 32 15 90t47 146q11 29 30 78.5t46 100.5q6 11 8 14t4 3q3 0 3 -5v-66v-31q2 -32 8.5 -57t12.5 -34q8 -13 20.5 -17t25.5 -6q17 -3 25.5 -6t10.5 -3t4 1t9 9q5 6 21 23.5t36.5 39.5t43 46t40.5 42q3 3 5 3q4 0 4 -4q-7 -21 -15 -46.5
t-15.5 -49.5t-13 -44.5t-7.5 -32.5q-2 -8 -5.5 -28t-7.5 -46.5t-9 -55t-9 -53t-6.5 -41t-2.5 -18.5q0 -4 1.5 -5.5l6.5 -6.5q6 -5 18 -12t22 -7q5 0 5.5 2t5.5 2q7 0 12.5 -4t10.5 -4q4 0 4.5 4t2.5 19q10 105 26 191.5t39 160.5t53.5 138t70.5 124q5 7 5 10q0 9 -3.5 16.5
t-7.5 13t-8 8.5t-5 3q-8 0 -16 4t-28 4q-4 0 -6.5 -1.5t-7.5 -8.5q-29 -38 -64 -72.5t-72.5 -69t-75 -69.5t-71.5 -72q-8 -8 -9 -9.5t-3 -1.5q-6 0 -6 12q0 37 -0.5 61.5t-0.5 39.5t-0.5 22.5t-0.5 10.5q0 40 3.5 68.5t5.5 36.5q3 12 7.5 27t8 30t6.5 27.5t3 18.5z" />
    <glyph glyph-name="N" unicode="N" horiz-adv-x="598" 
d="M426 -22q12 0 22 5.5t25 20.5q4 4 6 7.5t8 18.5q31 77 54.5 145.5t43.5 130.5t37.5 117.5t35.5 106.5q5 15 7 23.5t7 16.5q7 12 9 20t2 18q0 2 -3.5 7.5t-9 11t-12 10t-11.5 4.5q-8 0 -19 3t-22 3t-14 -3.5t-7 -17.5q-8 -26 -9 -54t-8 -54q-5 -18 -9 -28t-9 -27
q-29 -96 -57.5 -188.5t-69.5 -180.5q-5 -10 -6 -12.5t-3 -2.5q-4 0 -8 15q-20 73 -29.5 146t-17.5 145t-20 144t-36 145q-5 14 -14 14q-19 0 -35.5 -3t-24.5 -6q-7 -3 -8.5 -5.5t-1.5 -5.5q0 -26 7.5 -37.5t7.5 -19.5q0 -4 -2.5 -5t-6 -2t-7 -3t-4.5 -8q-10 -41 -19 -77
t-22 -85l-9 -34q-2 -7 -10.5 -36t-21 -69.5t-26 -87t-25.5 -88.5t-19.5 -73.5t-7.5 -42.5q0 -5 4.5 -8.5t10.5 -6.5q4 -2 6.5 -4.5t6 -4t9 -2.5t17.5 -1q16 0 26.5 5t10.5 13q0 4 3 36q5 51 19 110.5t30.5 116t31.5 104t23 75.5q4 14 8 14q3 0 4.5 -2.5t3.5 -11.5
q7 -30 14 -77.5t15 -101t17.5 -108t23.5 -98.5q6 -20 15 -32.5t37 -26.5q16 -8 22.5 -9.5t13.5 -1.5z" />
    <glyph glyph-name="O" unicode="O" horiz-adv-x="490" 
d="M448 601q-6 5 -11.5 6.5t-10.5 1.5q-4 0 -11 2t-15 4.5t-15 5t-11 4.5q-14 6 -22 6t-26 -11q-35 -21 -62.5 -51.5t-54.5 -70.5q-56 -81 -88.5 -164.5t-32.5 -186.5q0 -38 7.5 -63t24.5 -51q11 -17 28 -30.5t29 -17.5q17 -5 30.5 -7t29.5 -2q42 0 78.5 15.5t60.5 45.5
q50 63 80.5 145t52.5 172q4 15 6 25t3 18t1 14v15q0 64 -21 106.5t-50 68.5zM381 546q0 -6 6 -8q19 -6 28.5 -23.5t13.5 -40.5q1 -6 1 -12v-21q0 -11 -5 -46.5t-18.5 -85.5t-38 -109.5t-63.5 -119.5q-11 -16 -30.5 -26.5t-38.5 -10.5q-9 0 -19.5 3t-13.5 6q-16 16 -25 40
t-9 56q0 8 1 19t1.5 21t1.5 18t1 11q0 22 4.5 37l7.5 25q22 70 60 133t87 114q21 22 30 26t11 4q7 0 7 -10z" />
    <glyph glyph-name="P" unicode="P" horiz-adv-x="490" 
d="M573 442q16 29 31 62t15 76q0 30 -8.5 43.5t-25.5 27.5q-19 16 -33.5 18.5t-36.5 2.5q-46 0 -88 -11.5t-82 -29.5t-77.5 -41t-74.5 -47q-20 -13 -27.5 -22t-7.5 -20q0 -4 7 -11q5 -5 7 -10.5t16 -13.5q8 -5 13 -5t5.5 -1t0.5 -4q-3 -14 -6 -23.5t-7 -20t-8.5 -23.5
t-11.5 -34q-1 -4 -4 -4q-13 0 -21 -5.5t-11 -6.5t-4.5 -3t-1.5 -8q0 -8 6 -14t13 -11q4 -3 4 -8q-2 -11 -7.5 -28.5t-12.5 -36.5t-12 -35.5t-5 -25.5q0 -4 -2 -9.5t-4 -9.5q-5 -12 -9.5 -29.5t-9 -36t-8.5 -35.5t-7 -29q-4 -16 -4 -19t3 -6q6 -6 10 -8t8 -3.5t8.5 -4
t10.5 -8.5q3 -3 13 -3q12 0 23 8q7 5 7 11t5.5 31.5t14 60.5t19.5 74.5t22 73.5q3 9 4.5 11t3.5 2t8 -4q7 -5 12.5 -9.5t12 -8.5t15.5 -6.5t23 -2.5q15 0 31.5 3.5t30.5 8t24.5 9.5t14.5 8q50 39 96.5 92t78.5 112zM534 588q0 -12 -5 -29.5t-12 -36t-15.5 -36.5t-15.5 -31
q-28 -51 -71 -98.5t-91 -79.5q-7 -5 -8.5 -5.5t-6.5 -0.5q-11 0 -24.5 10t-33.5 27q11 54 33 109.5t42 109.5q17 17 37 27.5t41 17.5t43 12t44 11q8 2 11.5 2.5t6.5 0.5q19 0 22 -2.5t3 -7.5z" />
    <glyph glyph-name="Q" unicode="Q" horiz-adv-x="554" 
d="M568 576q-22 19 -42.5 24.5t-35.5 13.5q-22 11 -40 11q-8 0 -23.5 -3t-35 -9t-41 -15.5t-41.5 -22.5q-12 -8 -21 -13t-20 -14q-53 -45 -90 -101.5t-66 -115.5q-3 -6 -5 -13.5t-6 -19.5q-9 -30 -14 -60t-5 -62q0 -20 2.5 -40.5t7.5 -42.5q6 -25 15.5 -42.5t28.5 -27.5
q5 -3 12.5 -8t16 -10.5t15.5 -10.5t12 -6q10 -4 19 -5.5t38 -1.5q12 0 29.5 5.5t37.5 15t40 24t37 32.5q3 4 7 4q1 0 2.5 -1t5.5 -6q19 -27 51 -66.5t71 -72.5q14 -11 29 -15.5t40 -4.5q17 0 23.5 4.5t6.5 12.5q0 2 -4 5.5t-9 7.5q-18 13 -39.5 36t-43 51.5t-41 59.5
t-34.5 60q0 5 0.5 6t2.5 4q33 44 59.5 87t45 82.5t28.5 74t10 61.5q0 57 -9.5 85.5t-26.5 42.5zM486 561q20 0 28 -20t8 -65q0 -29 -8.5 -62t-23 -65.5t-32 -62.5t-35.5 -53q-5 -7 -7.5 -9t-4.5 -2q-3 0 -12 16q-5 8 -9.5 24.5t-12.5 42.5q-5 15 -18 15q-15 0 -24.5 6
t-26.5 6q-16 0 -21 -5t-5 -13q0 -5 1.5 -11.5t3.5 -13.5q1 -5 5 -13.5t11.5 -25t20 -42t31.5 -62.5q0 -8 -5 -13q-47 -47 -79 -65.5t-52 -18.5q-17 0 -27 12.5t-15 31t-7 39.5t-2 38q0 56 18 106.5t50 98.5q33 50 76.5 94.5t102.5 73.5q14 7 35 12.5t36 5.5z" />
    <glyph glyph-name="R" unicode="R" horiz-adv-x="494" 
d="M532 576q-5 11 -10.5 17.5t-25.5 20.5q-3 2 -6.5 5t-21.5 9q-14 5 -36 8t-45 3q-33 0 -64.5 -7t-58.5 -17.5t-49 -23t-37 -23.5l-4.5 -4.5t-2.5 -8.5q0 -4 4.5 -11.5t10.5 -14.5t12 -12.5t9 -5.5q4 0 4 -4q-6 -12 -11.5 -31t-12.5 -28q-5 -6 -6.5 -10t-6.5 -17
q-34 -97 -61 -194.5t-41 -198.5q0 -10 8.5 -15t13.5 -7q12 -6 14 -8t11 -2q20 0 30.5 5t10.5 13q0 13 3 37t8.5 54.5t13.5 64.5t18 66q3 10 9 10q2 0 3.5 -1t4.5 -6q21 -37 40.5 -72.5t42 -68t50.5 -62t67 -53.5q24 -15 45.5 -24t39.5 -9q11 0 21 3.5t10 11.5q0 7 -3 16.5
t-7.5 17.5t-9.5 14t-10 7q-17 4 -33 10.5t-41 29.5l-24.5 24.5t-31.5 34.5q-6 7 -10 14q-17 29 -37.5 58.5t-30.5 54.5q0 5 2 6t7 3q23 7 45 13.5t42.5 15t39.5 20.5t35 29q42 45 60 90t18 82q0 25 -5 43t-10 28zM456 566q3 -3 5 -9.5t2 -18.5q0 -33 -9.5 -62t-26 -53.5
t-37.5 -44.5t-43 -34q-10 -6 -16.5 -9t-11 -4t-9 -1.5t-10.5 -2.5q-11 -4 -17.5 -5.5t-16.5 -1.5q-6 0 -13.5 1.5t-12.5 5.5q-3 2 -3 7q12 36 23 66t23 56.5t25 51.5t28 51q3 6 13 9q15 5 30.5 8.5t32.5 3.5q13 0 25 -3.5t19 -10.5z" />
    <glyph glyph-name="S" unicode="S" horiz-adv-x="432" 
d="M451 596q-33 36 -71.5 47t-78.5 11q-20 0 -31 -9.5t-17.5 -23.5t-9 -30t-5.5 -28q-1 -5 -1 -22q0 -7 1 -18.5t2.5 -23t3 -21.5t2.5 -14q8 -42 18.5 -81t21.5 -76.5t21 -76t16 -80.5q2 -15 3.5 -36t1.5 -41q0 -16 -11 -26.5t-23 -10.5q-14 0 -26 4q-21 7 -42 19t-40 27.5
t-34 32.5t-25 35q-2 5 -4 9t-2 7q0 16 3.5 22.5t3.5 17.5q0 4 -10.5 15t-24.5 20q-10 6 -24 10t-27 4q-8 0 -15 -11t-7 -18v-15t2 -15q4 -21 11 -36.5t15 -27t16 -19.5t14 -15q48 -60 110.5 -95.5t129.5 -35.5q17 0 25 0.5t14 2.5q28 11 45 34.5t17 54.5q0 14 -1 26t-6 40
q-5 30 -14.5 68.5t-20 77.5t-20.5 75t-16 60q-10 41 -12 66t-2 33q0 37 9.5 58t14.5 21q11 0 22 -6t17 -16.5t9 -21.5t5.5 -21t6.5 -16q5 -7 17.5 -19t26.5 -16q10 -3 17 -3q8 0 14.5 4t6.5 9t-2 14l-4 18q-3 19 -11 41.5t-25 40.5z" />
    <glyph glyph-name="T" unicode="T" horiz-adv-x="388" 
d="M618 581q0 4 -9.5 12.5t-23 17t-30 14.5t-29.5 6q-39 0 -76 -5t-73 -11t-71.5 -11t-71.5 -5q-25 0 -38.5 1t-21 2.5t-11 2.5t-6.5 1q-5 0 -13.5 -8.5t-8.5 -26.5v-23t2 -6q8 -8 24 -12t32 -4q19 0 40.5 2t32.5 3q6 0 6 -4q-54 -111 -92 -224t-67 -234q-2 -8 -3.5 -22.5
t-1.5 -19.5t4.5 -13.5t8.5 -10.5q12 -7 26 -13t25 -6q17 0 22 9t5 23q0 6 -0.5 12t-0.5 12q0 10 1.5 16.5t3.5 18.5q24 127 67.5 237.5t107.5 218.5q2 4 2 6q0 5 -7 12q32 6 69.5 10.5t79.5 4.5q8 0 13 -3t19 -8q11 -5 13 -9t8 -4q12 0 18.5 4.5t11.5 6.5t9 8.5t4 21.5z" />
    <glyph glyph-name="U" unicode="U" horiz-adv-x="600" 
d="M336 624q-3 6 -10 9.5t-13 5.5q-15 6 -19.5 9t-8.5 3q-11 0 -18 -8.5t-12 -18.5q-2 -5 -5 -9.5t-6 -12.5q-32 -88 -67.5 -173t-63.5 -173q-9 -29 -18 -70t-9 -88q0 -21 1.5 -39.5t3.5 -23.5q5 -9 11.5 -12.5t14 -5.5t15 -4.5t14.5 -9.5t19.5 -11t21.5 -4q13 0 26 5t20 11
q62 54 119 118t114 130q5 5 8 5q5 0 5 -5q0 -4 -3 -16q-11 -45 -14.5 -94.5t-9.5 -101.5q-1 -10 -5 -16q-3 -5 -4 -10.5t-1 -10.5q0 -10 6 -12.5t12 -6.5q11 -7 19 -12t16 -7t10 -4.5t13 -2.5q14 0 14 10q0 2 -0.5 7.5t-0.5 22.5q0 104 17.5 200.5t54.5 196.5q12 32 31 61.5
t31 61.5q7 17 7 22q0 3 -2 6.5t-4 7.5l-14 22q-5 9 -11 9q-14 0 -22 2t-11 2q-4 0 -14 -10.5t-15 -18.5q-7 -11 -10 -17t-4.5 -10t-3.5 -8t-6 -11q-19 -31 -49 -74.5t-72.5 -97.5t-97.5 -116.5t-124 -131.5q-12 -12 -22.5 -16t-16.5 -4q-2 0 -3.5 3t-1.5 12q0 17 1 30.5
t3 24.5q8 54 25.5 106.5t40 105t47 106.5t47.5 111q2 5 5.5 13.5t3.5 11.5q0 5 -1.5 13t-3.5 13z" />
    <glyph glyph-name="V" unicode="V" horiz-adv-x="470" 
d="M273 625q-5 9 -12.5 12t-13.5 3q-12 0 -20 1t-13 1q-14 0 -18 -7.5t-4 -18.5q0 -16 -1 -23t-2 -10.5t-2.5 -7.5t-1.5 -13q-2 -49 -9.5 -104.5t-16.5 -114.5t-18.5 -119.5t-15.5 -118.5q-1 -5 -1.5 -12t-0.5 -11q0 -5 -1.5 -9t-1.5 -8q0 -11 6.5 -20.5t6.5 -17.5
q0 -7 1.5 -9.5t4.5 -5.5q14 -14 29.5 -22.5t24.5 -8.5q6 0 8 3t12 3q11 0 16 -3t12 -3t26 19q38 38 72 90.5t66 111t63.5 119t65.5 114.5q9 14 17 34t14.5 40.5t10 38t3.5 26.5q0 11 -7 18t-15 13q-8 7 -9.5 11.5t-9.5 4.5q-6 0 -12.5 0.5t-15.5 0.5q-22 0 -22 -15
q0 -4 1 -8t1 -15q0 -35 -12 -65t-27 -58q-36 -66 -70 -126.5t-69 -124.5q-20 -36 -36 -58.5t-28 -34.5t-19.5 -16t-10.5 -4q-5 0 -5 17v10q0 6 1 13q11 111 30.5 220.5t34.5 218.5q1 6 1 11v10q-1 11 -3 17t-4 11z" />
    <glyph glyph-name="W" unicode="W" horiz-adv-x="684" 
d="M713 639q-8 17 -19 21t-25 4q-11 0 -17.5 1t-12.5 1q-8 0 -10.5 -9t-2.5 -26q0 -11 3 -18.5t7 -14.5t7 -14.5t3 -19.5q0 -11 -0.5 -17.5t-0.5 -12.5t-0.5 -12t-0.5 -15q0 -8 -1 -18t-5 -26q-24 -104 -62.5 -207t-99.5 -185q-5 -6 -8.5 -10t-6.5 -4q-5 0 -7 9
q-13 65 -13 126q0 48 7.5 92t21.5 88q2 5 2.5 9.5t0.5 13.5q0 17 -17 37q-9 11 -21 12q-5 1 -12.5 3t-13.5 2q-3 0 -4.5 -1.5t-3.5 -6.5q-5 -11 -9 -23.5t-7 -26.5q-2 -8 -3.5 -13.5t-3 -10t-3.5 -10t-6 -13.5q-24 -54 -67.5 -114.5t-92.5 -111.5q-14 -14 -19 -17t-7 -3
q-3 0 -3 5q0 2 1 10t4 22q25 120 56.5 237.5t77.5 227.5q1 2 2 5t1 5q0 1 -3 5t-7.5 8.5l-8.5 8.5t-6 4q-8 2 -15.5 4t-15.5 2q-20 0 -24.5 -4.5t-6.5 -12.5q-28 -103 -60 -208t-55 -210q-3 -12 -4 -18.5t-1.5 -11.5l-1 -10t-1.5 -14q-3 -20 -6.5 -40.5t-3.5 -45.5v-23
q0 -5 2 -11q1 -5 5 -7t9.5 -3.5l11 -3t9.5 -5.5q26 -23 36 -23q17 0 33 13t32.5 32t33.5 41t36 39q12 11 19.5 20.5t15.5 21.5q5 8 9 8q2 0 3.5 -2.5t3.5 -15.5q5 -41 9 -73.5t18 -62.5q5 -11 20 -15t20 -9q7 -7 13.5 -10t17.5 -4q14 -1 19.5 -4t9.5 -3q19 0 30.5 10
t20.5 23q64 91 105 190.5t64 204.5q10 47 15 79.5t5 70.5q0 10 -0.5 19.5t-1.5 20.5q-1 14 -3.5 27t-9.5 27z" />
    <glyph glyph-name="X" unicode="X" horiz-adv-x="482" 
d="M660 646q-14 4 -26 9.5t-25 5.5q-6 0 -8.5 -2t-7.5 -8q-29 -33 -60.5 -62.5t-64 -57.5t-65 -55.5t-62.5 -57.5q-7 -7 -13 -9.5t-9 -2.5q-4 0 -6 3.5t-4 14.5q-5 30 -8 57.5t-3 56.5q0 35 4.5 51.5t4.5 23.5q0 8 -8.5 17t-14.5 20q-4 7 -11 8.5t-24 1.5q-9 0 -15.5 -0.5
t-11.5 -4.5q-7 -5 -8 -8t-1 -8t1.5 -10.5t1.5 -9.5q0 -5 -1 -7t-2.5 -4.5t-2.5 -6t-1 -10.5q0 -28 1 -53t4 -53t8.5 -63t14.5 -83q0 -6 -1.5 -9t-12.5 -14q-23 -25 -48 -48.5t-49.5 -48t-48 -50.5t-42.5 -57l-7.5 -12t-6.5 -12q-10 -20 -23.5 -39.5t-13.5 -39.5
q0 -10 0.5 -12t5.5 -7q12 -12 27 -19.5t32 -7.5q5 0 7 4.5t13 8.5q10 3 12 6.5t3 7.5q8 32 24 61.5t36.5 57t44 53t47.5 51.5q11 11 15 14.5t6 3.5q5 0 7 -13q6 -28 10 -58t9 -60t13 -59t22 -56q4 -8 6 -10t8 -4q15 -6 29 -10t25 -4q6 0 13 1.5t10 4.5q5 5 6.5 8.5t1.5 8.5
q0 7 -4 14.5t-8.5 14.5t-9.5 14t-6 14q-14 64 -32 127t-29 130q0 6 2 9t10 11q41 37 81.5 71t82.5 70q9 8 19 16.5t24 22.5q22 21 41 34.5t35.5 25.5t30.5 23.5t27 28.5q2 3 2.5 7t0.5 6q0 5 -8 15t-16 12z" />
    <glyph glyph-name="Y" unicode="Y" horiz-adv-x="502" 
d="M257 668q-14 2 -29 5.5t-34 3.5q-5 0 -8 -9q-15 -53 -26.5 -105.5t-20.5 -108.5q-2 -14 -5.5 -21.5t-3.5 -23.5q0 -14 -2 -20t-3 -16q-1 -16 -2 -34t-1.5 -34t-1 -27t-0.5 -12q0 -9 10.5 -25t29.5 -33q10 -9 20.5 -16t20.5 -12.5t17 -8.5t10 -3q24 0 45.5 7t38.5 17.5
t29.5 21.5t19.5 19l8 9q-26 -88 -51 -177.5t-41 -174.5q-3 -17 -5.5 -32t-5.5 -28q-6 -28 -14 -56.5t-8 -61.5q0 -8 0.5 -17t1.5 -13q2 -10 14.5 -16.5t32.5 -9.5q10 -2 15.5 -3.5t10.5 -1.5q6 0 6 8q0 5 2 10t4 20q39 288 107.5 501.5t174.5 362.5q4 5 5 8.5t1 5.5
q0 4 -4 15t-7 14q-13 13 -31.5 17.5t-28.5 4.5q-4 0 -11 -10q-5 -7 -23 -35.5t-41 -74.5q-37 -72 -65 -110.5t-44 -54.5q-22 -22 -49.5 -43.5t-63.5 -44.5q-8 -5 -16 -6.5t-14 -1.5q-10 0 -14.5 3.5t-4.5 6.5q0 32 4 71t10.5 81t14.5 85t16 83q3 14 7 23t7.5 16.5t6 14.5
t2.5 18q0 8 -4 18t-9 11z" />
    <glyph glyph-name="Z" unicode="Z" horiz-adv-x="560" 
d="M659 555q0 6 -7.5 15t-16.5 18t-17.5 16t-11.5 9q-41 23 -88.5 34t-95.5 11q-56 0 -108.5 -13t-91.5 -39q-3 -2 -3.5 -4t-0.5 -9q6 -26 12 -39t21 -21q5 -2 12 -4.5t15 -2.5q7 0 14 2t9 5q17 32 56 44.5t80 12.5q16 0 37 -1.5t40 -4.5t32.5 -8.5t13.5 -13.5q0 -3 -2.5 -7
t-4.5 -7q-21 -31 -54.5 -62.5t-71.5 -60t-76 -53.5t-69 -44q-4 -2 -14.5 -4.5t-23 -4.5t-24 -3.5t-15.5 -1.5q-6 0 -21 3t-39 11q-5 2 -11 3.5t-11 1.5q-7 0 -16 -6t-9 -17q0 -16 -1.5 -17.5t-1.5 -8.5q0 -4 2.5 -10t5.5 -10q5 -5 18 -10t27 -7q7 -1 7 -5q0 -2 -6 -7
q-33 -27 -56.5 -47t-39.5 -36t-25 -28.5t-13 -22.5q-2 -5 -2.5 -10t-0.5 -15q0 -7 5.5 -18t12.5 -22t14 -19.5t10 -10.5q48 -30 98 -42.5t102 -12.5q64 0 135 17t134 45q7 3 7.5 6t6.5 3q8 0 8.5 -2t8.5 -2q7 0 7 8q0 13 -12 26t-20 27q-2 3 -7 4.5t-11 3t-11 2t-7 0.5
q-5 0 -11 -2t-17 -6q-21 -8 -50.5 -18.5t-62.5 -20t-66.5 -16.5t-61.5 -7q-18 0 -30.5 4t-25.5 4q-9 0 -18.5 3t-17.5 6.5t-13.5 8t-5.5 7.5q0 4 2 8.5t4 9.5q15 30 39.5 54t53 45.5t58.5 41.5t56 42q28 4 55 10t54.5 12t55.5 10t59 4q16 0 25.5 -0.5t14.5 -0.5t7.5 -0.5
t4.5 -0.5q5 0 10.5 6t5.5 16q0 11 -5 17q-14 18 -40 26t-58 8q-9 0 -9 5q0 2 0.5 3.5t4.5 4.5q7 5 20.5 17t28.5 25.5t29 27t22 22.5q16 17 25.5 28t14.5 20.5t6.5 18.5t1.5 23z" />
    <glyph glyph-name="bracketleft" unicode="[" horiz-adv-x="326" 
d="M478 810h-37q-22 0 -41.5 -1.5t-36.5 -7.5q-5 -2 -12.5 -7t-18.5 -21.5t-25.5 -49t-33.5 -90.5l-222 -670q-7 -20 -11 -33.5t-6.5 -22.5t-3 -16.5t-0.5 -15.5q0 -10 6 -22.5t15 -23t19.5 -18t19.5 -8.5q32 -2 57.5 -2.5t36.5 -0.5h19q21 0 35.5 0.5t18.5 4.5q2 2 6.5 5
t9 8.5t7.5 14.5t3 23q0 5 -5.5 16t-16.5 11q-15 0 -32 -2t-53 -2q-17 0 -27 1t-14.5 3.5t-5.5 5.5t-1 7q0 6 1.5 18t12.5 42q31 88 63 189.5t64.5 202t63.5 192t60 158.5q5 12 10 19t12.5 10.5t20 4.5t33.5 1h11q23 0 32 -1t14 -1q17 0 23 5t14 22q2 5 3.5 8.5t1.5 8.5
q0 11 -3 13t-4 7q-2 9 -21.5 12t-61.5 3z" />
    <glyph glyph-name="backslash" unicode="\" horiz-adv-x="374" 
d="M266 645q0 29 -11 39t-30 10q-4 0 -7 1t-8 1q-13 0 -17 -3q-11 -7 -16 -27q-2 -5 -2 -17v-25q0 -15 0.5 -30.5t2.5 -29.5l77 -517q2 -14 3 -33.5t1 -27.5q0 -17 4.5 -28t9.5 -21t12 -12.5t20 -2.5q14 0 19 5t12 5q5 0 5 31q0 15 -1.5 35t-5.5 49q-11 82 -21 147.5
t-19.5 121.5t-17.5 106t-14 101q-2 18 -3.5 34t-1.5 35q0 20 4.5 32.5t4.5 20.5z" />
    <glyph glyph-name="bracketright" unicode="]" horiz-adv-x="326" 
d="M-30 -200h37q22 0 41.5 1.5t36.5 7.5q7 3 14.5 7.5t18 21t24.5 49t33 90.5l222 670q7 20 11 33t6 22.5t3 17t1 15.5q0 9 -6.5 21.5t-15.5 23.5t-19.5 19t-18.5 8q-32 2 -54 2.5t-50 0.5q-30 0 -41 -0.5t-19 -4.5q-7 -3 -18 -13t-11 -38q0 -5 5.5 -16t16.5 -11q7 0 13 0.5
t14 1.5t19 1.5t29 0.5q21 0 33 -1.5t17 -3.5t6 -5t1 -7q0 -5 -3.5 -24t-9.5 -36q-20 -59 -41 -124t-42.5 -132.5t-43 -135.5t-42.5 -130.5t-42 -119t-40 -100.5q-5 -12 -10 -19t-13 -10.5t-20.5 -4.5t-32.5 -1h-11q-23 0 -32 1t-14 1q-17 0 -23 -5t-14 -22q-2 -5 -3.5 -8.5
t-1.5 -8.5q0 -11 3 -13t4 -7q2 -9 21.5 -12t61.5 -3z" />
    <glyph glyph-name="asciicircum" unicode="^" horiz-adv-x="550" 
d="M500 655q-5 11 -8.5 12t-6.5 7q-1 2 -6.5 7t-19.5 5q-7 0 -17 -5l-173 -85q-17 -8 -33 -16.5t-18 -13.5q-1 -3 -4.5 -9.5t-3.5 -12.5q0 -12 1 -21t3 -11q3 -3 11 -12.5t21 -9.5q6 0 10 4t11 9.5t24.5 16.5t48.5 30t83 49q5 3 7 3.5t5 0.5q5 0 7 -1.5t6 -8.5l87 -163
q5 -10 13.5 -15.5t11.5 -5.5q9 0 13 2.5t13 14.5q5 6 7.5 4.5t2.5 9.5q0 5 -1.5 9.5t-6.5 16.5z" />
    <glyph glyph-name="underscore" unicode="_" horiz-adv-x="626" 
d="M-119 -96v-64h700v64h-700z" />
    <glyph glyph-name="grave" unicode="`" 
d="M363 743l102 -66q9 -6 15 -7.5t16 -1.5t13 10q1 3 1 7t2 9t3.5 8.5t1.5 8.5q0 7 -26 25l-102 70q-17 12 -27 19.5t-15.5 11.5t-8 5.5t-4.5 1.5q-3 0 -6 1.5t-8 1.5q-12 0 -24 -12q-6 -6 -8.5 -11.5t-2.5 -14.5q0 -14 2 -22t10 -11q17 -7 36.5 -16.5t29.5 -16.5z" />
    <glyph glyph-name="a" unicode="a" horiz-adv-x="468" 
d="M492 435q-2 5 -6.5 10.5t-8.5 9.5q-14 14 -29 21.5t-32 7.5q-12 0 -22 -3q-86 -25 -160 -79q-23 -17 -61 -50.5t-83 -99.5q-37 -55 -48.5 -89t-11.5 -59q0 -29 9 -42.5t13 -16.5q18 -14 29.5 -23t19 -14t12.5 -6.5t9 -1.5q3 0 7 1t9 3q13 4 26 9.5t27 14t30 21t36 30.5
l54 50q18 18 24 18q4 0 4 -5q0 -2 -2 -14.5t-2 -35.5q0 -21 3.5 -42.5t13.5 -43.5q5 -10 18.5 -15t24.5 -5q5 0 9.5 1.5t9.5 2.5q13 2 17 7t4 7t-2 6q-11 17 -16 36t-5 39q0 23 4.5 45.5t9.5 43.5q7 29 20 57t28.5 55t33 52t34.5 48q4 6 4 11q0 3 -2 6q-6 9 -15 11t-13 2
q-8 0 -14.5 5.5t-9.5 13.5zM428 422q13 0 18 -7.5t5 -12.5q0 -10 -5 -15q-8 -8 -16 -18t-13 -20q-19 -36 -47.5 -67t-61.5 -60.5t-69 -59t-71 -62.5q-14 -13 -28.5 -20.5t-20.5 -7.5q-14 0 -18 9t-4 18q0 11 6 27t16 34.5t23.5 38.5t29.5 39q43 52 98.5 94t126.5 80
q10 5 19.5 7.5t11.5 2.5z" />
    <glyph glyph-name="b" unicode="b" horiz-adv-x="386" 
d="M450 738q0 11 -4 19t-15 13q-17 6 -29 6q-21 0 -35 -11t-25 -31q-32 -56 -62.5 -108.5t-59.5 -105t-56 -105.5t-52 -111q-3 -6 -7.5 -19t-9.5 -27t-9 -26l-5 -15q-9 -26 -15 -54t-6 -57q0 -12 2 -24.5t5 -25.5q3 -11 11.5 -19.5t18.5 -15.5t19 -11.5t14 -5.5
q9 -3 14.5 -3.5t12.5 -0.5q21 0 39.5 9.5t35 24t30.5 32t26 34.5q4 6 7 10t6 9.5t6.5 12.5t8.5 19q11 26 24.5 50.5t18.5 56.5q3 19 5 24t2 14q0 5 -1 10.5t-1 10.5q0 3 1 6t3 3q6 0 15 -3t14 -3q27 0 51.5 6.5t48.5 15.5t49 17.5t54 12.5q4 1 6.5 7.5t2.5 9.5q0 6 -4.5 13
t-7.5 9q-8 6 -20 6q-5 0 -7 1t-5 1q-2 0 -8.5 -2t-14.5 -4q-72 -20 -109 -24.5t-46 -4.5t-14 1t-10 4.5t-11.5 10.5t-16.5 19q-8 9 -16.5 17t-18.5 8q-13 0 -22.5 -16t-9.5 -29q0 -5 1 -10.5t4 -7.5q6 -5 10 -14.5t6 -19.5t3 -18.5t1 -10.5q0 -4 -2 -11t-4 -15
q-8 -30 -16.5 -54.5t-19.5 -48t-26 -47t-37 -51.5q-5 -7 -16 -14t-19 -7q-12 0 -14.5 9.5t-2.5 26.5q0 43 11 83t27 78.5t35 76t35 75.5q11 25 28.5 55.5t38.5 63t43.5 66.5t42.5 66q5 9 14 17t17.5 16t15 16.5t6.5 18.5z" />
    <glyph glyph-name="c" unicode="c" horiz-adv-x="346" 
d="M272 123q-37 -28 -72 -45.5t-70 -17.5q-7 0 -12 5.5t-5 15.5q0 19 16 62.5t42 90.5q26 45 58 87t64 74q6 6 8.5 8t7.5 2q4 0 6 -3.5t2 -6.5q0 -6 -3.5 -13.5t-7.5 -15t-7.5 -16t-3.5 -15.5q0 -14 11 -22l26 -19q8 -7 20 -7q10 0 14.5 4.5t4.5 10.5q0 13 5 27.5t11 28
t11.5 23.5t6.5 15q1 4 1 7q0 2 -1 4.5t-1 10.5q0 6 -0.5 8.5t-3.5 5.5q-20 20 -49 31t-55 11q-6 0 -8.5 -0.5t-7.5 -2.5q-32 -16 -61 -45t-55 -65.5t-49.5 -77.5t-42.5 -80q-5 -11 -7.5 -22.5t-4.5 -16.5q-5 -19 -10.5 -38t-5.5 -37q0 -23 12 -47q2 -4 10 -12t21.5 -16.5
t31 -14.5t38.5 -6q32 0 69 20t79 54q32 26 59.5 46t50.5 30q5 2 6.5 4.5t1.5 7.5q0 3 2 5t2 5q0 1 -3 5.5t-8 9t-11 8t-11 3.5q-11 0 -25 -6t-30 -15.5t-33.5 -22t-33.5 -24.5z" />
    <glyph glyph-name="d" unicode="d" horiz-adv-x="496" 
d="M724 747q0 6 -6 12t-14 10.5t-16 7.5t-13 3q-10 0 -14 -3t-9 -9q-32 -42 -58 -87l-52 -90t-55 -89.5t-68 -86.5q-1 -1 -8 -1q-9 6 -23 10t-24 9q-12 5 -28 5q-20 0 -40.5 -5.5t-31.5 -13.5q-63 -42 -119 -99t-92 -126q-35 -67 -35 -107q0 -28 17 -57q1 -3 9.5 -8t20 -10
t22.5 -9t19 -4q6 0 14 1t16 6q37 22 70 51t64.5 61.5t61.5 67.5l60 70q8 9 10 9t2 -2q0 -1 -3.5 -8.5t-9 -18t-10.5 -23t-8 -22.5q-8 -29 -17 -66t-9 -82q0 -31 6 -65q1 -5 15 -12t21 -7q9 0 14 1.5t8 4t6 6.5t8 9q4 4 4 7q0 6 -4 17.5t-4 38.5q0 13 3.5 34.5t12 54.5t23 79
t37.5 109l16 44q12 34 31.5 70t42.5 72t47 72t46 71q8 13 12 23t11 20q8 11 14.5 23.5t6.5 31.5zM378 369q0 -13 -6 -18.5t-15 -17.5q-49 -66 -104.5 -129.5t-120.5 -114.5q-7 -5 -11.5 -6.5t-9.5 -5.5t-10 -4q-4 0 -5.5 7.5t-1.5 15.5q0 2 1 6.5t2 6.5q15 41 40 81
t55.5 74.5t66 63t71.5 46.5q10 5 25 5q23 0 23 -10z" />
    <glyph glyph-name="e" unicode="e" horiz-adv-x="366" 
d="M253 -3q57 31 92 57t57.5 47t38 38.5t33.5 32.5q4 3 4.5 7t0.5 7q0 2 0.5 4t0.5 9q0 8 -7.5 14t-12.5 6q-3 0 -7.5 -1t-12.5 -6q-23 -14 -42.5 -31t-39.5 -34t-41.5 -33.5t-47.5 -30.5q-34 -18 -49 -23t-28 -5q-16 0 -31 8q-7 4 -15.5 17t-8.5 25q0 4 6 8q32 18 62.5 42
t59.5 52t56.5 58.5t53.5 59.5q11 12 17.5 22t14.5 25q9 18 16 35t7 37q0 30 -12 44.5t-20 17.5q-15 5 -28 8t-33 3q-37 0 -65.5 -15.5t-41.5 -29.5q-57 -61 -104 -127.5t-68 -143.5q-3 -11 -4 -18.5t-1 -14.5q0 -14 3.5 -38t8.5 -39q8 -25 21.5 -43t28.5 -26q3 -2 10 -5
t16.5 -7.5t19.5 -8.5t18 -7q12 -5 20.5 -6t17.5 -1q10 0 16 1t20 9zM328 398q-5 -8 -7 -12.5t-4 -8.5t-4.5 -8.5t-8.5 -11.5q-34 -41 -71 -80.5t-82 -73.5q-5 -3 -7 -3t-2 5q8 33 24.5 65t38 61t46 55t48.5 48q7 7 9.5 7.5t10.5 5.5l10 6t11 3q5 0 5.5 -3t0.5 -9
q0 -14 -5.5 -24.5t-12.5 -21.5z" />
    <glyph glyph-name="f" unicode="f" horiz-adv-x="268" 
d="M415 724q-13 17 -34 17q-11 0 -28 -6t-23 -16q-23 -37 -42.5 -74.5t-38.5 -78t-38 -85.5t-41 -98q-4 -9 -12 -11.5t-11 -2.5q-14 0 -30 7t-27 7q-5 0 -9.5 -6t-4.5 -14q0 -5 2 -11.5t4 -12.5q6 -18 21.5 -30t24.5 -28q2 -3 2 -7q0 -6 -5 -24.5t-13.5 -43.5t-18 -54
t-18 -56.5t-15.5 -50.5t-9 -36q-2 -10 -5 -22.5t-5 -17.5q-8 -26 -17.5 -52t-9.5 -55q0 -11 2.5 -24t4.5 -15q7 -5 11.5 -8.5t13.5 -3.5q3 0 13 4t18 7q11 4 19 12t9 17q5 56 16 109t26 104t32.5 100.5t34.5 99.5q2 4 3 6.5t6 6.5q14 11 31 15.5t34 11.5q13 5 14.5 6.5
t9.5 3.5q34 6 66 22t64 28q3 2 5.5 3t5.5 3l17 8.5t9 15.5q0 5 -8 12t-25 7q-26 0 -51.5 -7.5t-49.5 -16.5t-47.5 -16.5t-45.5 -7.5q-5 0 -5 5t3 13t6.5 17t7.5 17l6 12q5 10 7 16t4 14q7 25 21 47t30 43t31.5 41t25.5 40q3 7 4 16q1 7 6 14t10 14.5t9.5 14.5t4.5 15
q0 9 -8 20z" />
    <glyph glyph-name="g" unicode="g" horiz-adv-x="422" 
d="M438 361q5 10 6.5 19t1.5 20q0 9 -2 17.5t-9 17.5q-16 21 -43.5 32t-59.5 11q-2 0 -17 -3.5t-40.5 -16t-60 -38t-73.5 -69.5q-13 -15 -28.5 -33.5t-29.5 -36.5t-25 -34t-15 -26q-8 -17 -18.5 -39t-10.5 -54q0 -16 1.5 -20.5t5.5 -8.5q14 -14 29 -26.5t31 -19.5
q13 -6 30 -6q19 0 36.5 8t34.5 21t33.5 29.5t33.5 32.5q4 0 5 -3q-27 -63 -47 -104.5t-36 -70t-28.5 -47t-25.5 -35.5t-27.5 -36.5t-33.5 -48.5t-32 -50t-21 -37t-11.5 -27.5t-3.5 -20.5q0 -12 3 -22q4 -14 21 -21.5t31 -7.5t24 1t18 5.5t15 12.5t15 23q4 8 13 27.5t20 45
t24 56t26 61.5q19 45 47.5 86t69 82t94.5 85.5t123 96.5q6 5 7 10t1 7q0 9 -6 15q-10 10 -26 10q-4 0 -7.5 -1t-16.5 -9q-44 -26 -86.5 -56t-80.5 -62q-4 0 -4 4t5 18t18.5 43.5t38 76t63.5 116.5zM374 391q-23 -35 -51.5 -71.5t-61 -71t-66.5 -65t-68 -51.5q-6 -4 -11 -4.5
t-9 -0.5q-3 0 -7.5 2.5t-4.5 5.5q0 5 3.5 16t8.5 22q8 18 25 43.5t39 52.5t45.5 52.5t43.5 44.5q11 10 19 14t23 16q11 8 21.5 14.5t24.5 6.5q9 0 17 -3t9 -5.5t1 -4.5t1 -3t1 -3q0 -3 -3 -7z" />
    <glyph glyph-name="h" unicode="h" horiz-adv-x="418" 
d="M395 -26q5 2 11 5.5t8 8.5l3.5 7t1.5 6q0 6 -7 8q-6 2 -13 3t-12 3q-11 6 -18 18t-7 48q0 51 16 108.5t36 105.5q6 14 10.5 28.5t15.5 32.5t20.5 37t9.5 43q0 5 -5 11t-10 8q-6 2 -17.5 4.5t-19.5 2.5t-23 -5q-8 -3 -13 -7.5t-15 -15.5q-55 -60 -110.5 -126.5
t-116.5 -151.5q-4 -5 -5 -6.5t-2 -1.5q-2 0 -2 2q0 1 1.5 4t7.5 16q28 60 57 126t59.5 130.5t62 124t65.5 106.5q6 8 9 13.5t10 13.5q20 24 33.5 39t13.5 35q0 10 -2 15t-7 10q-6 6 -13.5 10.5t-14.5 4.5q-4 0 -8.5 1t-12.5 1t-14.5 -2.5t-11.5 -11.5q-37 -74 -70 -132.5
t-67 -120.5q-4 -7 -7 -13t-9 -19q-24 -52 -50.5 -104.5t-51.5 -106.5t-46 -109.5t-35 -114.5q-3 -13 -6 -16t-3 -11q0 -7 4 -11q12 -12 30 -20t22 -8q11 0 20.5 4t17.5 9q4 2 5 3.5t6 6.5q22 26 46 59.5t48.5 69t50 70.5t51.5 64q10 11 13 11q2 0 2 -2q0 -3 -4 -12
q-9 -22 -18 -46t-19 -57q-19 -64 -19 -112q0 -37 12.5 -60.5t41.5 -34.5q12 -5 18 -6t11 -1q10 0 18 3t17 5z" />
    <glyph glyph-name="i" unicode="i" horiz-adv-x="220" 
d="M278 72q6 6 11 12t5 15q0 3 -0.5 6.5t-5.5 7.5t-12 5.5t-13 1.5q-12 0 -20.5 -4.5t-26.5 -17.5q-15 -11 -25 -17.5t-18 -10t-15 -5t-15 -1.5q-13 0 -15.5 12.5t-2.5 19.5q0 11 5.5 37.5t18.5 60.5q5 14 12.5 32.5t16 38.5t16.5 38.5t14 32.5q9 18 20 33t20.5 29
t16.5 29.5t7 35.5q0 7 -2 10t-6 6q-5 5 -13.5 6.5t-16.5 1.5q-14 0 -28 -5.5t-22 -21.5q-28 -58 -51 -112.5t-46 -109.5q-5 -11 -8.5 -23.5t-8.5 -26.5q-9 -26 -12.5 -44t-3.5 -37q0 -11 1 -21t4 -21q4 -14 12 -28t18.5 -25.5t22 -18.5t22.5 -7q34 0 60.5 17t42.5 31z
M364 691q-5 6 -17.5 9.5t-24.5 3.5q-16 0 -28.5 -4t-20.5 -13q-7 -8 -10 -19.5t-3 -22.5q0 -8 1.5 -17t5.5 -17q4 -7 14.5 -13.5t25.5 -6.5q17 0 33.5 16t30.5 33q3 4 4 8.5t1 9.5q0 8 -2 16.5t-10 16.5z" />
    <glyph glyph-name="j" unicode="j" horiz-adv-x="238" 
d="M249 448q-3 5 -11.5 7t-16.5 2q-6 0 -10.5 -0.5t-12.5 -0.5q-7 0 -16 -7q-5 -4 -9.5 -8.5t-7.5 -14.5q-24 -79 -54.5 -155.5t-58.5 -152.5q-5 -14 -8.5 -24t-6 -17t-4.5 -13l-4 -12q-14 -48 -35 -94t-44.5 -91t-46 -90.5t-40.5 -93.5q-2 -5 -3.5 -11.5t-1.5 -13.5
q0 -2 0.5 -8t3.5 -13t8.5 -13.5t14.5 -9.5q12 -4 16.5 -6.5t7.5 -2.5q10 0 17.5 4t13 10t9 12.5t5.5 10.5q14 39 27 75l26 72t26.5 72.5t28.5 74.5q5 11 14 27.5t20 31.5q41 58 85 112.5t98 102.5q11 10 19.5 16.5t14.5 12.5t9 13t3 19q0 9 -5 11t-13 2q-6 0 -11.5 -2
t-18.5 -10q-9 -5 -21.5 -14t-26 -19.5t-27 -21.5t-25.5 -21q-11 -10 -16 -10q-2 0 -2 3q0 6 4 15q12 31 22 57t20 50.5t20.5 48t23.5 49.5q2 3 5 9.5t3 9.5q0 5 -2.5 10t-5.5 10zM369 646q0 7 -2 10t-15 14q-14 12 -24 15.5t-23 3.5q-16 0 -29 -7.5t-23 -19.5q-6 -7 -6 -11
t1 -9.5t1 -11.5q0 -17 5 -24q7 -11 15.5 -17.5t16.5 -9.5t14.5 -4t9.5 -1q8 0 16.5 3t10.5 14q1 7 6.5 12.5t11 11.5t10 13t4.5 18z" />
    <glyph glyph-name="k" unicode="k" horiz-adv-x="376" 
d="M381 698q0 23 -37 28q-18 2 -22.5 3t-10.5 1q-9 0 -16 -19q-2 -5 -3.5 -8.5l-7.5 -17.5q-65 -154 -131.5 -305t-117.5 -307q-1 -2 -1.5 -6t-2.5 -8q-3 -8 -5 -16.5t-2 -13.5q0 -11 5 -17.5t11 -9.5t11.5 -4t7.5 -1q8 0 13.5 1.5t11.5 1.5q8 0 13.5 8t9.5 19t6.5 22.5
t4.5 19.5q8 47 23.5 91t32.5 84q1 4 4 4q2 0 4 -1.5t4 -6.5q10 -23 28 -76.5t61 -131.5q5 -8 9.5 -12t9.5 -8q4 -3 18 -17q12 -12 30 -20.5t47 -8.5q17 0 24 11q3 5 12 10t9 15q0 7 -1.5 9.5t-4.5 3t-7 0.5t-8 2q-17 7 -28 13t-19.5 13.5t-16 17.5t-18.5 25q-3 4 -11.5 20
t-17.5 34.5t-16.5 35.5t-9.5 24q-12 39 -16.5 51.5t-4.5 17.5q0 8 7 13q40 26 81 54.5t79 60.5q9 8 12.5 13.5t15.5 16.5q7 6 15 15.5t15 19t11 18t4 14.5q0 7 -18 18q-10 6 -15 7.5t-12 1.5q-16 0 -30 -10q-5 -4 -10 -8.5t-10 -12.5q-31 -49 -76.5 -85t-93.5 -65
q-8 -5 -12 -5q-3 0 -3 3t3 9q26 61 49.5 122.5t58.5 119.5q4 6 7.5 12.5t17.5 26.5q12 17 21 32t9 38z" />
    <glyph glyph-name="l" unicode="l" horiz-adv-x="232" 
d="M141 -18q29 0 52 12.5t42.5 32t37.5 42.5t37 44q8 8 14 13t6 15q0 12 -14 17.5t-20 5.5q-17 0 -35 -13.5t-35.5 -32t-35 -37.5t-33.5 -29q-7 -4 -17 -4q-16 0 -20 12q-3 10 -4 19t-1 18q0 33 13 62.5t25 60.5q22 58 52 113t63.5 108.5t69.5 107t70 108.5q10 17 10 35
q0 16 -8 28q-4 5 -11 8t-15 3t-15 -1t-18 -1q-15 0 -24 -9t-15.5 -22.5t-11.5 -28t-11 -25.5q-29 -49 -59 -102t-57.5 -105.5t-51.5 -102.5t-40 -92q-17 -43 -30 -78.5t-13 -70.5q0 -18 3 -34q4 -21 19 -35.5t32 -23.5t31.5 -13.5t17.5 -4.5z" />
    <glyph glyph-name="m" unicode="m" horiz-adv-x="684" 
d="M276 462q-13 8 -31 8q-27 0 -42.5 -12.5t-18.5 -20.5q-6 -15 -11 -25t-10.5 -20t-13 -23.5t-17.5 -35.5q-14 -30 -31.5 -59.5t-33 -59.5t-26.5 -61.5t-11 -66.5q0 -23 6 -48q2 -6 3.5 -8.5t4.5 -4.5q18 -14 40 -21.5t44 -7.5q3 0 7 2t9 4q26 13 54 30.5t50 39.5q5 5 7 5
t2.5 -2.5t0.5 -12.5q0 -11 7.5 -22.5t39.5 -26.5q24 -11 51 -11q30 0 53.5 12.5t43.5 30.5t38.5 38t37.5 34q5 4 8 4q4 0 4 -6q0 -22 8.5 -47t16.5 -42q16 -32 27.5 -43.5t19.5 -13.5q11 -2 19 -5t19 -3t17.5 5t6.5 11t-4.5 12t-9.5 8q-2 1 -4 2.5t-5 6.5q-17 26 -24.5 51
t-7.5 49q0 38 16.5 79.5t53.5 103.5q5 8 11 13t11.5 9.5t9.5 9t4 11.5t-4 14q-6 11 -11 14.5t-22 5.5q-6 1 -8.5 2t-4.5 2.5t-6 2.5t-11 1q-12 0 -20 -4t-14 -10t-9.5 -12.5t-4.5 -10.5q-14 -38 -37.5 -69t-52 -58.5t-58 -54t-55.5 -56.5q-14 -16 -30.5 -24.5t-27.5 -8.5
q-4 0 -6.5 6t-2.5 10q0 17 9 47t34 78q9 18 21.5 35t24.5 33.5t22.5 33.5t17.5 35q3 9 3 15q0 2 -0.5 3t-3.5 4q-20 20 -46 20q-21 0 -39 -14q-15 -11 -21 -26q-17 -41 -41.5 -82t-56 -77.5t-68.5 -67t-77 -50.5q-8 -4 -11 -4t-6 3.5t-3 7.5q23 89 68.5 172t100.5 160
q8 11 10 21t2 14q0 8 -0.5 12.5t-4.5 6.5z" />
    <glyph glyph-name="n" unicode="n" horiz-adv-x="420" 
d="M91 266q-6 -15 -14 -34t-15.5 -38t-13 -36t-6.5 -28q-1 -8 -3 -14t-4 -12.5t-3.5 -14t-1.5 -19.5q0 -8 2 -16.5t5 -12.5q5 -6 15 -14t21.5 -15t21 -12t14.5 -5q7 0 19 2t18 9q5 6 9.5 9t9.5 7t10.5 10.5t13.5 17.5q18 26 39.5 53.5t52.5 68.5q3 4 6 4t3 -4
q0 -2 -4.5 -18.5t-4.5 -60.5q0 -39 17 -62q10 -14 19 -19.5t20 -15.5q9 -8 27.5 -11t24.5 -3q14 0 20 9.5t6 14.5q0 8 -4.5 13t-10.5 10q-5 4 -19 13t-16 23q-2 8 -5 18.5t-3 24.5q0 7 1 19.5t2.5 25.5t4 25t4.5 20q11 38 27 71t43 77q4 6 7 14.5t3 11.5q0 9 -6 17.5
t-14 9.5q-12 1 -18.5 5.5t-17.5 4.5q-5 0 -8.5 -1t-7 -5t-8 -12.5t-11.5 -22.5q-8 -18 -26.5 -36.5t-47 -48.5t-67.5 -76t-90 -118q-9 -13 -17 -13q-2 0 -2.5 3.5t-0.5 6.5q0 1 2 9.5t5 20t6.5 22.5t6.5 18q25 62 42.5 99t28.5 57q20 38 39.5 61t24.5 29q14 17 18 28t4 19
q0 5 -1.5 9.5t-3.5 8.5q-7 15 -40 15q-24 0 -35 -10q-7 -6 -8.5 -9.5t-7.5 -12.5q-17 -25 -30 -47.5t-24 -44t-21.5 -44t-21.5 -48.5z" />
    <glyph glyph-name="o" unicode="o" horiz-adv-x="368" 
d="M344 460q-2 6 -5 9t-9 8q-13 11 -27 15t-26 4q-17 0 -33 -8t-31 -21t-28.5 -29.5t-25.5 -33.5l-6 -7.5t-4.5 -5t-5.5 -6t-8 -11.5q-35 -52 -61 -106.5t-26 -116.5q0 -19 3.5 -40.5t11.5 -42.5q7 -17 26.5 -33t48.5 -30q10 -5 24 -5q26 0 47.5 18t42.5 41q48 51 77 119
t49 149q2 8 12 8q5 0 14.5 0.5t24.5 2.5q20 3 40 9t35 8q6 1 7.5 2.5l3.5 3.5q1 2 5.5 3.5t9.5 4t9 5.5t4 8q0 12 -19 19t-43 7q-17 0 -36.5 -1.5t-49.5 -1.5q-22 0 -33 18t-18 37zM293 394q2 -2 3.5 -4t2.5 -7q1 -4 1 -11v-10q0 -39 -10 -74t-26 -67.5t-36 -63.5t-40 -61
q-6 -9 -8.5 -12t-8.5 -6q-3 -2 -7 -5t-12 -3q-6 0 -9 2q-7 5 -14.5 16t-9.5 17q-2 5 -2.5 8.5t-0.5 5.5q0 33 9 66.5t22.5 64t29.5 57.5t30 47t23.5 32t10.5 13q4 5 10 9t9 8q8 10 15 10q4 0 6 -6t4 -11q1 -3 2.5 -7t5.5 -8z" />
    <glyph glyph-name="p" unicode="p" horiz-adv-x="440" 
d="M240 472q0 8 -10.5 14t-22.5 6q-11 0 -20 -4t-18 -7q-5 -2 -7.5 -4t-4.5 -16q-13 -80 -41 -170t-61 -180.5t-65.5 -177t-54.5 -158.5q-3 -10 -4 -14.5t-1 -7.5q1 -11 5 -14.5t9 -8.5q8 -8 15 -11t16 -3q8 0 16.5 1t18.5 5q11 4 9.5 15t2.5 27q13 55 26.5 100.5t29 86.5
t34 80.5t41.5 83.5q2 5 6 5t6 -5q9 -19 21 -37.5t31 -35.5q4 -4 11.5 -9t17.5 -9.5t20 -7.5t19 -3q7 0 15 1t13 6q29 26 51 59t38.5 68t29 70.5t24.5 67.5q5 13 4 19.5t1 12.5q3 14 5 29.5t2 40.5q0 19 -6.5 27t-13.5 13q-19 12 -40.5 23t-43.5 11q-2 0 -5 -1t-11 -5
q-35 -18 -70.5 -52.5t-68.5 -72.5q-2 0 -2 2q9 36 21 72t12 68zM375 387q4 2 7 2q4 0 4 -3q0 -1 -1 -10t-4.5 -28t-11.5 -49t-22 -72q-1 -5 -8 -23t-17.5 -40.5t-23.5 -44.5t-25 -34q-4 -4 -8 -4q-9 0 -19.5 13.5t-18.5 31.5t-13.5 36t-5.5 26q0 10 1 15.5t6 13.5
q30 48 68.5 92t91.5 78z" />
    <glyph glyph-name="q" unicode="q" horiz-adv-x="386" 
d="M449 410q0 15 -7.5 25.5t-19 17.5t-26 10.5t-28.5 3.5q-12 0 -22.5 -2t-22.5 -6q-46 -14 -89.5 -42.5t-82 -67t-69 -84t-49.5 -94.5q-2 -6 -5.5 -16t-3.5 -22q0 -23 8.5 -43.5t25.5 -31.5l14 -9q11 -6 23.5 -9t23.5 -3q12 0 24.5 2.5t23.5 4.5q7 0 7 -6q-6 -23 -12 -37
t-12 -26.5t-12 -26.5t-12 -37q-3 -11 -5.5 -18.5t-8.5 -24.5q-19 -55 -36.5 -110t-28.5 -112q-1 -5 -1 -10q0 -2 0.5 -3.5t4.5 -4.5q8 -7 22.5 -14t31.5 -7q10 0 17 12t10 20q6 17 6 36t4 33q45 160 112 312.5t167 285.5q5 6 6 8t1 4q0 6 -5.5 10t-5.5 13q0 5 5 12.5
l11 16.5t11 19.5t5 20.5zM366 392q0 -17 -14 -33.5t-31 -34.5q-22 -25 -22 -30t3 -7t3 -7q0 -3 -8 -15q-32 -48 -69.5 -84.5t-82.5 -70.5q-10 -8 -20 -10q-3 -1 -8 -2.5t-8 -1.5q-5 0 -10.5 3.5t-5.5 8.5q0 16 4.5 33.5t18.5 46.5q13 25 33.5 52t45.5 52.5t53 48t55 39.5
q12 8 16 7.5t12 4.5q4 2 9.5 4.5t11.5 2.5q4 0 9 -1t5 -6z" />
    <glyph glyph-name="r" unicode="r" horiz-adv-x="300" 
d="M200 438q-2 4 -12 7.5t-21 3.5q-17 0 -28 -8t-11 -14q1 -7 5 -12.5t4 -10.5q0 -2 -0.5 -5.5l-1.5 -10.5q-12 -60 -31 -117l-38 -114q-5 -14 -14 -27.5t-18 -26.5t-15.5 -25.5t-6.5 -25.5q1 -9 6 -19.5t13 -18.5q5 -6 11.5 -13t18.5 -8q3 0 8.5 2t9.5 7q5 4 12 15t11 25
q12 57 38 103t60.5 82.5t74.5 63.5t81 46q11 5 16 4q11 0 22.5 -5t22.5 -5q3 0 9 3t12 8.5t10 13.5t3 19q1 3 -0.5 8.5t-5.5 8.5q-13 15 -32.5 21.5t-40.5 6.5q-6 0 -12 -2q-56 -19 -139 -82q-10 -9 -13 -7q-3 0 -3 3q0 2 1 4.5t3 11.5q7 21 6 41q-1 13 -4 24.5t-11 24.5z
" />
    <glyph glyph-name="s" unicode="s" horiz-adv-x="296" 
d="M347 464q-16 16 -36.5 26t-61.5 10q-14 0 -40.5 -14.5t-48.5 -49.5q-9 -14 -16 -31t-11.5 -34t-6.5 -32t-2 -25q0 -8 3 -36.5t7.5 -64.5t10.5 -73t11 -62q4 -19 4.5 -23.5t0.5 -7.5q0 -8 -10 -8q-4 0 -8 2t-12 9q-11 10 -19.5 22t-15.5 24.5l-14 25t-16 24.5
q-7 9 -15 11.5t-23 2.5q-16 0 -26 -13t-10 -24q0 -2 2 -6.5t4 -8.5q25 -42 60.5 -78t85.5 -56q10 -4 25 -4q20 0 34.5 11t28.5 25q8 8 8 18q0 15 -3.5 42t-9 59t-11 65.5t-8.5 61.5q-1 5 -2 14.5t-2 20t-2 19t-1 10.5q0 9 0.5 15t1.5 11q3 17 12 35.5t19 33.5t18.5 24.5
t11.5 9.5q6 0 12.5 -4.5t9.5 -9.5t5 -13t2 -14q0 -13 -5 -24t-12 -22q-3 -5 -3 -8q0 -20 15 -32q5 -5 16 -9t19 -4q4 0 6 1.5t8 9.5q11 14 20 34t9 49q0 15 -4 34.5t-15 30.5z" />
    <glyph glyph-name="t" unicode="t" horiz-adv-x="262" 
d="M360 637q1 5 1 7v4q0 3 -9 7t-20 6t-18 2q-8 0 -12 -2.5t-16 -2.5q-3 0 -4.5 -1.5t-6.5 -11.5q-26 -55 -46.5 -110.5t-38.5 -101.5q-11 -29 -16 -47q-3 -14 -17 -14t-31 8t-34 8q-7 0 -11 -1.5t-9 -3.5q-6 -3 -9 -5.5t-3 -7.5q0 -2 0.5 -5.5t4.5 -6.5q9 -7 15 -15.5
t12.5 -16.5t15 -16t22.5 -15q5 -3 5 -6q0 -1 -2 -7q-24 -58 -40 -120t-35 -118q-2 -7 -3 -15.5t-1 -14.5q0 -16 11 -24q6 -5 16.5 -8t19.5 -3q3 0 7.5 0.5t7.5 2.5q11 5 17.5 20t7.5 22q2 19 8.5 43t14 47.5t14.5 44.5t9 33q2 8 5.5 16t5.5 16q3 11 7 24t10 24t19 15
q8 3 26 7.5t40.5 10.5t46.5 13t42 14q13 5 19 9t26 12q17 7 25 17.5t8 20.5q0 4 -5.5 9t-13 8.5t-16 6t-14.5 2.5q-3 0 -11 -5q-25 -15 -63 -29t-71 -21q-8 -2 -15.5 -3t-9.5 -1q-4 0 -4 3q0 1 2 8t5.5 16.5t7.5 19.5t8 18q12 25 26 51t27.5 52.5t24 54t15.5 56.5z" />
    <glyph glyph-name="u" unicode="u" horiz-adv-x="420" 
d="M237 451q-4 8 -15 12t-19 4q-12 0 -23.5 -6t-19.5 -20q-14 -24 -24 -48t-17.5 -47.5t-14 -47t-14.5 -45.5q-3 -10 -5 -17t-3.5 -14t-3.5 -14.5t-5 -17.5q-8 -26 -15.5 -56t-7.5 -58q0 -8 1.5 -20t3.5 -23q3 -14 30 -31q19 -11 38 -15t22 -4t5 0.5t8 3.5q32 16 59 41.5
t53 55.5q3 4 7 8t7 4q4 0 4 -6q0 -8 -1.5 -28.5t-1.5 -39.5q0 -15 2 -30t8 -30q2 -6 3.5 -8t4 -3t6.5 -2.5t11 -5.5q8 -5 17.5 -10t20.5 -5q9 0 14 3q3 2 4.5 7.5t1.5 10.5q0 17 -9 32.5t-9 34.5q0 21 2 39.5t4 34.5q9 60 28 115.5t45 110.5q3 7 4.5 12t1.5 17q0 5 -4 9.5
t-16 8.5q-5 2 -11.5 6t-12.5 4t-11 -1t-12 -5q-9 -5 -11.5 -8.5t-6.5 -13.5q-24 -63 -63 -118t-86 -106q-6 -7 -10 -12.5t-9 -11.5t-13 -14t-21 -20q-5 -5 -12.5 -7.5t-9.5 -2.5q-5 0 -9.5 5t-4.5 9v8q0 5 2 15q4 27 13 58.5t20 65.5t22 68.5t20 67.5q6 23 14.5 33t14.5 14
q11 8 15.5 15.5t4.5 13.5q0 8 -4.5 14t-6.5 11z" />
    <glyph glyph-name="v" unicode="v" horiz-adv-x="378" 
d="M198 329q4 19 9.5 31t10 23.5t8 26t3.5 37.5q0 11 -5 15q-7 6 -14 7t-15 1q-6 0 -12 1t-11 1q-3 0 -12.5 -5t-11.5 -17q-8 -61 -22.5 -121t-29.5 -120q-5 -21 -8 -33t-4.5 -20t-2.5 -12.5t-2 -10.5q-5 -20 -7 -32.5t-2 -28.5q0 -5 0.5 -12t2.5 -12q4 -14 11.5 -21
t28.5 -21q14 -10 22.5 -17.5t23.5 -7.5q10 0 20 4.5t16 11.5q9 10 17 16.5t22 24.5q45 56 79.5 115.5t52.5 128.5q5 17 6.5 23t5.5 9t6.5 3.5t7.5 0.5q10 0 21 -3t22 -3q5 0 11 2l12 4q9 4 23 7.5t31.5 8.5t37 12t40.5 18q5 3 6 4t1 4q0 8 -2 12.5t-11 9.5q-12 8 -25 11
t-22 3q-17 0 -32.5 -5t-31 -11.5t-31.5 -11.5t-32 -5q-12 0 -24 6t-24 26q-10 17 -21.5 22t-31.5 5q-15 0 -23 -7t-8 -17q0 -8 4.5 -15.5t9.5 -12.5q11 -11 11 -28q0 -16 -2.5 -30.5t-5.5 -22.5q-5 -11 -6.5 -19.5t-7.5 -23.5q-21 -52 -50 -101.5t-55 -80.5q-8 -9 -14.5 -11
t-11.5 -2q-8 0 -8 6q0 3 0.5 5.5t2.5 13.5q13 60 26.5 120.5t26.5 120.5z" />
    <glyph glyph-name="w" unicode="w" horiz-adv-x="540" 
d="M257 462q0 10 -9.5 16.5t-14.5 6.5q-8 0 -14 0.5t-14 0.5q-5 0 -11 -0.5t-13 -2.5q-5 -2 -11.5 -8t-7.5 -11q-6 -44 -19.5 -88t-29.5 -88t-32 -89t-27 -90q-2 -5 -3 -12t-1 -15t2.5 -17t4.5 -12t10.5 -9t20.5 -11q18 -7 24 -11.5t18 -4.5q16 0 28.5 7t23 18t20.5 24
t21 24q13 13 16 13t3 -8q0 -9 -1.5 -17t-1.5 -22q0 -17 9.5 -29t18.5 -17q20 -11 42.5 -19.5t42.5 -8.5q17 0 26.5 4.5t17.5 12.5q53 53 83 123.5t34 145.5q1 8 1 21v20q0 13 9 13q6 0 19 -4t45 -4q11 0 21 2t22.5 5.5t28.5 8t40 10.5q48 11 48 31q0 21 -8 24.5t-15 3.5
q-39 0 -70.5 -6t-63.5 -6t-47 3t-29 12q-11 7 -16 12l-8 8t-5.5 4t-8.5 1q-7 0 -22.5 -1.5t-19.5 -4.5q-7 -5 -9 -12t-2 -12q0 -17 10 -39t10 -43q0 -9 -2.5 -17.5t-2.5 -19.5q0 -4 -2.5 -25t-10 -51t-21 -63.5t-35.5 -61.5q-14 -18 -26 -23.5t-17 -5.5q-3 0 -9 4.5t-6 14.5
q0 42 10 83.5t27 78.5q4 8 7 20t14 30q20 33 26.5 47.5t6.5 25.5t-10 20.5t-21 9.5q-5 0 -10 1t-13 1t-15 -2.5t-11 -11.5q-26 -62 -65 -120.5t-85 -112.5q-11 -13 -18 -20t-11 -10.5t-6 -4.5t-3 -1q-3 0 -3 3q0 4 4 16q25 75 48 147.5t53 144.5q2 5 5 14t8 16q3 5 5.5 10
t2.5 10z" />
    <glyph glyph-name="x" unicode="x" horiz-adv-x="334" 
d="M190 432q-8 8 -16.5 12t-22.5 4q-11 0 -25 -5t-14 -17q0 -3 0.5 -8.5t3.5 -9.5q4 -5 6 -5t9 -13q8 -17 12.5 -39t6.5 -43.5t2.5 -39.5t0.5 -25q0 -10 -1 -13.5t-7 -10.5q-33 -38 -69 -77t-71 -80q-8 -9 -9 -11t-1 -6q0 -8 3.5 -13.5t11.5 -13.5t15 -13t9 -5q18 0 32 11
q7 5 11.5 10t6.5 11q3 10 11.5 22.5t18.5 23.5t19 21t13 16q5 7 6.5 9t3.5 2t2.5 -2.5t2.5 -13.5q3 -24 4.5 -47t4.5 -48q1 -7 1.5 -11t0.5 -8q0 -2 -4 -10t-6.5 -18.5t-2.5 -21.5q0 -8 2 -18q2 -8 7.5 -12.5t12.5 -8.5q8 -5 11 -8t8 -3t9.5 -1t10.5 -1q8 0 14.5 3t7.5 8
q4 27 5 40t1 32q0 51 -6 101t-6 108q0 7 0.5 11.5t2 8t5.5 7.5t12 11q47 42 97 81t106 71q4 2 9.5 4.5t5.5 6.5q0 13 -6 20t-13 16q-5 6 -12.5 8.5t-15.5 2.5q-10 0 -13.5 -1t-9.5 -6q-38 -29 -77 -57.5t-78 -60.5q-4 -3 -8 -6.5t-7 -3.5q-2 0 -3.5 3t-3.5 16
q-4 29 -7.5 47.5t-7.5 31t-9.5 20t-12.5 15.5z" />
    <glyph glyph-name="y" unicode="y" horiz-adv-x="436" 
d="M252 460q0 10 -9 16t-17 6t-16 2.5t-12 2.5q-5 0 -17.5 -7t-17.5 -22q-15 -49 -32.5 -92.5t-33.5 -86.5t-26.5 -88t-10.5 -97q0 -12 1 -15.5t5 -8.5q33 -40 95 -40q4 0 16.5 7t29 18.5t34 25t30.5 26.5q11 11 14 11t3 -4q0 -1 -0.5 -3.5t-2 -9t-5.5 -18.5t-10 -32
q-10 -31 -20.5 -63.5t-19 -61t-14 -49t-6.5 -27.5q-26 -43 -47.5 -87.5t-38.5 -83.5q-21 -50 -21 -79q0 -14 4 -21.5t9.5 -11t12 -4.5t12.5 -1q9 0 15 1.5t12 2.5q20 3 31 14.5t17 27t8.5 33t5.5 32.5q15 72 42.5 143t78.5 139q2 3 4 8.5t2 16.5q0 5 -6.5 8t-11.5 3
q-2 0 -4.5 -0.5t-4.5 -0.5q-4 0 -4 2q0 3 2.5 11t9.5 29q3 9 10.5 30t16.5 44.5t17 45t11 30.5q12 35 27 67.5t34 61.5q8 13 11.5 19t7.5 11q8 12 15.5 24.5t7.5 26.5q0 5 -1 11.5t-4.5 12t-10.5 9t-19 3.5t-17.5 3.5t-13.5 3.5q-7 0 -15.5 -12t-10.5 -18q-18 -48 -36 -79.5
t-34.5 -53t-31 -36t-26.5 -28.5q-12 -15 -21.5 -24t-15.5 -16q-28 -32 -46.5 -45.5t-32.5 -20.5q-12 -6 -22 -6q-5 0 -5 16q0 8 1.5 16t3.5 16t3.5 15.5t4.5 16.5q10 30 17 55t14.5 48.5t16.5 48t22 52.5q3 6 5 8t4.5 5t6.5 8.5t10 16.5t8 20t2 22z" />
    <glyph glyph-name="z" unicode="z" horiz-adv-x="384" 
d="M428 410q-4 10 -12.5 16t-13.5 11q-6 8 -32 16t-55 8q-40 0 -81.5 -12t-78.5 -21q-20 -5 -20 -30q0 -9 5 -24q4 -11 14 -20t15 -9t6.5 0.5t2.5 1.5q17 20 40.5 33.5t52.5 16.5q22 2 30 6t20 4q5 0 10.5 -1.5t5.5 -5.5q0 -9 -13.5 -24t-33.5 -26q-17 -9 -31.5 -24.5
t-30 -30t-34 -25t-43.5 -10.5t-41 7t-33 7q-10 0 -18 -6t-8 -13q0 -8 2.5 -14.5t9.5 -18.5q5 -10 13.5 -14t17.5 -7q10 -3 11.5 -4.5t1.5 -4.5t-4.5 -9t-12.5 -14q-16 -17 -31.5 -34.5t-25.5 -38.5q-2 -4 -2.5 -12t-0.5 -13q0 -17 6 -34t24 -28q20 -12 49.5 -19t55.5 -7
q28 0 56 6t54.5 15t52.5 19.5t50 20.5q8 3 9 5.5t1 4.5q0 13 -7 19q-12 11 -23 14.5t-22 3.5q-15 0 -29.5 -6t-28.5 -13.5t-28.5 -13.5t-30.5 -6q-17 0 -34 -6t-32 -6q-12 0 -29 8q-8 4 -11 7t-3 8q0 3 3 12.5t9 14.5q9 8 21 20.5t24.5 27t25.5 28.5t25 25q10 9 16.5 12.5
t26.5 9.5q22 7 46.5 12t47.5 8.5t42.5 5.5t32.5 2q11 0 15.5 3.5t7.5 11.5q0 4 -1.5 6.5t-6.5 8.5q-14 16 -36.5 21.5t-42.5 5.5q-11 0 -11 3t6 8q17 14 30.5 24t22.5 18.5t13.5 17t4.5 20.5q0 10 -4 21z" />
    <glyph glyph-name="braceleft" unicode="{" horiz-adv-x="346" 
d="M519 733h12q17 0 23 4t14 21q5 9 5 17q0 11 -3.5 13t-3.5 7q0 9 -15.5 11.5t-38.5 2.5h-20q-33 0 -59 -8t-48 -28t-41 -54t-36 -86l-59 -177q-11 -33 -21 -55t-21.5 -34.5t-26.5 -17.5t-37 -5h-12q-17 0 -25 -4.5t-14 -21.5q-3 -8 -4.5 -14t-1.5 -12q0 -8 4.5 -8.5
t4.5 -2.5q0 -10 5 -13t33 -3q40 0 40 -27q0 -11 -6 -31t-12 -38l-65 -206q-5 -17 -7.5 -31t-2.5 -31q0 -48 40.5 -74.5t113.5 -26.5q8 0 19.5 1t13.5 8q2 6 5.5 8t7 6t6 11t2.5 22q0 5 -5.5 14t-16.5 9h-40q-32 0 -42 13.5t-10 28.5q0 11 1.5 20.5t6.5 23.5l68 218
q10 30 10 66t-28 52q-3 0 -3 2t3 2q38 6 58.5 36t36.5 81q22 73 39.5 127.5t36.5 105.5q7 19 15 33.5t21 24.5t32 15t48 5z" />
    <glyph glyph-name="bar" unicode="|" horiz-adv-x="270" 
d="M417 768q0 8 -8 13t-15 13t-17.5 10t-16.5 2q-23 0 -37.5 -21t-31.5 -74l-261 -782q-5 -14 -12.5 -27.5t-10.5 -22.5q-3 -10 -5 -21t-2 -25q0 -9 8 -11t19 -10q8 -6 15.5 -8t19.5 -2q10 0 20.5 24t25.5 67q20 58 43 128t46.5 144.5t48 150.5t47.5 146t45 131t42 105
q5 10 12.5 15.5t19.5 23.5q3 5 4 10t1 21z" />
    <glyph glyph-name="braceright" unicode="}" horiz-adv-x="346" 
d="M-57 -122h-15q-9 0 -19 -3t-12 -11q-4 -11 -10.5 -18.5t-6.5 -27.5q0 -11 13.5 -14.5t50.5 -3.5h15q43 0 71.5 8t48.5 28t36 54t33 86l59 177q12 37 25 59.5t26.5 34t27 15t27.5 3.5q20 0 29 2t13 10t10.5 18t6.5 35q0 8 -6.5 11t-23.5 3h-19q-40 0 -40 27q0 14 5 31
t12 38l69 206q5 14 7.5 31t2.5 34q0 27 -12 46t-28.5 30.5t-35.5 16.5t-32 5h-24q-26 0 -43 -1.5t-19 -7.5q-6 -14 -11.5 -21.5t-5.5 -25.5q0 -8 6 -14.5t17 -6.5h41q27 0 42 -5.5t15 -21.5q0 -13 -2.5 -26t-9.5 -33l-70 -221q-7 -20 -9 -38t-2 -27q0 -37 29 -50q3 0 3 -2
t-3 -2q-38 -8 -59 -39t-38 -81l-80 -242q-6 -19 -12 -32t-16.5 -20.5t-28 -10.5t-48.5 -3z" />
    <glyph glyph-name="asciitilde" unicode="~" horiz-adv-x="550" 
d="M115 270q1 -15 24 -15q18 0 25 3t13 8q30 23 42 30t21 7q12 0 19.5 -1t14.5 -5.5t15 -12.5t22 -21q15 -15 27.5 -25.5t25 -16.5t26 -8.5t31.5 -2.5q15 0 32.5 7t35.5 18.5t35.5 25t31.5 26.5q7 6 9 9.5t2 8.5q0 6 -1.5 8t-3 3t-3 1.5t-1.5 4.5q-1 9 -11 16.5t-22 7.5
q-5 0 -14.5 -9t-23 -19.5t-31 -19.5t-38.5 -9q-22 0 -39 15t-34 33t-36.5 33t-47.5 15q-17 0 -32.5 -3t-32.5 -10.5t-38 -19.5t-48 -29q-7 -5 -8.5 -10t-1.5 -13q0 -6 1.5 -7.5t4 -3t5 -5t4.5 -14.5z" />
    <glyph glyph-name="nonbreakingspace" unicode="&#xa0;" horiz-adv-x="246" 
 />
    <glyph glyph-name="exclamdown" unicode="&#xa1;" horiz-adv-x="320" 
d="M91 89q-5 -13 -8.5 -30t-3.5 -37q0 -10 2 -19t13 -14q10 -5 15 -9t8 -7t6 -4.5t10 -1.5q11 0 16.5 1t7.5 8q1 6 4 16t7.5 22t9 25t8.5 24t6 19.5t3.5 20t5 27.5t11 43t19.5 67t32 98q2 7 2.5 11.5t1 8t1 8t3.5 11.5q2 6 4.5 15.5t2.5 14.5q0 11 -7 20t-21 23q-8 8 -28 8
q-5 0 -9.5 -4t-7.5 -15q-17 -60 -30 -101t-23.5 -74.5t-20 -65.5t-19.5 -74q-2 -9 -4.5 -12t-4.5 -4.5t-5 -4.5t-7 -14zM322 637q-9 1 -15.5 3t-12 3.5t-11.5 3t-16 1.5q-11 0 -14 -8t-6 -14q-5 -9 -6.5 -13.5t-1.5 -12.5q0 -23 7.5 -40.5t25.5 -17.5q11 0 17.5 1t11.5 1
q11 0 18.5 10t12.5 22q5 15 8 23t3 14q0 10 -6.5 16.5t-14.5 7.5z" />
    <glyph glyph-name="cent" unicode="&#xa2;" horiz-adv-x="434" 
d="M351 389q2 7 6 7q3 0 11 -3t8 -21q0 -2 -1 -11t-5 -23q-5 -19 -10.5 -34t-5.5 -31q0 -3 5 -8.5t12.5 -11.5t17.5 -10t19 -4q11 0 16 3t7.5 8.5t3 13.5t3.5 18q10 38 13.5 53.5t3.5 23.5q0 25 -14 40.5t-26 26.5q-8 7 -16.5 11.5t-18.5 9.5q-6 2 -6 6q0 5 14 35
q9 19 15 25.5t6 10.5q0 5 -11 10t-17 5q-8 0 -13.5 1t-10.5 1q-15 0 -24.5 -15t-22.5 -55q-3 -8 -8 -8q-14 0 -24.5 -1.5t-21 -6t-22.5 -12t-28 -19.5q-14 -10 -29.5 -24.5t-32 -36.5t-34.5 -53t-36 -74q-13 -30 -15.5 -59.5t-2.5 -42.5q0 -35 24.5 -72t63.5 -54
q10 -4 10 -8q-5 -15 -9 -24.5t-8 -15.5t-6 -10.5t-2 -10.5q0 -5 3 -10t10 -9q16 -9 21.5 -14.5t13.5 -5.5q11 0 17.5 9t11.5 22q2 4 5 12t6 16.5t5.5 15.5t3.5 10q2 5 7 6t16 3q6 1 18 3.5t32 11t50 25t72 45.5q14 10 16.5 16t2.5 8q0 5 -4 9.5t-9 8.5q-12 9 -24 9
q-11 0 -28 -6.5t-40 -21.5q-7 -5 -13.5 -13t-13.5 -13q-17 -11 -33 -16.5t-24 -5.5q-5 0 -5 3q0 4 7.5 29t18.5 60t24 75.5t24.5 76t20 61t10.5 30.5zM168 242q9 25 25.5 53t34.5 52t33 40t20 16t5 -5q-6 -20 -16.5 -51t-23 -69t-27 -81.5t-29.5 -89.5q-3 -10 -5.5 -17
t-5.5 -18q-2 -5 -3 -6.5t-6 -1.5q-2 0 -8.5 4.5t-14.5 24.5q-5 11 -5.5 23.5t-0.5 18.5q0 19 2 31t5.5 23t8.5 23t11 30z" />
    <glyph glyph-name="sterling" unicode="&#xa3;" horiz-adv-x="490" 
d="M229 233q5 13 9.5 16t23.5 6q39 8 65.5 13.5t43.5 6.5q18 1 25.5 4t17.5 3q6 0 7.5 8.5t1.5 14.5q0 10 -3 15.5t-13 15.5q-11 11 -17 14t-19 3q-5 0 -16.5 -1.5t-33.5 -6.5l-38 -8q-6 0 -6 5q0 3 4 11l25 54q21 45 44.5 80t47 59t45 36t38.5 12q7 0 9 -7.5t2 -10.5
q0 -15 -4.5 -23t-5.5 -19q0 -8 -4 -16.5t-8 -16.5t-7.5 -15.5t-3.5 -13.5q0 -23 6.5 -28t20.5 -8q11 -2 17.5 -5t13.5 -3q13 0 21 9.5t8 17.5q0 6 5 20.5t10.5 31t10.5 32t5 22.5q0 22 -13.5 36t-31.5 36q-11 14 -28 17.5t-29 3.5q-29 0 -60 -9t-65.5 -39.5t-73 -89
t-82.5 -157.5l-12 -27q-2 -4 -4.5 -6.5t-12.5 -4.5q-17 -2 -32 -3.5t-19 -1.5q-20 0 -26 -1t-6 -6q0 -15 4 -21t4 -14q0 -23 8 -28t25 -7q14 -1 14 -5q0 -2 -2 -7q-11 -27 -21.5 -52.5t-19 -47t-13.5 -37t-5 -20.5q0 -7 1 -11t3 -7q0 -4 -8 -4q-11 0 -16 1.5t-13 1.5
t-15.5 -1t-10.5 -4q-2 -2 -4.5 -7.5t-2.5 -7.5q0 -8 4 -13q5 -8 6.5 -16.5t3.5 -15.5t7 -12t18 -7q5 -1 12 -1h13q20 0 50.5 1.5t61.5 6.5q36 5 80.5 14t85 17.5t70.5 14.5t38 6q16 0 19.5 -0.5t13.5 -0.5q18 0 22.5 7.5t4.5 13.5q0 10 -2 13.5t-12 13.5q-5 5 -6.5 8t-6.5 9
q-11 12 -17 14.5t-19 2.5h-11t-17.5 -0.5t-18 -2t-10.5 -3.5q-3 -3 -20.5 -8t-42 -11t-52.5 -12t-52.5 -10.5t-41.5 -7.5t-20 -3q-8 0 -9.5 0.5t-1.5 4.5q1 4 6.5 19.5t15 40t21.5 55t26 64.5z" />
    <glyph glyph-name="currency" unicode="&#xa4;" horiz-adv-x="508" 
d="M380 49q0 -5 7 -15.5t16 -15.5q13 -8 21 -8q6 0 13 4q21 13 26.5 17.5t5.5 12.5q0 5 -1.5 10t-6.5 9q-10 8 -17 32.5t-26 74.5q-1 2 -1 5t5 8q35 35 50.5 77.5t15.5 98.5q0 12 -4 23t-9 22q-4 6 -4 10t10 13q22 19 35 29.5t20.5 15.5t11.5 7.5t9 6.5q4 4 9 5.5t9.5 4.5
t8.5 9.5t7 21.5q3 13 3 17q0 13 -11 19.5t-16 6.5q-19 0 -34 -10q-16 -11 -46 -36.5t-59 -57.5q-7 -7 -11 -7q-3 0 -10 3q-21 8 -36 11t-29 3q-20 0 -42 -6q-6 0 -8 6q-6 16 -10 25t-5.5 15.5t-2 11t-0.5 11.5q0 6 -0.5 12.5t-2.5 16.5q-1 5 -1 18q0 8 -3.5 11.5t-15.5 10.5
t-19 7q-5 0 -16.5 -5.5t-18.5 -17.5q-2 -4 -4.5 -12.5t-2.5 -22.5q0 -6 2.5 -18.5t7 -28t10.5 -32.5t12 -31q3 -8 3 -11q0 -4 -5 -9q-22 -22 -36 -46t-21.5 -46t-10.5 -41t-3 -31q0 -13 4 -29t10 -26q2 -4 2 -6q0 -4 -4 -8l-36 -36q-32 -32 -47.5 -43.5t-20.5 -12.5t-9 -7.5
t-7 -14t-5 -14.5t-2 -9q0 -6 3 -10.5t8 -9.5q7 -7 12.5 -9t16.5 -2q6 0 33.5 23t67.5 61q11 11 19 19.5t16 16.5q3 3 6 3t6 -2q28 -16 61 -16q13 0 25.5 2t26.5 5q4 1 6.5 1.5t4.5 0.5q3 0 6 -6q17 -39 22.5 -58.5t5.5 -26.5zM268 360q40 60 69 60q15 0 22.5 -1.5t12.5 -3.5
q9 -5 8 -12t3 -12q7 -9 12.5 -13.5t9 -8t5.5 -8t2 -12.5q0 -16 -3.5 -37t-19.5 -43q-12 -17 -20 -29t-16 -21.5t-18 -17t-25 -15.5q-6 -3 -13.5 -4.5t-11.5 -1.5q-14 0 -22 6q-5 4 -6.5 6t-1.5 4q0 3 -0.5 7t-3.5 10q-2 5 -6.5 12t-9.5 8t-6 5t-1 11q0 17 9 47.5t31 63.5z
" />
    <glyph glyph-name="yen" unicode="&#xa5;" horiz-adv-x="474" 
d="M179 144q-2 -6 -9 -7.5t-34 -1.5t-49.5 3t-26.5 3q-6 0 -10.5 -1.5t-5.5 -5.5q-2 -6 -4.5 -7.5t-2.5 -5.5q0 -18 9.5 -31.5t17.5 -17.5q6 -3 32 -3q6 0 14 0.5t16 0.5q9 0 15.5 0.5t8.5 0.5q5 0 5 -4q0 -2 -1 -6t-5 -14q-3 -7 -5.5 -16l-5 -18t-4.5 -16.5t-4 -11.5
q-2 -5 -5.5 -15.5t-6.5 -21t-5.5 -19t-2.5 -10.5t11 -9.5t22 -7.5q5 0 8 -3.5t8 -3.5q16 0 26.5 5.5t11.5 13.5q2 21 10 33.5t8 20.5q0 2 -1 4t-1 7q0 2 2.5 12t5.5 23t7 26.5t7 22.5q4 10 6 12t7 2q2 0 13 0.5t26 2t31.5 3t30.5 3.5q14 0 22 -2t17 -2q2 0 5.5 4.5t4.5 6.5
q3 10 5.5 20t2.5 20q0 2 -3 6.5t-5 6.5q-5 4 -10.5 4.5t-16.5 0.5q-3 0 -18.5 -1.5t-33 -3t-32.5 -3t-18 -1.5q-6 0 -6 5q0 2 4.5 14.5t7.5 20.5q1 6 12 6q3 0 18 1t33 2.5t33 2.5t17 1q11 0 17.5 -1t12.5 -1q5 0 6.5 6t4.5 11q5 8 6.5 15t2.5 19q0 3 -1 7.5t-4 6.5
q-7 5 -12.5 6t-17.5 1q-3 0 -16 -1.5t-27 -3.5t-26 -3.5t-14 -1.5q-7 0 -7 4q0 7 11 14q4 3 22.5 21t47 46.5t64 64.5t73.5 74q16 16 29 34t23 35.5t15.5 32.5t5.5 24q0 11 -2.5 18t-9.5 7q-9 0 -11.5 4t-9.5 4q-5 0 -14 2t-14 2q-10 0 -17 -2t-7 -8q0 -3 -1 -9.5t-3 -15.5
q-8 -29 -22 -49t-38 -46t-43 -46t-36 -37l-33 -33l-33 -33q-12 -12 -18 -12q-5 0 -5 18q0 45 3 101t5 119q0 5 -2.5 11t-2.5 11q0 8 -3 12t-5 6q-6 7 -26 7q-8 0 -17 -2t-15 -2q-8 0 -14 -7.5t-6 -18.5q0 -6 0.5 -11t0.5 -9v-27q0 -9 2 -21t2 -31q0 -20 -1.5 -49.5
t-1.5 -74.5v-23q0 -15 0.5 -33t0.5 -37v-31q0 -8 -4 -11.5t-27 -3.5q-11 0 -23 1t-23 2.5t-19.5 3t-12.5 1.5q-8 0 -11.5 -1.5t-6.5 -6.5t-5.5 -5.5t-2.5 -5.5q0 -20 4.5 -34.5t11.5 -17.5q5 -2 21 -2.5t37 -0.5q8 0 17.5 0.5t17.5 0.5q7 0 7 -5q0 -3 -3.5 -14t-5.5 -16z
" />
    <glyph glyph-name="brokenbar" unicode="&#xa6;" horiz-adv-x="292" 
d="M220 485q-13 -36 -22.5 -63t-9.5 -35q0 -3 2.5 -5t7 -5t10 -9t11.5 -17q5 -11 27 -11q4 0 6 0.5t4.5 5t5.5 14t9 27.5q1 5 8.5 26t17 47l19 52t15.5 42q20 54 45 85q6 8 8 12t2 6q0 5 1 8.5t2 8t2 10t1 15.5q0 6 -9 12.5t-18 8.5q-15 4 -20.5 7.5t-12.5 3.5q-18 0 -23 -8
q-15 -26 -22.5 -47t-15.5 -42zM171 55q5 14 13.5 28.5t14.5 21.5q8 10 12 29t4 31q0 9 -6.5 16.5t-20.5 9.5q-7 1 -10.5 2.5t-7.5 3t-8.5 2.5t-13.5 1q-8 0 -14 -5.5t-10.5 -14t-8.5 -18t-7 -18.5l-71 -213q-4 -11 -4.5 -20t-8.5 -30q-5 -13 -7.5 -20.5t-2.5 -15.5
q0 -9 5.5 -15t17.5 -13q5 -3 6.5 -6t3 -5.5t5.5 -4t13 -1.5q8 0 13 13z" />
    <glyph glyph-name="section" unicode="&#xa7;" horiz-adv-x="406" 
d="M234 29q14 3 31 9t25 13l28 24.5t21.5 20.5t18 21t16.5 28q9 18 13 45t4 45q0 45 -10.5 82.5t-23.5 65.5l-13.5 31.5t-14 36.5t-11 39t-4.5 40q0 22 7 38t17 25.5t21.5 14t20.5 4.5q14 0 20.5 -7.5t11.5 -25.5q2 -5 2 -15q0 -9 6 -25q3 -7 9 -7q19 0 27 7.5t20 9.5
q4 1 7.5 8.5t3.5 18.5q0 26 -11 49.5t-21 31.5q-8 8 -20.5 11.5t-23.5 3.5q-49 0 -73.5 -11t-39.5 -25q-36 -33 -50.5 -64.5t-14.5 -69.5q0 -11 1 -24.5t3 -21.5q1 -5 1.5 -8.5t0.5 -5.5q0 -3 -3 -4.5t-16 -5.5q-23 -7 -55.5 -31.5t-58.5 -68.5q-5 -8 -8.5 -20.5t-6 -26
t-3.5 -27t-1 -23.5q0 -51 9 -83.5t19 -60.5q9 -24 15 -43t10 -35.5t6 -32t2 -32.5q0 -4 -3.5 -21.5t-17.5 -34.5q-6 -7 -16.5 -13.5t-18.5 -6.5q-16 0 -26 7.5t-16 18t-8.5 21.5t-2.5 17q0 14 -3.5 20.5t-3.5 15.5q0 8 -6.5 12.5t-16.5 4.5q-8 0 -18.5 -9t-21.5 -14
q-6 -3 -9.5 -11t-3.5 -25q0 -30 9.5 -52.5t25 -38t36.5 -23.5t45 -8q14 0 33 2.5t38 16.5q26 20 40.5 36.5t27.5 37.5q8 14 11.5 37t3.5 39q0 20 -1.5 30t-1.5 12q0 4 1.5 6t9.5 4zM204 108q-11 33 -18.5 57.5t-12.5 52.5q-3 20 -3.5 26t-0.5 12q0 13 2.5 24t9.5 26
q6 13 16 24t21 19t22 13t19 5q3 0 5 -1t4 -7q15 -40 23 -65.5t12 -41.5t4.5 -24.5t0.5 -14.5q0 -24 -7 -41.5t-20 -33.5q-8 -9 -18.5 -16t-20 -11.5t-17 -6.5t-10.5 -2q-7 0 -8.5 1.5t-2.5 4.5z" />
    <glyph glyph-name="dieresis" unicode="&#xa8;" 
d="M358 822q-5 9 -18.5 11t-21.5 2q-12 0 -21 -3t-14 -13q-4 -8 -8.5 -22t-4.5 -19q0 -27 2 -29q5 -5 8 -11t12 -12q2 -2 7 -2h8q4 0 10.5 1t12.5 3.5t11 5.5t5 7q0 3 4 7.5t8 10.5t7.5 14t3.5 17q0 5 -3 14.5t-8 17.5zM543 764q-2 9 -14 13.5t-25 4.5q-5 0 -11.5 0.5
t-8.5 0.5q-8 0 -13.5 -6.5t-9.5 -15t-6 -16.5t-2 -11q0 -15 8 -23.5t13 -19.5q7 -15 24 -15q5 0 14.5 1t14.5 3q6 3 11.5 11t13.5 25q2 4 2 16q0 8 -4.5 16.5t-6.5 15.5z" />
    <glyph glyph-name="copyright" unicode="&#xa9;" horiz-adv-x="796" 
d="M422 -20q58 0 107 8.5t99 39.5q55 34 90.5 79t56 92t28.5 92t8 79q0 45 -11.5 78t-24.5 56q-11 19 -23 33.5t-23 25.5t-22 20.5t-21 19.5q-22 22 -45 35t-49 20t-56 9.5t-64 2.5q-80 0 -145.5 -35.5t-112 -92t-71.5 -127.5t-25 -141q0 -57 13.5 -97.5t33.5 -69
t42.5 -47.5t40.5 -32q15 -11 37 -20t46.5 -15t48.5 -9.5t42 -3.5zM498 603q51 0 93.5 -13t73.5 -40t48.5 -69t17.5 -100q0 -60 -19.5 -120.5t-59.5 -109t-99.5 -79.5t-138.5 -31q-39 0 -78.5 10.5t-72 34.5t-52.5 63t-20 97q0 64 20.5 128t59.5 115t96 82.5t131 31.5z
M564 258q-14 0 -28 -10.5t-39 -41.5q-29 -37 -49.5 -47.5t-38.5 -10.5q-34 0 -46.5 18.5t-12.5 38.5q0 47 15 89t28 67q7 14 20.5 35.5t31 41.5t37.5 34t40 14q11 0 20.5 -2t9.5 -13q0 -16 -8.5 -29.5t-8.5 -34.5q0 -3 5 -7.5t15 -7.5q5 -2 15 -3.5t20 -1.5q14 0 22 4t8 8
q0 18 7.5 34.5t7.5 36.5q0 5 -3.5 14t-5.5 11q-14 14 -32.5 27t-38.5 18q-19 4 -41 4q-29 0 -54.5 -9.5t-46.5 -24t-37 -31t-27 -31.5q-35 -47 -57 -96.5t-22 -112.5q0 -15 5 -37.5t16 -39.5q17 -26 43.5 -41.5t61.5 -22.5q12 -2 24.5 -3t20.5 -1q43 0 77 29t71 74
q14 17 23 22q6 3 6 12q0 4 -2.5 6t-2.5 4q0 17 -26 17h-23z" />
    <glyph glyph-name="ordfeminine" unicode="&#xaa;" horiz-adv-x="442" 
d="M481 602q-17 17 -35 30t-49 13q-19 0 -48 -10.5t-59.5 -28.5t-58.5 -41t-46 -48q-12 -16 -25 -34.5t-24.5 -39t-19 -42t-7.5 -43.5q0 -12 5 -25q6 -15 18.5 -26t26.5 -18.5t27 -11t19 -3.5q12 0 33 13.5t43.5 31t42.5 34.5t30 25q7 0 7 -6q2 -23 3 -45.5t15 -47.5
q5 -8 12.5 -11.5t14.5 -3.5q9 0 19 2.5t18 5.5q5 0 8.5 4t3.5 14q-13 15 -17.5 33.5t-4.5 32.5q0 22 6 46t16 47t21.5 44t22.5 36q4 5 7 10.5t8 8.5t8.5 9.5t3.5 14.5t-11 17q-5 5 -16.5 6t-17.5 7zM104 157q37 0 65.5 0.5t50.5 0.5q23 0 42 0.5t37 0.5q38 0 66.5 -0.5
t43.5 -0.5q23 0 30 1t10 6q5 8 6.5 15t1.5 15q0 10 -7 16q-8 7 -7 12t-7 7t-20 2.5t-26 0.5t-28.5 -1t-30.5 -1q-46 0 -91 -2t-90 -2q-10 0 -13 1t-6 1.5t-9.5 1.5t-23.5 1q-9 0 -13 2.5t-14 2.5q-29 0 -35 -3.5t-6 -13.5q0 -12 1 -16t2 -6t2.5 -4.5t3.5 -9.5
q3 -14 8.5 -18.5t13.5 -6.5q9 -2 19 -2h24zM430 572q0 -6 -4.5 -13t-10 -14t-11 -14.5t-7.5 -14.5q-4 -11 -18.5 -28t-35.5 -36t-45 -38.5t-46.5 -35t-39.5 -25.5t-24 -10q-8 0 -8 6q0 28 20.5 64.5t50 69.5t61 58t54.5 31q6 2 21.5 6.5t27.5 4.5q15 0 15 -11z" />
    <glyph glyph-name="guillemotleft" unicode="&#xab;" horiz-adv-x="410" 
d="M106 276q8 -12 19 -27.5t21 -30t17.5 -25.5t8.5 -14q4 -9 9.5 -15.5t9.5 -6.5q16 0 23 5t14 15q2 2 2.5 9t0.5 13q0 11 -1.5 17t-6.5 12q-4 5 -14.5 26.5t-22.5 47.5q-3 7 -3 12q0 8 6 13q13 10 24 22t31 27q15 12 23.5 19t12.5 12t5 8t1 6q0 7 -3 13.5t-6 11.5
q-4 7 -7 9t-5 9q-2 5 -6 8t-19 3q-3 0 -5.5 -1t-8 -5.5t-14.5 -14t-24 -26.5l-77 -84q-4 -5 -7.5 -12.5t-3.5 -14.5q0 -2 1 -7t1 -11q0 -7 1 -13.5t3 -9.5zM267 276l69 -95q5 -7 7.5 -11t5.5 -9q3 -4 12 -4q3 0 7.5 2.5t6.5 4.5q8 6 10 8.5t4 4.5q7 5 7 14q0 10 -0.5 16
t-3.5 11q-1 2 -7.5 14t-14.5 26.5t-15 27t-8 15.5q-3 6 -3 12t7 13l54 51q11 11 18.5 15t19.5 17q7 7 7 15q0 7 -4.5 10t-9.5 14q-9 20 -17 23.5t-14 3.5t-10 -0.5t-9 -4.5t-13 -12.5t-21 -24.5l-79 -89q-4 -5 -6.5 -11.5t-4.5 -12.5q-1 -3 -2.5 -5.5t-1.5 -10.5
q0 -14 9 -28z" />
    <glyph glyph-name="logicalnot" unicode="&#xac;" horiz-adv-x="590" 
d="M519 357q-8 0 -16.5 -1.5t-20.5 -1.5q-33 0 -66.5 1.5t-67.5 1.5h-89q-38 0 -59.5 -0.5t-32 -1.5t-14 -2.5t-5.5 -4.5l-4 -8t-6 -14t-5.5 -15.5t-2.5 -11.5q0 -5 1.5 -8t1.5 -9q0 -5 5.5 -5.5t8.5 -0.5h31q17 0 30 2q5 1 10.5 2.5t20.5 1.5q64 0 107.5 -2t84.5 -2
q20 0 26 -2t6 -11q0 -10 -4 -25q-7 -26 -13 -44t-10.5 -31t-7 -21.5t-2.5 -15.5t6 -9.5t14 -2.5q5 0 10 1t9 1h20q8 0 12 4.5t9 21.5q4 14 4.5 21t2.5 13q4 11 11.5 40t21.5 86q1 2 2 5.5t2 7.5q2 10 2 11q0 3 -4 7.5t-9 9.5t-10.5 8.5t-9.5 3.5z" />
    <glyph glyph-name="registered" unicode="&#xae;" horiz-adv-x="658" 
d="M387 138q62 0 110 16.5t84 43.5t60 60.5t39 68t21.5 67t6.5 56.5q0 35 -8 60t-25 54q-20 32 -43 49.5t-37 32.5q-29 32 -68 42t-104 10q-68 0 -120 -33t-88 -83t-54.5 -108.5t-18.5 -109.5q0 -10 2.5 -25t6.5 -30q6 -26 15 -44t21.5 -33t29.5 -28t40 -28q26 -17 63 -27.5
t67 -10.5zM635 493q1 -7 1 -13v-13q0 -56 -21.5 -113.5t-71.5 -102.5q-29 -26 -67.5 -40.5t-92.5 -14.5q-36 0 -67 12t-53 34t-34.5 52t-12.5 66q0 46 15 95.5t44 90t73 66.5t101 26q35 0 67 -8.5t57.5 -26.5t41.5 -45.5t20 -64.5zM427 273q9 -11 23 -18.5t28 -7.5
q9 0 14 0.5t8 1.5q5 2 10 5.5t5 17.5q0 13 -6 24q-1 2 -6 4q-10 3 -18.5 7.5t-16.5 13.5t-18 25t-23 43q37 8 54.5 18t27.5 20q19 19 32.5 43.5t13.5 52.5q0 21 -5 38q-2 4 -11 13t-17 12q-29 12 -60 12q-30 0 -61.5 -11.5t-57.5 -29.5q-5 -3 -5.5 -3.5t-0.5 -2.5
q0 -7 4.5 -14t10.5 -13q3 -3 3 -4t-4 -10l-7 -17.5t-10 -28.5q-16 -48 -28 -88.5t-18 -82.5q-2 -17 -2.5 -19.5t-0.5 -4.5q0 -6 7 -7.5t14 -6.5q5 -3 9.5 -3.5t9.5 -0.5q10 0 18 4q4 2 4 7q0 1 0.5 9t2 19t4 23.5t5.5 21.5t4.5 18.5t8.5 19.5q9 -26 21.5 -50.5t33.5 -49.5z
M487 548q1 -2 1.5 -7t0.5 -9q0 -27 -15 -49.5t-37 -36.5q-13 -8 -24.5 -10.5t-21.5 -2.5q6 18 10.5 31t9 24.5t10.5 23.5t15 28q3 5 5 6.5t7 2.5q9 2 13 3.5t12 1.5q4 0 8 -1.5t6 -4.5z" />
    <glyph glyph-name="macron" unicode="&#xaf;" 
d="M424 783q-34 0 -55 0.5t-35 1.5t-24 1.5t-22 0.5q-34 0 -34 -14q0 -47 22 -55q5 -2 26.5 -3t51.5 -1q19 0 43.5 0.5t46.5 0.5q23 0 41.5 0.5t25.5 0.5q8 0 19 -0.5t18 -0.5q11 0 16 8t5.5 13.5t0.5 17.5q0 3 1 6t1 5q0 3 -4 7q-5 5 -5.5 9.5t-8.5 4.5q-10 0 -25.5 -0.5
t-33.5 -1t-36.5 -1t-34.5 -0.5z" />
    <glyph glyph-name="macron" unicode="&#x2c9;" 
d="M424 783q-34 0 -55 0.5t-35 1.5t-24 1.5t-22 0.5q-34 0 -34 -14q0 -47 22 -55q5 -2 26.5 -3t51.5 -1q19 0 43.5 0.5t46.5 0.5q23 0 41.5 0.5t25.5 0.5q8 0 19 -0.5t18 -0.5q11 0 16 8t5.5 13.5t0.5 17.5q0 3 1 6t1 5q0 3 -4 7q-5 5 -5.5 9.5t-8.5 4.5q-10 0 -25.5 -0.5
t-33.5 -1t-36.5 -1t-34.5 -0.5z" />
    <glyph glyph-name="degree" unicode="&#xb0;" horiz-adv-x="384" 
d="M382 376q26 22 44 48t29.5 50.5t16.5 45t5 32.5q0 13 -4 27t-11 27t-16.5 24t-19.5 18q-15 11 -27.5 17t-23 8.5t-21 3t-21.5 0.5t-24.5 -5t-27 -13t-26 -18t-19.5 -20q-27 -37 -44.5 -67.5t-17.5 -62.5t23 -73q8 -14 27 -29.5t41 -25.5q23 -10 47 -10q23 0 41.5 7.5
t28.5 15.5zM400 600q3 -8 5 -15t2 -15q0 -13 -5 -27t-16 -32t-28 -41.5t-41 -54.5q-8 -10 -15.5 -12.5t-13.5 -2.5q-5 0 -12 2.5t-13.5 8.5t-11.5 17t-5 28q0 34 23.5 74.5t71.5 85.5q10 9 16 11t16 2q8 0 15 -8t12 -21z" />
    <glyph glyph-name="plusminus" unicode="&#xb1;" horiz-adv-x="590" 
d="M407 398q-4 0 -4 5q9 25 15 45t15 49l11 35q1 3 2.5 7t1.5 6q0 5 -5 10q-2 2 -11.5 4t-15.5 2q-7 0 -15.5 -4t-26.5 -9q-5 -2 -10.5 -14t-12.5 -41q-1 -5 -5 -17.5t-8.5 -26.5t-8.5 -28t-7 -22q-2 -7 -24 -7h-27h-18t-25 1t-25.5 2t-18.5 3q-5 2 -8 2h-6q-10 0 -18 -7
q-9 -7 -9 -13q0 -24 5 -39t13 -18q4 -2 14.5 -3.5t24 -3t27.5 -2.5t25 -1h38q5 0 5 -6l-7 -36q-8 -41 -15 -66.5t-7 -49.5q0 -3 6.5 -8.5t23.5 -5.5q3 0 7.5 1.5t8.5 1.5q22 0 27 9.5t7 24.5q3 22 6 37.5t6 30.5t7 31.5t11 40.5q1 3 7 3q21 3 37.5 4.5t31.5 2.5t30.5 2.5
t33.5 3.5q6 1 13 1.5t13 0.5q4 0 7.5 -1t7.5 -1q6 0 10 10t8.5 19.5t4.5 20.5q0 5 -0.5 7t-3.5 5q-14 14 -37 14q-6 0 -21 -1.5t-32.5 -4t-33.5 -4t-23 -1.5h-11q-5 0 -11 -1zM511 86q0 5 -0.5 7.5t-2.5 7.5q-10 10 -15 12t-13 2q-22 0 -52 -1.5t-60.5 -3t-57 -2.5t-40.5 -1
q-68 0 -107 4t-51 4q-34 0 -34 -16q0 -6 1.5 -16.5t4 -20.5t6.5 -17.5t9 -7.5q6 0 19.5 -1t31.5 -2.5t38 -2.5t40 -1q30 0 66 1t70 2.5t62 3t42 1.5q6 0 13.5 -1t13.5 -1q5 0 8 8q4 10 6 20t2 22z" />
    <glyph glyph-name="twosuperior" unicode="&#xb2;" horiz-adv-x="364" 
d="M354 596q6 0 7 -4t1 -8q0 -17 -11.5 -39.5t-29.5 -47.5t-39 -49t-39.5 -44t-31.5 -33l-15 -15l-47 -47t-29 -30q-12 -13 -18 -23t-6 -14q0 -11 6.5 -23t22.5 -25q15 -12 52.5 -14.5t77.5 -2.5q63 0 91.5 4.5t39.5 18.5q2 2 6 10.5t8.5 20t7.5 24t3 22.5t-5 15
q-11 12 -20 14.5t-15 2.5q-11 0 -19.5 -3.5t-12.5 -7.5q-2 -2 -5 -8.5t-7 -15.5q-5 -11 -10 -18t-14 -11.5t-24 -6.5t-38 -2h-20t-21 2q-5 1 -5 3q0 4 16.5 22t39.5 41.5t47.5 48l41.5 41.5q37 39 66 88.5t29 102.5q0 8 -8 19t-20 21.5t-26.5 17.5t-27.5 7q-29 0 -47.5 -3.5
t-43.5 -18.5q-20 -12 -36.5 -24t-27.5 -28q-5 -6 -12 -15.5t-7 -20.5q0 -19 13 -32q5 -5 11.5 -7.5t17.5 -2.5q2 0 6 1t11 2t11.5 3.5t8.5 11.5q3 7 8.5 12t10.5 11q3 4 10.5 13.5t17.5 19.5t22.5 17t26.5 7z" />
    <glyph glyph-name="threesuperior" unicode="&#xb3;" horiz-adv-x="364" 
d="M332 581q4 2 7 2q2 0 2 -2q0 -3 -3 -9q-12 -24 -37.5 -61.5t-74.5 -70.5q-2 -2 -5.5 -6t-12.5 -9q-8 -5 -15.5 -9.5t-14.5 -10.5q-3 -3 -3 -9q0 -8 5.5 -18t14.5 -13t19 -3q20 0 37.5 10t27.5 15q5 3 10.5 4t10.5 3q10 4 15 4q8 0 12 -6q3 -5 5.5 -11t2.5 -15
q0 -5 -6 -24t-13 -34q-13 -29 -26.5 -46t-33.5 -31q-5 -3 -7 -3.5t-5 -0.5q-7 0 -14 3.5t-13 8.5t-10 9.5t-4 7.5q0 8 -8.5 15.5t-15.5 15.5q-8 9 -21 9q-6 0 -11 -1t-18 -1q-14 0 -18.5 -4.5t-4.5 -12.5q0 -6 3 -13t8 -12q8 -9 21.5 -23.5t31 -28t38.5 -23t43 -9.5
q27 0 47.5 9.5t36 24.5t27.5 34t21 39q11 22 18.5 46t7.5 44q0 8 -1.5 20.5t-8.5 25.5t-20 23.5t-37 15.5q15 16 34.5 41.5t38.5 58.5q2 4 3.5 8t3.5 9q3 7 5 12.5t2 12.5q0 8 -4 16q-2 5 -8.5 11.5t-18.5 10.5q-6 2 -9 4q-8 6 -17.5 8t-19.5 2q-14 0 -27.5 -4t-25.5 -9
t-21.5 -11t-15.5 -9q-5 -3 -14 -4.5t-13 -5.5q-16 -15 -31 -26.5t-15 -32.5q0 -4 6 -14.5t11 -15.5q6 -6 22 -6q5 0 14.5 1.5t11.5 4.5q6 8 12.5 10t6.5 13q0 4 5.5 9.5t14.5 12t19.5 13t19.5 11.5z" />
    <glyph glyph-name="acute" unicode="&#xb4;" 
d="M402 794l-89 -34q-21 -8 -25 -8q-2 0 -6.5 -1t-6.5 -4q-5 -6 -5 -14q0 -5 3 -8l4 -4t5 -7q5 -7 15 -14q4 -2 11 -2q9 0 20 3l118 37q36 11 50.5 17.5t21.5 14.5q3 4 4 9t1 17q0 10 -2 15.5t-9 12.5q-8 8 -19 8q-3 0 -7.5 -0.5t-6.5 -2.5q-7 -5 -17.5 -10t-22 -10
t-21.5 -9t-16 -6z" />
    <glyph glyph-name="mu" unicode="&#xb5;" 
d="M139 122q3 0 3 -9q-1 -12 -1 -22v-19q0 -26 1.5 -38t3.5 -17q3 -8 9 -14t20 -14t28 -11t28 -3q9 0 36 17.5t53 52.5q2 3 6.5 10t9.5 13.5t9 12t6 5.5t3.5 -3.5t1.5 -5.5q0 -8 -1 -17t-1 -28q0 -15 0.5 -25.5t2.5 -26.5q2 -11 5 -22t11 -11q11 0 17.5 -5t17.5 -5
q31 0 31 15q0 21 -2.5 31t-5.5 16t-5.5 10.5t-2.5 13.5q0 21 2 39.5t4 34.5q9 60 28 115.5t45 110.5q3 7 5 14.5t2 19.5q0 5 -4 9t-14 4q-6 0 -13 5t-14 5q-21 0 -27.5 -7t-11.5 -21q-15 -40 -25 -65t-21 -44.5t-24 -38t-34 -44.5q-7 -9 -18 -23t-22.5 -29t-22.5 -27.5
t-17 -17.5q-5 -5 -11.5 -7.5t-8.5 -2.5q-7 0 -9.5 11.5t-2.5 29.5q0 38 2 61.5t5.5 42t9 38.5t12.5 50q6 27 20 51t20 41q4 11 12.5 21t8.5 18t-1 17t-4 14q-5 8 -18 9.5t-21 1.5q-7 0 -10.5 -4.5t-15.5 -4.5q-5 0 -10.5 -9.5t-10.5 -20.5q-73 -160 -135.5 -285t-120.5 -231
l-24 -43.5t-15 -22.5q-17 -18 -26.5 -29.5t-14.5 -19.5t-6.5 -14.5t-1.5 -14.5q0 -10 1.5 -17.5t7.5 -8.5q8 -1 13.5 -8.5t12.5 -7.5q5 0 14 -1t17 -1q4 0 8.5 5t9 11.5t8.5 13.5t6 12q19 39 35 71.5t31 63t29 60.5t30 64q16 35 26 56t15.5 32t7.5 14t3 3z" />
    <glyph glyph-name="mu" unicode="&#x3bc;" 
d="M139 122q3 0 3 -9q-1 -12 -1 -22v-19q0 -26 1.5 -38t3.5 -17q3 -8 9 -14t20 -14t28 -11t28 -3q9 0 36 17.5t53 52.5q2 3 6.5 10t9.5 13.5t9 12t6 5.5t3.5 -3.5t1.5 -5.5q0 -8 -1 -17t-1 -28q0 -15 0.5 -25.5t2.5 -26.5q2 -11 5 -22t11 -11q11 0 17.5 -5t17.5 -5
q31 0 31 15q0 21 -2.5 31t-5.5 16t-5.5 10.5t-2.5 13.5q0 21 2 39.5t4 34.5q9 60 28 115.5t45 110.5q3 7 5 14.5t2 19.5q0 5 -4 9t-14 4q-6 0 -13 5t-14 5q-21 0 -27.5 -7t-11.5 -21q-15 -40 -25 -65t-21 -44.5t-24 -38t-34 -44.5q-7 -9 -18 -23t-22.5 -29t-22.5 -27.5
t-17 -17.5q-5 -5 -11.5 -7.5t-8.5 -2.5q-7 0 -9.5 11.5t-2.5 29.5q0 38 2 61.5t5.5 42t9 38.5t12.5 50q6 27 20 51t20 41q4 11 12.5 21t8.5 18t-1 17t-4 14q-5 8 -18 9.5t-21 1.5q-7 0 -10.5 -4.5t-15.5 -4.5q-5 0 -10.5 -9.5t-10.5 -20.5q-73 -160 -135.5 -285t-120.5 -231
l-24 -43.5t-15 -22.5q-17 -18 -26.5 -29.5t-14.5 -19.5t-6.5 -14.5t-1.5 -14.5q0 -10 1.5 -17.5t7.5 -8.5q8 -1 13.5 -8.5t12.5 -7.5q5 0 14 -1t17 -1q4 0 8.5 5t9 11.5t8.5 13.5t6 12q19 39 35 71.5t31 63t29 60.5t30 64q16 35 26 56t15.5 32t7.5 14t3 3z" />
    <glyph glyph-name="paragraph" unicode="&#xb6;" horiz-adv-x="544" 
d="M472 589h58v46h-210q-69 0 -111.5 -37.5t-42.5 -103.5t42.5 -103.5t111.5 -37.5v-353h50v589h52v-589h50v589z" />
    <glyph glyph-name="periodcentered" unicode="&#xb7;" horiz-adv-x="344" 
d="M272 340q-11 14 -38 14q-22 0 -45 -6.5t-33 -16.5q-5 -5 -8.5 -22t-3.5 -36q0 -11 1.5 -23t4.5 -21q2 -7 10.5 -12t19 -8.5t22 -5.5t19.5 -2q27 0 41.5 20.5t23.5 50.5q3 12 3 24q0 22 -17 44z" />
    <glyph glyph-name="cedilla" unicode="&#xb8;" horiz-adv-x="338" 
d="M126 28l27 -42q5 -8 5 -19q0 -3 -0.5 -7t-4.5 -12q-14 -29 -27.5 -46t-36.5 -17q-14 0 -24.5 6.5t-11.5 13.5q-1 5 -7.5 9.5t-11.5 4.5q-3 0 -5.5 1.5t-5.5 1.5q-4 0 -8 -4q-15 -15 -15 -23q0 -6 7 -16q5 -8 14.5 -17t34.5 -18q14 -5 29 -9t30 -4q22 0 44.5 12.5
t46.5 47.5q8 11 12.5 25t4.5 22q0 15 -3 24t-7 14l-33 52h-54z" />
    <glyph glyph-name="onesuperior" unicode="&#xb9;" horiz-adv-x="364" 
d="M277 269q-3 -11 -7.5 -19.5t-6.5 -22.5q-1 -3 -2.5 -10.5t-1.5 -15.5q0 -11 4 -15q16 -14 40 -14q5 0 9.5 1t9.5 1q8 0 12.5 4t7 10t3 11.5t0.5 8.5q0 14 2.5 24.5t4.5 18.5q23 91 44 180.5t55 174.5q2 6 2 9q0 8 -5.5 14.5t-14 11t-18.5 7t-18 2.5q-14 0 -18 -6
q-12 -20 -25 -40t-29 -39q-35 -42 -70.5 -83t-67.5 -76q-10 -11 -18 -17.5t-13 -10.5q-8 -5 -17.5 -12t-25.5 -23q-13 -13 -13 -18q0 -6 11 -18q3 -4 7.5 -6t8.5 -6t10 -5.5t12 -1.5q8 0 14 2t8 5q2 4 8.5 9t22 20.5t43.5 46.5t73 87q6 7 7 7q2 0 2 -2q-12 -53 -24 -98
t-26 -96z" />
    <glyph glyph-name="ordmasculine" unicode="&#xba;" horiz-adv-x="408" 
d="M465 526q0 22 -6.5 42t-16.5 35t-21.5 24t-21.5 9q-8 0 -11.5 3t-8.5 7t-12.5 7t-22.5 3q-51 0 -91 -31t-64 -73q-26 -45 -41.5 -82t-15.5 -72q0 -41 33 -86q19 -26 43 -34.5t51 -8.5q32 0 58.5 7.5t55.5 42.5q19 22 35.5 48t29 53t20 54t7.5 52zM133 154q37 0 54.5 1
t27.5 2t18.5 2t26.5 1q38 0 62.5 -1t39.5 -1q23 0 31.5 1t12.5 6q6 8 9 14t3 14q0 7 -9.5 12.5t-9.5 10.5q0 2 2 3t2 4t-7 4q-12 2 -27 3t-29 1q-3 0 -18.5 -1t-38.5 -1.5t-51.5 -1.5t-58.5 -1h-45q-9 0 -28 3.5t-29 3.5q-29 0 -35 -3.5t-6 -13.5q0 -12 0.5 -16.5t1.5 -6.5
t2 -5t3 -10q2 -8 7 -12t22 -8q4 -1 12.5 -1.5t18.5 -1l20 -1t16 -0.5zM372 572q8 -9 11 -18t3 -26q0 -9 -3.5 -22t-12 -33.5t-24 -48.5t-39.5 -66q-11 -18 -24.5 -29t-24.5 -11q-23 0 -36.5 17.5t-13.5 45.5q0 35 23.5 81t68.5 108q11 16 24.5 23t22.5 7q12 0 15 -2t3 -10
q0 -4 2.5 -8.5t4.5 -7.5z" />
    <glyph glyph-name="guillemotright" unicode="&#xbb;" horiz-adv-x="410" 
d="M417 276q11 11 16.5 23.5t5.5 17.5q0 25 -4 33l-38 78q-14 29 -18.5 35.5t-8.5 8.5t-13 2q-5 0 -12.5 -1.5t-12.5 -8.5q-14 -18 -23.5 -24t-9.5 -17q0 -5 8 -15t13 -19q4 -8 6.5 -12.5t4.5 -7.5t3.5 -6l3.5 -7q2 -6 5 -12t8 -14q4 -5 4 -12q0 -4 -1 -6.5t-6 -7.5
l-94 -102q-3 -3 -3.5 -6t-0.5 -4q0 -5 3 -6.5t3 -3.5q0 -8 6.5 -16t11.5 -8q15 0 23 3t20 15zM256 276q7 6 14.5 18t7.5 23q0 12 -1 19t-5 17l-48 115q-5 11 -13 11q-7 0 -9 -2.5t-10 -2.5t-19 -7q-3 -2 -8.5 -8t-10 -12.5t-8 -12t-3.5 -7.5q0 -5 5 -12q2 -5 7 -14t10 -19
l26 -48q4 -8 4 -12q0 -9 -8 -18l-85 -88q-7 -8 -8 -16.5t-1 -22.5q0 -5 3 -8l5 -5q11 -8 14 -8t7.5 2t12.5 10z" />
    <glyph glyph-name="onequarter" unicode="&#xbc;" horiz-adv-x="950" 
d="M722 91q0 -1 -2 -11q-2 -8 -2.5 -11.5t-1.5 -8.5q-6 -32 -6 -41q0 -5 1 -10t9 -10q11 -7 22 -13.5t30 -6.5q9 0 11 5.5t3 10.5q5 27 7 55t13 54q11 3 24.5 5t24.5 4q23 3 41 3.5t18 13.5q0 3 -1 7.5t-5 12.5t-7 11q-7 7 -16.5 9t-20.5 2q-18 0 -31 -3t-15 -3q-3 0 -3 3
q0 2 1 9t9 36q4 16 9.5 34.5t10.5 34t8.5 27.5t4.5 16q6 21 6 36q0 8 6 20.5t6 24.5q0 9 -6 16.5t-22 13.5q-11 4 -20 4q-12 0 -18 -5.5t-10 -11.5q-3 -5 -15 -15q-63 -54 -114.5 -113t-93.5 -106q-5 -6 -6.5 -11t-1.5 -13q0 -2 3.5 -10t9.5 -17.5t13.5 -18t15.5 -11.5
q25 -10 51 -12.5t55 -2.5q5 0 5 -3zM761 293q10 11 12 11q1 0 1 -3q0 -1 -7 -25q-10 -34 -17.5 -61t-12.5 -54q-1 -5 -2 -6t-6 -2q-8 -1 -16.5 -1.5t-11.5 -0.5h-22q-11 0 -19 2q-10 2 -10 6q0 1 3 6q24 29 53 63.5t55 64.5zM797 632q0 15 -2 20t-7 9q-14 12 -27 12
q-12 0 -32 -14q-4 -3 -12 -11.5t-18 -20.5t-21 -26t-20 -28l-305 -470l-22 -33t-13.5 -18t-9 -8.5t-6.5 -3.5q-5 -2 -8 -7.5t-3 -30.5q0 -11 3.5 -15.5t12.5 -10.5q8 -6 14.5 -7t18.5 -1q5 0 26.5 25.5t50.5 70.5q44 67 82.5 131t76.5 125.5t77 120.5t83 117q7 9 15.5 13.5
t21.5 19.5q6 7 9.5 8.5t5.5 2.5q6 2 7.5 6.5t1.5 23.5zM277 269q-3 -11 -7.5 -19.5t-6.5 -22.5q-1 -3 -2.5 -10.5t-1.5 -15.5q0 -11 4 -15q16 -14 40 -14q5 0 9.5 1t9.5 1q8 0 12.5 4t7 10t3 11.5t0.5 8.5q0 14 2.5 24.5t4.5 18.5q23 91 44 180.5t55 174.5q2 6 2 9
q0 8 -5.5 14.5t-14 11t-18.5 7t-18 2.5q-14 0 -18 -6q-12 -20 -25 -40t-29 -39q-35 -42 -70.5 -83t-67.5 -76q-10 -11 -18 -17.5t-13 -10.5q-8 -5 -17.5 -12t-25.5 -23q-13 -13 -13 -18q0 -6 11 -18q3 -4 7.5 -6t8.5 -6t10 -5.5t12 -1.5q8 0 14 2t8 5q2 4 8.5 9t22 20.5
t43.5 46.5t73 87q6 7 7 7q2 0 2 -2q-12 -53 -24 -98t-26 -96z" />
    <glyph glyph-name="onehalf" unicode="&#xbd;" horiz-adv-x="950" 
d="M786 632q0 15 -2 20t-7 9q-14 12 -27 12q-12 0 -32 -14q-4 -3 -12 -11.5t-18 -20.5t-21 -26t-20 -28l-305 -470l-22 -33t-13.5 -18t-9 -8.5t-6.5 -3.5q-5 -2 -8 -7.5t-3 -30.5q0 -11 3.5 -15.5t12.5 -10.5q8 -6 14.5 -7t18.5 -1q5 0 26.5 25.5t50.5 70.5q44 67 82.5 131
t76.5 125.5t77 120.5t83 117q7 9 15.5 13.5t21.5 19.5q6 7 9.5 8.5t5.5 2.5q6 2 7.5 6.5t1.5 23.5zM277 269q-3 -11 -7.5 -19.5t-6.5 -22.5q-1 -3 -2.5 -10.5t-1.5 -15.5q0 -11 4 -15q16 -14 40 -14q5 0 9.5 1t9.5 1q8 0 12.5 4t7 10t3 11.5t0.5 8.5q0 14 2.5 24.5t4.5 18.5
q23 91 44 180.5t55 174.5q2 6 2 9q0 8 -5.5 14.5t-14 11t-18.5 7t-18 2.5q-14 0 -18 -6q-12 -20 -25 -40t-29 -39q-35 -42 -70.5 -83t-67.5 -76q-10 -11 -18 -17.5t-13 -10.5q-8 -5 -17.5 -12t-25.5 -23q-13 -13 -13 -18q0 -6 11 -18q3 -4 7.5 -6t8.5 -6t10 -5.5t12 -1.5
q8 0 14 2t8 5q2 4 8.5 9t22 20.5t43.5 46.5t73 87q6 7 7 7q2 0 2 -2q-12 -53 -24 -98t-26 -96zM822 403q6 0 7 -4t1 -8q0 -17 -11.5 -39.5t-29.5 -47.5t-39 -49t-39.5 -44t-31.5 -33l-15 -15l-47 -47t-29 -30q-12 -13 -18 -23t-6 -14q0 -11 6.5 -23t22.5 -25
q15 -12 52.5 -14.5t77.5 -2.5q63 0 91.5 4.5t39.5 18.5q2 2 6 10.5t8.5 20t7.5 24t3 22.5t-5 15q-11 12 -20 14.5t-15 2.5q-11 0 -19.5 -3.5t-12.5 -7.5q-2 -2 -5 -8.5t-7 -15.5q-5 -11 -10 -18t-14 -11.5t-24 -6.5t-38 -2h-20t-21 2q-5 1 -5 3q0 4 16.5 22t39.5 41.5
t47.5 48l41.5 41.5q37 39 66 88.5t29 102.5q0 8 -8 19t-20 21.5t-26.5 17.5t-27.5 7q-29 0 -47.5 -3.5t-43.5 -18.5q-20 -12 -36.5 -24t-27.5 -28q-5 -6 -12 -15.5t-7 -20.5q0 -19 13 -32q5 -5 11.5 -7.5t17.5 -2.5q2 0 6 1t11 2t11.5 3.5t8.5 11.5q3 7 8.5 12t10.5 11
q3 4 10.5 13.5t17.5 19.5t22.5 17t26.5 7z" />
    <glyph glyph-name="threequarters" unicode="&#xbe;" horiz-adv-x="950" 
d="M332 581q4 2 7 2q2 0 2 -2q0 -3 -3 -9q-12 -24 -37.5 -61.5t-74.5 -70.5q-2 -2 -5.5 -6t-12.5 -9q-8 -5 -15.5 -9.5t-14.5 -10.5q-3 -3 -3 -9q0 -8 5.5 -18t14.5 -13t19 -3q20 0 37.5 10t27.5 15q5 3 10.5 4t10.5 3q10 4 15 4q8 0 12 -6q3 -5 5.5 -11t2.5 -15
q0 -5 -6 -24t-13 -34q-13 -29 -26.5 -46t-33.5 -31q-5 -3 -7 -3.5t-5 -0.5q-7 0 -14 3.5t-13 8.5t-10 9.5t-4 7.5q0 8 -8.5 15.5t-15.5 15.5q-8 9 -21 9q-6 0 -11 -1t-18 -1q-14 0 -18.5 -4.5t-4.5 -12.5q0 -6 3 -13t8 -12q8 -9 21.5 -23.5t31 -28t38.5 -23t43 -9.5
q27 0 47.5 9.5t36 24.5t27.5 34t21 39q11 22 18.5 46t7.5 44q0 8 -1.5 20.5t-8.5 25.5t-20 23.5t-37 15.5q15 16 34.5 41.5t38.5 58.5q2 4 3.5 8t3.5 9q3 7 5 12.5t2 12.5q0 8 -4 16q-2 5 -8.5 11.5t-18.5 10.5q-6 2 -9 4q-8 6 -17.5 8t-19.5 2q-14 0 -27.5 -4t-25.5 -9
t-21.5 -11t-15.5 -9q-5 -3 -14 -4.5t-13 -5.5q-16 -15 -31 -26.5t-15 -32.5q0 -4 6 -14.5t11 -15.5q6 -6 22 -6q5 0 14.5 1.5t11.5 4.5q6 8 12.5 10t6.5 13q0 4 5.5 9.5t14.5 12t19.5 13t19.5 11.5zM722 91q0 -1 -2 -11q-2 -8 -2.5 -11.5t-1.5 -8.5q-6 -32 -6 -41
q0 -5 1 -10t9 -10q11 -7 22 -13.5t30 -6.5q9 0 11 5.5t3 10.5q5 27 7 55t13 54q11 3 24.5 5t24.5 4q23 3 41 3.5t18 13.5q0 3 -1 7.5t-5 12.5t-7 11q-7 7 -16.5 9t-20.5 2q-18 0 -31 -3t-15 -3q-3 0 -3 3q0 2 1 9t9 36q4 16 9.5 34.5t10.5 34t8.5 27.5t4.5 16q6 21 6 36
q0 8 6 20.5t6 24.5q0 9 -6 16.5t-22 13.5q-11 4 -20 4q-12 0 -18 -5.5t-10 -11.5q-3 -5 -15 -15q-63 -54 -114.5 -113t-93.5 -106q-5 -6 -6.5 -11t-1.5 -13q0 -2 3.5 -10t9.5 -17.5t13.5 -18t15.5 -11.5q25 -10 51 -12.5t55 -2.5q5 0 5 -3zM761 293q10 11 12 11q1 0 1 -3
q0 -1 -7 -25q-10 -34 -17.5 -61t-12.5 -54q-1 -5 -2 -6t-6 -2q-8 -1 -16.5 -1.5t-11.5 -0.5h-22q-11 0 -19 2q-10 2 -10 6q0 1 3 6q24 29 53 63.5t55 64.5zM797 632q0 15 -2 20t-7 9q-14 12 -27 12q-12 0 -32 -14q-4 -3 -12 -11.5t-18 -20.5t-21 -26t-20 -28l-305 -470
l-22 -33t-13.5 -18t-9 -8.5t-6.5 -3.5q-5 -2 -8 -7.5t-3 -30.5q0 -11 3.5 -15.5t12.5 -10.5q8 -6 14.5 -7t18.5 -1q5 0 26.5 25.5t50.5 70.5q44 67 82.5 131t76.5 125.5t77 120.5t83 117q7 9 15.5 13.5t21.5 19.5q6 7 9.5 8.5t5.5 2.5q6 2 7.5 6.5t1.5 23.5z" />
    <glyph glyph-name="questiondown" unicode="&#xbf;" horiz-adv-x="360" 
d="M50 75q0 -22 16 -39t32 -26q19 -11 37.5 -15.5t44.5 -4.5q25 0 43.5 6t35.5 22q10 9 19 26.5t9 37.5q0 8 -4 19t-9 16q-10 11 -17 13t-19 2q-14 0 -18.5 -6.5t-4.5 -14.5q0 -5 1 -12t1 -10q0 -21 -15 -30t-34 -9q-6 0 -13 3t-13 7.5t-10.5 10t-4.5 11.5q0 7 3 15.5
t10.5 19.5t21.5 26t35 36q48 48 75 76t39.5 46t15 30t2.5 28q0 21 -12 36t-32 26q-24 13 -43.5 16.5t-44.5 3.5q-22 0 -43 -6.5t-32 -14.5q-5 -4 -10 -13.5t-5 -15.5q0 -4 3.5 -9t5.5 -11q3 -8 12.5 -10.5t13.5 -2.5q12 0 29 11q7 5 18.5 6.5t20.5 1.5q13 0 26.5 -6
t13.5 -17q0 -8 -3.5 -16t-13.5 -20t-28 -30.5t-46 -47.5q-38 -40 -60 -63.5t-33 -40t-13.5 -29.5t-2.5 -32zM364 594q0 6 -9 15t-20.5 17t-23 13.5t-16.5 5.5q-10 0 -20 -6.5t-18 -34.5q-2 -5 -3.5 -12t-1.5 -15q0 -7 7.5 -14t12.5 -14q4 -5 14 -9.5t21 -4.5q13 0 25.5 7.5
t22.5 17.5q9 9 9 34z" />
    <glyph glyph-name="Agrave" unicode="&#xc0;" 
d="M365 267q-1 -6 -2 -7.5t-5 -3.5q-3 -2 -21 -7.5t-46 -16.5q-12 -5 -27.5 -9.5t-30.5 -9t-26.5 -7t-15.5 -2.5q-6 0 -6 4q0 2 2 7t10 19q19 36 38.5 71.5t41.5 73t46.5 78t53.5 86.5q4 6 5.5 7t3.5 1t2.5 -2.5t0.5 -13.5q0 -34 -5 -98t-19 -170zM460 -73q0 2 -3 8t-7 18
t-7 32.5t-3 50.5v14v18t0.5 17.5t0.5 13.5l5 100q1 10 2.5 12.5t8.5 7.5q8 5 20 7.5t24 2.5q29 0 46 5.5t26 20.5q4 7 4 13q0 4 -6 11q-8 9 -24.5 14t-36.5 5q-22 0 -34.5 -2t-17.5 -2t-5.5 2t-0.5 4q0 1 1.5 29t4.5 66.5t7 79.5t9 70q3 19 3 33q0 2 2.5 16t5 30.5t5 31
t2.5 17.5q0 6 -3 7t-5 9q-2 4 -13 6.5t-21 2.5q-17 0 -36.5 -6t-27.5 -6q-3 0 -6.5 -3.5t-15.5 -21.5q-41 -62 -78 -120t-70 -113.5t-64 -109.5t-60 -108q-5 -10 -7.5 -12t-4.5 -2q-10 0 -20.5 8.5t-22.5 8.5q-6 0 -11 -4q-2 -2 -8.5 -20t-6.5 -35q0 -11 7.5 -16.5
t24.5 -14.5q6 -3 6 -7q0 -1 -2 -9.5t-4.5 -20.5t-4.5 -27t-2 -30q0 -16 1.5 -26.5t4.5 -18t8.5 -13t13.5 -10.5q5 -3 11 -6t8 -3q11 0 19.5 7.5t18.5 14.5q5 3 5 6q0 6 -1.5 14.5t-1.5 41.5q0 14 3.5 32t12.5 38q4 8 7 10.5t8 3.5q15 2 40.5 9t54.5 16t58 18.5t50 17.5
q6 0 6 -4q0 -35 -2 -67.5t-2 -66.5q0 -18 1 -38.5t3.5 -38.5t6 -31.5t8.5 -18.5q10 -10 24.5 -14t26.5 -4q3 0 5 0.5t6 3.5q6 5 13 10.5t7 14.5zM425 773l102 -66q9 -6 15 -7.5t16 -1.5t13 10q1 3 1 7t2 9t3.5 8.5t1.5 8.5q0 7 -26 25l-102 70q-17 12 -27 19.5t-15.5 11.5
t-8 5.5t-4.5 1.5q-3 0 -6 1.5t-8 1.5q-12 0 -24 -12q-6 -6 -8.5 -11.5t-2.5 -14.5q0 -14 2 -22t10 -11q17 -7 36.5 -16.5t29.5 -16.5z" />
    <glyph glyph-name="Aacute" unicode="&#xc1;" 
d="M365 267q-1 -6 -2 -7.5t-5 -3.5q-3 -2 -21 -7.5t-46 -16.5q-12 -5 -27.5 -9.5t-30.5 -9t-26.5 -7t-15.5 -2.5q-6 0 -6 4q0 2 2 7t10 19q19 36 38.5 71.5t41.5 73t46.5 78t53.5 86.5q4 6 5.5 7t3.5 1t2.5 -2.5t0.5 -13.5q0 -34 -5 -98t-19 -170zM460 -73q0 2 -3 8t-7 18
t-7 32.5t-3 50.5v14v18t0.5 17.5t0.5 13.5l5 100q1 10 2.5 12.5t8.5 7.5q8 5 20 7.5t24 2.5q29 0 46 5.5t26 20.5q4 7 4 13q0 4 -6 11q-8 9 -24.5 14t-36.5 5q-22 0 -34.5 -2t-17.5 -2t-5.5 2t-0.5 4q0 1 1.5 29t4.5 66.5t7 79.5t9 70q3 19 3 33q0 2 2.5 16t5 30.5t5 31
t2.5 17.5q0 6 -3 7t-5 9q-2 4 -13 6.5t-21 2.5q-17 0 -36.5 -6t-27.5 -6q-3 0 -6.5 -3.5t-15.5 -21.5q-41 -62 -78 -120t-70 -113.5t-64 -109.5t-60 -108q-5 -10 -7.5 -12t-4.5 -2q-10 0 -20.5 8.5t-22.5 8.5q-6 0 -11 -4q-2 -2 -8.5 -20t-6.5 -35q0 -11 7.5 -16.5
t24.5 -14.5q6 -3 6 -7q0 -1 -2 -9.5t-4.5 -20.5t-4.5 -27t-2 -30q0 -16 1.5 -26.5t4.5 -18t8.5 -13t13.5 -10.5q5 -3 11 -6t8 -3q11 0 19.5 7.5t18.5 14.5q5 3 5 6q0 6 -1.5 14.5t-1.5 41.5q0 14 3.5 32t12.5 38q4 8 7 10.5t8 3.5q15 2 40.5 9t54.5 16t58 18.5t50 17.5
q6 0 6 -4q0 -35 -2 -67.5t-2 -66.5q0 -18 1 -38.5t3.5 -38.5t6 -31.5t8.5 -18.5q10 -10 24.5 -14t26.5 -4q3 0 5 0.5t6 3.5q6 5 13 10.5t7 14.5zM438 832l-89 -34q-21 -8 -25 -8q-2 0 -6.5 -1t-6.5 -4q-5 -6 -5 -14q0 -5 3 -8l4 -4t5 -7q5 -7 15 -14q4 -2 11 -2q9 0 20 3
l118 37q36 11 50.5 17.5t21.5 14.5q3 4 4 9t1 17q0 10 -2 15.5t-9 12.5q-8 8 -19 8q-3 0 -7.5 -0.5t-6.5 -2.5q-7 -5 -17.5 -10t-22 -10t-21.5 -9t-16 -6z" />
    <glyph glyph-name="Acircumflex" unicode="&#xc2;" 
d="M365 267q-1 -6 -2 -7.5t-5 -3.5q-3 -2 -21 -7.5t-46 -16.5q-12 -5 -27.5 -9.5t-30.5 -9t-26.5 -7t-15.5 -2.5q-6 0 -6 4q0 2 2 7t10 19q19 36 38.5 71.5t41.5 73t46.5 78t53.5 86.5q4 6 5.5 7t3.5 1t2.5 -2.5t0.5 -13.5q0 -34 -5 -98t-19 -170zM460 -73q0 2 -3 8t-7 18
t-7 32.5t-3 50.5v14v18t0.5 17.5t0.5 13.5l5 100q1 10 2.5 12.5t8.5 7.5q8 5 20 7.5t24 2.5q29 0 46 5.5t26 20.5q4 7 4 13q0 4 -6 11q-8 9 -24.5 14t-36.5 5q-22 0 -34.5 -2t-17.5 -2t-5.5 2t-0.5 4q0 1 1.5 29t4.5 66.5t7 79.5t9 70q3 19 3 33q0 2 2.5 16t5 30.5t5 31
t2.5 17.5q0 6 -3 7t-5 9q-2 4 -13 6.5t-21 2.5q-17 0 -36.5 -6t-27.5 -6q-3 0 -6.5 -3.5t-15.5 -21.5q-41 -62 -78 -120t-70 -113.5t-64 -109.5t-60 -108q-5 -10 -7.5 -12t-4.5 -2q-10 0 -20.5 8.5t-22.5 8.5q-6 0 -11 -4q-2 -2 -8.5 -20t-6.5 -35q0 -11 7.5 -16.5
t24.5 -14.5q6 -3 6 -7q0 -1 -2 -9.5t-4.5 -20.5t-4.5 -27t-2 -30q0 -16 1.5 -26.5t4.5 -18t8.5 -13t13.5 -10.5q5 -3 11 -6t8 -3q11 0 19.5 7.5t18.5 14.5q5 3 5 6q0 6 -1.5 14.5t-1.5 41.5q0 14 3.5 32t12.5 38q4 8 7 10.5t8 3.5q15 2 40.5 9t54.5 16t58 18.5t50 17.5
q6 0 6 -4q0 -35 -2 -67.5t-2 -66.5q0 -18 1 -38.5t3.5 -38.5t6 -31.5t8.5 -18.5q10 -10 24.5 -14t26.5 -4q3 0 5 0.5t6 3.5q6 5 13 10.5t7 14.5zM527 841q-5 8 -8 8q-2 0 -4 5q-4 7 -19 7q-4 0 -13 -3l-89 -31q-35 -12 -44 -17t-11 -8q-2 -2 -4 -3.5t-5 -7.5q-2 -4 -2 -21
q0 -11 0.5 -16.5t4.5 -7.5q5 -2 10 -7t14 -5q4 0 5 1q3 3 8.5 6.5t17 9.5t30.5 14.5t49 20.5q5 2 6.5 2.5t3.5 0.5q4 0 8 -6l63 -86q4 -6 10 -10t8 -4q8 0 10.5 2t7.5 9q4 5 9 8t5 11q0 4 -2 9t-9 16z" />
    <glyph glyph-name="Atilde" unicode="&#xc3;" 
d="M365 267q-1 -6 -2 -7.5t-5 -3.5q-3 -2 -21 -7.5t-46 -16.5q-12 -5 -27.5 -9.5t-30.5 -9t-26.5 -7t-15.5 -2.5q-6 0 -6 4q0 2 2 7t10 19q19 36 38.5 71.5t41.5 73t46.5 78t53.5 86.5q4 6 5.5 7t3.5 1t2.5 -2.5t0.5 -13.5q0 -34 -5 -98t-19 -170zM460 -73q0 2 -3 8t-7 18
t-7 32.5t-3 50.5v14v18t0.5 17.5t0.5 13.5l5 100q1 10 2.5 12.5t8.5 7.5q8 5 20 7.5t24 2.5q29 0 46 5.5t26 20.5q4 7 4 13q0 4 -6 11q-8 9 -24.5 14t-36.5 5q-22 0 -34.5 -2t-17.5 -2t-5.5 2t-0.5 4q0 1 1.5 29t4.5 66.5t7 79.5t9 70q3 19 3 33q0 2 2.5 16t5 30.5t5 31
t2.5 17.5q0 6 -3 7t-5 9q-2 4 -13 6.5t-21 2.5q-17 0 -36.5 -6t-27.5 -6q-3 0 -6.5 -3.5t-15.5 -21.5q-41 -62 -78 -120t-70 -113.5t-64 -109.5t-60 -108q-5 -10 -7.5 -12t-4.5 -2q-10 0 -20.5 8.5t-22.5 8.5q-6 0 -11 -4q-2 -2 -8.5 -20t-6.5 -35q0 -11 7.5 -16.5
t24.5 -14.5q6 -3 6 -7q0 -1 -2 -9.5t-4.5 -20.5t-4.5 -27t-2 -30q0 -16 1.5 -26.5t4.5 -18t8.5 -13t13.5 -10.5q5 -3 11 -6t8 -3q11 0 19.5 7.5t18.5 14.5q5 3 5 6q0 6 -1.5 14.5t-1.5 41.5q0 14 3.5 32t12.5 38q4 8 7 10.5t8 3.5q15 2 40.5 9t54.5 16t58 18.5t50 17.5
q6 0 6 -4q0 -35 -2 -67.5t-2 -66.5q0 -18 1 -38.5t3.5 -38.5t6 -31.5t8.5 -18.5q10 -10 24.5 -14t26.5 -4q3 0 5 0.5t6 3.5q6 5 13 10.5t7 14.5zM333 785q0 -8 11 -11.5t23 -3.5q2 0 4 0.5t6 2.5q21 13 32 17t17 4q4 0 9 -3q3 -2 7.5 -8.5t9.5 -14.5t11 -16t13 -14
q14 -11 25.5 -14.5t27.5 -3.5q10 0 22.5 4.5t26 11t26 14.5t23.5 15q8 5 8 10q0 8 -1.5 11.5t-2.5 9.5q-1 7 -6 13t-14 6q-3 0 -15 -4l-25.5 -8.5t-25.5 -8t-14 -3.5q-14 0 -20.5 7t-20.5 28q-14 20 -24 31t-24 11q-11 0 -19 -1t-26 -8l-63 -23q-5 -2 -7 -7t-2 -7
q0 -8 4 -18.5t4 -18.5z" />
    <glyph glyph-name="Adieresis" unicode="&#xc4;" 
d="M365 267q-1 -6 -2 -7.5t-5 -3.5q-3 -2 -21 -7.5t-46 -16.5q-12 -5 -27.5 -9.5t-30.5 -9t-26.5 -7t-15.5 -2.5q-6 0 -6 4q0 2 2 7t10 19q19 36 38.5 71.5t41.5 73t46.5 78t53.5 86.5q4 6 5.5 7t3.5 1t2.5 -2.5t0.5 -13.5q0 -34 -5 -98t-19 -170zM460 -73q0 2 -3 8t-7 18
t-7 32.5t-3 50.5v14v18t0.5 17.5t0.5 13.5l5 100q1 10 2.5 12.5t8.5 7.5q8 5 20 7.5t24 2.5q29 0 46 5.5t26 20.5q4 7 4 13q0 4 -6 11q-8 9 -24.5 14t-36.5 5q-22 0 -34.5 -2t-17.5 -2t-5.5 2t-0.5 4q0 1 1.5 29t4.5 66.5t7 79.5t9 70q3 19 3 33q0 2 2.5 16t5 30.5t5 31
t2.5 17.5q0 6 -3 7t-5 9q-2 4 -13 6.5t-21 2.5q-17 0 -36.5 -6t-27.5 -6q-3 0 -6.5 -3.5t-15.5 -21.5q-41 -62 -78 -120t-70 -113.5t-64 -109.5t-60 -108q-5 -10 -7.5 -12t-4.5 -2q-10 0 -20.5 8.5t-22.5 8.5q-6 0 -11 -4q-2 -2 -8.5 -20t-6.5 -35q0 -11 7.5 -16.5
t24.5 -14.5q6 -3 6 -7q0 -1 -2 -9.5t-4.5 -20.5t-4.5 -27t-2 -30q0 -16 1.5 -26.5t4.5 -18t8.5 -13t13.5 -10.5q5 -3 11 -6t8 -3q11 0 19.5 7.5t18.5 14.5q5 3 5 6q0 6 -1.5 14.5t-1.5 41.5q0 14 3.5 32t12.5 38q4 8 7 10.5t8 3.5q15 2 40.5 9t54.5 16t58 18.5t50 17.5
q6 0 6 -4q0 -35 -2 -67.5t-2 -66.5q0 -18 1 -38.5t3.5 -38.5t6 -31.5t8.5 -18.5q10 -10 24.5 -14t26.5 -4q3 0 5 0.5t6 3.5q6 5 13 10.5t7 14.5zM388 826q-5 9 -18.5 11t-21.5 2q-12 0 -21 -3t-14 -13q-4 -8 -8.5 -22t-4.5 -19q0 -27 2 -29q5 -5 8 -11t12 -12q2 -2 7 -2h8
q4 0 10.5 1t12.5 3.5t11 5.5t5 7q0 3 4 7.5t8 10.5t7.5 14t3.5 17q0 5 -3 14.5t-8 17.5zM603 780q-2 9 -14 13.5t-25 4.5q-5 0 -11.5 0.5t-8.5 0.5q-8 0 -13.5 -6.5t-9.5 -15t-6 -16.5t-2 -11q0 -15 8 -23.5t13 -19.5q7 -15 24 -15q5 0 14.5 1t14.5 3q7 4 14 14.5t11 21.5
q2 5 2 7v9q0 8 -4.5 16.5t-6.5 15.5z" />
    <glyph glyph-name="Aring" unicode="&#xc5;" 
d="M552 818q-2 9 -17 23.5t-38 20.5q-12 3 -26 3q-18 0 -37 -7q-11 -4 -22.5 -17t-20.5 -29t-14.5 -32.5t-5.5 -27.5q0 -14 8 -28.5t28 -28.5q8 -5 28 -9t35 -4q23 0 37 9.5t21 19.5q26 39 26 83q0 6 -0.5 12t-1.5 12zM488 817q9 -14 9 -28q0 -16 -9 -31t-18 -31
q-4 -6 -14 -6q-9 0 -16 10t-7 25q0 17 8 32.5t19 30.5q3 4 6 5.5t10 1.5q2 0 5.5 -2t6.5 -7zM365 267q-1 -6 -2 -7.5t-5 -3.5q-3 -2 -21 -7.5t-46 -16.5q-12 -5 -27.5 -9.5t-30.5 -9t-26.5 -7t-15.5 -2.5q-6 0 -6 4q0 2 2 7t10 19q19 36 43 75t48 75.5t45 67.5t33 51
q8 13 10.5 16t4.5 3t2.5 -2.5t0.5 -13.5q0 -12 -1 -34.5t-3.5 -54t-6 -69.5t-8.5 -81zM460 -73q0 2 -3 8t-7 18t-7 32.5t-3 50.5v14v18t0.5 17.5t0.5 13.5l5 100q1 10 2.5 12.5t8.5 7.5q8 5 20 7.5t24 2.5q29 0 46 5.5t26 20.5q4 7 4 13q0 4 -6 11q-8 9 -24.5 14t-36.5 5
q-22 0 -34.5 -2t-17.5 -2t-5.5 2t-0.5 4q0 1 1.5 25.5t4.5 58.5t6.5 71.5t7.5 66.5q2 11 2 16v14q0 2 2 15.5t5 29t5 29.5t2 17q0 6 -3.5 8.5t-5.5 7.5t-15.5 7t-23.5 2q-29 0 -46.5 -5.5t-25.5 -5.5q-3 0 -7 -3.5t-15 -22.5q-38 -64 -71.5 -117t-64.5 -102.5t-60 -98.5
t-58 -103q-5 -10 -7.5 -12t-4.5 -2q-10 0 -20.5 8.5t-22.5 8.5q-6 0 -11 -4q-2 -2 -8.5 -20t-6.5 -35q0 -11 7.5 -16.5t24.5 -14.5q6 -3 6 -7q0 -1 -2 -9.5t-4.5 -20.5t-4.5 -27t-2 -30q0 -16 1.5 -26.5t4.5 -18t8.5 -13t13.5 -10.5q5 -3 11 -6t8 -3q11 0 19.5 7.5
t18.5 14.5q5 3 5 6q0 6 -1.5 14.5t-1.5 41.5q0 14 3.5 32t12.5 38q4 8 7 10.5t8 3.5q15 2 40.5 9t54.5 16t58 18.5t50 17.5q6 0 6 -4q0 -35 -2 -67.5t-2 -66.5q0 -18 1 -38.5t3.5 -38.5t6 -31.5t8.5 -18.5q10 -10 24.5 -14t26.5 -4q3 0 5 0.5t6 3.5q6 5 13 10.5t7 14.5z" />
    <glyph glyph-name="AE" unicode="&#xc6;" horiz-adv-x="736" 
d="M366 210q7 3 11 3t4 -5q0 -3 -0.5 -7t-1.5 -10q-3 -24 -6 -49t-5.5 -47.5t-3.5 -41.5t-1 -31q0 -21 2 -32t7 -19q10 -14 27 -23.5t37 -9.5q54 0 98.5 9t82 23.5t69.5 32t61 34.5q7 4 15.5 9.5t16 11t13 9.5t5.5 6q1 4 1 13q0 7 -11 12.5t-29 13.5q-12 5 -18 5
q-3 0 -8.5 -1t-19.5 -6q-32 -11 -58.5 -31t-52.5 -31q-18 -7 -32.5 -14.5t-29 -13.5t-31 -10t-38.5 -4q-5 0 -10.5 7.5t-5.5 18.5q0 15 3 41.5t7 56t8.5 57.5t8.5 47q2 8 5 10.5t17 7.5q9 3 16 6t16 6t21.5 7.5t32.5 10.5q6 2 16.5 4.5t21.5 4.5t21 3.5t15 1.5q11 0 15 -1.5
t12 -1.5q5 0 11.5 1.5t12.5 1.5q9 0 15.5 4t6.5 11q0 14 -7 26.5t-15 19.5q-9 7 -24.5 10t-28.5 3q-20 0 -42 -3t-42.5 -6.5t-36.5 -7.5t-22 -7q-13 -5 -16 -5t-5 5q2 13 6 32.5t8.5 41t9.5 44.5t9 43q2 12 5 15t11 5q52 14 106.5 28.5t123.5 14.5q12 0 15.5 -2t16.5 -2
q10 0 17.5 -5.5t13.5 -5.5q11 0 15 1.5t7 3.5q6 5 9.5 9t3.5 11q0 3 -0.5 7t-3.5 9q-14 20 -29 34.5t-26 14.5q-5 0 -15 2t-16 2q-47 0 -87 -5.5t-74 -13.5l-35 -8q-12 -3 -21 -3q-8 0 -8 6q0 4 4.5 17t4.5 23q0 5 -2 7.5l-6 7.5q-2 3 -13 5.5t-20 2.5q-8 0 -18 -2l-20 -4
t-17.5 -4t-10.5 -2q-4 0 -6.5 -2.5t-10.5 -12.5q-25 -32 -64 -77.5t-84 -98.5t-91 -111.5t-84 -116.5q-8 -13 -12 -16t-16 -3q-10 0 -21 0.5t-16 0.5q-12 0 -15.5 -2.5t-11.5 -17.5q-6 -11 -8 -23t-2 -30q0 -8 10.5 -11t18.5 -3q11 0 11 -4q0 -2 -5 -14q-13 -29 -25.5 -62
t-12.5 -62q0 -12 7 -20t15 -16q2 -2 17 -3.5t25 -1.5q8 0 10.5 3t5.5 11q3 9 8.5 10.5t5.5 8.5q0 12 4 29.5t10 37t14 39t16 36.5q5 11 7.5 13t12.5 4q42 10 94 21t98 28zM405 325q-2 -12 -5 -15.5t-20 -9.5q-62 -23 -125 -40q-20 -5 -25 -6t-6 -1q-3 0 -3 3q0 2 1.5 5
t6.5 11q45 72 101.5 139t110.5 137q8 10 11 13.5t5 3.5t2 -3t-5 -23q-10 -40 -24 -97t-25 -117z" />
    <glyph glyph-name="Ccedilla" unicode="&#xc7;" horiz-adv-x="472" 
d="M214 -29q0 5 1.5 5.5t10.5 0.5q36 0 66.5 12.5t58 32t53 44t50.5 48.5q13 13 20.5 20t11 10.5t4 4.5t0.5 2q0 2 -1 5.5t-6 10.5q-8 12 -16 15.5t-18 3.5h-19q-8 0 -12 -2.5t-8 -5.5q-37 -32 -72.5 -65t-79.5 -55q-6 -3 -14.5 -6.5t-17 -6t-16 -4.5t-11.5 -2
q-14 0 -24.5 11t-21.5 20q-2 2 -4.5 7t-4 11t-2.5 11.5t-1 8.5q0 27 2 40t4 18q23 71 52 138.5t74 128.5q26 36 50.5 67.5t48.5 55.5t48 37.5t50 13.5q5 0 7 -5t2 -8q0 -11 -5.5 -18t-6.5 -13q-2 -11 -7.5 -19.5t-11.5 -17.5t-11 -19.5t-5 -23.5q0 -9 12.5 -19t20.5 -12
q5 -1 13.5 -2.5t15.5 -1.5q13 0 21 5.5t10 13.5q3 11 9.5 27t12.5 31t11.5 27t7.5 17q1 2 1 11v12q0 9 -5 17t-13 16.5t-17 17t-16 17.5q-3 4 -18.5 9t-34.5 5q-10 0 -22 -1.5t-23 -3.5t-19.5 -4t-11.5 -4q-59 -33 -107.5 -82t-86.5 -106.5t-67.5 -120.5t-50.5 -123
q-2 -4 -4 -16t-4 -27t-3.5 -30.5t-1.5 -26.5q0 -14 0.5 -29t4.5 -32q3 -14 15 -29t27 -25l43 -28q6 -5 6 -19q0 -3 -0.5 -7t-4.5 -12q-14 -29 -27.5 -46t-36.5 -17q-14 0 -24.5 6.5t-11.5 13.5q-1 5 -7.5 9.5t-11.5 4.5q-3 0 -5.5 1.5t-5.5 1.5q-4 0 -8 -4q-15 -15 -15 -23
q0 -6 7 -16q5 -8 14.5 -17t34.5 -18q17 -6 30.5 -9.5t28.5 -3.5q22 0 44.5 12.5t46.5 47.5q8 11 12.5 24t4.5 23q0 14 -2 21t-7 12z" />
    <glyph glyph-name="Egrave" unicode="&#xc8;" horiz-adv-x="508" 
d="M679 608q0 14 -15.5 27.5t-33.5 22.5q-5 2 -15.5 4t-18.5 2q-38 0 -79 -6t-79 -14t-68 -16.5t-45 -14.5q-45 -17 -89 -33.5t-92 -28.5q-6 -2 -6 -7t2 -12t5.5 -14.5t8.5 -14t10 -9.5q8 -4 19 -4t21.5 4t15.5 4q4 0 4 -5q-6 -23 -17.5 -51t-32.5 -75q-4 -8 -6.5 -10
t-8.5 -4q-17 -5 -22 -6.5t-7 -5.5q-2 -2 -2 -6v-6q0 -13 5.5 -21t7.5 -10q-10 -27 -21 -54.5t-20.5 -55t-15.5 -56.5t-6 -60q0 -10 1.5 -26.5t6.5 -24.5q7 -11 19 -18.5t24 -12.5t21.5 -7.5t12.5 -2.5q51 0 95 9t83.5 23t75.5 32.5t70 36.5q11 6 27 20q11 10 22 13q6 1 6 13
q0 4 -4.5 9t-9.5 9t-10.5 7.5t-6.5 5.5q-2 3 -10 3q-23 0 -43.5 -8t-40 -19.5t-39 -23.5t-39.5 -21q-12 -5 -28.5 -11.5t-39.5 -16.5q-21 -9 -44 -14t-37 -5q-8 0 -16.5 11t-8.5 23q0 21 7 48t18.5 56.5t25 59.5t25.5 58q3 7 13.5 10.5l16.5 5.5q19 5 39.5 12.5t42 15
t44 12.5t45.5 5q7 0 15.5 -1.5t17.5 -1.5q3 0 11 1.5t16 4t14.5 6t6.5 8.5q0 8 -2.5 17.5t-10.5 14.5q-37 20 -75 20t-75.5 -13.5t-71.5 -25.5q-4 0 -4 4q14 37 27.5 70.5t27.5 70.5q2 6 4.5 8t7.5 4q54 18 117.5 32.5t134.5 14.5q14 0 22 -5t14 -5q7 0 12.5 3t12.5 3
q8 0 11.5 4t3.5 15zM334 767l102 -66q9 -6 15 -7.5t16 -1.5t13 10q1 3 1 7t2 9t3.5 8.5t1.5 8.5q0 7 -26 25l-102 70q-17 12 -27 19.5t-15.5 11.5t-8 5.5t-4.5 1.5q-3 0 -6 1.5t-8 1.5q-12 0 -24 -12q-6 -6 -8.5 -11.5t-2.5 -14.5q0 -14 2 -22t10 -11q17 -7 36.5 -16.5
t29.5 -16.5z" />
    <glyph glyph-name="Eacute" unicode="&#xc9;" horiz-adv-x="508" 
d="M679 608q0 14 -15.5 27.5t-33.5 22.5q-5 2 -15.5 4t-18.5 2q-38 0 -79 -6t-79 -14t-68 -16.5t-45 -14.5q-45 -17 -89 -33.5t-92 -28.5q-6 -2 -6 -7t2 -12t5.5 -14.5t8.5 -14t10 -9.5q8 -4 19 -4t21.5 4t15.5 4q4 0 4 -5q-6 -23 -17.5 -51t-32.5 -75q-4 -8 -6.5 -10
t-8.5 -4q-17 -5 -22 -6.5t-7 -5.5q-2 -2 -2 -6v-6q0 -13 5.5 -21t7.5 -10q-10 -27 -21 -54.5t-20.5 -55t-15.5 -56.5t-6 -60q0 -10 1.5 -26.5t6.5 -24.5q7 -11 19 -18.5t24 -12.5t21.5 -7.5t12.5 -2.5q51 0 95 9t83.5 23t75.5 32.5t70 36.5q11 6 27 20q11 10 22 13q6 1 6 13
q0 4 -4.5 9t-9.5 9t-10.5 7.5t-6.5 5.5q-2 3 -10 3q-23 0 -43.5 -8t-40 -19.5t-39 -23.5t-39.5 -21q-12 -5 -28.5 -11.5t-39.5 -16.5q-21 -9 -44 -14t-37 -5q-8 0 -16.5 11t-8.5 23q0 21 7 48t18.5 56.5t25 59.5t25.5 58q3 7 13.5 10.5l16.5 5.5q19 5 39.5 12.5t42 15
t44 12.5t45.5 5q7 0 15.5 -1.5t17.5 -1.5q3 0 11 1.5t16 4t14.5 6t6.5 8.5q0 8 -2.5 17.5t-10.5 14.5q-37 20 -75 20t-75.5 -13.5t-71.5 -25.5q-4 0 -4 4q14 37 27.5 70.5t27.5 70.5q2 6 4.5 8t7.5 4q54 18 117.5 32.5t134.5 14.5q14 0 22 -5t14 -5q7 0 12.5 3t12.5 3
q8 0 11.5 4t3.5 15zM423 773l-78 -55q-11 -8 -16 -10.5l-7 -3.5q-8 -3 -11 -8q-2 -3 -2 -7v-7q0 -1 1.5 -3.5t3.5 -4.5q3 -2 5 -2.5t7 -5.5q6 -6 12.5 -8.5t8.5 -2.5t10.5 2t16.5 7l105 65q21 13 33.5 21.5t19.5 14.5q8 7 9.5 12t1.5 8q0 4 -3 19q-2 9 -6 14t-12 10
q-7 4 -12 4q-11 0 -15 -2.5t-6 -4.5q-14 -14 -31 -26.5t-35 -25.5z" />
    <glyph glyph-name="Ecircumflex" unicode="&#xca;" horiz-adv-x="508" 
d="M679 608q0 14 -15.5 27.5t-33.5 22.5q-5 2 -15.5 4t-18.5 2q-38 0 -79 -6t-79 -14t-68 -16.5t-45 -14.5q-45 -17 -89 -33.5t-92 -28.5q-6 -2 -6 -7t2 -12t5.5 -14.5t8.5 -14t10 -9.5q8 -4 19 -4t21.5 4t15.5 4q4 0 4 -5q-6 -23 -17.5 -51t-32.5 -75q-4 -8 -6.5 -10
t-8.5 -4q-17 -5 -22 -6.5t-7 -5.5q-2 -2 -2 -6v-6q0 -13 5.5 -21t7.5 -10q-10 -27 -21 -54.5t-20.5 -55t-15.5 -56.5t-6 -60q0 -10 1.5 -26.5t6.5 -24.5q7 -11 19 -18.5t24 -12.5t21.5 -7.5t12.5 -2.5q51 0 95 9t83.5 23t75.5 32.5t70 36.5q11 6 27 20q11 10 22 13q6 1 6 13
q0 4 -4.5 9t-9.5 9t-10.5 7.5t-6.5 5.5q-2 3 -10 3q-23 0 -43.5 -8t-40 -19.5t-39 -23.5t-39.5 -21q-12 -5 -28.5 -11.5t-39.5 -16.5q-21 -9 -44 -14t-37 -5q-8 0 -16.5 11t-8.5 23q0 21 7 48t18.5 56.5t25 59.5t25.5 58q3 7 13.5 10.5l16.5 5.5q19 5 39.5 12.5t42 15
t44 12.5t45.5 5q7 0 15.5 -1.5t17.5 -1.5q3 0 11 1.5t16 4t14.5 6t6.5 8.5q0 8 -2.5 17.5t-10.5 14.5q-37 20 -75 20t-75.5 -13.5t-71.5 -25.5q-4 0 -4 4q14 37 27.5 70.5t27.5 70.5q2 6 4.5 8t7.5 4q54 18 117.5 32.5t134.5 14.5q14 0 22 -5t14 -5q7 0 12.5 3t12.5 3
q8 0 11.5 4t3.5 15zM466 847q-4 6 -6.5 7t-4.5 3t-12 2q-8 0 -12 -2t-9 -5l-89 -57q-17 -11 -27.5 -18t-16.5 -11.5t-8 -7t-3 -4.5q-2 -3 -4 -4.5t-5 -8.5q-2 -5 -2 -22q0 -11 6.5 -18.5t10.5 -8.5q5 -1 6.5 -4t12.5 -3q6 0 14 8l7 7t11.5 10t27 21t54.5 40q8 5 11 5
q6 0 10 -5l55 -58q5 -5 10 -7t8 -2q7 0 9 1.5t7 9.5q3 5 6.5 9t3.5 12q0 3 -1.5 7t-9.5 15z" />
    <glyph glyph-name="Edieresis" unicode="&#xcb;" horiz-adv-x="508" 
d="M679 608q0 14 -15.5 27.5t-33.5 22.5q-5 2 -15.5 4t-18.5 2q-38 0 -79 -6t-79 -14t-68 -16.5t-45 -14.5q-45 -17 -89 -33.5t-92 -28.5q-6 -2 -6 -7t2 -12t5.5 -14.5t8.5 -14t10 -9.5q8 -4 19 -4t21.5 4t15.5 4q4 0 4 -5q-6 -23 -17.5 -51t-32.5 -75q-4 -8 -6.5 -10
t-8.5 -4q-17 -5 -22 -6.5t-7 -5.5q-2 -2 -2 -6v-6q0 -13 5.5 -21t7.5 -10q-10 -27 -21 -54.5t-20.5 -55t-15.5 -56.5t-6 -60q0 -10 1.5 -26.5t6.5 -24.5q7 -11 19 -18.5t24 -12.5t21.5 -7.5t12.5 -2.5q51 0 95 9t83.5 23t75.5 32.5t70 36.5q11 6 27 20q11 10 22 13q6 1 6 13
q0 4 -4.5 9t-9.5 9t-10.5 7.5t-6.5 5.5q-2 3 -10 3q-23 0 -43.5 -8t-40 -19.5t-39 -23.5t-39.5 -21q-12 -5 -28.5 -11.5t-39.5 -16.5q-21 -9 -44 -14t-37 -5q-8 0 -16.5 11t-8.5 23q0 21 7 48t18.5 56.5t25 59.5t25.5 58q3 7 13.5 10.5l16.5 5.5q19 5 39.5 12.5t42 15
t44 12.5t45.5 5q7 0 15.5 -1.5t17.5 -1.5q3 0 11 1.5t16 4t14.5 6t6.5 8.5q0 8 -2.5 17.5t-10.5 14.5q-37 20 -75 20t-75.5 -13.5t-71.5 -25.5q-4 0 -4 4q14 37 27.5 70.5t27.5 70.5q2 6 4.5 8t7.5 4q54 18 117.5 32.5t134.5 14.5q14 0 22 -5t14 -5q7 0 12.5 3t12.5 3
q8 0 11.5 4t3.5 15zM552 805q-2 9 -14 13.5t-25 4.5q-5 0 -11.5 0.5t-8.5 0.5q-8 0 -13.5 -6.5t-9.5 -15t-6 -16.5t-2 -11q0 -15 8 -23.5t13 -19.5q7 -15 24 -15q5 0 14.5 1t14.5 3q8 5 14 15.5t11 20.5q1 4 1.5 7t0.5 9q0 8 -4.5 16.5t-6.5 15.5zM351 820q-5 9 -18.5 11
t-21.5 2q-12 0 -21 -3t-14 -13q-4 -8 -8.5 -22t-4.5 -19q0 -27 2 -29q5 -5 8 -11t12 -12q2 -2 7 -2h8q4 0 10.5 1t12.5 3.5t11 5.5t5 7q0 3 4 7.5t8 10.5t7.5 14t3.5 17q0 5 -3 14.5t-8 17.5z" />
    <glyph glyph-name="Igrave" unicode="&#xcc;" horiz-adv-x="254" 
d="M352 609q0 6 -6 11.5t-15 9t-19 6t-17 2.5q-17 0 -27.5 -2t-12.5 -10q-8 -26 -13.5 -40.5t-10.5 -23.5t-9 -16.5t-7 -17.5q-18 -57 -37 -111.5t-37 -108.5t-35 -109t-32 -114q-2 -9 -4 -14t-5 -10q-3 -6 -6.5 -18t-6.5 -24t-4.5 -21.5t-1.5 -11.5q0 -6 6 -6q4 0 13 -7.5
t18 -7.5q7 0 9 -5t8 -5q4 0 9 8q2 4 5 7t7 3q3 0 7 0.5t6 3.5q11 21 15 35t4 26q0 5 -1 8t-1 7t2 10q39 118 76 230.5t80 222.5q5 14 7.5 17.5t5.5 6.5q9 9 15 16t9 14.5t4.5 16.5t1.5 22zM264 743l102 -66q9 -6 15 -7.5t16 -1.5t13 10q1 3 1 7t2 9t3.5 8.5t1.5 8.5
q0 7 -26 25l-102 70q-17 12 -27 19.5t-15.5 11.5t-8 5.5t-4.5 1.5q-3 0 -6 1.5t-8 1.5q-12 0 -24 -12q-6 -6 -8.5 -11.5t-2.5 -14.5q0 -14 2 -22t10 -11q17 -7 36.5 -16.5t29.5 -16.5z" />
    <glyph glyph-name="Iacute" unicode="&#xcd;" horiz-adv-x="254" 
d="M352 609q0 6 -6 11.5t-15 9t-19 6t-17 2.5q-17 0 -27.5 -2t-12.5 -10q-8 -26 -13.5 -40.5t-10.5 -23.5t-9 -16.5t-7 -17.5q-18 -57 -37 -111.5t-37 -108.5t-35 -109t-32 -114q-2 -9 -4 -14t-5 -10q-3 -6 -6.5 -18t-6.5 -24t-4.5 -21.5t-1.5 -11.5q0 -6 6 -6q4 0 13 -7.5
t18 -7.5q7 0 9 -5t8 -5q4 0 9 8q2 4 5 7t7 3q3 0 7 0.5t6 3.5q11 21 15 35t4 26q0 5 -1 8t-1 7t2 10q39 118 76 230.5t80 222.5q5 14 7.5 17.5t5.5 6.5q9 9 15 16t9 14.5t4.5 16.5t1.5 22zM402 787l-89 -34q-21 -8 -25 -8q-2 0 -6.5 -1t-6.5 -4q-5 -6 -5 -14q0 -5 3 -8l4 -4
t5 -7q5 -7 15 -14q4 -2 11 -2q9 0 20 3l118 37q36 11 50.5 17.5t21.5 14.5q3 4 4 9t1 17q0 10 -2 15.5t-9 12.5q-8 8 -19 8q-3 0 -7.5 -0.5t-6.5 -2.5q-7 -5 -17.5 -10t-22 -10t-21.5 -9t-16 -6z" />
    <glyph glyph-name="Icircumflex" unicode="&#xce;" horiz-adv-x="254" 
d="M352 609q0 6 -6 11.5t-15 9t-19 6t-17 2.5q-17 0 -27.5 -2t-12.5 -10q-8 -26 -13.5 -40.5t-10.5 -23.5t-9 -16.5t-7 -17.5q-18 -57 -37 -111.5t-37 -108.5t-35 -109t-32 -114q-2 -9 -4 -14t-5 -10q-3 -6 -6.5 -18t-6.5 -24t-4.5 -21.5t-1.5 -11.5q0 -6 6 -6q4 0 13 -7.5
t18 -7.5q7 0 9 -5t8 -5q4 0 9 8q2 4 5 7t7 3q3 0 7 0.5t6 3.5q11 21 15 35t4 26q0 5 -1 8t-1 7t2 10q39 118 76 230.5t80 222.5q5 14 7.5 17.5t5.5 6.5q9 9 15 16t9 14.5t4.5 16.5t1.5 22zM414 822q-5 8 -8 8q-2 0 -4 5q-4 7 -19 7q-4 0 -13 -3l-89 -31q-35 -12 -44 -17
t-11 -8q-2 -2 -4 -3.5t-5 -7.5q-2 -4 -2 -21q0 -11 0.5 -16.5t4.5 -7.5q5 -2 10 -7t14 -5q4 0 5 1q3 3 8.5 6.5t17 9.5t30.5 14.5t49 20.5q5 2 6.5 2.5t3.5 0.5q4 0 8 -6l63 -86q4 -6 10 -10t8 -4q8 0 10.5 2t7.5 9q4 5 9 8t5 11q0 4 -2 9t-9 16z" />
    <glyph glyph-name="Idieresis" unicode="&#xcf;" horiz-adv-x="254" 
d="M352 609q0 6 -6 11.5t-15 9t-19 6t-17 2.5q-17 0 -27.5 -2t-12.5 -10q-8 -26 -13.5 -40.5t-10.5 -23.5t-9 -16.5t-7 -17.5q-18 -57 -37 -111.5t-37 -108.5t-35 -109t-32 -114q-2 -9 -4 -14t-5 -10q-3 -6 -6.5 -18t-6.5 -24t-4.5 -21.5t-1.5 -11.5q0 -6 6 -6q4 0 13 -7.5
t18 -7.5q7 0 9 -5t8 -5q4 0 9 8q2 4 5 7t7 3q3 0 7 0.5t6 3.5q11 21 15 35t4 26q0 5 -1 8t-1 7t2 10q39 118 76 230.5t80 222.5q5 14 7.5 17.5t5.5 6.5q9 9 15 16t9 14.5t4.5 16.5t1.5 22zM297 817q-5 9 -18.5 11t-21.5 2q-12 0 -21 -3t-14 -13q-4 -8 -8.5 -22t-4.5 -19
q0 -27 2 -29q5 -5 8 -11t12 -12q2 -2 7 -2h8q4 0 10.5 1t12.5 3.5t11 5.5t5 7q0 3 4 7.5t8 10.5t7.5 14t3.5 17q0 5 -3 14.5t-8 17.5zM482 759q-2 9 -14 13.5t-25 4.5q-5 0 -11.5 0.5t-8.5 0.5q-8 0 -13.5 -6.5t-9.5 -15t-6 -16.5t-2 -11q0 -15 8 -23.5t13 -19.5
q7 -15 24 -15q5 0 14.5 1t14.5 3q6 3 11.5 11t13.5 25q2 4 2 16q0 8 -4.5 16.5t-6.5 15.5z" />
    <glyph glyph-name="Eth" unicode="&#xd0;" horiz-adv-x="562" 
d="M234 457q-11 -27 -21.5 -55.5t-21.5 -56.5q-3 -7 -11 -8q-32 -5 -43.5 -7t-19.5 -9q-7 -6 -16 -20t-9 -43q0 -12 13 -12q14 0 23 3t25 3q4 0 4 -4q-12 -37 -24 -77t-21 -80q-1 -3 -6 -3q-6 0 -12 5.5t-15 5.5q-12 0 -21 1.5t-16 1.5q-8 0 -14 -3.5t-6 -13.5
q0 -14 10.5 -26t25 -21t28.5 -15l21 -9q8 -14 25 -25.5t30 -11.5q11 0 18.5 1t8.5 8q17 -5 36 -9t39 -4q8 0 16 0.5t16 3.5q54 20 97.5 56t79 83t65.5 101.5t57 110.5q8 15 10 23t8 19q13 24 20 48.5t7 46.5q0 37 -5 53t-15 29q-19 25 -39.5 38t-40.5 27t-47 18.5t-49 4.5
q-27 0 -55.5 -6t-56 -16.5t-53 -24t-46.5 -27.5q-26 -18 -40.5 -29.5t-21.5 -21t-8 -20.5t-1 -29q0 -10 6.5 -16t13.5 -6q6 0 13.5 3.5t14 8t12 8t8.5 3.5q4 0 4 -5zM281 347q17 41 35.5 81t36.5 80q3 7 6.5 10t6 6t4.5 6t2 10q0 3 -4 7q22 5 49.5 16.5t56.5 11.5
q19 0 36 -7.5t31 -27.5q3 -5 5 -12.5t3.5 -16t2.5 -15t1 -8.5q0 -18 -8 -41t-15 -40q-37 -91 -86 -172.5t-121 -153.5q-18 -18 -43 -30t-53 -12q-8 0 -17 0.5t-14 2.5t-5.5 3t-0.5 6q8 53 21.5 103t32.5 101q4 10 12 10q3 0 13.5 1t23 2t23.5 2t14 1q10 2 19 3.5t11 6.5
q3 7 7.5 12t9.5 17q3 7 3 15q0 9 -3 17t-6 13q-2 3 -12 3q-6 0 -16 -1.5t-21.5 -4t-22.5 -4t-18 -1.5z" />
    <glyph glyph-name="Ntilde" unicode="&#xd1;" horiz-adv-x="598" 
d="M426 -22q12 0 22 5.5t25 20.5q4 4 6 7.5t8 18.5q31 77 54.5 145.5t43.5 130.5t37.5 117.5t35.5 106.5q5 15 7 23.5t7 16.5q7 12 9 20t2 18q0 2 -3.5 7.5t-9 11t-12 10t-11.5 4.5q-8 0 -19 3t-22 3t-14 -3.5t-7 -17.5q-8 -26 -9 -54t-8 -54q-5 -18 -9 -28t-9 -27
q-29 -96 -57.5 -188.5t-69.5 -180.5q-5 -10 -6 -12.5t-3 -2.5q-4 0 -8 15q-20 73 -29.5 146t-17.5 145t-20 144t-36 145q-5 14 -14 14q-19 0 -35.5 -3t-24.5 -6q-7 -3 -8.5 -5.5t-1.5 -5.5q0 -26 7.5 -37.5t7.5 -19.5q0 -4 -2.5 -5t-6 -2t-7 -3t-4.5 -8q-10 -41 -19 -77
t-22 -85l-9 -34q-2 -7 -10.5 -36t-21 -69.5t-26 -87t-25.5 -88.5t-19.5 -73.5t-7.5 -42.5q0 -5 4.5 -8.5t10.5 -6.5q4 -2 6.5 -4.5t6 -4t9 -2.5t17.5 -1q16 0 26.5 5t10.5 13q0 4 3 36q5 51 19 110.5t30.5 116t31.5 104t23 75.5q4 14 8 14q3 0 4.5 -2.5t3.5 -11.5
q7 -30 14 -77.5t15 -101t17.5 -108t23.5 -98.5q6 -20 15 -32.5t37 -26.5q16 -8 22.5 -9.5t13.5 -1.5zM319 750q0 -8 11 -11.5t23 -3.5q2 0 4 0.5t6 2.5q21 13 32 17t17 4q4 0 9 -3q3 -2 7.5 -8.5t9.5 -14.5t11 -16t13 -14q14 -11 25.5 -14.5t27.5 -3.5q10 0 22.5 4.5t26 11
t26 14.5t23.5 15q8 5 8 10q0 8 -1.5 11.5t-2.5 9.5q-1 7 -6 13t-14 6q-3 0 -15 -4l-25.5 -8.5t-25.5 -8t-14 -3.5q-14 0 -20.5 7t-20.5 28q-14 20 -24 31t-24 11q-11 0 -19 -1t-26 -8l-63 -23q-5 -2 -7 -7t-2 -7q0 -8 4 -18.5t4 -18.5z" />
    <glyph glyph-name="Ograve" unicode="&#xd2;" horiz-adv-x="490" 
d="M448 601q-6 5 -11.5 6.5t-10.5 1.5q-4 0 -11 2t-15 4.5t-15 5t-11 4.5q-14 6 -22 6t-26 -11q-35 -21 -62.5 -51.5t-54.5 -70.5q-56 -81 -88.5 -164.5t-32.5 -186.5q0 -38 7.5 -63t24.5 -51q11 -17 28 -30.5t29 -17.5q17 -5 30.5 -7t29.5 -2q42 0 78.5 15.5t60.5 45.5
q50 63 80.5 145t52.5 172q4 15 6 25t3 18t1 14v15q0 64 -21 106.5t-50 68.5zM381 546q0 -6 6 -8q19 -6 28.5 -23.5t13.5 -40.5q1 -6 1 -12v-21q0 -11 -5 -46.5t-18.5 -85.5t-38 -109.5t-63.5 -119.5q-11 -16 -30.5 -26.5t-38.5 -10.5q-9 0 -19.5 3t-13.5 6q-16 16 -25 40
t-9 56q0 8 1 19t1.5 21t1.5 18t1 11q0 22 4.5 37l7.5 25q22 70 60 133t87 114q21 22 30 26t11 4q7 0 7 -10zM373 728l102 -66q9 -6 15 -7.5t16 -1.5t13 10q1 3 1 7t2 9t3.5 8.5t1.5 8.5q0 7 -26 25l-102 70q-17 12 -27 19.5t-15.5 11.5t-8 5.5t-4.5 1.5q-3 0 -6 1.5t-8 1.5
q-12 0 -24 -12q-6 -6 -8.5 -11.5t-2.5 -14.5q0 -14 2 -22t10 -11q17 -7 36.5 -16.5t29.5 -16.5z" />
    <glyph glyph-name="Oacute" unicode="&#xd3;" horiz-adv-x="490" 
d="M448 601q-6 5 -11.5 6.5t-10.5 1.5q-4 0 -11 2t-15 4.5t-15 5t-11 4.5q-14 6 -22 6t-26 -11q-35 -21 -62.5 -51.5t-54.5 -70.5q-56 -81 -88.5 -164.5t-32.5 -186.5q0 -38 7.5 -63t24.5 -51q11 -17 28 -30.5t29 -17.5q17 -5 30.5 -7t29.5 -2q42 0 78.5 15.5t60.5 45.5
q50 63 80.5 145t52.5 172q4 15 6 25t3 18t1 14v15q0 64 -21 106.5t-50 68.5zM381 546q0 -6 6 -8q19 -6 28.5 -23.5t13.5 -40.5q1 -6 1 -12v-21q0 -11 -5 -46.5t-18.5 -85.5t-38 -109.5t-63.5 -119.5q-11 -16 -30.5 -26.5t-38.5 -10.5q-9 0 -19.5 3t-13.5 6q-16 16 -25 40
t-9 56q0 8 1 19t1.5 21t1.5 18t1 11q0 22 4.5 37l7.5 25q22 70 60 133t87 114q21 22 30 26t11 4q7 0 7 -10zM450 777l-89 -34q-21 -8 -25 -8q-2 0 -6.5 -1t-6.5 -4q-5 -6 -5 -14q0 -5 3 -8l4 -4t5 -7q5 -7 15 -14q4 -2 11 -2q9 0 20 3l118 37q36 11 50.5 17.5t21.5 14.5
q3 4 4 9t1 17q0 10 -2 15.5t-9 12.5q-8 8 -19 8q-3 0 -7.5 -0.5t-6.5 -2.5q-7 -5 -17.5 -10t-22 -10t-21.5 -9t-16 -6z" />
    <glyph glyph-name="Ocircumflex" unicode="&#xd4;" horiz-adv-x="490" 
d="M448 601q-6 5 -11.5 6.5t-10.5 1.5q-4 0 -11 2t-15 4.5t-15 5t-11 4.5q-14 6 -22 6t-26 -11q-35 -21 -62.5 -51.5t-54.5 -70.5q-56 -81 -88.5 -164.5t-32.5 -186.5q0 -38 7.5 -63t24.5 -51q11 -17 28 -30.5t29 -17.5q17 -5 30.5 -7t29.5 -2q42 0 78.5 15.5t60.5 45.5
q50 63 80.5 145t52.5 172q4 15 6 25t3 18t1 14v15q0 64 -21 106.5t-50 68.5zM381 546q0 -6 6 -8q19 -6 28.5 -23.5t13.5 -40.5q1 -6 1 -12v-21q0 -11 -5 -46.5t-18.5 -85.5t-38 -109.5t-63.5 -119.5q-11 -16 -30.5 -26.5t-38.5 -10.5q-9 0 -19.5 3t-13.5 6q-16 16 -25 40
t-9 56q0 8 1 19t1.5 21t1.5 18t1 11q0 22 4.5 37l7.5 25q22 70 60 133t87 114q21 22 30 26t11 4q7 0 7 -10zM497 802q-5 8 -8 8q-2 0 -4 5q-4 7 -19 7q-4 0 -13 -3l-89 -31q-35 -12 -44 -17t-11 -8q-2 -2 -4 -3.5t-5 -7.5q-2 -4 -2 -21q0 -11 0.5 -16.5t4.5 -7.5q5 -2 10 -7
t14 -5q4 0 5 1q3 3 8.5 6.5t17 9.5t30.5 14.5t49 20.5q5 2 6.5 2.5t3.5 0.5q4 0 8 -6l63 -86q4 -6 10 -10t8 -4q8 0 10.5 2t7.5 9q4 5 9 8t5 11q0 4 -2 9t-9 16z" />
    <glyph glyph-name="Otilde" unicode="&#xd5;" horiz-adv-x="490" 
d="M448 601q-6 5 -11.5 6.5t-10.5 1.5q-4 0 -11 2t-15 4.5t-15 5t-11 4.5q-14 6 -22 6t-26 -11q-35 -21 -62.5 -51.5t-54.5 -70.5q-56 -81 -88.5 -164.5t-32.5 -186.5q0 -38 7.5 -63t24.5 -51q11 -17 28 -30.5t29 -17.5q17 -5 30.5 -7t29.5 -2q42 0 78.5 15.5t60.5 45.5
q50 63 80.5 145t52.5 172q4 15 6 25t3 18t1 14v15q0 64 -21 106.5t-50 68.5zM381 546q0 -6 6 -8q19 -6 28.5 -23.5t13.5 -40.5q1 -6 1 -12v-21q0 -11 -5 -46.5t-18.5 -85.5t-38 -109.5t-63.5 -119.5q-11 -16 -30.5 -26.5t-38.5 -10.5q-9 0 -19.5 3t-13.5 6q-16 16 -25 40
t-9 56q0 8 1 19t1.5 21t1.5 18t1 11q0 22 4.5 37l7.5 25q22 70 60 133t87 114q21 22 30 26t11 4q7 0 7 -10zM297 728q0 -8 11 -11.5t23 -3.5q2 0 4 0.5t6 2.5q21 13 32 17t17 4q4 0 9 -3q3 -2 7.5 -8.5t9.5 -14.5t11 -16t13 -14q14 -11 25.5 -14.5t27.5 -3.5q10 0 22.5 4.5
t26 11t26 14.5t23.5 15q8 5 8 10q0 8 -1.5 11.5t-2.5 9.5q-1 7 -6 13t-14 6q-3 0 -15 -4l-25.5 -8.5t-25.5 -8t-14 -3.5q-14 0 -20.5 7t-20.5 28q-14 20 -24 31t-24 11q-11 0 -19 -1t-26 -8l-63 -23q-5 -2 -7 -7t-2 -7q0 -8 4 -18.5t4 -18.5z" />
    <glyph glyph-name="Odieresis" unicode="&#xd6;" horiz-adv-x="490" 
d="M448 601q-6 5 -11.5 6.5t-10.5 1.5q-4 0 -11 2t-15 4.5t-15 5t-11 4.5q-14 6 -22 6t-26 -11q-35 -21 -62.5 -51.5t-54.5 -70.5q-56 -81 -88.5 -164.5t-32.5 -186.5q0 -38 7.5 -63t24.5 -51q11 -17 28 -30.5t29 -17.5q17 -5 30.5 -7t29.5 -2q42 0 78.5 15.5t60.5 45.5
q50 63 80.5 145t52.5 172q4 15 6 25t3 18t1 14v15q0 64 -21 106.5t-50 68.5zM381 546q0 -6 6 -8q19 -6 28.5 -23.5t13.5 -40.5q1 -6 1 -12v-21q0 -11 -5 -46.5t-18.5 -85.5t-38 -109.5t-63.5 -119.5q-11 -16 -30.5 -26.5t-38.5 -10.5q-9 0 -19.5 3t-13.5 6q-16 16 -25 40
t-9 56q0 8 1 19t1.5 21t1.5 18t1 11q0 22 4.5 37l7.5 25q22 70 60 133t87 114q21 22 30 26t11 4q7 0 7 -10zM367 786q-5 9 -18.5 11t-21.5 2q-12 0 -21 -3t-14 -13q-4 -8 -8.5 -22t-4.5 -19q0 -27 2 -29q5 -5 8 -11t12 -12q2 -2 7 -2h8q4 0 10.5 1t12.5 3.5t11 5.5t5 7
q0 3 4 7.5t8 10.5t7.5 14t3.5 17q0 5 -3 14.5t-8 17.5zM564 722q-2 9 -14 13.5t-25 4.5q-5 0 -11.5 0.5t-8.5 0.5q-8 0 -13.5 -6.5t-9.5 -15t-6 -16.5t-2 -11q0 -15 8 -23.5t13 -19.5q7 -15 24 -15q5 0 14.5 1t14.5 3q8 5 14 15.5t11 20.5q1 4 1.5 7t0.5 9q0 8 -4.5 16.5
t-6.5 15.5z" />
    <glyph glyph-name="multiply" unicode="&#xd7;" horiz-adv-x="590" 
d="M558 462q-11 0 -20 2.5t-15 2.5q-11 0 -17 -2.5t-8 -4.5q-17 -19 -34 -34t-36 -29.5t-40.5 -31.5t-47.5 -39q-6 -5 -7.5 -6t-3.5 -1q-1 0 -3 2q-10 32 -16 53t-9 35t-4 22.5t-1 15.5q0 5 -3 11t-10 8q-5 2 -6 5t-6 5q-3 1 -5 1.5l-4 1t-7 0.5h-13q-8 0 -13 -0.5t-10 -2.5
q-7 -4 -10 -8q-1 -2 -2 -5t-1 -9q0 -7 2 -13.5t6.5 -18.5t11 -32t16.5 -53q5 -17 8 -28t8 -22q4 -9 4 -14t-13 -17q-41 -36 -71.5 -62.5t-55.5 -49.5q-44 -39 -44 -66q0 -4 4 -8l12 -12q5 -5 9.5 -12t15.5 -7q9 0 11 -1t7 -1q8 0 14 4t11 15q18 38 50 65.5t68 60.5
q5 5 6.5 5.5t3.5 0.5q3 0 5 -7l15 -37.5t15 -34t17 -33.5t22 -37q5 -8 11.5 -6.5t14.5 -2.5q6 -4 10.5 -5t18.5 -1q5 0 11 4.5l10 7.5q3 2 6.5 5.5t3.5 8.5q0 3 -3 8t-7.5 11.5t-9 12.5t-7.5 11q-7 11 -26.5 47.5t-37.5 83.5q-2 5 -3 8t-1 5q0 4 6 9q38 32 71.5 61t68.5 52
q28 18 48.5 33.5t34.5 32.5q2 3 2 8q-1 7 -8 18t-20 11z" />
    <glyph glyph-name="Oslash" unicode="&#xd8;" horiz-adv-x="540" 
d="M533 576q-7 -7 -9 -7t-7 7q-17 23 -35 35.5t-27 12.5q-6 0 -8 -0.5t-3.5 -1t-4.5 -1t-11 -0.5q-12 0 -17 1.5t-8.5 3.5t-7.5 3.5t-13 1.5t-19.5 -2t-19.5 -4q-18 -5 -38.5 -20.5t-39.5 -35.5t-35 -41.5t-26 -36.5q-47 -74 -77 -152t-30 -165q0 -28 2.5 -49.5t4.5 -28.5
q2 -5 2 -6v-3q0 -3 -6 -9q-14 -14 -25 -25.5t-11 -16.5q0 -8 2.5 -13t7.5 -10q3 -4 5.5 -8.5t4.5 -5.5q10 -3 17 -3q8 0 10 2t5 4q5 2 9.5 5.5t9.5 10.5q3 4 4 4.5t2 0.5q2 0 6 -5q12 -15 26.5 -24t30 -13.5t31.5 -6t30 -1.5q63 0 98 21.5t59 53.5q40 52 66.5 111t42.5 111
t23 90t7 49q0 20 -2.5 42.5t-3.5 30.5q-3 13 -3 15q0 3 1.5 4.5t7.5 6.5q9 7 14.5 11t8.5 6q11 8 13 12.5t2 11.5q0 11 -4.5 15.5t-6.5 9.5q-4 9 -14.5 12.5t-13.5 3.5q-13 0 -27 -14zM465 515q2 -4 2 -6q0 -1 -14 -18l-243 -284q-20 -24 -23 -24t-3 11q0 21 1.5 35.5t4 26
t5.5 21t7 20.5q23 69 62.5 131t94.5 118q5 5 12 11t12 6q3 0 7 -1t10 -9q2 -3 9 -3q8 0 14 -1q8 -1 21 -10.5t21 -23.5zM464 410q6 7 8 9t4 2t2 -3q0 -20 -5 -43t-7 -31q-9 -33 -22 -68t-29.5 -69t-34.5 -66.5t-37 -61.5q-16 -24 -37 -32t-54 -8q-6 0 -11.5 3t-9.5 5
q-15 8 -28 33q-4 7 -4 11q0 2 1 4.5t6 7.5q66 78 129 155t129 152z" />
    <glyph glyph-name="Ugrave" unicode="&#xd9;" horiz-adv-x="600" 
d="M336 624q-3 6 -10 9.5t-13 5.5q-15 6 -19.5 9t-8.5 3q-11 0 -18 -8.5t-12 -18.5q-2 -5 -5 -9.5t-6 -12.5q-32 -88 -67.5 -173t-63.5 -173q-9 -29 -18 -70t-9 -88q0 -21 1.5 -39.5t3.5 -23.5q5 -9 11.5 -12.5t14 -5.5t15 -4.5t14.5 -9.5t19.5 -11t21.5 -4q13 0 26 5t20 11
q62 54 119 118t114 130q5 5 8 5q5 0 5 -5q0 -4 -3 -16q-11 -45 -14.5 -94.5t-9.5 -101.5q-1 -10 -5 -16q-3 -5 -4 -10.5t-1 -10.5q0 -10 6 -12.5t12 -6.5q11 -7 19 -12t16 -7t10 -4.5t13 -2.5q14 0 14 10q0 2 -0.5 7.5t-0.5 22.5q0 104 17.5 200.5t54.5 196.5q12 32 31 61.5
t31 61.5q7 17 7 22q0 3 -2 6.5t-4 7.5l-14 22q-5 9 -11 9q-14 0 -22 2t-11 2q-4 0 -14 -10.5t-15 -18.5q-7 -11 -10 -17t-4.5 -10t-3.5 -8t-6 -11q-19 -31 -49 -74.5t-72.5 -97.5t-97.5 -116.5t-124 -131.5q-12 -12 -22.5 -16t-16.5 -4q-2 0 -3.5 3t-1.5 12q0 17 1 30.5
t3 24.5q8 54 25.5 106.5t40 105t47 106.5t47.5 111q2 5 5.5 13.5t3.5 11.5q0 5 -1.5 13t-3.5 13zM455 734l102 -66q9 -6 15 -7.5t16 -1.5t13 10q1 3 1 7t2 9t3.5 8.5t1.5 8.5q0 7 -26 25l-102 70q-17 12 -27 19.5t-15.5 11.5t-8 5.5t-4.5 1.5q-3 0 -6 1.5t-8 1.5
q-12 0 -24 -12q-6 -6 -8.5 -11.5t-2.5 -14.5q0 -14 2 -22t10 -11q17 -7 36.5 -16.5t29.5 -16.5z" />
    <glyph glyph-name="Uacute" unicode="&#xda;" horiz-adv-x="600" 
d="M336 624q-3 6 -10 9.5t-13 5.5q-15 6 -19.5 9t-8.5 3q-11 0 -18 -8.5t-12 -18.5q-2 -5 -5 -9.5t-6 -12.5q-32 -88 -67.5 -173t-63.5 -173q-9 -29 -18 -70t-9 -88q0 -21 1.5 -39.5t3.5 -23.5q5 -9 11.5 -12.5t14 -5.5t15 -4.5t14.5 -9.5t19.5 -11t21.5 -4q13 0 26 5t20 11
q62 54 119 118t114 130q5 5 8 5q5 0 5 -5q0 -4 -3 -16q-11 -45 -14.5 -94.5t-9.5 -101.5q-1 -10 -5 -16q-3 -5 -4 -10.5t-1 -10.5q0 -10 6 -12.5t12 -6.5q11 -7 19 -12t16 -7t10 -4.5t13 -2.5q14 0 14 10q0 2 -0.5 7.5t-0.5 22.5q0 104 17.5 200.5t54.5 196.5q12 32 31 61.5
t31 61.5q7 17 7 22q0 3 -2 6.5t-4 7.5l-14 22q-5 9 -11 9q-14 0 -22 2t-11 2q-4 0 -14 -10.5t-15 -18.5q-7 -11 -10 -17t-4.5 -10t-3.5 -8t-6 -11q-19 -31 -49 -74.5t-72.5 -97.5t-97.5 -116.5t-124 -131.5q-12 -12 -22.5 -16t-16.5 -4q-2 0 -3.5 3t-1.5 12q0 17 1 30.5
t3 24.5q8 54 25.5 106.5t40 105t47 106.5t47.5 111q2 5 5.5 13.5t3.5 11.5q0 5 -1.5 13t-3.5 13zM552 769l-89 -34q-21 -8 -25 -8q-2 0 -6.5 -1t-6.5 -4q-5 -6 -5 -14q0 -5 3 -8l4 -4t5 -7q5 -7 15 -14q4 -2 11 -2q9 0 20 3l118 37q36 11 50.5 17.5t21.5 14.5q3 4 4 9t1 17
q0 10 -2 15.5t-9 12.5q-8 8 -19 8q-3 0 -7.5 -0.5t-6.5 -2.5q-7 -5 -17.5 -10t-22 -10t-21.5 -9t-16 -6z" />
    <glyph glyph-name="Ucircumflex" unicode="&#xdb;" horiz-adv-x="600" 
d="M336 624q-3 6 -10 9.5t-13 5.5q-15 6 -19.5 9t-8.5 3q-11 0 -18 -8.5t-12 -18.5q-2 -5 -5 -9.5t-6 -12.5q-32 -88 -67.5 -173t-63.5 -173q-9 -29 -18 -70t-9 -88q0 -21 1.5 -39.5t3.5 -23.5q5 -9 11.5 -12.5t14 -5.5t15 -4.5t14.5 -9.5t19.5 -11t21.5 -4q13 0 26 5t20 11
q62 54 119 118t114 130q5 5 8 5q5 0 5 -5q0 -4 -3 -16q-11 -45 -14.5 -94.5t-9.5 -101.5q-1 -10 -5 -16q-3 -5 -4 -10.5t-1 -10.5q0 -10 6 -12.5t12 -6.5q11 -7 19 -12t16 -7t10 -4.5t13 -2.5q14 0 14 10q0 2 -0.5 7.5t-0.5 22.5q0 104 17.5 200.5t54.5 196.5q12 32 31 61.5
t31 61.5q7 17 7 22q0 3 -2 6.5t-4 7.5l-14 22q-5 9 -11 9q-14 0 -22 2t-11 2q-4 0 -14 -10.5t-15 -18.5q-7 -11 -10 -17t-4.5 -10t-3.5 -8t-6 -11q-19 -31 -49 -74.5t-72.5 -97.5t-97.5 -116.5t-124 -131.5q-12 -12 -22.5 -16t-16.5 -4q-2 0 -3.5 3t-1.5 12q0 17 1 30.5
t3 24.5q8 54 25.5 106.5t40 105t47 106.5t47.5 111q2 5 5.5 13.5t3.5 11.5q0 5 -1.5 13t-3.5 13zM565 820q-5 8 -8 8q-2 0 -4 5q-4 7 -19 7q-4 0 -13 -3l-89 -31q-35 -12 -44 -17t-11 -8q-2 -2 -4 -3.5t-5 -7.5q-2 -4 -2 -21q0 -11 0.5 -16.5t4.5 -7.5q5 -2 10 -7t14 -5
q4 0 5 1q3 3 8.5 6.5t17 9.5t30.5 14.5t49 20.5q5 2 6.5 2.5t3.5 0.5q4 0 8 -6l63 -86q4 -6 10 -10t8 -4q8 0 10.5 2t7.5 9q4 5 9 8t5 11q0 4 -2 9t-9 16z" />
    <glyph glyph-name="Udieresis" unicode="&#xdc;" horiz-adv-x="600" 
d="M336 624q-3 6 -10 9.5t-13 5.5q-15 6 -19.5 9t-8.5 3q-11 0 -18 -8.5t-12 -18.5q-2 -5 -5 -9.5t-6 -12.5q-32 -88 -67.5 -173t-63.5 -173q-9 -29 -18 -70t-9 -88q0 -21 1.5 -39.5t3.5 -23.5q5 -9 11.5 -12.5t14 -5.5t15 -4.5t14.5 -9.5t19.5 -11t21.5 -4q13 0 26 5t20 11
q62 54 119 118t114 130q5 5 8 5q5 0 5 -5q0 -4 -3 -16q-11 -45 -14.5 -94.5t-9.5 -101.5q-1 -10 -5 -16q-3 -5 -4 -10.5t-1 -10.5q0 -10 6 -12.5t12 -6.5q11 -7 19 -12t16 -7t10 -4.5t13 -2.5q14 0 14 10q0 2 -0.5 7.5t-0.5 22.5q0 104 17.5 200.5t54.5 196.5q12 32 31 61.5
t31 61.5q7 17 7 22q0 3 -2 6.5t-4 7.5l-14 22q-5 9 -11 9q-14 0 -22 2t-11 2q-4 0 -14 -10.5t-15 -18.5q-7 -11 -10 -17t-4.5 -10t-3.5 -8t-6 -11q-19 -31 -49 -74.5t-72.5 -97.5t-97.5 -116.5t-124 -131.5q-12 -12 -22.5 -16t-16.5 -4q-2 0 -3.5 3t-1.5 12q0 17 1 30.5
t3 24.5q8 54 25.5 106.5t40 105t47 106.5t47.5 111q2 5 5.5 13.5t3.5 11.5q0 5 -1.5 13t-3.5 13zM454 807q-5 9 -18.5 11t-21.5 2q-12 0 -21 -3t-14 -13q-4 -8 -8.5 -22t-4.5 -19q0 -27 2 -29q5 -5 8 -11t12 -12q2 -2 7 -2h8q4 0 10.5 1t12.5 3.5t11 5.5t5 7q0 3 4 7.5
t8 10.5t7.5 14t3.5 17q0 5 -3 14.5t-8 17.5zM639 749q-2 9 -14 13.5t-25 4.5q-5 0 -11.5 0.5t-8.5 0.5q-8 0 -13.5 -6.5t-9.5 -15t-6 -16.5t-2 -11q0 -15 8 -23.5t13 -19.5q7 -15 24 -15q5 0 14.5 1t14.5 3q6 3 11.5 11t13.5 25q2 4 2 16q0 8 -4.5 16.5t-6.5 15.5z" />
    <glyph glyph-name="Yacute" unicode="&#xdd;" horiz-adv-x="502" 
d="M257 668q-14 2 -29 5.5t-34 3.5q-5 0 -8 -9q-15 -53 -26.5 -105.5t-20.5 -108.5q-2 -14 -5.5 -21.5t-3.5 -23.5q0 -14 -2 -20t-3 -16q-1 -16 -2 -34t-1.5 -34t-1 -27t-0.5 -12q0 -9 10.5 -25t29.5 -33q10 -9 20.5 -16t20.5 -12.5t17 -8.5t10 -3q24 0 45.5 7t38.5 17.5
t29.5 21.5t19.5 19l8 9q-26 -88 -51 -177.5t-41 -174.5q-3 -17 -5.5 -32t-5.5 -28q-6 -28 -14 -56.5t-8 -61.5q0 -8 0.5 -17t1.5 -13q2 -10 14.5 -16.5t32.5 -9.5q10 -2 15.5 -3.5t10.5 -1.5q6 0 6 8q0 5 2 10t4 20q39 288 107.5 501.5t174.5 362.5q4 5 5 8.5t1 5.5
q0 4 -4 15t-7 14q-13 13 -31.5 17.5t-28.5 4.5q-4 0 -11 -10q-5 -7 -23 -35.5t-41 -74.5q-37 -72 -65 -110.5t-44 -54.5q-22 -22 -49.5 -43.5t-63.5 -44.5q-8 -5 -16 -6.5t-14 -1.5q-10 0 -14.5 3.5t-4.5 6.5q0 32 4 71t10.5 81t14.5 85t16 83q3 14 7 23t7.5 16.5t6 14.5
t2.5 18q0 8 -4 18t-9 11zM474 763l-89 -34q-21 -8 -25 -8q-2 0 -6.5 -1t-6.5 -4q-5 -6 -5 -14q0 -5 3 -8l4 -4t5 -7q5 -7 15 -14q4 -2 11 -2q9 0 20 3l118 37q36 11 50.5 17.5t21.5 14.5q3 4 4 9t1 17q0 10 -2 15.5t-9 12.5q-8 8 -19 8q-3 0 -7.5 -0.5t-6.5 -2.5
q-7 -5 -17.5 -10t-22 -10t-21.5 -9t-16 -6z" />
    <glyph glyph-name="Thorn" unicode="&#xde;" horiz-adv-x="500" 
d="M345 562q0 4 6.5 12t12.5 17q6 10 6 17q2 11 8 18.5t6 27.5q0 8 -7.5 12.5t-16.5 5.5q-16 2 -19.5 5.5t-10.5 3.5q-9 0 -17.5 -2t-13.5 -13q-22 -44 -39 -88t-37 -89q-14 -9 -28 -16.5t-27 -17.5q-11 -8 -19 -17.5t-8 -18.5q0 -4 2 -6t4 -5q4 -8 11.5 -16t19.5 -13
q-3 -12 -6.5 -22l-7 -20t-8 -20.5t-9.5 -25.5q-8 0 -15 -4t-13 -9.5t-10.5 -10.5t-8.5 -6t-4 -11q0 -9 7.5 -15t13.5 -12q0 -21 -18 -67q-11 -29 -19 -54.5t-13.5 -46t-8.5 -33t-3 -13.5q0 -7 2 -9q5 -6 9 -8t8.5 -3.5t8.5 -4t9 -8.5q2 -2 9 -3t11 -1q11 0 24 8q9 6 9 15
t4 26.5t10.5 40.5t14 48.5t14.5 50.5q8 -6 13.5 -11.5t12 -9t16 -6t24.5 -2.5q31 0 61 5.5t41 13.5q36 28 63 52.5t48.5 48.5t39.5 49t36 54q9 15 18.5 32.5t17 34.5t12.5 33t5 28q0 41 -6.5 60t-20.5 31q-14 13 -27.5 15.5t-41.5 2.5q-35 0 -68.5 -9t-67.5 -21
q-6 -2 -9.5 -3.5t-6.5 -1.5t-3 5zM514 511q0 -14 -5.5 -31.5t-14 -35.5t-18.5 -35.5t-19 -30.5q-33 -49 -74 -94t-91 -78q-7 -5 -10 -5.5t-8 -0.5t-9.5 1.5t-10.5 6t-15 12t-23 20.5q16 54 39.5 108t40.5 98q38 29 79.5 46t86.5 27q7 2 11 2h16q19 0 22 -2.5t3 -7.5z" />
    <glyph glyph-name="germandbls" unicode="&#xdf;" horiz-adv-x="434" 
d="M370 360q-3 0 -3 1t11 15q11 11 30 37t42 67q15 26 22.5 41t11 24t4.5 13.5t3 10.5q5 10 8 17.5t3 18.5q0 9 -4.5 15t-10.5 10t-12.5 6t-9.5 3q-11 4 -23 12t-34 8q-30 0 -55.5 -15t-55.5 -44q-28 -27 -50.5 -57.5t-31.5 -49.5q-5 -8 -8.5 -12t-7 -7t-6.5 -5.5t-5 -7.5
q-8 -20 -18.5 -46t-22.5 -54.5t-23.5 -58t-21.5 -55.5q-9 -24 -22 -58.5t-27.5 -74t-29 -81t-27 -77t-21 -63.5t-11.5 -40q-4 -16 -7.5 -24t-5.5 -17q-7 -25 -18 -50t-11 -51q0 -15 0.5 -25t4.5 -12q6 -5 11 -8.5t14 -3.5q3 0 11 4t18 7q11 2 19 10.5t9 16.5q2 27 10.5 64.5
t20 79t24 81.5t23.5 71q6 19 8.5 26.5t4.5 7.5t3.5 -1t7.5 -7q29 -26 52.5 -34t42.5 -8q15 0 30 4q32 9 56.5 26t44 39.5t35 50.5t29.5 59q16 35 26.5 68t10.5 56q0 32 -13 55t-39 23q-5 0 -9.5 -0.5t-6.5 -0.5zM210 298q-7 -7 -9 -7t-2 2q0 1 1 4l4 12q6 16 12.5 34
t11.5 30q9 20 11 23.5t5 3.5q6 0 11 7.5t10 19.5q14 35 30 60t40 53q15 18 29 29.5t24.5 17.5t16.5 8t7 2q4 0 4 -3q0 -5 -3 -12q-5 -12 -19.5 -43.5t-38 -70.5t-56 -80.5t-73.5 -74.5q-3 -3 -7 -6.5t-9 -8.5zM309 286q13 13 24 13q7 0 12 -6q4 -5 6 -11.5t2 -20.5
q0 -8 -4.5 -27t-18.5 -53q-17 -42 -36 -71t-46 -54q-8 -8 -17.5 -11t-17.5 -3t-12.5 2t-9.5 6q-5 5 -7 10.5t-7 11.5q-14 17 -19 19.5t-12 2.5q-12 0 -15 -1.5t-6 -1.5t-3 3q0 1 4 13.5t8 22.5q8 20 16 40.5t15 40.5q3 9 6 9q4 0 8.5 -6.5t13.5 -6.5q14 0 33 12t41 33
q7 7 11 10t7.5 5t8.5 6t15 13z" />
    <glyph glyph-name="agrave" unicode="&#xe0;" horiz-adv-x="468" 
d="M492 435q-2 5 -6.5 10.5t-8.5 9.5q-14 14 -29 21.5t-32 7.5q-12 0 -22 -3q-86 -25 -160 -79q-23 -17 -61 -50.5t-83 -99.5q-37 -55 -48.5 -89t-11.5 -59q0 -29 9 -42.5t13 -16.5q18 -14 29.5 -23t19 -14t12.5 -6.5t9 -1.5q3 0 7 1t9 3q13 4 26 9.5t27 14t30 21t36 30.5
l54 50q18 18 24 18q4 0 4 -5q0 -2 -2 -14.5t-2 -35.5q0 -21 3.5 -42.5t13.5 -43.5q5 -10 18.5 -15t24.5 -5q5 0 9.5 1.5t9.5 2.5q13 2 17 7t4 7t-2 6q-11 17 -16 36t-5 39q0 23 4.5 45.5t9.5 43.5q7 29 20 57t28.5 55t33 52t34.5 48q4 6 4 11q0 3 -2 6q-6 9 -15 11t-13 2
q-8 0 -14.5 5.5t-9.5 13.5zM428 422q13 0 18 -7.5t5 -12.5q0 -10 -5 -15q-8 -8 -16 -18t-13 -20q-19 -36 -47.5 -67t-61.5 -60.5t-69 -59t-71 -62.5q-14 -13 -28.5 -20.5t-20.5 -7.5q-14 0 -18 9t-4 18q0 11 6 27t16 34.5t23.5 38.5t29.5 39q43 52 98.5 94t126.5 80
q10 5 19.5 7.5t11.5 2.5zM447 564l102 -66q9 -6 15 -7.5t16 -1.5t13 10q1 3 1 7t2 9t3.5 8.5t1.5 8.5q0 7 -26 25l-102 70q-17 12 -27 19.5t-15.5 11.5t-8 5.5t-4.5 1.5q-3 0 -6 1.5t-8 1.5q-12 0 -24 -12q-6 -6 -8.5 -11.5t-2.5 -14.5q0 -14 2 -22t10 -11q17 -7 36.5 -16.5
t29.5 -16.5z" />
    <glyph glyph-name="aacute" unicode="&#xe1;" horiz-adv-x="468" 
d="M492 435q-2 5 -6.5 10.5t-8.5 9.5q-14 14 -29 21.5t-32 7.5q-12 0 -22 -3q-86 -25 -160 -79q-23 -17 -61 -50.5t-83 -99.5q-37 -55 -48.5 -89t-11.5 -59q0 -29 9 -42.5t13 -16.5q18 -14 29.5 -23t19 -14t12.5 -6.5t9 -1.5q3 0 7 1t9 3q13 4 26 9.5t27 14t30 21t36 30.5
l54 50q18 18 24 18q4 0 4 -5q0 -2 -2 -14.5t-2 -35.5q0 -21 3.5 -42.5t13.5 -43.5q5 -10 18.5 -15t24.5 -5q5 0 9.5 1.5t9.5 2.5q13 2 17 7t4 7t-2 6q-11 17 -16 36t-5 39q0 23 4.5 45.5t9.5 43.5q7 29 20 57t28.5 55t33 52t34.5 48q4 6 4 11q0 3 -2 6q-6 9 -15 11t-13 2
q-8 0 -14.5 5.5t-9.5 13.5zM428 422q13 0 18 -7.5t5 -12.5q0 -10 -5 -15q-8 -8 -16 -18t-13 -20q-19 -36 -47.5 -67t-61.5 -60.5t-69 -59t-71 -62.5q-14 -13 -28.5 -20.5t-20.5 -7.5q-14 0 -18 9t-4 18q0 11 6 27t16 34.5t23.5 38.5t29.5 39q43 52 98.5 94t126.5 80
q10 5 19.5 7.5t11.5 2.5zM506 631l-89 -34q-21 -8 -25 -8q-2 0 -6.5 -1t-6.5 -4q-5 -6 -5 -14q0 -5 3 -8l4 -4t5 -7q5 -7 15 -14q4 -2 11 -2q9 0 20 3l118 37q36 11 50.5 17.5t21.5 14.5q3 4 4 9t1 17q0 10 -2 15.5t-9 12.5q-8 8 -19 8q-3 0 -7.5 -0.5t-6.5 -2.5
q-7 -5 -17.5 -10t-22 -10t-21.5 -9t-16 -6z" />
    <glyph glyph-name="acircumflex" unicode="&#xe2;" horiz-adv-x="468" 
d="M492 435q-2 5 -6.5 10.5t-8.5 9.5q-14 14 -29 21.5t-32 7.5q-12 0 -22 -3q-86 -25 -160 -79q-23 -17 -61 -50.5t-83 -99.5q-37 -55 -48.5 -89t-11.5 -59q0 -29 9 -42.5t13 -16.5q18 -14 29.5 -23t19 -14t12.5 -6.5t9 -1.5q3 0 7 1t9 3q13 4 26 9.5t27 14t30 21t36 30.5
l54 50q18 18 24 18q4 0 4 -5q0 -2 -2 -14.5t-2 -35.5q0 -21 3.5 -42.5t13.5 -43.5q5 -10 18.5 -15t24.5 -5q5 0 9.5 1.5t9.5 2.5q13 2 17 7t4 7t-2 6q-11 17 -16 36t-5 39q0 23 4.5 45.5t9.5 43.5q7 29 20 57t28.5 55t33 52t34.5 48q4 6 4 11q0 3 -2 6q-6 9 -15 11t-13 2
q-8 0 -14.5 5.5t-9.5 13.5zM428 422q13 0 18 -7.5t5 -12.5q0 -10 -5 -15q-8 -8 -16 -18t-13 -20q-19 -36 -47.5 -67t-61.5 -60.5t-69 -59t-71 -62.5q-14 -13 -28.5 -20.5t-20.5 -7.5q-14 0 -18 9t-4 18q0 11 6 27t16 34.5t23.5 38.5t29.5 39q43 52 98.5 94t126.5 80
q10 5 19.5 7.5t11.5 2.5zM551 650q-5 8 -8 8q-2 0 -4 5q-4 7 -19 7q-4 0 -13 -3l-89 -31q-35 -12 -44 -17t-11 -8q-2 -2 -4 -3.5t-5 -7.5q-2 -4 -2 -21q0 -11 0.5 -16.5t4.5 -7.5q5 -2 10 -7t14 -5q4 0 5 1q3 3 8.5 6.5t17 9.5t30.5 14.5t49 20.5q5 2 6.5 2.5t3.5 0.5
q4 0 8 -6l63 -86q4 -6 10 -10t8 -4q8 0 10.5 2t7.5 9q4 5 9 8t5 11q0 4 -2 9t-9 16z" />
    <glyph glyph-name="atilde" unicode="&#xe3;" horiz-adv-x="468" 
d="M492 435q-2 5 -6.5 10.5t-8.5 9.5q-14 14 -29 21.5t-32 7.5q-12 0 -22 -3q-86 -25 -160 -79q-23 -17 -61 -50.5t-83 -99.5q-37 -55 -48.5 -89t-11.5 -59q0 -29 9 -42.5t13 -16.5q18 -14 29.5 -23t19 -14t12.5 -6.5t9 -1.5q3 0 7 1t9 3q13 4 26 9.5t27 14t30 21t36 30.5
l54 50q18 18 24 18q4 0 4 -5q0 -2 -2 -14.5t-2 -35.5q0 -21 3.5 -42.5t13.5 -43.5q5 -10 18.5 -15t24.5 -5q5 0 9.5 1.5t9.5 2.5q13 2 17 7t4 7t-2 6q-11 17 -16 36t-5 39q0 23 4.5 45.5t9.5 43.5q7 29 20 57t28.5 55t33 52t34.5 48q4 6 4 11q0 3 -2 6q-6 9 -15 11t-13 2
q-8 0 -14.5 5.5t-9.5 13.5zM428 422q13 0 18 -7.5t5 -12.5q0 -10 -5 -15q-8 -8 -16 -18t-13 -20q-19 -36 -47.5 -67t-61.5 -60.5t-69 -59t-71 -62.5q-14 -13 -28.5 -20.5t-20.5 -7.5q-14 0 -18 9t-4 18q0 11 6 27t16 34.5t23.5 38.5t29.5 39q43 52 98.5 94t126.5 80
q10 5 19.5 7.5t11.5 2.5zM373 582q0 -8 11 -11.5t23 -3.5q2 0 4 0.5t6 2.5q21 13 32 17t17 4q4 0 9 -3q3 -2 7.5 -8.5t9.5 -14.5t11 -16t13 -14q14 -11 25.5 -14.5t27.5 -3.5q10 0 22.5 4.5t26 11t26 14.5t23.5 15q8 5 8 10q0 8 -1.5 11.5t-2.5 9.5q-1 7 -6 13t-14 6
q-3 0 -15 -4l-25.5 -8.5t-25.5 -8t-14 -3.5q-14 0 -20.5 7t-20.5 28q-14 20 -24 31t-24 11q-11 0 -19 -1t-26 -8l-63 -23q-5 -2 -7 -7t-2 -7q0 -8 4 -18.5t4 -18.5z" />
    <glyph glyph-name="adieresis" unicode="&#xe4;" horiz-adv-x="468" 
d="M492 435q-2 5 -6.5 10.5t-8.5 9.5q-14 14 -29 21.5t-32 7.5q-12 0 -22 -3q-86 -25 -160 -79q-23 -17 -61 -50.5t-83 -99.5q-37 -55 -48.5 -89t-11.5 -59q0 -29 9 -42.5t13 -16.5q18 -14 29.5 -23t19 -14t12.5 -6.5t9 -1.5q3 0 7 1t9 3q13 4 26 9.5t27 14t30 21t36 30.5
l54 50q18 18 24 18q4 0 4 -5q0 -2 -2 -14.5t-2 -35.5q0 -21 3.5 -42.5t13.5 -43.5q5 -10 18.5 -15t24.5 -5q5 0 9.5 1.5t9.5 2.5q13 2 17 7t4 7t-2 6q-11 17 -16 36t-5 39q0 23 4.5 45.5t9.5 43.5q7 29 20 57t28.5 55t33 52t34.5 48q4 6 4 11q0 3 -2 6q-6 9 -15 11t-13 2
q-8 0 -14.5 5.5t-9.5 13.5zM428 422q13 0 18 -7.5t5 -12.5q0 -10 -5 -15q-8 -8 -16 -18t-13 -20q-19 -36 -47.5 -67t-61.5 -60.5t-69 -59t-71 -62.5q-14 -13 -28.5 -20.5t-20.5 -7.5q-14 0 -18 9t-4 18q0 11 6 27t16 34.5t23.5 38.5t29.5 39q43 52 98.5 94t126.5 80
q10 5 19.5 7.5t11.5 2.5zM436 659q-5 9 -18.5 11t-21.5 2q-12 0 -21 -3t-14 -13q-4 -8 -8.5 -22t-4.5 -19q0 -27 2 -29q5 -5 8 -11t12 -12q2 -2 7 -2h8q4 0 10.5 1t12.5 3.5t11 5.5t5 7q0 3 4 7.5t8 10.5t7.5 14t3.5 17q0 5 -3 14.5t-8 17.5zM621 601q-2 9 -14 13.5t-25 4.5
q-5 0 -11.5 0.5t-8.5 0.5q-8 0 -13.5 -6.5t-9.5 -15t-6 -16.5t-2 -11q0 -15 8 -23.5t13 -19.5q7 -15 24 -15q5 0 14.5 1t14.5 3q6 3 11.5 11t13.5 25q2 4 2 16q0 8 -4.5 16.5t-6.5 15.5z" />
    <glyph glyph-name="aring" unicode="&#xe5;" horiz-adv-x="468" 
d="M492 435q-2 5 -6.5 10.5t-8.5 9.5q-14 14 -29 21.5t-32 7.5q-12 0 -22 -3q-86 -25 -160 -79q-23 -17 -61 -50.5t-83 -99.5q-37 -55 -48.5 -89t-11.5 -59q0 -29 9 -42.5t13 -16.5q18 -14 29.5 -23t19 -14t12.5 -6.5t9 -1.5q3 0 7 1t9 3q13 4 26 9.5t27 14t30 21t36 30.5
l54 50q18 18 24 18q4 0 4 -5q0 -2 -2 -14.5t-2 -35.5q0 -21 3.5 -42.5t13.5 -43.5q5 -10 18.5 -15t24.5 -5q5 0 9.5 1.5t9.5 2.5q13 2 17 7t4 7t-2 6q-11 17 -16 36t-5 39q0 23 4.5 45.5t9.5 43.5q7 29 20 57t28.5 55t33 52t34.5 48q4 6 4 11q0 3 -2 6q-6 9 -15 11t-13 2
q-8 0 -14.5 5.5t-9.5 13.5zM428 422q13 0 18 -7.5t5 -12.5q0 -10 -5 -15q-8 -8 -16 -18t-13 -20q-19 -36 -47.5 -67t-61.5 -60.5t-69 -59t-71 -62.5q-14 -13 -28.5 -20.5t-20.5 -7.5q-14 0 -18 9t-4 18q0 11 6 27t16 34.5t23.5 38.5t29.5 39q43 52 98.5 94t126.5 80
q10 5 19.5 7.5t11.5 2.5zM616 637q-2 9 -17 23.5t-38 20.5q-12 3 -26 3q-18 0 -37 -7q-11 -4 -22.5 -17t-20.5 -29t-14.5 -32.5t-5.5 -27.5q0 -14 8 -28.5t28 -28.5q8 -5 28 -9t35 -4q23 0 37 9.5t21 19.5q26 39 26 83q0 6 -0.5 12t-1.5 12zM552 636q9 -14 9 -28
q0 -16 -9 -31t-18 -31q-4 -6 -14 -6q-9 0 -16 10t-7 25q0 17 8 32.5t19 30.5q3 4 6 5.5t10 1.5q2 0 5.5 -2t6.5 -7z" />
    <glyph glyph-name="ae" unicode="&#xe6;" horiz-adv-x="607" 
d="M635 103q30 26 49.5 46t37.5 35q4 3 6 7.5t2 7.5q0 2 0.5 4t0.5 9q0 8 -7.5 14t-12.5 6q-4 0 -20 -7q-11 -5 -21 -10.5t-22 -14.5q-37 -28 -69 -54t-72 -52q-9 -6 -22 -13t-28 -12.5t-30 -9.5t-28 -4q-12 0 -23.5 10.5t-11.5 26.5q0 8 1 10t5 4q28 11 64 38.5t71.5 61.5
t67.5 70.5t53 66.5q3 4 9 15t12 25.5t10.5 30.5t4.5 30q0 22 -6.5 34.5t-14.5 21.5q-8 10 -23 13t-26 3q-14 0 -27 -3.5t-28 -7.5q-8 -2 -11 -2q-8 0 -22 6t-19 6q-8 0 -10.5 -2.5t-5.5 -7.5l-7 -11q-5 -8 -8.5 -10t-5.5 -2q-3 0 -8 4q-11 8 -24.5 12t-28.5 4q-20 0 -44 -9
t-48.5 -22.5t-47.5 -30t-39 -30.5q-23 -20 -41 -38t-34.5 -37.5t-31 -41t-29.5 -47.5q-27 -48 -37.5 -82.5t-10.5 -58.5q0 -29 10.5 -46.5t15.5 -21.5q35 -25 49.5 -32t21.5 -7q3 0 12 2t21.5 6t27 10.5t27.5 16.5q17 13 33.5 30.5t29.5 31.5q5 5 8 9t5 4t2 -3q0 -2 -1.5 -9
t-1.5 -20q0 -29 14.5 -47.5t46.5 -28.5q27 -8 58 -8q25 0 49.5 5t43.5 15q49 26 81 47t58 44zM413 403l-30 -56q-9 -18 -22.5 -40t-28.5 -44.5t-31 -43t-32 -35.5q-20 -19 -49 -47t-56 -55q-5 -5 -20 -10.5t-26 -5.5q-15 0 -19 9.5t-4 15.5q0 11 5 28.5t15 43.5
q18 47 47 87.5t65 75t77.5 64t84.5 53.5q5 3 10 3.5t8 0.5q10 0 13 -6t3 -11q0 -4 -2 -10t-8 -17zM554 367q-13 -19 -30.5 -41t-37.5 -44.5t-42 -43.5t-43 -38l-10 -7.5t-4 -1.5t-2 2t5 14q12 27 29 58.5t36.5 63t41 60.5t43.5 50q17 17 31 17q11 0 11 -22q0 -14 -8.5 -32.5
t-19.5 -34.5z" />
    <glyph glyph-name="ccedilla" unicode="&#xe7;" horiz-adv-x="346" 
d="M130 -4q16 -3 19 -6.5t3 -6.5q0 -5 -5 -14q-18 -31 -31 -44t-36 -13q-8 0 -15.5 4.5t-9.5 7.5q-5 5 -10 8t-7 6q-3 5 -9 5t-11 -5q-16 -15 -16 -23q0 -16 34 -35q22 -12 39 -15t25 -3q51 0 89 47q8 10 15 26.5t7 26.5q0 22 -15 30q-3 1 -3 4t4 4q24 8 51.5 25.5
t56.5 41.5q32 26 59.5 46t50.5 30q5 2 6.5 4.5t1.5 7.5q0 3 2 5t2 5q0 1 -3 5.5t-8 9t-11 8t-11 3.5q-11 0 -25 -6t-30 -15.5t-33.5 -22t-33.5 -24.5q-37 -28 -72 -45.5t-70 -17.5q-7 0 -12 5.5t-5 15.5q0 19 16 62.5t42 90.5q26 45 58 87t64 74q6 6 8.5 8t7.5 2q4 0 6 -3.5
t2 -6.5q0 -6 -3.5 -13.5t-7.5 -15t-7.5 -16t-3.5 -15.5q0 -14 11 -22l26 -19q8 -7 20 -7q10 0 14.5 4.5t4.5 10.5q0 13 5 27.5t11 28t11.5 23.5t6.5 15q1 4 1 7q0 2 -1 4.5t-1 10.5q0 6 -0.5 8.5t-3.5 5.5q-20 20 -49 31t-55 11q-6 0 -8.5 -0.5t-7.5 -2.5q-32 -16 -61 -45
t-55 -65.5t-49.5 -77.5t-42.5 -80q-5 -11 -7.5 -22.5t-4.5 -16.5q-5 -19 -10.5 -38t-5.5 -37q0 -23 12 -47q2 -5 9.5 -11.5t18 -13.5t22.5 -13t24 -8z" />
    <glyph glyph-name="egrave" unicode="&#xe8;" horiz-adv-x="366" 
d="M253 -3q57 31 92 57t57.5 47t38 38.5t33.5 32.5q4 3 4.5 7t0.5 7q0 2 0.5 4t0.5 9q0 8 -7.5 14t-12.5 6q-3 0 -7.5 -1t-12.5 -6q-23 -14 -42.5 -31t-39.5 -34t-41.5 -33.5t-47.5 -30.5q-34 -18 -49 -23t-28 -5q-16 0 -31 8q-7 4 -15.5 17t-8.5 25q0 4 6 8q32 18 62.5 42
t59.5 52t56.5 58.5t53.5 59.5q11 12 17.5 22t14.5 25q9 18 16 35t7 37q0 30 -12 44.5t-20 17.5q-15 5 -28 8t-33 3q-37 0 -65.5 -15.5t-41.5 -29.5q-57 -61 -104 -127.5t-68 -143.5q-3 -11 -4 -18.5t-1 -14.5q0 -14 3.5 -38t8.5 -39q8 -25 21.5 -43t28.5 -26q3 -2 10 -5
t16.5 -7.5t19.5 -8.5t18 -7q12 -5 20.5 -6t17.5 -1q10 0 16 1t20 9zM328 398q-5 -8 -7 -12.5t-4 -8.5t-4.5 -8.5t-8.5 -11.5q-34 -41 -71 -80.5t-82 -73.5q-5 -3 -7 -3t-2 5q8 33 24.5 65t38 61t46 55t48.5 48q7 7 9.5 7.5t10.5 5.5l10 6t11 3q5 0 5.5 -3t0.5 -9
q0 -14 -5.5 -24.5t-12.5 -21.5zM336 638l102 -66q9 -6 15 -7.5t16 -1.5t13 10q1 3 1 7t2 9t3.5 8.5t1.5 8.5q0 7 -26 25l-102 70q-17 12 -27 19.5t-15.5 11.5t-8 5.5t-4.5 1.5q-3 0 -6 1.5t-8 1.5q-12 0 -24 -12q-6 -6 -8.5 -11.5t-2.5 -14.5q0 -14 2 -22t10 -11
q17 -7 36.5 -16.5t29.5 -16.5z" />
    <glyph glyph-name="eacute" unicode="&#xe9;" horiz-adv-x="366" 
d="M253 -3q57 31 92 57t57.5 47t38 38.5t33.5 32.5q4 3 4.5 7t0.5 7q0 2 0.5 4t0.5 9q0 8 -7.5 14t-12.5 6q-3 0 -7.5 -1t-12.5 -6q-23 -14 -42.5 -31t-39.5 -34t-41.5 -33.5t-47.5 -30.5q-34 -18 -49 -23t-28 -5q-16 0 -31 8q-7 4 -15.5 17t-8.5 25q0 4 6 8q32 18 62.5 42
t59.5 52t56.5 58.5t53.5 59.5q11 12 17.5 22t14.5 25q9 18 16 35t7 37q0 30 -12 44.5t-20 17.5q-15 5 -28 8t-33 3q-37 0 -65.5 -15.5t-41.5 -29.5q-57 -61 -104 -127.5t-68 -143.5q-3 -11 -4 -18.5t-1 -14.5q0 -14 3.5 -38t8.5 -39q8 -25 21.5 -43t28.5 -26q3 -2 10 -5
t16.5 -7.5t19.5 -8.5t18 -7q12 -5 20.5 -6t17.5 -1q10 0 16 1t20 9zM328 398q-5 -8 -7 -12.5t-4 -8.5t-4.5 -8.5t-8.5 -11.5q-34 -41 -71 -80.5t-82 -73.5q-5 -3 -7 -3t-2 5q8 33 24.5 65t38 61t46 55t48.5 48q7 7 9.5 7.5t10.5 5.5l10 6t11 3q5 0 5.5 -3t0.5 -9
q0 -14 -5.5 -24.5t-12.5 -21.5zM450 675l-89 -34q-21 -8 -25 -8q-2 0 -6.5 -1t-6.5 -4q-5 -6 -5 -14q0 -5 3 -8l4 -4t5 -7q5 -7 15 -14q4 -2 11 -2q9 0 20 3l118 37q36 11 50.5 17.5t21.5 14.5q3 4 4 9t1 17q0 10 -2 15.5t-9 12.5q-8 8 -19 8q-3 0 -7.5 -0.5t-6.5 -2.5
q-7 -5 -17.5 -10t-22 -10t-21.5 -9t-16 -6z" />
    <glyph glyph-name="ecircumflex" unicode="&#xea;" horiz-adv-x="366" 
d="M253 -3q57 31 92 57t57.5 47t38 38.5t33.5 32.5q4 3 4.5 7t0.5 7q0 2 0.5 4t0.5 9q0 8 -7.5 14t-12.5 6q-3 0 -7.5 -1t-12.5 -6q-23 -14 -42.5 -31t-39.5 -34t-41.5 -33.5t-47.5 -30.5q-34 -18 -49 -23t-28 -5q-16 0 -31 8q-7 4 -15.5 17t-8.5 25q0 4 6 8q32 18 62.5 42
t59.5 52t56.5 58.5t53.5 59.5q11 12 17.5 22t14.5 25q9 18 16 35t7 37q0 30 -12 44.5t-20 17.5q-15 5 -28 8t-33 3q-37 0 -65.5 -15.5t-41.5 -29.5q-57 -61 -104 -127.5t-68 -143.5q-3 -11 -4 -18.5t-1 -14.5q0 -14 3.5 -38t8.5 -39q8 -25 21.5 -43t28.5 -26q3 -2 10 -5
t16.5 -7.5t19.5 -8.5t18 -7q12 -5 20.5 -6t17.5 -1q10 0 16 1t20 9zM328 398q-5 -8 -7 -12.5t-4 -8.5t-4.5 -8.5t-8.5 -11.5q-34 -41 -71 -80.5t-82 -73.5q-5 -3 -7 -3t-2 5q8 33 24.5 65t38 61t46 55t48.5 48q7 7 9.5 7.5t10.5 5.5l10 6t11 3q5 0 5.5 -3t0.5 -9
q0 -14 -5.5 -24.5t-12.5 -21.5zM462 698q-5 8 -8 8q-2 0 -4 5q-4 7 -19 7q-4 0 -13 -3l-89 -31q-35 -12 -44 -17t-11 -8q-2 -2 -4 -3.5t-5 -7.5q-2 -4 -2 -21q0 -11 0.5 -16.5t4.5 -7.5q5 -2 10 -7t14 -5q4 0 5 1q3 3 8.5 6.5t17 9.5t30.5 14.5t49 20.5q5 2 6.5 2.5t3.5 0.5
q4 0 8 -6l63 -86q4 -6 10 -10t8 -4q8 0 10.5 2t7.5 9q4 5 9 8t5 11q0 4 -2 9t-9 16z" />
    <glyph glyph-name="edieresis" unicode="&#xeb;" horiz-adv-x="366" 
d="M253 -3q57 31 92 57t57.5 47t38 38.5t33.5 32.5q4 3 4.5 7t0.5 7q0 2 0.5 4t0.5 9q0 8 -7.5 14t-12.5 6q-3 0 -7.5 -1t-12.5 -6q-23 -14 -42.5 -31t-39.5 -34t-41.5 -33.5t-47.5 -30.5q-34 -18 -49 -23t-28 -5q-16 0 -31 8q-7 4 -15.5 17t-8.5 25q0 4 6 8q32 18 62.5 42
t59.5 52t56.5 58.5t53.5 59.5q11 12 17.5 22t14.5 25q9 18 16 35t7 37q0 30 -12 44.5t-20 17.5q-15 5 -28 8t-33 3q-37 0 -65.5 -15.5t-41.5 -29.5q-57 -61 -104 -127.5t-68 -143.5q-3 -11 -4 -18.5t-1 -14.5q0 -14 3.5 -38t8.5 -39q8 -25 21.5 -43t28.5 -26q3 -2 10 -5
t16.5 -7.5t19.5 -8.5t18 -7q12 -5 20.5 -6t17.5 -1q10 0 16 1t20 9zM328 398q-5 -8 -7 -12.5t-4 -8.5t-4.5 -8.5t-8.5 -11.5q-34 -41 -71 -80.5t-82 -73.5q-5 -3 -7 -3t-2 5q8 33 24.5 65t38 61t46 55t48.5 48q7 7 9.5 7.5t10.5 5.5l10 6t11 3q5 0 5.5 -3t0.5 -9
q0 -14 -5.5 -24.5t-12.5 -21.5zM366 711q-5 9 -18.5 11t-21.5 2q-12 0 -21 -3t-14 -13q-4 -8 -8.5 -22t-4.5 -19q0 -27 2 -29q5 -5 8 -11t12 -12q2 -2 7 -2h8q4 0 10.5 1t12.5 3.5t11 5.5t5 7q0 3 4 7.5t8 10.5t7.5 14t3.5 17q0 5 -3 14.5t-8 17.5zM551 653q-2 9 -14 13.5
t-25 4.5q-5 0 -11.5 0.5t-8.5 0.5q-8 0 -13.5 -6.5t-9.5 -15t-6 -16.5t-2 -11q0 -15 8 -23.5t13 -19.5q7 -15 24 -15q5 0 14.5 1t14.5 3q6 3 11.5 11t13.5 25q2 4 2 16q0 8 -4.5 16.5t-6.5 15.5z" />
    <glyph glyph-name="igrave" unicode="&#xec;" horiz-adv-x="220" 
d="M278 72q6 6 11 12t5 15q0 3 -0.5 6.5t-5.5 7.5t-12 5.5t-13 1.5q-12 0 -20.5 -4.5t-26.5 -17.5q-15 -11 -25 -17.5t-18 -10t-15 -5t-15 -1.5q-13 0 -15.5 12.5t-2.5 19.5q0 11 5.5 37.5t18.5 60.5q5 14 12.5 32.5t16 38.5t16.5 38.5t14 32.5q9 18 20 33t20.5 29
t16.5 29.5t7 35.5q0 7 -2 10t-6 6q-5 5 -13.5 6.5t-16.5 1.5q-14 0 -28 -5.5t-22 -21.5q-28 -58 -51 -112.5t-46 -109.5q-5 -11 -8.5 -23.5t-8.5 -26.5q-9 -26 -12.5 -44t-3.5 -37q0 -11 1 -21t4 -21q4 -14 12 -28t18.5 -25.5t22 -18.5t22.5 -7q34 0 60.5 17t42.5 31z
M226 594l102 -66q9 -6 15 -7.5t16 -1.5t13 10q1 3 1 7t2 9t3.5 8.5t1.5 8.5q0 7 -26 25l-102 70q-17 12 -27 19.5t-15.5 11.5t-8 5.5t-4.5 1.5q-3 0 -6 1.5t-8 1.5q-12 0 -24 -12q-6 -6 -8.5 -11.5t-2.5 -14.5q0 -14 2 -22t10 -11q17 -7 36.5 -16.5t29.5 -16.5z" />
    <glyph glyph-name="iacute" unicode="&#xed;" horiz-adv-x="220" 
d="M278 72q6 6 11 12t5 15q0 3 -0.5 6.5t-5.5 7.5t-12 5.5t-13 1.5q-12 0 -20.5 -4.5t-26.5 -17.5q-15 -11 -25 -17.5t-18 -10t-15 -5t-15 -1.5q-13 0 -15.5 12.5t-2.5 19.5q0 11 5.5 37.5t18.5 60.5q5 14 12.5 32.5t16 38.5t16.5 38.5t14 32.5q9 18 20 33t20.5 29
t16.5 29.5t7 35.5q0 7 -2 10t-6 6q-5 5 -13.5 6.5t-16.5 1.5q-14 0 -28 -5.5t-22 -21.5q-28 -58 -51 -112.5t-46 -109.5q-5 -11 -8.5 -23.5t-8.5 -26.5q-9 -26 -12.5 -44t-3.5 -37q0 -11 1 -21t4 -21q4 -14 12 -28t18.5 -25.5t22 -18.5t22.5 -7q34 0 60.5 17t42.5 31z
M345 645l-89 -34q-21 -8 -25 -8q-2 0 -6.5 -1t-6.5 -4q-5 -6 -5 -14q0 -5 3 -8l4 -4t5 -7q5 -7 15 -14q4 -2 11 -2q9 0 20 3l118 37q36 11 50.5 17.5t21.5 14.5q3 4 4 9t1 17q0 10 -2 15.5t-9 12.5q-8 8 -19 8q-3 0 -7.5 -0.5t-6.5 -2.5q-7 -5 -17.5 -10t-22 -10t-21.5 -9
t-16 -6z" />
    <glyph glyph-name="icircumflex" unicode="&#xee;" horiz-adv-x="220" 
d="M278 72q6 6 11 12t5 15q0 3 -0.5 6.5t-5.5 7.5t-12 5.5t-13 1.5q-12 0 -20.5 -4.5t-26.5 -17.5q-15 -11 -25 -17.5t-18 -10t-15 -5t-15 -1.5q-13 0 -15.5 12.5t-2.5 19.5q0 11 5.5 37.5t18.5 60.5q5 14 12.5 32.5t16 38.5t16.5 38.5t14 32.5q9 18 20 33t20.5 29
t16.5 29.5t7 35.5q0 7 -2 10t-6 6q-5 5 -13.5 6.5t-16.5 1.5q-14 0 -28 -5.5t-22 -21.5q-28 -58 -51 -112.5t-46 -109.5q-5 -11 -8.5 -23.5t-8.5 -26.5q-9 -26 -12.5 -44t-3.5 -37q0 -11 1 -21t4 -21q4 -14 12 -28t18.5 -25.5t22 -18.5t22.5 -7q34 0 60.5 17t42.5 31z
M346 664q-5 8 -8 8q-2 0 -4 5q-4 7 -19 7q-4 0 -13 -3l-89 -31q-35 -12 -44 -17t-11 -8q-2 -2 -4 -3.5t-5 -7.5q-2 -4 -2 -21q0 -11 0.5 -16.5t4.5 -7.5q5 -2 10 -7t14 -5q4 0 5 1q3 3 8.5 6.5t17 9.5t30.5 14.5t49 20.5q5 2 6.5 2.5t3.5 0.5q4 0 8 -6l63 -86q4 -6 10 -10
t8 -4q8 0 10.5 2t7.5 9q4 5 9 8t5 11q0 4 -2 9t-9 16z" />
    <glyph glyph-name="idieresis" unicode="&#xef;" horiz-adv-x="220" 
d="M278 72q6 6 11 12t5 15q0 3 -0.5 6.5t-5.5 7.5t-12 5.5t-13 1.5q-12 0 -20.5 -4.5t-26.5 -17.5q-15 -11 -25 -17.5t-18 -10t-15 -5t-15 -1.5q-13 0 -15.5 12.5t-2.5 19.5q0 11 5.5 37.5t18.5 60.5q5 14 12.5 32.5t16 38.5t16.5 38.5t14 32.5q9 18 20 33t20.5 29
t16.5 29.5t7 35.5q0 7 -2 10t-6 6q-5 5 -13.5 6.5t-16.5 1.5q-14 0 -28 -5.5t-22 -21.5q-28 -58 -51 -112.5t-46 -109.5q-5 -11 -8.5 -23.5t-8.5 -26.5q-9 -26 -12.5 -44t-3.5 -37q0 -11 1 -21t4 -21q4 -14 12 -28t18.5 -25.5t22 -18.5t22.5 -7q34 0 60.5 17t42.5 31z
M239 693q-5 9 -18.5 11t-21.5 2q-12 0 -21 -3t-14 -13q-4 -8 -8.5 -22t-4.5 -19q0 -27 2 -29q5 -5 8 -11t12 -12q2 -2 7 -2h8q4 0 10.5 1t12.5 3.5t11 5.5t5 7q0 3 4 7.5t8 10.5t7.5 14t3.5 17q0 5 -3 14.5t-8 17.5zM424 635q-2 9 -14 13.5t-25 4.5q-5 0 -11.5 0.5t-8.5 0.5
q-8 0 -13.5 -6.5t-9.5 -15t-6 -16.5t-2 -11q0 -15 8 -23.5t13 -19.5q7 -15 24 -15q5 0 14.5 1t14.5 3q6 3 11.5 11t13.5 25q2 4 2 16q0 8 -4.5 16.5t-6.5 15.5z" />
    <glyph glyph-name="eth" unicode="&#xf0;" horiz-adv-x="400" 
d="M327 290q-1 -17 -7.5 -43.5t-19 -56.5t-32.5 -61t-47 -57q-13 -12 -23 -18t-21 -6q-9 0 -18 5q-26 14 -26 61q0 42 7.5 74.5t20 60t28.5 52.5t34 52q13 20 27.5 26.5t19.5 6.5q4 0 9 -2.5t10 -11t10.5 -24.5t11.5 -44q2 -8 6 -10t10 -4zM292 528q2 0 5 -5
q18 -37 25 -66.5t7 -41.5q0 -4 -3 -4q-2 0 -5.5 2t-20.5 15q-14 10 -26 13.5t-24 3.5q-21 0 -43 -12t-41 -38q-8 -11 -18 -24.5t-22 -28.5q-8 -9 -19.5 -30t-22 -48.5t-18.5 -58.5t-8 -61q0 -23 2.5 -47.5t13.5 -48.5q8 -20 23 -30t41 -20q5 -2 9 -4.5t10 -5t16 -4.5t28 -2
q29 0 49.5 19.5t40.5 39.5q31 31 53.5 70.5t36.5 79.5t20.5 77.5t6.5 66.5q0 28 -1.5 52t-5 46.5t-10 45t-16.5 48.5q-8 21 -9.5 25t-1.5 6t1.5 4t9.5 6q21 10 33 17t18 11t7.5 6.5t1.5 4.5q0 5 9 13t9 19q0 8 -5 13q-7 8 -15 12t-12 4q-10 0 -28 -13.5t-58 -32.5
q-6 -3 -8 -3q-3 0 -6 5q-5 6 -17.5 22t-24.5 30q-9 11 -11.5 15t-2.5 7q0 5 -3.5 9.5t-23.5 18.5q-10 7 -15.5 10.5t-9 5t-6 2t-5.5 0.5q-5 0 -14 -7t-13 -7q-11 0 -13 -8.5t-2 -17.5q0 -5 0.5 -8.5t3.5 -7.5t8 -8.5t14 -12.5q6 -5 15 -14l20 -20q25 -27 31.5 -36t6.5 -12
q0 -2 -6 -5q-8 -4 -19 -10t-21.5 -12t-18 -12t-9.5 -9q-3 -6 -9.5 -10.5t-6.5 -18.5q0 -12 8 -23q7 -10 11 -10q7 0 19.5 6.5t15.5 8.5q5 4 16 10.5t22.5 12.5t20.5 10.5t10 4.5z" />
    <glyph glyph-name="ntilde" unicode="&#xf1;" horiz-adv-x="420" 
d="M91 266q-6 -15 -14 -34t-15.5 -38t-13 -36t-6.5 -28q-1 -8 -3 -14t-4 -12.5t-3.5 -14t-1.5 -19.5q0 -8 2 -16.5t5 -12.5q5 -6 15 -14t21.5 -15t21 -12t14.5 -5q7 0 19 2t18 9q5 6 9.5 9t9.5 7t10.5 10.5t13.5 17.5q18 26 39.5 53.5t52.5 68.5q3 4 6 4t3 -4
q0 -2 -4.5 -18.5t-4.5 -60.5q0 -39 17 -62q10 -14 19 -19.5t20 -15.5q9 -8 27.5 -11t24.5 -3q14 0 20 9.5t6 14.5q0 8 -4.5 13t-10.5 10q-5 4 -19 13t-16 23q-2 8 -5 18.5t-3 24.5q0 7 1 19.5t2.5 25.5t4 25t4.5 20q11 38 27 71t43 77q4 6 7 14.5t3 11.5q0 9 -6 17.5
t-14 9.5q-12 1 -18.5 5.5t-17.5 4.5q-5 0 -8.5 -1t-7 -5t-8 -12.5t-11.5 -22.5q-8 -18 -26.5 -36.5t-47 -48.5t-67.5 -76t-90 -118q-9 -13 -17 -13q-2 0 -2.5 3.5t-0.5 6.5q0 1 2 9.5t5 20t6.5 22.5t6.5 18q25 62 42.5 99t28.5 57q20 38 39.5 61t24.5 29q14 17 18 28t4 19
q0 5 -1.5 9.5t-3.5 8.5q-7 15 -40 15q-24 0 -35 -10q-7 -6 -8.5 -9.5t-7.5 -12.5q-17 -25 -30 -47.5t-24 -44t-21.5 -44t-21.5 -48.5zM254 588q0 -8 11 -11.5t23 -3.5q2 0 4 0.5t6 2.5q21 13 32 17t17 4q4 0 9 -3q3 -2 7.5 -8.5t9.5 -14.5t11 -16t13 -14q14 -11 25.5 -14.5
t27.5 -3.5q10 0 22.5 4.5t26 11t26 14.5t23.5 15q8 5 8 10q0 8 -1.5 11.5t-2.5 9.5q-1 7 -6 13t-14 6q-3 0 -15 -4l-25.5 -8.5t-25.5 -8t-14 -3.5q-14 0 -20.5 7t-20.5 28q-14 20 -24 31t-24 11q-11 0 -19 -1t-26 -8l-63 -23q-5 -2 -7 -7t-2 -7q0 -8 4 -18.5t4 -18.5z" />
    <glyph glyph-name="ograve" unicode="&#xf2;" horiz-adv-x="368" 
d="M344 460q-2 6 -5 9t-9 8q-13 11 -27 15t-26 4q-17 0 -33 -8t-31 -21t-28.5 -29.5t-25.5 -33.5l-6 -7.5t-4.5 -5t-5.5 -6t-8 -11.5q-35 -52 -61 -106.5t-26 -116.5q0 -19 3.5 -40.5t11.5 -42.5q7 -17 26.5 -33t48.5 -30q10 -5 24 -5q26 0 47.5 18t42.5 41q48 51 77 119
t49 149q2 8 12 8q5 0 14.5 0.5t24.5 2.5q20 3 40 9t35 8q6 1 7.5 2.5l3.5 3.5q1 2 5.5 3.5t9.5 4t9 5.5t4 8q0 12 -19 19t-43 7q-17 0 -36.5 -1.5t-49.5 -1.5q-22 0 -33 18t-18 37zM293 394q2 -2 3.5 -4t2.5 -7q1 -4 1 -11v-10q0 -39 -10 -74t-26 -67.5t-36 -63.5t-40 -61
q-6 -9 -8.5 -12t-8.5 -6q-3 -2 -7 -5t-12 -3q-6 0 -9 2q-7 5 -14.5 16t-9.5 17q-2 5 -2.5 8.5t-0.5 5.5q0 33 9 66.5t22.5 64t29.5 57.5t30 47t23.5 32t10.5 13q4 5 10 9t9 8q8 10 15 10q4 0 6 -6t4 -11q1 -3 2.5 -7t5.5 -8zM290 588l102 -66q9 -6 15 -7.5t16 -1.5t13 10
q1 3 1 7t2 9t3.5 8.5t1.5 8.5q0 7 -26 25l-102 70q-17 12 -27 19.5t-15.5 11.5t-8 5.5t-4.5 1.5q-3 0 -6 1.5t-8 1.5q-12 0 -24 -12q-6 -6 -8.5 -11.5t-2.5 -14.5q0 -14 2 -22t10 -11q17 -7 36.5 -16.5t29.5 -16.5z" />
    <glyph glyph-name="oacute" unicode="&#xf3;" horiz-adv-x="368" 
d="M344 460q-2 6 -5 9t-9 8q-13 11 -27 15t-26 4q-17 0 -33 -8t-31 -21t-28.5 -29.5t-25.5 -33.5l-6 -7.5t-4.5 -5t-5.5 -6t-8 -11.5q-35 -52 -61 -106.5t-26 -116.5q0 -19 3.5 -40.5t11.5 -42.5q7 -17 26.5 -33t48.5 -30q10 -5 24 -5q26 0 47.5 18t42.5 41q48 51 77 119
t49 149q2 8 12 8q5 0 14.5 0.5t24.5 2.5q20 3 40 9t35 8q6 1 7.5 2.5l3.5 3.5q1 2 5.5 3.5t9.5 4t9 5.5t4 8q0 12 -19 19t-43 7q-17 0 -36.5 -1.5t-49.5 -1.5q-22 0 -33 18t-18 37zM293 394q2 -2 3.5 -4t2.5 -7q1 -4 1 -11v-10q0 -39 -10 -74t-26 -67.5t-36 -63.5t-40 -61
q-6 -9 -8.5 -12t-8.5 -6q-3 -2 -7 -5t-12 -3q-6 0 -9 2q-7 5 -14.5 16t-9.5 17q-2 5 -2.5 8.5t-0.5 5.5q0 33 9 66.5t22.5 64t29.5 57.5t30 47t23.5 32t10.5 13q4 5 10 9t9 8q8 10 15 10q4 0 6 -6t4 -11q1 -3 2.5 -7t5.5 -8zM377 647l-89 -34q-21 -8 -25 -8q-2 0 -6.5 -1
t-6.5 -4q-5 -6 -5 -14q0 -5 3 -8l4 -4t5 -7q5 -7 15 -14q4 -2 11 -2q9 0 20 3l118 37q36 11 50.5 17.5t21.5 14.5q3 4 4 9t1 17q0 10 -2 15.5t-9 12.5q-8 8 -19 8q-3 0 -7.5 -0.5t-6.5 -2.5q-7 -5 -17.5 -10t-22 -10t-21.5 -9t-16 -6z" />
    <glyph glyph-name="ocircumflex" unicode="&#xf4;" horiz-adv-x="368" 
d="M344 460q-2 6 -5 9t-9 8q-13 11 -27 15t-26 4q-17 0 -33 -8t-31 -21t-28.5 -29.5t-25.5 -33.5l-6 -7.5t-4.5 -5t-5.5 -6t-8 -11.5q-35 -52 -61 -106.5t-26 -116.5q0 -19 3.5 -40.5t11.5 -42.5q7 -17 26.5 -33t48.5 -30q10 -5 24 -5q26 0 47.5 18t42.5 41q48 51 77 119
t49 149q2 8 12 8q5 0 14.5 0.5t24.5 2.5q20 3 40 9t35 8q6 1 7.5 2.5l3.5 3.5q1 2 5.5 3.5t9.5 4t9 5.5t4 8q0 12 -19 19t-43 7q-17 0 -36.5 -1.5t-49.5 -1.5q-22 0 -33 18t-18 37zM293 394q2 -2 3.5 -4t2.5 -7q1 -4 1 -11v-10q0 -39 -10 -74t-26 -67.5t-36 -63.5t-40 -61
q-6 -9 -8.5 -12t-8.5 -6q-3 -2 -7 -5t-12 -3q-6 0 -9 2q-7 5 -14.5 16t-9.5 17q-2 5 -2.5 8.5t-0.5 5.5q0 33 9 66.5t22.5 64t29.5 57.5t30 47t23.5 32t10.5 13q4 5 10 9t9 8q8 10 15 10q4 0 6 -6t4 -11q1 -3 2.5 -7t5.5 -8zM386 666q-5 8 -8 8q-2 0 -4 5q-4 7 -19 7
q-4 0 -13 -3l-89 -31q-35 -12 -44 -17t-11 -8q-2 -2 -4 -3.5t-5 -7.5q-2 -4 -2 -21q0 -11 0.5 -16.5t4.5 -7.5q5 -2 10 -7t14 -5q4 0 5 1q3 3 8.5 6.5t17 9.5t30.5 14.5t49 20.5q5 2 6.5 2.5t3.5 0.5q4 0 8 -6l63 -86q4 -6 10 -10t8 -4q8 0 10.5 2t7.5 9q4 5 9 8t5 11
q0 4 -2 9t-9 16z" />
    <glyph glyph-name="otilde" unicode="&#xf5;" horiz-adv-x="368" 
d="M344 460q-2 6 -5 9t-9 8q-13 11 -27 15t-26 4q-17 0 -33 -8t-31 -21t-28.5 -29.5t-25.5 -33.5l-6 -7.5t-4.5 -5t-5.5 -6t-8 -11.5q-35 -52 -61 -106.5t-26 -116.5q0 -19 3.5 -40.5t11.5 -42.5q7 -17 26.5 -33t48.5 -30q10 -5 24 -5q26 0 47.5 18t42.5 41q48 51 77 119
t49 149q2 8 12 8q5 0 14.5 0.5t24.5 2.5q20 3 40 9t35 8q6 1 7.5 2.5l3.5 3.5q1 2 5.5 3.5t9.5 4t9 5.5t4 8q0 12 -19 19t-43 7q-17 0 -36.5 -1.5t-49.5 -1.5q-22 0 -33 18t-18 37zM293 394q2 -2 3.5 -4t2.5 -7q1 -4 1 -11v-10q0 -39 -10 -74t-26 -67.5t-36 -63.5t-40 -61
q-6 -9 -8.5 -12t-8.5 -6q-3 -2 -7 -5t-12 -3q-6 0 -9 2q-7 5 -14.5 16t-9.5 17q-2 5 -2.5 8.5t-0.5 5.5q0 33 9 66.5t22.5 64t29.5 57.5t30 47t23.5 32t10.5 13q4 5 10 9t9 8q8 10 15 10q4 0 6 -6t4 -11q1 -3 2.5 -7t5.5 -8zM212 600q0 -8 11 -11.5t23 -3.5q2 0 4 0.5t6 2.5
q21 13 32 17t17 4q4 0 9 -3q3 -2 7.5 -8.5t9.5 -14.5t11 -16t13 -14q14 -11 25.5 -14.5t27.5 -3.5q10 0 22.5 4.5t26 11t26 14.5t23.5 15q8 5 8 10q0 8 -1.5 11.5t-2.5 9.5q-1 7 -6 13t-14 6q-3 0 -15 -4l-25.5 -8.5t-25.5 -8t-14 -3.5q-14 0 -20.5 7t-20.5 28
q-14 20 -24 31t-24 11q-11 0 -19 -1t-26 -8l-63 -23q-5 -2 -7 -7t-2 -7q0 -8 4 -18.5t4 -18.5z" />
    <glyph glyph-name="odieresis" unicode="&#xf6;" horiz-adv-x="368" 
d="M344 460q-2 6 -5 9t-9 8q-13 11 -27 15t-26 4q-17 0 -33 -8t-31 -21t-28.5 -29.5t-25.5 -33.5l-6 -7.5t-4.5 -5t-5.5 -6t-8 -11.5q-35 -52 -61 -106.5t-26 -116.5q0 -19 3.5 -40.5t11.5 -42.5q7 -17 26.5 -33t48.5 -30q10 -5 24 -5q26 0 47.5 18t42.5 41q48 51 77 119
t49 149q2 8 12 8q5 0 14.5 0.5t24.5 2.5q20 3 40 9t35 8q6 1 7.5 2.5l3.5 3.5q1 2 5.5 3.5t9.5 4t9 5.5t4 8q0 12 -19 19t-43 7q-17 0 -36.5 -1.5t-49.5 -1.5q-22 0 -33 18t-18 37zM293 394q2 -2 3.5 -4t2.5 -7q1 -4 1 -11v-10q0 -39 -10 -74t-26 -67.5t-36 -63.5t-40 -61
q-6 -9 -8.5 -12t-8.5 -6q-3 -2 -7 -5t-12 -3q-6 0 -9 2q-7 5 -14.5 16t-9.5 17q-2 5 -2.5 8.5t-0.5 5.5q0 33 9 66.5t22.5 64t29.5 57.5t30 47t23.5 32t10.5 13q4 5 10 9t9 8q8 10 15 10q4 0 6 -6t4 -11q1 -3 2.5 -7t5.5 -8zM305 691q-5 9 -18.5 11t-21.5 2q-12 0 -21 -3
t-14 -13q-4 -8 -8.5 -22t-4.5 -19q0 -27 2 -29q5 -5 8 -11t12 -12q2 -2 7 -2h8q4 0 10.5 1t12.5 3.5t11 5.5t5 7q0 3 4 7.5t8 10.5t7.5 14t3.5 17q0 5 -3 14.5t-8 17.5zM490 633q-2 9 -14 13.5t-25 4.5q-5 0 -11.5 0.5t-8.5 0.5q-8 0 -13.5 -6.5t-9.5 -15t-6 -16.5t-2 -11
q0 -15 8 -23.5t13 -19.5q7 -15 24 -15q5 0 14.5 1t14.5 3q6 3 11.5 11t13.5 25q2 4 2 16q0 8 -4.5 16.5t-6.5 15.5z" />
    <glyph glyph-name="divide" unicode="&#xf7;" horiz-adv-x="590" 
d="M423 460q0 5 -7.5 13t-17.5 16t-21 13.5t-17 5.5q-8 0 -16.5 -1t-11.5 -8q-4 -10 -9.5 -18.5t-10 -18.5t-7.5 -22t-3 -29q0 -11 10 -19.5t22 -14t23 -8.5t14 -3q16 0 26 12.5t16 29t8 31.5t2 21zM323 150q-7 5 -10.5 9t-8.5 7q-7 5 -13 8t-17 3q-12 0 -20.5 -10
t-14.5 -23t-8.5 -26t-2.5 -20q0 -14 8 -20t18 -17q7 -8 12 -14.5t26 -6.5q34 0 44 14.5t10 45.5q0 10 -4.5 25.5t-18.5 24.5zM553 287q0 5 -0.5 9t-2.5 6q-10 10 -15 12t-13 2q-22 0 -52 -1.5t-60.5 -3t-57 -2.5t-40.5 -1q-68 0 -107 4t-51 4q-34 0 -34 -16q0 -6 1.5 -16.5
t4 -20.5t6.5 -17.5t9 -7.5q6 0 19.5 -1t31.5 -2.5t38 -2.5t40 -1q30 0 66 1t70 2.5t62 3t42 1.5q6 0 13.5 -1t13.5 -1q5 0 8 8q4 10 6 20t2 22z" />
    <glyph glyph-name="oslash" unicode="&#xf8;" horiz-adv-x="406" 
d="M402 446q-5 -5 -7 -5q-3 0 -7 5q-3 5 -11 8.5t-13 8.5q-20 20 -36 28t-33 8q-20 0 -38.5 -11.5t-35 -27.5t-30.5 -33.5t-25 -30.5q-17 -20 -29 -37t-26 -39t-27 -48t-21.5 -55t-8.5 -59q0 -33 6 -49.5t6 -21.5q0 -4 -3 -6.5t-11 -9.5q-11 -9 -17.5 -12.5t-10 -5.5t-5 -4
t-1.5 -7q0 -10 5.5 -18.5t7.5 -17.5q1 -5 4.5 -5.5t6.5 -0.5q6 0 21 9t21 17q7 9 11 9q2 0 7 -5q10 -10 27 -19t38 -17q8 -3 15.5 -4.5t12.5 -1.5q6 0 17.5 2t26 8.5t31.5 19.5t34 34q13 17 30 44t33.5 62.5t30.5 78.5t23 92q3 21 3 34q0 10 -1 16t-1 10q0 3 3 7t17 15
q8 7 17 10.5t9 8.5q0 15 -8.5 28.5t-17.5 13.5q-11 0 -19 -6.5t-21 -19.5zM162 184q-18 -19 -23 -23.5t-7 -4.5t-2 4q0 2 1 8t3 11q9 30 20.5 56.5t28 53t38 55t49.5 63.5q5 7 15.5 14.5t22.5 7.5q5 0 7.5 -3t8.5 -13q5 -7 11 -12t15 -5q3 0 3 -2q0 -1 -2 -3
q-21 -23 -47 -51.5t-51.5 -57t-49 -54.5t-41.5 -44zM148 70q-6 5 -7.5 7t-1.5 4q0 3 6 9q9 9 14.5 15t9.5 11q24 29 48.5 54t39.5 42q17 20 35 39t36 39q7 7 9 7t2 -2t-0.5 -4t-3.5 -11q-10 -30 -20 -55.5t-22 -49.5t-27.5 -48t-36.5 -50q-6 -8 -20.5 -15t-30.5 -7
q-7 0 -15.5 5t-14.5 10z" />
    <glyph glyph-name="ugrave" unicode="&#xf9;" horiz-adv-x="420" 
d="M237 451q-4 8 -15 12t-19 4q-12 0 -23.5 -6t-19.5 -20q-14 -24 -24 -48t-17.5 -47.5t-14 -47t-14.5 -45.5q-3 -10 -5 -17t-3.5 -14t-3.5 -14.5t-5 -17.5q-8 -26 -15.5 -56t-7.5 -58q0 -8 1.5 -20t3.5 -23q3 -14 30 -31q19 -11 38 -15t22 -4t5 0.5t8 3.5q32 16 59 41.5
t53 55.5q3 4 7 8t7 4q4 0 4 -6q0 -8 -1.5 -28.5t-1.5 -39.5q0 -15 2 -30t8 -30q2 -6 3.5 -8t4 -3t6.5 -2.5t11 -5.5q8 -5 17.5 -10t20.5 -5q9 0 14 3q3 2 4.5 7.5t1.5 10.5q0 17 -9 32.5t-9 34.5q0 21 2 39.5t4 34.5q9 60 28 115.5t45 110.5q3 7 4.5 12t1.5 17q0 5 -4 9.5
t-16 8.5q-5 2 -11.5 6t-12.5 4t-11 -1t-12 -5q-9 -5 -11.5 -8.5t-6.5 -13.5q-24 -63 -63 -118t-86 -106q-6 -7 -10 -12.5t-9 -11.5t-13 -14t-21 -20q-5 -5 -12.5 -7.5t-9.5 -2.5q-5 0 -9.5 5t-4.5 9v8q0 5 2 15q4 27 13 58.5t20 65.5t22 68.5t20 67.5q6 23 14.5 33t14.5 14
q11 8 15.5 15.5t4.5 13.5q0 8 -4.5 14t-6.5 11zM290 548l102 -66q9 -6 15 -7.5t16 -1.5t13 10q1 3 1 7t2 9t3.5 8.5t1.5 8.5q0 7 -26 25l-102 70q-17 12 -27 19.5t-15.5 11.5t-8 5.5t-4.5 1.5q-3 0 -6 1.5t-8 1.5q-12 0 -24 -12q-6 -6 -8.5 -11.5t-2.5 -14.5q0 -14 2 -22
t10 -11q17 -7 36.5 -16.5t29.5 -16.5z" />
    <glyph glyph-name="uacute" unicode="&#xfa;" horiz-adv-x="420" 
d="M237 451q-4 8 -15 12t-19 4q-12 0 -23.5 -6t-19.5 -20q-14 -24 -24 -48t-17.5 -47.5t-14 -47t-14.5 -45.5q-3 -10 -5 -17t-3.5 -14t-3.5 -14.5t-5 -17.5q-8 -26 -15.5 -56t-7.5 -58q0 -8 1.5 -20t3.5 -23q3 -14 30 -31q19 -11 38 -15t22 -4t5 0.5t8 3.5q32 16 59 41.5
t53 55.5q3 4 7 8t7 4q4 0 4 -6q0 -8 -1.5 -28.5t-1.5 -39.5q0 -15 2 -30t8 -30q2 -6 3.5 -8t4 -3t6.5 -2.5t11 -5.5q8 -5 17.5 -10t20.5 -5q9 0 14 3q3 2 4.5 7.5t1.5 10.5q0 17 -9 32.5t-9 34.5q0 21 2 39.5t4 34.5q9 60 28 115.5t45 110.5q3 7 4.5 12t1.5 17q0 5 -4 9.5
t-16 8.5q-5 2 -11.5 6t-12.5 4t-11 -1t-12 -5q-9 -5 -11.5 -8.5t-6.5 -13.5q-24 -63 -63 -118t-86 -106q-6 -7 -10 -12.5t-9 -11.5t-13 -14t-21 -20q-5 -5 -12.5 -7.5t-9.5 -2.5q-5 0 -9.5 5t-4.5 9v8q0 5 2 15q4 27 13 58.5t20 65.5t22 68.5t20 67.5q6 23 14.5 33t14.5 14
q11 8 15.5 15.5t4.5 13.5q0 8 -4.5 14t-6.5 11zM391 611l-89 -34q-21 -8 -25 -8q-2 0 -6.5 -1t-6.5 -4q-5 -6 -5 -14q0 -5 3 -8l4 -4t5 -7q5 -7 15 -14q4 -2 11 -2q9 0 20 3l118 37q36 11 50.5 17.5t21.5 14.5q3 4 4 9t1 17q0 10 -2 15.5t-9 12.5q-8 8 -19 8q-3 0 -7.5 -0.5
t-6.5 -2.5q-7 -5 -17.5 -10t-22 -10t-21.5 -9t-16 -6z" />
    <glyph glyph-name="ucircumflex" unicode="&#xfb;" horiz-adv-x="420" 
d="M237 451q-4 8 -15 12t-19 4q-12 0 -23.5 -6t-19.5 -20q-14 -24 -24 -48t-17.5 -47.5t-14 -47t-14.5 -45.5q-3 -10 -5 -17t-3.5 -14t-3.5 -14.5t-5 -17.5q-8 -26 -15.5 -56t-7.5 -58q0 -8 1.5 -20t3.5 -23q3 -14 30 -31q19 -11 38 -15t22 -4t5 0.5t8 3.5q32 16 59 41.5
t53 55.5q3 4 7 8t7 4q4 0 4 -6q0 -8 -1.5 -28.5t-1.5 -39.5q0 -15 2 -30t8 -30q2 -6 3.5 -8t4 -3t6.5 -2.5t11 -5.5q8 -5 17.5 -10t20.5 -5q9 0 14 3q3 2 4.5 7.5t1.5 10.5q0 17 -9 32.5t-9 34.5q0 21 2 39.5t4 34.5q9 60 28 115.5t45 110.5q3 7 4.5 12t1.5 17q0 5 -4 9.5
t-16 8.5q-5 2 -11.5 6t-12.5 4t-11 -1t-12 -5q-9 -5 -11.5 -8.5t-6.5 -13.5q-24 -63 -63 -118t-86 -106q-6 -7 -10 -12.5t-9 -11.5t-13 -14t-21 -20q-5 -5 -12.5 -7.5t-9.5 -2.5q-5 0 -9.5 5t-4.5 9v8q0 5 2 15q4 27 13 58.5t20 65.5t22 68.5t20 67.5q6 23 14.5 33t14.5 14
q11 8 15.5 15.5t4.5 13.5q0 8 -4.5 14t-6.5 11zM422 638q-5 8 -8 8q-2 0 -4 5q-4 7 -19 7q-4 0 -13 -3l-89 -31q-35 -12 -44 -17t-11 -8q-2 -2 -4 -3.5t-5 -7.5q-2 -4 -2 -21q0 -11 0.5 -16.5t4.5 -7.5q5 -2 10 -7t14 -5q4 0 5 1q3 3 8.5 6.5t17 9.5t30.5 14.5t49 20.5
q5 2 6.5 2.5t3.5 0.5q4 0 8 -6l63 -86q4 -6 10 -10t8 -4q8 0 10.5 2t7.5 9q4 5 9 8t5 11q0 4 -2 9t-9 16z" />
    <glyph glyph-name="udieresis" unicode="&#xfc;" horiz-adv-x="420" 
d="M237 451q-4 8 -15 12t-19 4q-12 0 -23.5 -6t-19.5 -20q-14 -24 -24 -48t-17.5 -47.5t-14 -47t-14.5 -45.5q-3 -10 -5 -17t-3.5 -14t-3.5 -14.5t-5 -17.5q-8 -26 -15.5 -56t-7.5 -58q0 -8 1.5 -20t3.5 -23q3 -14 30 -31q19 -11 38 -15t22 -4t5 0.5t8 3.5q32 16 59 41.5
t53 55.5q3 4 7 8t7 4q4 0 4 -6q0 -8 -1.5 -28.5t-1.5 -39.5q0 -15 2 -30t8 -30q2 -6 3.5 -8t4 -3t6.5 -2.5t11 -5.5q8 -5 17.5 -10t20.5 -5q9 0 14 3q3 2 4.5 7.5t1.5 10.5q0 17 -9 32.5t-9 34.5q0 21 2 39.5t4 34.5q9 60 28 115.5t45 110.5q3 7 4.5 12t1.5 17q0 5 -4 9.5
t-16 8.5q-5 2 -11.5 6t-12.5 4t-11 -1t-12 -5q-9 -5 -11.5 -8.5t-6.5 -13.5q-24 -63 -63 -118t-86 -106q-6 -7 -10 -12.5t-9 -11.5t-13 -14t-21 -20q-5 -5 -12.5 -7.5t-9.5 -2.5q-5 0 -9.5 5t-4.5 9v8q0 5 2 15q4 27 13 58.5t20 65.5t22 68.5t20 67.5q6 23 14.5 33t14.5 14
q11 8 15.5 15.5t4.5 13.5q0 8 -4.5 14t-6.5 11zM337 660q-5 9 -18.5 11t-21.5 2q-12 0 -21 -3t-14 -13q-4 -8 -8.5 -22t-4.5 -19q0 -27 2 -29q5 -5 8 -11t12 -12q2 -2 7 -2h8q4 0 10.5 1t12.5 3.5t11 5.5t5 7q0 3 4 7.5t8 10.5t7.5 14t3.5 17q0 5 -3 14.5t-8 17.5zM495 553
q-2 9 -14 13.5t-25 4.5q-5 0 -11.5 0.5t-8.5 0.5q-8 0 -13.5 -6.5t-9.5 -15t-6 -16.5t-2 -11q0 -15 8 -23.5t13 -19.5q7 -15 24 -15q5 0 14.5 1t14.5 3q8 5 14 15.5t11 20.5q1 4 1.5 7t0.5 9q0 8 -4.5 16.5t-6.5 15.5z" />
    <glyph glyph-name="yacute" unicode="&#xfd;" horiz-adv-x="436" 
d="M252 460q0 10 -9 16t-17 6t-16 2.5t-12 2.5q-5 0 -17.5 -7t-17.5 -22q-15 -49 -32.5 -92.5t-33.5 -86.5t-26.5 -88t-10.5 -97q0 -12 1 -15.5t5 -8.5q33 -40 95 -40q4 0 16.5 7t29 18.5t34 25t30.5 26.5q11 11 14 11t3 -4q0 -1 -0.5 -3.5t-2 -9t-5.5 -18.5t-10 -32
q-10 -31 -20.5 -63.5t-19 -61t-14 -49t-6.5 -27.5q-26 -43 -47.5 -87.5t-38.5 -83.5q-21 -50 -21 -79q0 -14 4 -21.5t9.5 -11t12 -4.5t12.5 -1q9 0 15 1.5t12 2.5q20 3 31 14.5t17 27t8.5 33t5.5 32.5q15 72 42.5 143t78.5 139q2 3 4 8.5t2 16.5q0 5 -6.5 8t-11.5 3
q-2 0 -4.5 -0.5t-4.5 -0.5q-4 0 -4 2q0 3 2.5 11t9.5 29q3 9 10.5 30t16.5 44.5t17 45t11 30.5q12 35 27 67.5t34 61.5q8 13 11.5 19t7.5 11q8 12 15.5 24.5t7.5 26.5q0 5 -1 11.5t-4.5 12t-10.5 9t-19 3.5t-17.5 3.5t-13.5 3.5q-7 0 -15.5 -12t-10.5 -18q-18 -48 -36 -79.5
t-34.5 -53t-31 -36t-26.5 -28.5q-12 -15 -21.5 -24t-15.5 -16q-28 -32 -46.5 -45.5t-32.5 -20.5q-12 -6 -22 -6q-5 0 -5 16q0 8 1.5 16t3.5 16t3.5 15.5t4.5 16.5q10 30 17 55t14.5 48.5t16.5 48t22 52.5q3 6 5 8t4.5 5t6.5 8.5t10 16.5t8 20t2 22zM402 599l-89 -34
q-21 -8 -25 -8q-2 0 -6.5 -1t-6.5 -4q-5 -6 -5 -14q0 -5 3 -8l4 -4t5 -7q5 -7 15 -14q4 -2 11 -2q9 0 20 3l118 37q36 11 50.5 17.5t21.5 14.5q3 4 4 9t1 17q0 10 -2 15.5t-9 12.5q-8 8 -19 8q-3 0 -7.5 -0.5t-6.5 -2.5q-7 -5 -17.5 -10t-22 -10t-21.5 -9t-16 -6z" />
    <glyph glyph-name="thorn" unicode="&#xfe;" horiz-adv-x="456" 
d="M327 665q0 8 -5.5 14t-28.5 6q-11 0 -18.5 -3.5t-18.5 -3.5q-7 0 -12.5 -4.5t-5.5 -12.5t-1.5 -20.5t-9.5 -39.5q-44 -145 -85 -258t-78 -207t-69.5 -176t-60.5 -165q-6 -18 -7.5 -24t-1.5 -9q1 -11 5 -14.5t9 -8.5q3 -4 8.5 -5.5t19.5 -1.5q6 0 12.5 -2t17.5 -2
q8 0 11 4t4 11.5t2 18.5t5 24q38 122 72 202.5t67 130.5q5 -26 17.5 -47t32.5 -41q4 -4 12 -9t17 -9.5t19 -7.5t19 -3q7 0 15 1.5t13 5.5q29 24 54 58.5t45.5 73t37.5 77.5t29 71q4 11 4 16q0 6 2 12q4 15 7 32t3 38q0 22 -5.5 29.5t-10.5 10.5q-29 20 -48 27t-36 7
q-2 0 -5 -0.5t-11 -5.5q-24 -13 -44 -29t-38 -33t-34 -33t-31 -29q-3 0 -3 2q5 16 15.5 44t22.5 61.5t24.5 69.5t22.5 67.5t16.5 55.5t6.5 34zM389 386q6 4 8 4q3 0 3 -6q0 -4 -3 -20t-10 -42q-11 -42 -24 -74.5t-18 -43.5q-2 -5 -9.5 -21.5t-18.5 -36.5t-24 -40t-25 -32
q-4 -4 -9 -4q-10 0 -18.5 11t-15 26.5t-10 32.5t-3.5 29q0 27 5 35q13 22 32.5 47.5t42.5 50t48 46.5t49 38z" />
    <glyph glyph-name="ydieresis" unicode="&#xff;" horiz-adv-x="436" 
d="M252 460q0 10 -9 16t-17 6t-16 2.5t-12 2.5q-5 0 -17.5 -7t-17.5 -22q-15 -49 -32.5 -92.5t-33.5 -86.5t-26.5 -88t-10.5 -97q0 -12 1 -15.5t5 -8.5q33 -40 95 -40q4 0 16.5 7t29 18.5t34 25t30.5 26.5q11 11 14 11t3 -4q0 -1 -0.5 -3.5t-2 -9t-5.5 -18.5t-10 -32
q-10 -31 -20.5 -63.5t-19 -61t-14 -49t-6.5 -27.5q-26 -43 -47.5 -87.5t-38.5 -83.5q-21 -50 -21 -79q0 -14 4 -21.5t9.5 -11t12 -4.5t12.5 -1q9 0 15 1.5t12 2.5q20 3 31 14.5t17 27t8.5 33t5.5 32.5q15 72 42.5 143t78.5 139q2 3 4 8.5t2 16.5q0 5 -6.5 8t-11.5 3
q-2 0 -4.5 -0.5t-4.5 -0.5q-4 0 -4 2q0 3 2.5 11t9.5 29q3 9 10.5 30t16.5 44.5t17 45t11 30.5q12 35 27 67.5t34 61.5q8 13 11.5 19t7.5 11q8 12 15.5 24.5t7.5 26.5q0 5 -1 11.5t-4.5 12t-10.5 9t-19 3.5t-17.5 3.5t-13.5 3.5q-7 0 -15.5 -12t-10.5 -18q-18 -48 -36 -79.5
t-34.5 -53t-31 -36t-26.5 -28.5q-12 -15 -21.5 -24t-15.5 -16q-28 -32 -46.5 -45.5t-32.5 -20.5q-12 -6 -22 -6q-5 0 -5 16q0 8 1.5 16t3.5 16t3.5 15.5t4.5 16.5q10 30 17 55t14.5 48.5t16.5 48t22 52.5q3 6 5 8t4.5 5t6.5 8.5t10 16.5t8 20t2 22zM335 651q-5 9 -18.5 11
t-21.5 2q-12 0 -21 -3t-14 -13q-4 -8 -8.5 -22t-4.5 -19q0 -27 2 -29q5 -5 8 -11t12 -12q2 -2 7 -2h8q4 0 10.5 1t12.5 3.5t11 5.5t5 7q0 3 4 7.5t8 10.5t7.5 14t3.5 17q0 5 -3 14.5t-8 17.5zM520 593q-2 9 -14 13.5t-25 4.5q-5 0 -11.5 0.5t-8.5 0.5q-8 0 -13.5 -6.5
t-9.5 -15t-6 -16.5t-2 -11q0 -15 8 -23.5t13 -19.5q7 -15 24 -15q5 0 14.5 1t14.5 3q6 3 11.5 11t13.5 25q2 4 2 16q0 8 -4.5 16.5t-6.5 15.5z" />
    <glyph glyph-name="dotlessi" unicode="&#x131;" horiz-adv-x="220" 
d="M278 72q6 6 11 12t5 15q0 3 -0.5 6.5t-5.5 7.5t-12 5.5t-13 1.5q-12 0 -20.5 -4.5t-26.5 -17.5q-15 -11 -25 -17.5t-18 -10t-15 -5t-15 -1.5q-13 0 -15.5 12.5t-2.5 19.5q0 11 5.5 37.5t18.5 60.5q5 14 12.5 32.5t16 38.5t16.5 38.5t14 32.5q9 18 20 33t20.5 29
t16.5 29.5t7 35.5q0 7 -2 10t-6 6q-5 5 -13.5 6.5t-16.5 1.5q-14 0 -28 -5.5t-22 -21.5q-28 -58 -51 -112.5t-46 -109.5q-5 -11 -8.5 -23.5t-8.5 -26.5q-9 -26 -12.5 -44t-3.5 -37q0 -11 1 -21t4 -21q4 -14 12 -28t18.5 -25.5t22 -18.5t22.5 -7q34 0 60.5 17t42.5 31z" />
    <glyph glyph-name="Lslash" unicode="&#x141;" horiz-adv-x="470" 
d="M323 365q-11 -5 -15 -6.5t-7 -1.5t-3 4q0 2 3.5 10t8 18t9.5 20.5t8 17.5q9 20 15 30.5t12 25.5q11 29 23 50.5t28 34.5q6 5 6 9q0 11 7 21t7 30q0 6 -10 12.5t-19 8.5q-15 4 -18 8.5t-10 4.5q-5 0 -16 -1.5t-15 -9.5q-39 -87 -78.5 -168t-77.5 -167q-5 -12 -13.5 -15.5
t-30.5 -11.5q-12 -5 -21.5 -9.5t-11.5 -13.5q-1 -5 -2.5 -7.5t-3 -4.5t-2.5 -6t-1 -12q0 -24 5 -29t12 -5q5 0 11 3t8 3q4 0 4 -4q0 -1 -2 -7t-5 -14.5t-6 -18t-6 -16.5q-5 -14 -6.5 -22t-2.5 -13t-1.5 -8.5t-2.5 -9.5q-8 -19 -12.5 -32t-4.5 -24q0 -9 4 -14q6 -8 14 -18
t18.5 -19t22.5 -15t27 -6q41 0 77.5 8.5t72 20.5t71 25t73.5 22q6 2 9 2h10q23 0 31 2.5t11 7.5q2 4 2.5 7.5t0.5 6.5q0 8 -3 11t-3 6q0 4 -2.5 7t-4.5 5q-12 12 -29 19t-25 7q-13 0 -18 -2q-47 -19 -97.5 -37t-103.5 -32q-17 -5 -27.5 -6.5t-14.5 -1.5q-7 0 -11 6t-4 13
q0 11 4 21q16 45 29.5 82.5t30.5 81.5q2 6 5.5 9t11.5 6t25 9t35.5 12.5t35.5 13.5t24 12q9 6 18.5 7t10.5 8q1 8 4 11t7 17q1 4 2 8.5t1 16.5q0 5 -3 10.5t-6 8.5t-8 3t-9 -1q-5 -1 -15 -5t-21.5 -9t-24 -10.5t-21.5 -10.5z" />
    <glyph glyph-name="lslash" unicode="&#x142;" horiz-adv-x="254" 
d="M144 -18q29 0 52 12.5t42.5 32t37.5 42.5t37 44q8 8 14 13t6 15q0 12 -14 17.5t-20 5.5q-17 0 -35 -13.5t-35.5 -32t-35 -37.5t-33.5 -29q-7 -4 -17 -4q-16 0 -20 12q-3 10 -4 19t-1 18q0 33 13 62.5t25 60.5q4 10 8.5 19t9.5 13q25 19 43 25t41 17q9 4 21.5 8.5t25 8.5
t23 8t15.5 7q17 13 22.5 19t5.5 22q0 11 -1.5 19t-11.5 8q-31 0 -63 -13.5t-56 -24.5q-11 -5 -15 -5q-3 0 -3 3q0 1 0.5 2.5t5.5 10.5q13 25 31.5 55t41 63.5t47 70t48.5 75.5q2 4 7 10t9.5 13t8 13.5t3.5 11.5q0 16 -4 25.5t-9 13.5t-11 5t-9 1q-11 0 -22.5 -1t-22.5 -6
q-18 -8 -35 -31.5t-30 -49.5q-40 -79 -83.5 -158.5t-78.5 -155.5q-6 -14 -12.5 -22.5t-14.5 -15t-18 -11.5t-23 -10q-4 -2 -9 -5t-10 -10q-7 -10 -10 -17.5t-3 -21.5t4.5 -19t9.5 -5t9 1.5t9 1.5q8 0 8 -6q0 -5 -0.5 -8t-3.5 -12q-13 -37 -13 -69q0 -18 3 -34
q4 -21 19 -35.5t32 -23.5t31.5 -13.5t17.5 -4.5z" />
    <glyph glyph-name="OE" unicode="&#x152;" horiz-adv-x="754" 
d="M550 501q3 12 7 16.5t17 9.5q24 10 53.5 19.5t62 17t65.5 12.5t65 5q18 0 30.5 -1.5t21.5 -3t17 -2.5t19 -1q16 0 16 38q0 17 -17 27t-39 12q-8 1 -14.5 2.5t-14.5 1.5q-47 0 -91 -7.5t-86 -17.5q-21 -5 -37.5 -9.5t-31.5 -9t-30 -9.5t-34 -12t-24 -7q-6 0 -10 5
q-12 16 -32 26q-17 8 -37.5 13t-62.5 5q-19 0 -59 -30t-91 -103q-56 -80 -87.5 -164t-33.5 -187q0 -21 3.5 -43.5t13 -43.5t26 -40t43.5 -34q10 -5 29 -7.5t34 -2.5q25 0 40 2.5t25 6t17.5 6t17.5 2.5q8 0 21.5 -6.5t31.5 -6.5q16 0 52.5 5t84 15.5t99.5 28t100 43.5
q11 6 24 11.5t24 13.5q9 7 10.5 15.5t1.5 11.5q0 5 -4 11t-10 11.5t-12.5 9t-12.5 3.5q-24 0 -45 -7.5t-40.5 -17.5t-39 -21t-40.5 -18q-25 -8 -50 -15t-46.5 -12t-38.5 -7.5t-25 -2.5t-12 3.5t-4 6.5q0 9 6 23q20 46 36.5 88t30.5 77q5 14 10 17.5t14 5.5q23 6 46 15
t46.5 17t47 14t48.5 6q8 0 15.5 -1.5t15.5 -1.5q1 0 7 0.5t13 5t12 14t5 26.5q0 11 -3 14t-12 6q-17 6 -31 9t-29 3q-18 0 -40.5 -4.5t-42.5 -10.5t-36.5 -12t-22.5 -9q-15 -6 -19 -6q-5 0 -5 5q0 3 4 20q3 13 6.5 29.5t6.5 32t6 29t5 21.5zM416 547q2 -14 7.5 -29t19.5 -24
q7 -5 12 -3.5t5 -9.5q0 -4 -3 -18.5t-8 -34t-12 -42.5t-15 -44q-3 -8 -6.5 -10.5t-14.5 -4.5q-21 -3 -21 -11q0 -17 2 -25t8 -17q5 -8 5 -12q0 -3 -4 -14q-14 -38 -26 -65.5t-22.5 -47.5t-20 -34t-19.5 -26q-14 -16 -31.5 -24t-31.5 -8q-21 0 -34 11t-20.5 26.5t-10 34
t-2.5 33.5q0 24 3 46.5t3 36.5q0 13 9 42q24 78 66 147t103 127q13 12 19.5 14t10.5 2q10 0 18.5 -3t10.5 -13z" />
    <glyph glyph-name="oe" unicode="&#x153;" horiz-adv-x="572" 
d="M263 62q12 17 15.5 20.5t5.5 3.5q3 0 6 -8q5 -13 11.5 -23.5t20.5 -20.5q25 -17 48.5 -27t49.5 -10q17 0 26 4q22 10 46.5 23.5t53.5 34.5t64.5 52.5t80.5 76.5q5 5 6.5 9t1.5 9q0 7 -6 16q-2 2 -10 4.5t-17 2.5t-16 -5q-28 -21 -48 -37.5t-38 -31.5t-37 -29t-45 -30
q-32 -20 -50 -27.5t-29 -7.5q-9 0 -15.5 2.5t-17.5 12.5q-12 11 -14.5 20.5t-2.5 12.5q0 4 1.5 6t8.5 6q34 19 66 44.5t61.5 55t56 60t50.5 60.5q6 8 13.5 21.5t13.5 29.5t10 33t4 31q0 13 -5 24q-8 18 -26 27t-41 9q-31 0 -64.5 -13.5t-55.5 -33.5q-15 -14 -23.5 -23
t-19.5 -20q-2 5 -4 13q-9 21 -15.5 30t-18.5 19q-31 25 -61 25q-23 0 -44.5 -11.5t-40.5 -29t-35 -38t-29 -39.5q-20 -29 -39 -60.5t-33.5 -63.5t-23.5 -65t-9 -64q0 -43 17 -77q12 -24 35.5 -39t44.5 -23q13 -5 24 -5q15 0 29 7t26 17t21.5 21t15.5 19zM309 419
q14 -8 17 -14t3 -22q0 -36 -18 -82.5t-42 -90t-47 -76.5t-33 -42q-5 -5 -13 -12.5t-17 -7.5q-6 0 -12.5 5t-12 12t-9 15t-3.5 15q0 40 12 78.5t31.5 76t45 74t52.5 72.5q16 21 30 21q5 0 5 -4q0 -12 11 -18zM527 369q-38 -42 -72.5 -81t-75.5 -72q-13 -10 -18 -10q-2 0 -2 3
t3 14q18 63 61.5 115t94.5 100q10 9 19.5 12.5t14.5 3.5q9 0 9 -12q0 -8 -4 -19t-9 -21.5t-11 -19.5t-10 -13z" />
    <glyph glyph-name="Scaron" unicode="&#x160;" horiz-adv-x="432" 
d="M451 596q-33 36 -71.5 47t-78.5 11q-20 0 -31 -9.5t-17.5 -23.5t-9 -30t-5.5 -28q-1 -5 -1 -22q0 -7 1 -18.5t2.5 -23t3 -21.5t2.5 -14q8 -42 18.5 -81t21.5 -76.5t21 -76t16 -80.5q2 -15 3.5 -36t1.5 -41q0 -16 -11 -26.5t-23 -10.5q-14 0 -26 4q-21 7 -42 19t-40 27.5
t-34 32.5t-25 35q-2 5 -4 9t-2 7q0 16 3.5 22.5t3.5 17.5q0 4 -10.5 15t-24.5 20q-10 6 -24 10t-27 4q-8 0 -15 -11t-7 -18v-15t2 -15q4 -21 11 -36.5t15 -27t16 -19.5t14 -15q48 -60 110.5 -95.5t129.5 -35.5q17 0 25 0.5t14 2.5q28 11 45 34.5t17 54.5q0 14 -1 26t-6 40
q-5 30 -14.5 68.5t-20 77.5t-20.5 75t-16 60q-10 41 -12 66t-2 33q0 37 9.5 58t14.5 21q11 0 22 -6t17 -16.5t9 -21.5t5.5 -21t6.5 -16q5 -7 17.5 -19t26.5 -16q10 -3 17 -3q8 0 14.5 4t6.5 9t-2 14l-4 18q-3 19 -11 41.5t-25 40.5zM436 689l111 71q11 7 14.5 9.5t5.5 7.5
q4 8 4 15q0 5 -1 8t-1 7q0 11 -3 14t-8 3t-14 -5l-64 -35q-13 -7 -27.5 -16t-19.5 -9q-6 0 -10 7q-16 27 -25.5 42.5t-14 23.5t-6 11.5t-1.5 5.5q-2 6 -9 6q-6 0 -10.5 -1.5t-6.5 -1.5q-5 0 -16 -16q-5 -7 -6 -10.5t-1 -7.5q0 -5 -0.5 -6.5t-0.5 -4.5q0 -5 4 -14t18 -30
l49 -70q5 -8 9 -9t9 -1q4 0 6 1q3 2 6 1.5t9 3.5z" />
    <glyph glyph-name="scaron" unicode="&#x161;" horiz-adv-x="296" 
d="M347 464q-16 16 -36.5 26t-61.5 10q-14 0 -40.5 -14.5t-48.5 -49.5q-9 -14 -16 -31t-11.5 -34t-6.5 -32t-2 -25q0 -8 3 -36.5t7.5 -64.5t10.5 -73t11 -62q4 -19 4.5 -23.5t0.5 -7.5q0 -8 -10 -8q-4 0 -8 2t-12 9q-11 10 -19.5 22t-15.5 24.5l-14 25t-16 24.5
q-7 9 -15 11.5t-23 2.5q-16 0 -26 -13t-10 -24q0 -2 2 -6.5t4 -8.5q25 -42 60.5 -78t85.5 -56q10 -4 25 -4q20 0 34.5 11t28.5 25q8 8 8 18q0 15 -3.5 42t-9 59t-11 65.5t-8.5 61.5q-1 5 -2 14.5t-2 20t-2 19t-1 10.5q0 9 0.5 15t1.5 11q3 17 12 35.5t19 33.5t18.5 24.5
t11.5 9.5q6 0 12.5 -4.5t9.5 -9.5t5 -13t2 -14q0 -13 -5 -24t-12 -22q-3 -5 -3 -8q0 -20 15 -32q5 -5 16 -9t19 -4q4 0 6 1.5t8 9.5q11 14 20 34t9 49q0 15 -4 34.5t-15 30.5zM356 547l111 71q11 7 14.5 9.5t5.5 7.5q4 8 4 15q0 5 -1 8t-1 7q0 11 -3 14t-8 3t-14 -5l-64 -35
q-13 -7 -27.5 -16t-19.5 -9q-6 0 -10 7q-16 27 -25.5 42.5t-14 23.5t-6 11.5t-1.5 5.5q-2 6 -9 6q-6 0 -10.5 -1.5t-6.5 -1.5q-5 0 -16 -16q-5 -7 -6 -10.5t-1 -7.5q0 -5 -0.5 -6.5t-0.5 -4.5q0 -5 4 -14t18 -30l49 -70q5 -8 9 -9t9 -1q4 0 6 1q3 2 6 1.5t9 3.5z" />
    <glyph glyph-name="Ydieresis" unicode="&#x178;" horiz-adv-x="502" 
d="M257 668q-14 2 -29 5.5t-34 3.5q-5 0 -8 -9q-15 -53 -26.5 -105.5t-20.5 -108.5q-2 -14 -5.5 -21.5t-3.5 -23.5q0 -14 -2 -20t-3 -16q-1 -16 -2 -34t-1.5 -34t-1 -27t-0.5 -12q0 -9 10.5 -25t29.5 -33q10 -9 20.5 -16t20.5 -12.5t17 -8.5t10 -3q24 0 45.5 7t38.5 17.5
t29.5 21.5t19.5 19l8 9q-26 -88 -51 -177.5t-41 -174.5q-3 -17 -5.5 -32t-5.5 -28q-6 -28 -14 -56.5t-8 -61.5q0 -8 0.5 -17t1.5 -13q2 -10 14.5 -16.5t32.5 -9.5q10 -2 15.5 -3.5t10.5 -1.5q6 0 6 8q0 5 2 10t4 20q39 288 107.5 501.5t174.5 362.5q4 5 5 8.5t1 5.5
q0 4 -4 15t-7 14q-13 13 -31.5 17.5t-28.5 4.5q-4 0 -11 -10q-5 -7 -23 -35.5t-41 -74.5q-37 -72 -65 -110.5t-44 -54.5q-22 -22 -49.5 -43.5t-63.5 -44.5q-8 -5 -16 -6.5t-14 -1.5q-10 0 -14.5 3.5t-4.5 6.5q0 32 4 71t10.5 81t14.5 85t16 83q3 14 7 23t7.5 16.5t6 14.5
t2.5 18q0 8 -4 18t-9 11zM392 821q-5 9 -18.5 11t-21.5 2q-12 0 -21 -3t-14 -13q-4 -8 -8.5 -22t-4.5 -19q0 -27 2 -29q5 -5 8 -11t12 -12q2 -2 7 -2h8q4 0 10.5 1t12.5 3.5t11 5.5t5 7q0 3 4 7.5t8 10.5t7.5 14t3.5 17q0 5 -3 14.5t-8 17.5zM577 763q-2 9 -14 13.5t-25 4.5
q-5 0 -11.5 0.5t-8.5 0.5q-8 0 -13.5 -6.5t-9.5 -15t-6 -16.5t-2 -11q0 -15 8 -23.5t13 -19.5q7 -15 24 -15q5 0 14.5 1t14.5 3q6 3 11.5 11t13.5 25q2 4 2 16q0 8 -4.5 16.5t-6.5 15.5z" />
    <glyph glyph-name="Zcaron" unicode="&#x17d;" horiz-adv-x="560" 
d="M659 555q0 6 -7.5 15t-16.5 18t-17.5 16t-11.5 9q-41 23 -88.5 34t-95.5 11q-56 0 -108.5 -13t-91.5 -39q-3 -2 -3.5 -4t-0.5 -9q6 -26 12 -39t21 -21q5 -2 12 -4.5t15 -2.5q7 0 14 2t9 5q17 32 56 44.5t80 12.5q16 0 37 -1.5t40 -4.5t32.5 -8.5t13.5 -13.5q0 -3 -2.5 -7
t-4.5 -7q-21 -31 -54.5 -62.5t-71.5 -60t-76 -53.5t-69 -44q-4 -2 -14.5 -4.5t-23 -4.5t-24 -3.5t-15.5 -1.5q-6 0 -21 3t-39 11q-5 2 -11 3.5t-11 1.5q-7 0 -16 -6t-9 -17q0 -16 -1.5 -17.5t-1.5 -8.5q0 -4 2.5 -10t5.5 -10q5 -5 18 -10t27 -7q7 -1 7 -5q0 -2 -6 -7
q-33 -27 -56.5 -47t-39.5 -36t-25 -28.5t-13 -22.5q-2 -5 -2.5 -10t-0.5 -15q0 -7 5.5 -18t12.5 -22t14 -19.5t10 -10.5q48 -30 98 -42.5t102 -12.5q64 0 135 17t134 45q7 3 7.5 6t6.5 3q8 0 8.5 -2t8.5 -2q7 0 7 8q0 13 -12 26t-20 27q-2 3 -7 4.5t-11 3t-11 2t-7 0.5
q-5 0 -11 -2t-17 -6q-21 -8 -50.5 -18.5t-62.5 -20t-66.5 -16.5t-61.5 -7q-18 0 -30.5 4t-25.5 4q-9 0 -18.5 3t-17.5 6.5t-13.5 8t-5.5 7.5q0 4 2 8.5t4 9.5q15 30 39.5 54t53 45.5t58.5 41.5t56 42q28 4 55 10t54.5 12t55.5 10t59 4q16 0 25.5 -0.5t14.5 -0.5t7.5 -0.5
t4.5 -0.5q5 0 10.5 6t5.5 16q0 11 -5 17q-14 18 -40 26t-58 8q-9 0 -9 5q0 2 0.5 3.5t4.5 4.5q7 5 20.5 17t28.5 25.5t29 27t22 22.5q16 17 25.5 28t14.5 20.5t6.5 18.5t1.5 23zM540 704l111 71q11 7 14.5 9.5t5.5 7.5q4 8 4 15q0 5 -1 8t-1 7q0 11 -3 14t-8 3t-14 -5
l-64 -35q-13 -7 -27.5 -16t-19.5 -9q-6 0 -10 7q-16 27 -25.5 42.5t-14 23.5t-6 11.5t-1.5 5.5q-2 6 -9 6q-6 0 -10.5 -1.5t-6.5 -1.5q-5 0 -16 -16q-5 -7 -6 -10.5t-1 -7.5q0 -5 -0.5 -6.5t-0.5 -4.5q0 -5 4 -14t18 -30l49 -70q5 -8 9 -9t9 -1q4 0 6 1q3 2 6 1.5t9 3.5z
" />
    <glyph glyph-name="zcaron" unicode="&#x17e;" horiz-adv-x="384" 
d="M428 410q-4 10 -12.5 16t-13.5 11q-6 8 -32 16t-55 8q-40 0 -81.5 -12t-78.5 -21q-20 -5 -20 -30q0 -9 5 -24q4 -11 14 -20t15 -9t6.5 0.5t2.5 1.5q17 20 40.5 33.5t52.5 16.5q22 2 30 6t20 4q5 0 10.5 -1.5t5.5 -5.5q0 -9 -13.5 -24t-33.5 -26q-17 -9 -31.5 -24.5
t-30 -30t-34 -25t-43.5 -10.5t-41 7t-33 7q-10 0 -18 -6t-8 -13q0 -8 2.5 -14.5t9.5 -18.5q5 -10 13.5 -14t17.5 -7q10 -3 11.5 -4.5t1.5 -4.5t-4.5 -9t-12.5 -14q-16 -17 -31.5 -34.5t-25.5 -38.5q-2 -4 -2.5 -12t-0.5 -13q0 -17 6 -34t24 -28q20 -12 49.5 -19t55.5 -7
q28 0 56 6t54.5 15t52.5 19.5t50 20.5q8 3 9 5.5t1 4.5q0 13 -7 19q-12 11 -23 14.5t-22 3.5q-15 0 -29.5 -6t-28.5 -13.5t-28.5 -13.5t-30.5 -6q-17 0 -34 -6t-32 -6q-12 0 -29 8q-8 4 -11 7t-3 8q0 3 3 12.5t9 14.5q9 8 21 20.5t24.5 27t25.5 28.5t25 25q10 9 16.5 12.5
t26.5 9.5q22 7 46.5 12t47.5 8.5t42.5 5.5t32.5 2q11 0 15.5 3.5t7.5 11.5q0 4 -1.5 6.5t-6.5 8.5q-14 16 -36.5 21.5t-42.5 5.5q-11 0 -11 3t6 8q17 14 30.5 24t22.5 18.5t13.5 17t4.5 20.5q0 10 -4 21zM389 511l111 71q11 7 14.5 9.5t5.5 7.5q4 8 4 15q0 5 -1 8t-1 7
q0 11 -3 14t-8 3t-14 -5l-64 -35q-13 -7 -27.5 -16t-19.5 -9q-6 0 -10 7q-16 27 -25.5 42.5t-14 23.5t-6 11.5t-1.5 5.5q-2 6 -9 6q-6 0 -10.5 -1.5t-6.5 -1.5q-5 0 -16 -16q-5 -7 -6 -10.5t-1 -7.5q0 -5 -0.5 -6.5t-0.5 -4.5q0 -5 4 -14t18 -30l49 -70q5 -8 9 -9t9 -1
q4 0 6 1q3 2 6 1.5t9 3.5z" />
    <glyph glyph-name="florin" unicode="&#x192;" horiz-adv-x="420" 
d="M276 271q5 9 19 9q27 0 46.5 3t38 7t38.5 7t48 3q8 0 8 19q0 12 -3.5 13.5t-5.5 10.5t-11.5 16t-17.5 7h-21q-9 0 -24 -1t-30 -2.5t-27.5 -2.5t-17.5 -1t-5.5 2.5t-0.5 6.5q8 20 16 42.5t17 45.5q19 52 38.5 80.5t37.5 42t33 16.5t26 3q6 0 9 -0.5t7 -1.5t11.5 -1.5
t22.5 -0.5q10 0 10.5 4t10.5 4q12 0 17 7t10 21q3 7 3 15q0 5 -1.5 5.5t-1.5 5.5q0 11 -7 13t-14 3q-14 2 -28 3.5t-28 1.5q-36 0 -69.5 -9.5t-63 -31t-54.5 -55t-43 -81.5q-15 -38 -21 -52.5t-9.5 -22.5t-7.5 -18t-14 -38q-3 -9 -9 -11.5t-9 -2.5q-7 0 -17 1t-20.5 2
t-19.5 2t-15 1q-4 0 -9 -7t-5 -15q0 -5 1.5 -10t1.5 -9q0 -11 7 -17.5t16 -11t18.5 -7.5t14.5 -7q2 -2 3.5 -4t1.5 -7q0 -2 -5 -15q-17 -47 -39 -104.5t-51 -129.5q-17 -43 -31.5 -67t-23.5 -33q-29 -29 -69 -29q-8 0 -8.5 1t-3.5 2t-13 2t-37 1q-42 0 -50 -23
q-3 -12 -9.5 -20t-6.5 -25q0 -10 12.5 -12t45.5 -2q11 0 23 -2t23 -2q12 0 38 4t56.5 18.5t61.5 42.5t54 75q5 10 11.5 23.5t20 46.5t37.5 92t63 161z" />
    <glyph glyph-name="circumflex" unicode="&#x2c6;" 
d="M473 833q-5 8 -8 8q-2 0 -4 5q-4 7 -19 7q-4 0 -13 -3l-89 -31q-35 -12 -44 -17t-11 -8q-2 -2 -4 -3.5t-5 -7.5q-2 -4 -2 -21q0 -11 0.5 -16.5t4.5 -7.5q5 -2 10 -7t14 -5q4 0 5 1q3 3 8.5 6.5t17 9.5t30.5 14.5t49 20.5q5 2 6.5 2.5t3.5 0.5q4 0 8 -6l63 -86
q4 -6 10 -10t8 -4q8 0 10.5 2t7.5 9q4 5 9 8t5 11q0 4 -2 9t-9 16z" />
    <glyph glyph-name="caron" unicode="&#x2c7;" 
d="M424 692l111 71q11 7 14.5 9.5t5.5 7.5q4 8 4 15q0 5 -1 8t-1 7q0 11 -3 14t-8 3t-14 -5l-64 -35q-13 -7 -27.5 -16t-19.5 -9q-6 0 -10 7q-16 27 -25.5 42.5t-14 23.5t-6 11.5t-1.5 5.5q-2 6 -9 6q-6 0 -10.5 -1.5t-6.5 -1.5q-5 0 -16 -16q-5 -7 -6 -10.5t-1 -7.5
q0 -5 -0.5 -6.5t-0.5 -4.5q0 -5 4 -14t18 -30l49 -70q5 -8 9 -9t9 -1q4 0 6 1q3 2 6 1.5t9 3.5z" />
    <glyph glyph-name="breve" unicode="&#x2d8;" 
d="M359 804q0 3 -2 9t-5.5 12.5t-7 12t-6.5 8.5q-5 4 -7 4.5t-4 0.5q-4 0 -5.5 -1t-6.5 -6q-9 -9 -18 -8.5t-14 -8.5q-5 -8 -5 -11q0 -4 3 -14q6 -20 16 -41t26 -37.5t37 -27t49 -10.5q21 0 42 7t39.5 18t33.5 24.5t24 27.5q5 7 8 8.5t3 6.5q0 11 -5.5 16t-6.5 12
q-1 8 -4.5 9.5t-13.5 1.5q-8 0 -18.5 -10.5t-24 -23t-30.5 -23t-38 -10.5q-18 0 -29.5 6.5t-18.5 14.5t-9.5 15.5t-2.5 9.5t0.5 4t0.5 4z" />
    <glyph glyph-name="dotaccent" unicode="&#x2d9;" 
d="M472 802q-5 7 -17.5 10.5t-25.5 3.5q-17 0 -29.5 -4t-20.5 -14q-7 -9 -10.5 -19t-3.5 -24q0 -13 2.5 -22t4.5 -13q5 -7 15.5 -14t26.5 -7q17 0 34.5 17t31.5 34q3 4 4 8.5t1 9.5q0 8 -2.5 17t-10.5 17z" />
    <glyph glyph-name="ring" unicode="&#x2da;" 
d="M506 800q-2 9 -17 23.5t-38 20.5q-12 3 -26 3q-18 0 -37 -7q-11 -4 -22.5 -17t-20.5 -29t-14.5 -32.5t-5.5 -27.5q0 -14 8 -28.5t28 -28.5q8 -5 28 -9t35 -4q23 0 37 9.5t21 19.5q26 39 26 83q0 6 -0.5 12t-1.5 12zM442 799q9 -14 9 -28q0 -16 -9 -31t-18 -31
q-4 -6 -14 -6q-9 0 -16 10t-7 25q0 17 8 32.5t19 30.5q3 4 6 5.5t10 1.5q2 0 5.5 -2t6.5 -7z" />
    <glyph glyph-name="ogonek" unicode="&#x2db;" horiz-adv-x="348" 
d="M184 48h-65q-9 -8 -20.5 -22.5t-21 -33t-16.5 -40t-7 -42.5q0 -16 4.5 -30.5t14.5 -25.5t26.5 -17.5t41.5 -6.5q8 0 20 0.5t17 2.5t8 2.5t5 1.5q4 1 9 8q7 10 6 14t4 11t6 10t1 12q0 3 -1 4t-6 3q-8 2 -18 2q-13 0 -18 -1.5t-8 -3l-6 -3t-12 -1.5q-11 0 -22 5.5t-11 25.5
q0 16 7.5 34.5t18 35.5t22.5 31.5t21 23.5z" />
    <glyph glyph-name="tilde" unicode="&#x2dc;" 
d="M265 755q0 -8 11 -11.5t23 -3.5q2 0 4 0.5t6 2.5q21 13 32 17t17 4q4 0 9 -3q3 -2 7.5 -8.5t9.5 -14.5t11 -16t13 -14q14 -11 25.5 -14.5t27.5 -3.5q10 0 22.5 4.5t26 11t26 14.5t23.5 15q8 5 8 10q0 8 -1.5 11.5t-2.5 9.5q-1 7 -6 13t-14 6q-3 0 -15 -4l-25.5 -8.5
t-25.5 -8t-14 -3.5q-14 0 -20.5 7t-20.5 28q-14 20 -24 31t-24 11q-11 0 -19 -1t-26 -8l-63 -23q-5 -2 -7 -7t-2 -7q0 -8 4 -18.5t4 -18.5z" />
    <glyph glyph-name="hungarumlaut" unicode="&#x2dd;" 
d="M343 813q-15 -20 -24.5 -31t-14.5 -17t-6.5 -8.5t-1.5 -5.5q0 -4 2.5 -5t6 -2.5t6.5 -5t5 -12.5q1 -5 4 -9t12 -4q8 0 14 2.5t15 13.5q7 8 25.5 29t35.5 41q14 15 23 25t17 14q10 4 12 9q2 8 8 13.5t6 14.5q0 6 -5.5 12.5t-10.5 10.5q-9 7 -14 11t-9 5l-7.5 2.5t-8.5 1.5
q-2 0 -4 -2q-16 -17 -26.5 -27.5t-21.5 -25.5zM570 784q3 3 8 5.5l9 4.5q4 1 9 6t9.5 10.5t8 11t3.5 8.5q0 17 -13 26q-9 6 -14 13.5t-12 7.5q-15 0 -25.5 -6.5t-20.5 -17.5l-75 -81q-6 -7 -9.5 -12t-15.5 -17q-3 -3 -7.5 -7t-10.5 -14q-2 -3 -2 -7q0 -9 11 -20q2 -2 6 -4.5
t16 -4.5q3 -1 3.5 -3t5.5 -2q4 0 12 8z" />
    <glyph glyph-name="Delta" unicode="&#x394;" horiz-adv-x="600" 
d="M119 -22q60 -3 103.5 -3.5t83.5 -2.5q16 -1 40.5 -3t50.5 -4.5t51.5 -5t43.5 -3.5q9 -1 16 -1h22q9 0 14 2t10 5q12 7 19.5 10.5t12 6t6 6t1.5 10.5q0 5 -0.5 11t-1.5 15q-1 6 -4 11t-10 7q-12 3 -13 10q-18 100 -23.5 189.5t-5.5 166.5q0 51 1 92t3 65q3 43 4 68.5
t2 39.5t1 18v6q0 3 -2.5 4t-5.5 1.5t-6.5 1.5t-5.5 5q-2 3 -6 4.5t-18 1.5q-20 0 -39 -4t-30 -4q-3 0 -9.5 -7.5t-11.5 -13.5q-97 -136 -172.5 -256t-141.5 -238q-26 -46 -43 -69.5t-27 -35t-14 -16.5t-4 -15q0 -4 1.5 -16t4.5 -25t8 -23t13 -10h46h14q8 0 22 -1zM439 47
q-50 6 -97 7.5t-86 2t-68.5 1t-43.5 2.5q-9 2 -11.5 7t-2.5 7q0 3 8 18.5t21.5 40t31 54.5t35.5 62q45 78 98 163.5t110 173.5q5 7 7 8.5t4 1.5t3.5 -2t1.5 -12q0 -135 2.5 -230.5t6 -158t6.5 -96t4 -44.5q0 -8 -7 -8h-6q-3 0 -17 2z" />
    <glyph glyph-name="Omega" unicode="&#x3a9;" horiz-adv-x="722" 
d="M320 69q-26 17 -45.5 36t-33 42.5t-20.5 52.5t-7 67q0 72 24 132t62 103.5t85.5 67.5t95.5 24q36 0 66 -9.5t52.5 -31.5t35 -58t12.5 -88q0 -48 -12.5 -92t-29 -80t-33.5 -61t-26 -34q-24 -25 -37 -36t-19 -15t-7.5 -6.5t-9.5 -6.5q-10 -5 -12 -8.5t-2 -9.5t-6.5 -14
t-6.5 -26q0 -5 3 -11.5t12 -6.5q3 0 11.5 0.5t19 1t21.5 1t17 0.5q17 0 30 -0.5t29 -0.5q12 0 19 0.5t15.5 1t19.5 1t31 0.5q7 0 12 8q3 8 7.5 16.5t4.5 16.5q0 6 -1 7.5t-1 3.5q0 5 2.5 6.5t2.5 5.5q0 2 -5.5 6t-12.5 4q-6 0 -20 -1t-28.5 -1.5t-26 -1.5t-13.5 -1
q-9 0 -9 5q0 2 0.5 3.5t5.5 5.5q40 33 67.5 75.5t44.5 85t24.5 81t7.5 64.5q0 41 -6.5 67.5t-14.5 44.5q-8 19 -17 32.5t-18 24t-18 19.5t-17 20q-17 21 -35.5 34t-41 20t-48 9t-55.5 2q-60 0 -121 -28.5t-110.5 -79t-80.5 -120.5t-31 -152q0 -75 20.5 -123.5t48.5 -77.5
q10 -11 12 -14t2 -5q0 -7 -26 -7q-17 0 -26 0.5t-17 0.5q-7 0 -17.5 0.5t-29.5 0.5q-14 0 -17.5 -3t-3.5 -11q0 -22 3 -31.5t14 -14.5q4 -2 4 -6q0 -2 1 -3.5t6.5 -3t16 -2t30.5 -0.5q13 0 34 1t41 2.5t36 2.5t20 1q26 0 35.5 5.5t9.5 9.5q0 11 6 21t6 21q0 7 -2 10t-9 8z
" />
    </font>
</defs>
</svg>
