<svg xmlns="http://www.w3.org/2000/svg" width="22.997" height="26" viewBox="0 0 22.997 26"><path d="M11.5,26a3.26,3.26,0,0,1-3.286-3.25h6.572a3.3,3.3,0,0,1-.96,2.3A3.373,3.373,0,0,1,11.5,26Zm9.857-4.875H1.643a1.647,1.647,0,0,1-1.5-.959,1.624,1.624,0,0,1,.271-1.747L.8,18a9.7,9.7,0,0,0,2.49-6.48v-.955A8.1,8.1,0,0,1,5.148,5.39,8.218,8.218,0,0,1,9.857,2.6V1.625a1.643,1.643,0,0,1,3.285,0V2.6a8.257,8.257,0,0,1,4.691,2.79,8.081,8.081,0,0,1,1.881,5.173v.955A9.7,9.7,0,0,0,22.2,18l.38.421a1.615,1.615,0,0,1,.272,1.747A1.649,1.649,0,0,1,21.356,21.125Z" transform="translate(-0.001 0)" fill="#fff"/></svg>