<svg xmlns="http://www.w3.org/2000/svg" width="30" height="30" viewBox="0 0 30 30"><path d="M26.786,30H3.214A3.218,3.218,0,0,1,0,26.786V3.214A3.218,3.218,0,0,1,3.214,0H26.786A3.218,3.218,0,0,1,30,3.214V26.786A3.218,3.218,0,0,1,26.786,30ZM15,4.293c-1.908,0-3.6.029-4.42.075A6.329,6.329,0,0,0,6.1,6.094,6.315,6.315,0,0,0,4.365,10.58c-.1,1.775-.1,7.062,0,8.839A6.3,6.3,0,0,0,6.1,23.906a6.344,6.344,0,0,0,4.486,1.732c.818.046,2.512.075,4.42.075s3.6-.029,4.42-.075a6.32,6.32,0,0,0,4.486-1.732,6.328,6.328,0,0,0,1.731-4.486c.1-1.778.1-7.06,0-8.831A6.322,6.322,0,0,0,23.909,6.1a6.333,6.333,0,0,0-4.486-1.731C18.6,4.321,16.91,4.293,15,4.293Zm1.9,19.5c-.4,0-.79,0-1.133-.007-.282,0-.545-.006-.767-.006s-.478,0-.751.005c-.337,0-.716.007-1.109.007a15.313,15.313,0,0,1-4.455-.442,3.626,3.626,0,0,1-2.037-2.037c-.48-1.215-.455-3.84-.439-5.577,0-.27,0-.525,0-.74s0-.473,0-.743c-.016-1.737-.041-4.363.436-5.574A3.625,3.625,0,0,1,8.685,6.647,15.1,15.1,0,0,1,13.111,6.2c.4,0,.786,0,1.127.007.28,0,.542.005.763.005s.473,0,.745-.005c.334,0,.711-.007,1.1-.007a15.358,15.358,0,0,1,4.466.443,3.629,3.629,0,0,1,2.037,2.036c.482,1.212.456,3.826.438,5.556,0,.279-.005.541-.005.762s0,.483.005.76c.017,1.733.044,4.35-.436,5.556a3.63,3.63,0,0,1-2.037,2.037A15.049,15.049,0,0,1,16.9,23.8ZM15,9.509a5.491,5.491,0,1,0,0,10.983h.007A5.491,5.491,0,0,0,15,9.509ZM20.716,8a1.282,1.282,0,0,0,0,2.564h.007a1.265,1.265,0,0,0,.9-.374A1.292,1.292,0,0,0,22,9.279,1.284,1.284,0,0,0,20.716,8ZM15,18.572h0A3.572,3.572,0,1,1,18.573,15,3.576,3.576,0,0,1,15,18.572Z" transform="translate(0 0)" fill="#e5eae4"/></svg>