<svg width="22" height="19" viewBox="0 0 22 19" fill="none" xmlns="http://www.w3.org/2000/svg">
<g clip-path="url(#clip0_121_2)">
<path d="M9.10745e-07 6.39181V6.14181C-6.13208e-05 4.92712 0.360104 3.73971 1.03494 2.72974C1.70978 1.71977 2.66898 0.932611 3.79123 0.467829C4.91347 0.00304708 6.14834 -0.118483 7.33966 0.118609C8.53097 0.355702 9.62522 0.940766 10.484 1.79981L11 2.31381L11.477 1.79881C12.1777 1.10892 13.0312 0.594059 13.9683 0.296066C14.9054 -0.00192791 15.8995 -0.0746509 16.87 0.0838057C18.3038 0.322918 19.6063 1.06297 20.5457 2.17228C21.485 3.28158 22.0004 4.68819 22 6.14181V6.39081C22.001 7.27411 21.8199 8.14813 21.468 8.95833C21.1162 9.76853 20.6011 10.4975 19.955 11.0998L12.19 18.3448C11.8667 18.6456 11.4416 18.8128 11 18.8128C10.5584 18.8128 10.1333 18.6456 9.81 18.3448L2.045 11.0998C1.39929 10.4974 0.884498 9.76854 0.532675 8.95857C0.180852 8.1486 -0.000468927 7.27488 9.10745e-07 6.39181Z" fill="#85B175"/>
</g>
<defs>
<clipPath id="clip0_121_2">
<rect width="22" height="19" fill="white"/>
</clipPath>
</defs>
</svg>
