<svg xmlns="http://www.w3.org/2000/svg" width="22" height="18.814" viewBox="0 0 22 18.814"><g fill="#fff" stroke-miterlimit="10"><path d="M 11 18.31377220153809 C 10.68315982818604 18.31377220153809 10.38162040710449 18.19519233703613 10.15093040466309 17.97988128662109 L 2.386080026626587 10.73109149932861 C 1.187360048294067 9.613701820373535 0.5000100135803223 8.032072067260742 0.5000100135803223 6.391501903533936 L 0.5 6.142261505126953 C 0.5 4.808031558990479 0.9747800230979919 3.512671709060669 1.836889982223511 2.494801759719849 C 2.698790073394775 1.477181673049927 3.89766001701355 0.7960516810417175 5.212669849395752 0.5768917202949524 C 5.513649940490723 0.5257816910743713 5.821229934692383 0.5000016689300537 6.128369808197021 0.5000016689300537 C 7.623370170593262 0.5000016689300537 9.082110404968262 1.102231740951538 10.13055992126465 2.152281761169434 L 10.6467399597168 2.667611598968506 L 11.01403045654297 3.0343017578125 L 11.36676979064941 2.653591632843018 L 11.83483982086182 2.148406505584717 C 12.93008995056152 1.08526873588562 14.35822772979736 0.5000016689300537 15.85774040222168 0.5000016689300537 C 16.16806030273438 0.5000016689300537 16.48085021972656 0.5258716940879822 16.78742980957031 0.5769016742706299 C 18.10264015197754 0.79604172706604 19.30162048339844 1.477161645889282 20.16341018676758 2.494781732559204 C 21.02532005310059 3.512531757354736 21.5 4.80791187286377 21.5 6.142281532287598 L 21.5 6.391501903533936 C 21.5 8.033281326293945 20.81258010864258 9.614831924438477 19.61400032043457 10.73061180114746 L 11.84902000427246 17.97993087768555 C 11.61837959289551 18.19519233703613 11.31684017181396 18.31377220153809 11 18.31377220153809 Z" stroke="none"/><path d="M 6.12837028503418 1.000001907348633 C 5.849159240722656 1.000001907348633 5.56974983215332 1.023410797119141 5.294870376586914 1.07008171081543 C 4.096479415893555 1.269811630249023 3.003910064697266 1.890552520751953 2.218429565429688 2.817961692810059 C 1.432710647583008 3.745632171630859 1 4.926231384277344 1 6.142241477966309 L 1.000009536743164 6.391501426696777 C 1.000009536743164 7.893871307373047 1.629379272460938 9.342191696166992 2.727279663085938 10.36560153961182 L 10.49209022521973 17.61436080932617 C 10.62985992431641 17.74294090270996 10.81023979187012 17.81376266479492 11 17.81376266479492 C 11.18976020812988 17.81376266479492 11.37014007568359 17.74294090270996 11.50780963897705 17.61445236206055 L 19.2733097076416 10.36465167999268 C 20.37064933776855 9.343111991882324 21 7.894961357116699 21 6.391501426696777 L 21 6.142281532287598 C 21 3.617901802062988 19.19376945495605 1.484731674194336 16.70534896850586 1.070121765136719 C 16.42578887939453 1.023591995239258 16.14060974121094 1.000001907348633 15.85774040222168 1.000001907348633 C 14.49327754974365 1.000001907348633 13.1926326751709 1.531808853149414 12.19244194030762 2.498119354248047 L 11.0280704498291 3.754801750183105 L 9.77672004699707 2.505561828613281 C 8.821379661560059 1.548761367797852 7.491609573364258 1.000001907348633 6.12837028503418 1.000001907348633 M 6.128375053405762 0 C 7.732213020324707 0 9.324605941772461 0.6374568939208984 10.48437023162842 1.799001693725586 L 11 2.313760757446289 L 11.47694969177246 1.799001693725586 C 12.91641044616699 0.3960723876953125 14.91015815734863 -0.2424430847167969 16.86952972412109 0.08369255065917969 C 19.83008003234863 0.5769710540771484 22 3.138772010803223 22 6.142281532287598 L 22 6.391501426696777 C 22 8.174701690673828 21.26094055175781 9.880561828613281 19.95468902587891 11.09658145904541 L 12.19023036956787 18.34541130065918 C 11.86797046661377 18.64619255065918 11.4425802230835 18.81376075744629 11 18.81376075744629 C 10.5574197769165 18.81376075744629 10.13202953338623 18.64619255065918 9.809769630432129 18.34541130065918 L 2.044879913330078 11.09658145904541 C 0.7403507232666016 9.880561828613281 9.5367431640625e-06 8.174701690673828 9.5367431640625e-06 6.391501426696777 L 0 6.391501426696777 L 0 6.142281532287598 C 0 3.138772010803223 2.170780181884766 0.5769710540771484 5.130470275878906 0.08369255065917969 C 5.460941314697266 0.02757644653320312 5.795074462890625 0 6.128375053405762 0 Z" stroke="none" fill="#85b175"/></g></svg>