<svg width="12" height="7" viewBox="0 0 12 7" fill="none" xmlns="http://www.w3.org/2000/svg">
<path d="M5.98407 6.35324C5.72418 6.35524 5.47286 6.26041 5.27907 6.08724L0.292067 1.54924C0.200428 1.46936 0.126966 1.37078 0.0766279 1.26012C0.0262899 1.14947 0.000244141 1.02931 0.000244141 0.907742C0.000244141 0.786175 0.0262899 0.666019 0.0766279 0.555363C0.126966 0.444708 0.200428 0.346122 0.292067 0.266242C0.486981 0.0949556 0.737586 0.000488281 0.997067 0.000488281C1.25655 0.000488281 1.50715 0.0949556 1.70207 0.266242L5.98407 4.16624L10.2671 0.266242C10.462 0.0949556 10.7126 0.000488281 10.9721 0.000488281C11.2316 0.000488281 11.4822 0.0949556 11.6771 0.266242C11.7687 0.346122 11.8422 0.444708 11.8925 0.555363C11.9429 0.666019 11.9689 0.786175 11.9689 0.907742C11.9689 1.02931 11.9429 1.14947 11.8925 1.26012C11.8422 1.37078 11.7687 1.46936 11.6771 1.54924L6.69007 6.08824C6.49582 6.2612 6.24415 6.35567 5.98407 6.35324Z" fill="white"/>
</svg>
