<svg xmlns="http://www.w3.org/2000/svg" width="28.952" height="28.954" viewBox="0 0 28.952 28.954"><path d="M26.69,28.954a2.248,2.248,0,0,1-1.6-.663l-6.768-6.768a11.7,11.7,0,0,1-6.562,2,12.266,12.266,0,0,1-1.62-.109,11.764,11.764,0,0,1-9.6-15.2A11.775,11.775,0,0,1,11.764,0,12.281,12.281,0,0,1,13.3.1,11.757,11.757,0,0,1,21.521,18.32l6.769,6.769a2.264,2.264,0,0,1-1.6,3.865ZM11.711,4.523a7.238,7.238,0,1,0,7.238,7.238A7.246,7.246,0,0,0,11.711,4.523Z" transform="translate(0.001 0)" fill="#516949"/></svg>